<?xml version="1.0" encoding="UTF-8"?>
<svg width="50px" height="50px" viewBox="0 0 50 50" version="1.1" xmlns="http://www.w3.org/2000/svg" xmlns:xlink="http://www.w3.org/1999/xlink">
    <!-- Generator: Sketch 60 (88103) - https://sketch.com -->
    <title>Freschat Logo</title>
    <desc>Created with Sketch.</desc>
    <g id="Freschat-Logo" stroke="none" stroke-width="1" fill="none" fill-rule="evenodd">
        <g id="Group" transform="translate(17.448429, 20.000000)" fill="#FFFFFF">
            <path d="M9.97857143,5.63486111 L1.18428571,5.63486111 C0.53,5.63486111 -2.39808173e-14,6.15013889 -2.39808173e-14,6.78625 C-2.39808173e-14,7.42236111 0.53,7.93763889 1.18428571,7.93763889 L9.97857143,7.93763889 C10.6328571,7.93763889 11.1628571,7.42236111 11.1628571,6.78625 C11.1628571,6.15013889 10.6328571,5.63486111 9.97857143,5.63486111" id="Fill-1"></path>
            <path d="M15.3914286,1.22124533e-14 L1.18428571,1.22124533e-14 C0.53,1.22124533e-14 8.8817842e-15,0.515277778 8.8817842e-15,1.15138889 C8.8817842e-15,1.7875 0.53,2.30277778 1.18428571,2.30277778 L15.3914286,2.30277778 C16.0457143,2.30277778 16.5757143,1.7875 16.5757143,1.15138889 C16.5757143,0.515277778 16.0457143,1.22124533e-14 15.3914286,1.22124533e-14" id="Fill-3"></path>
        </g>
        <g id="Group-7" transform="translate(0.000000, 0.136111)" fill="#FFFFFF">
            <path d="M38.6876093,26.749566 C38.6876093,30.1552373 35.9062682,32.9156539 32.4747813,32.9156539 L15.2153061,32.9156539 C14.4529155,32.9156539 13.8348397,32.302228 13.8348397,31.5455729 L13.8348397,21.052228 C13.8348397,17.6480035 16.6161808,14.88614 20.0476676,14.88614 L32.4747813,14.88614 C35.9062682,14.88614 38.6876093,17.6480035 38.6876093,21.052228 L38.6876093,26.749566 Z M43.4922741,0.263744213 L24.8523324,0.263744213 C11.1263848,0.263744213 -0.000437317784,11.3068576 -0.000437317784,24.9295428 C-0.000437317784,38.552228 11.1263848,49.5953414 24.8523324,49.5953414 C38.5782799,49.5953414 49.705102,38.552228 49.705102,24.9295428 L49.705102,6.42983218 C49.705102,3.02416088 46.9237609,0.263744213 43.4922741,0.263744213 L43.4922741,0.263744213 Z" id="Fill-5"></path>
        </g>
    </g>
</svg>