<?xml version="1.0" encoding="UTF-8"?>
<svg width="20px" height="20px" viewBox="0 0 20 20" version="1.1" xmlns="http://www.w3.org/2000/svg" xmlns:xlink="http://www.w3.org/1999/xlink">
    <!-- Generator: Sketch 53.2 (72643) - https://sketchapp.com -->
    <title>Snooze</title>
    <desc>Created with Sketch.</desc>
    <g id="Snooze" stroke="none" stroke-width="1" fill="#FFFFFF" fill-rule="evenodd">
        <path d="M16.6450579,15.5422606 C17.0509127,15.4589384 17.3415248,15.9588718 17.0759655,16.2973683 C15.2821874,18.599145 12.5764887,20 9.61024115,20 C4.29905469,20 -9.23705556e-14,15.52143 -9.23705556e-14,10.0013322 C-9.23705556e-14,3.75216478 5.44647139,-0.965956607 11.3739559,0.169308803 C11.7848213,0.252631035 11.8800218,0.82547138 11.5142514,1.0389846 C9.1542808,2.43463198 7.70122035,5.02803645 7.70122035,7.85057706 C7.70122035,12.7457582 11.9802328,16.4640128 16.6450579,15.5422606 Z M19.2284888,5.65408414 C19.7366011,5.65408414 20,5.87955279 20,6.30547034 C20,6.76469906 19.7366011,6.99016771 19.2284888,6.99016771 L15.3614263,6.99016771 C14.881506,6.99016771 14.6276138,6.75640763 14.6276138,6.28045059 C14.6276138,6.08843858 14.6935045,5.91300942 14.7875872,5.77103691 L17.7325078,1.82969948 L15.512057,1.82969948 C15.0039447,1.82969948 14.7498885,1.60423083 14.7498885,1.17002185 C14.7498885,0.710793131 15.0039447,0.493761374 15.512057,0.493761374 L19.0121313,0.493761374 C19.6426823,0.493761374 19.8872318,0.77741548 19.8872318,1.12827379 C19.8872318,1.32872269 19.7744637,1.53746302 19.6426823,1.7211836 L16.6975978,5.65408414 L19.2284888,5.65408414 Z M13.3762392,8.22117153 C13.65237,8.22117153 13.7953663,8.34536838 13.7953663,8.57964881 C13.7953663,8.83261253 13.6522206,8.95680939 13.3762392,8.95680939 L11.2755234,8.95680939 C11.014783,8.95680939 10.876867,8.82817693 10.876867,8.56607318 C10.876867,8.46029079 10.9125787,8.36378285 10.9636808,8.28555496 L12.5636855,6.11533591 L11.3572569,6.11533591 C11.0812755,6.11533591 10.9432101,5.99113906 10.9432101,5.75201979 C10.9432101,5.49905607 11.0811261,5.37956364 11.3572569,5.37956364 L13.2586446,5.37956364 C13.6012679,5.37956364 13.734253,5.535885 13.734253,5.72903531 C13.734253,5.83938771 13.6728408,5.95431012 13.6012679,6.05552249 L12.0012632,8.22117153 L13.3762392,8.22117153 Z M16.5758291,13.1781293 C16.8601452,13.1781293 17.0077073,13.2998305 17.0077073,13.5296476 C17.0077073,13.7773896 16.8603658,13.8990908 16.5758291,13.8990908 L14.4109239,13.8990908 C14.1422683,13.8990908 14,13.7728612 14,13.5160623 C14,13.4124748 14.0368354,13.3177554 14.0895519,13.2411497 L15.7383207,11.1143038 L14.4951821,11.1143038 C14.2106454,11.1143038 14.068377,10.9926026 14.068377,10.7582571 C14.068377,10.510515 14.2106454,10.3933423 14.4951821,10.3933423 L16.4547356,10.3933423 C16.8076493,10.3933423 16.944624,10.5465537 16.944624,10.7358037 C16.944624,10.8439196 16.8813201,10.956564 16.8076493,11.0558118 L15.1588805,13.1781293 L16.5758291,13.1781293 Z" id="Combined-Shape" fill="#FFFFFF" fill-rule="nonzero"></path>
    </g>
</svg>