<?xml version="1.0" encoding="utf-8"?>
<!-- Generator: Adobe Illustrator 21.0.2, SVG Export Plug-In . SVG Version: 6.00 Build 0)  -->
<svg version="1.1" id="Layer_1" xmlns="http://www.w3.org/2000/svg" xmlns:xlink="http://www.w3.org/1999/xlink" x="0px" y="0px"
	 viewBox="0 0 507.2 507.2" style="enable-background:new 0 0 507.2 507.2;" xml:space="preserve">
<style type="text/css">
	.st0{fill:#5A9A4C;}
	.st1{fill:#487C39;}
	.st2{fill:#FFFFFF;}
</style>
<circle class="st0" cx="253.6" cy="253.6" r="253.6"/>
<path class="st1" d="M188.8,368l130.4,130.4c108-28.8,188-127.2,188-244.8c0-2.4,0-4.8,0-7.2L404.8,152L188.8,368z"/>
<g>
	<path class="st2" d="M260,310.4c11.2,11.2,11.2,30.4,0,41.6l-23.2,23.2c-11.2,11.2-30.4,11.2-41.6,0L93.6,272.8
		c-11.2-11.2-11.2-30.4,0-41.6l23.2-23.2c11.2-11.2,30.4-11.2,41.6,0L260,310.4z"/>
	<path class="st2" d="M348.8,133.6c11.2-11.2,30.4-11.2,41.6,0l23.2,23.2c11.2,11.2,11.2,30.4,0,41.6l-176,175.2
		c-11.2,11.2-30.4,11.2-41.6,0l-23.2-23.2c-11.2-11.2-11.2-30.4,0-41.6L348.8,133.6z"/>
</g>
</svg>
