<svg id="Layer_1" data-name="Layer 1" xmlns="http://www.w3.org/2000/svg" viewBox="0 0 51.42 51.74"><defs><style>.cls-1{fill:#967b6c;}.cls-1,.cls-3{stroke:#000;stroke-miterlimit:10;}.cls-2{fill:#f7cd79;}.cls-3{fill:none;stroke-linecap:round;}.cls-4{fill:#053f07;}</style></defs><title>money final 2</title><path class="cls-1" d="M30.23,35.13,36.48,3,51.18,5.85,45,38Z" transform="translate(-0.35 0.16)"/><path class="cls-2" d="M34.92,24,34,28.88l2.11,3.39,0,0,4.36.85,3.24-2.08,1-5.09,2-10.3.94-4.85L45.55,7.41l0,0-4.36-.86L37.92,8.61l-1,5.1Z" transform="translate(-0.35 0.16)"/><polyline class="cls-3" points="36.24 15.06 37.48 8.94 40.71 6.86 45.07 7.71 47.24 11.11 46.19 16.5"/><polyline class="cls-3" points="34.77 23.15 33.76 29.31 36.04 32.39 40.43 33.13 43.66 30.72 44.59 25.3"/><polygon class="cls-4" points="45.16 22.52 35.27 20.11 35.56 18.34 45.46 20.76 45.16 22.52"/><path class="cls-1" d="M26,38.31,27.19,2.37l16.44.55L42.5,38.83Z" transform="translate(-0.35 0.16)"/><path class="cls-2" d="M29.19,25.47,29,30.88l2.88,3.3,0,0,4.87.16L40,31.53l.19-5.69.38-11.52L40.7,8.9,37.8,5.59l0,0L32.88,5.4,29.73,8.23l-.18,5.7Z" transform="translate(-0.35 0.16)"/><polyline class="cls-3" points="29.05 15.44 29.32 8.58 32.46 5.77 37.33 5.93 40.28 9.23 40.08 15.26"/><polyline class="cls-3" points="28.86 24.46 28.84 31.31 31.86 34.26 36.75 34.29 39.83 31.11 39.88 25.08"/><polygon class="cls-4" points="40.02 21.97 28.88 21.08 28.89 19.11 40.03 20 40.02 21.97"/><path class="cls-1" d="M20.89,44.24,14.8,3.54,34.15.62l6.1,40.67Z" transform="translate(-0.35 0.16)"/><path class="cls-2" d="M21.92,29.11l.92,6.13,4.06,3.1H27l5.73-.87,3.09-3.86-1-6.45L32.89,14.12,32,8l-4.07-3.1h-.06l-5.74.86L19,9.58,20,16Z" transform="translate(-0.35 0.16)"/><polyline class="cls-3" points="19.71 17.75 18.61 9.97 21.7 6.14 27.43 5.26 31.56 8.35 32.58 15.18"/><polyline class="cls-3" points="21.36 27.95 22.76 35.67 26.9 38.33 32.62 37.32 35.57 33.08 34.38 26.27"/><polygon class="cls-4" points="33.9 22.74 20.68 24.14 20.28 21.93 33.51 20.52 33.9 22.74"/><path class="cls-1" d="M17.12,50.93,1,8.18,21.5.48l16.13,42.7Z" transform="translate(-0.35 0.16)"/><path class="cls-2" d="M14.73,34.27l2.43,6.44,5.16,2.41h.07l6.07-2.29,2.49-4.91L28.4,29.14,23.25,15.43,20.81,9,15.63,6.57h-.07L9.48,8.85,7,13.76l2.56,6.78Z" transform="translate(-0.35 0.16)"/><polyline class="cls-3" points="9.66 22.36 6.65 14.18 9.14 9.29 15.21 7 20.45 9.38 23.15 16.55"/><polyline class="cls-3" points="13.84 33.04 17.16 41.09 22.31 43.01 28.34 40.57 30.58 35.28 27.7 28.17"/><polygon class="cls-4" points="26.36 24.45 12.21 29.07 11.27 26.76 25.41 22.14 26.36 24.45"/></svg>