G04 #@! TF.GenerationSoftware,KiCad,Pcbnew,(5.1.2)-1*
G04 #@! TF.CreationDate,2020-03-29T12:59:04+05:30*
G04 #@! TF.ProjectId,G6ALU_20WPA,4736414c-555f-4323-9057-50412e6b6963,rev?*
G04 #@! TF.SameCoordinates,Original*
G04 #@! TF.FileFunction,Paste,Bot*
G04 #@! TF.FilePolarity,Positive*
%FSLAX46Y46*%
G04 Gerber Fmt 4.6, Leading zero omitted, Abs format (unit mm)*
G04 Created by KiCad (PCBNEW (5.1.2)-1) date 2020-03-29 12:59:04*
%MOMM*%
%LPD*%
G04 APERTURE LIST*
%ADD10C,0.100000*%
%ADD11C,1.250000*%
%ADD12R,1.800000X0.800000*%
%ADD13R,1.050000X2.200000*%
%ADD14R,1.000000X1.050000*%
%ADD15R,0.450000X0.600000*%
%ADD16R,2.500000X1.500000*%
%ADD17R,1.500000X2.500000*%
%ADD18R,1.200000X0.900000*%
%ADD19R,2.000000X0.750000*%
%ADD20R,1.250000X1.250000*%
%ADD21R,1.500000X1.600000*%
%ADD22R,1.000000X1.500000*%
%ADD23R,1.500000X1.000000*%
%ADD24R,2.000000X1.500000*%
%ADD25R,3.500000X1.500000*%
G04 APERTURE END LIST*
D10*
G36*
X90049504Y-100676204D02*
G01*
X90073773Y-100679804D01*
X90097571Y-100685765D01*
X90120671Y-100694030D01*
X90142849Y-100704520D01*
X90163893Y-100717133D01*
X90183598Y-100731747D01*
X90201777Y-100748223D01*
X90218253Y-100766402D01*
X90232867Y-100786107D01*
X90245480Y-100807151D01*
X90255970Y-100829329D01*
X90264235Y-100852429D01*
X90270196Y-100876227D01*
X90273796Y-100900496D01*
X90275000Y-100925000D01*
X90275000Y-101675000D01*
X90273796Y-101699504D01*
X90270196Y-101723773D01*
X90264235Y-101747571D01*
X90255970Y-101770671D01*
X90245480Y-101792849D01*
X90232867Y-101813893D01*
X90218253Y-101833598D01*
X90201777Y-101851777D01*
X90183598Y-101868253D01*
X90163893Y-101882867D01*
X90142849Y-101895480D01*
X90120671Y-101905970D01*
X90097571Y-101914235D01*
X90073773Y-101920196D01*
X90049504Y-101923796D01*
X90025000Y-101925000D01*
X88775000Y-101925000D01*
X88750496Y-101923796D01*
X88726227Y-101920196D01*
X88702429Y-101914235D01*
X88679329Y-101905970D01*
X88657151Y-101895480D01*
X88636107Y-101882867D01*
X88616402Y-101868253D01*
X88598223Y-101851777D01*
X88581747Y-101833598D01*
X88567133Y-101813893D01*
X88554520Y-101792849D01*
X88544030Y-101770671D01*
X88535765Y-101747571D01*
X88529804Y-101723773D01*
X88526204Y-101699504D01*
X88525000Y-101675000D01*
X88525000Y-100925000D01*
X88526204Y-100900496D01*
X88529804Y-100876227D01*
X88535765Y-100852429D01*
X88544030Y-100829329D01*
X88554520Y-100807151D01*
X88567133Y-100786107D01*
X88581747Y-100766402D01*
X88598223Y-100748223D01*
X88616402Y-100731747D01*
X88636107Y-100717133D01*
X88657151Y-100704520D01*
X88679329Y-100694030D01*
X88702429Y-100685765D01*
X88726227Y-100679804D01*
X88750496Y-100676204D01*
X88775000Y-100675000D01*
X90025000Y-100675000D01*
X90049504Y-100676204D01*
X90049504Y-100676204D01*
G37*
D11*
X89400000Y-101300000D03*
D10*
G36*
X90049504Y-97876204D02*
G01*
X90073773Y-97879804D01*
X90097571Y-97885765D01*
X90120671Y-97894030D01*
X90142849Y-97904520D01*
X90163893Y-97917133D01*
X90183598Y-97931747D01*
X90201777Y-97948223D01*
X90218253Y-97966402D01*
X90232867Y-97986107D01*
X90245480Y-98007151D01*
X90255970Y-98029329D01*
X90264235Y-98052429D01*
X90270196Y-98076227D01*
X90273796Y-98100496D01*
X90275000Y-98125000D01*
X90275000Y-98875000D01*
X90273796Y-98899504D01*
X90270196Y-98923773D01*
X90264235Y-98947571D01*
X90255970Y-98970671D01*
X90245480Y-98992849D01*
X90232867Y-99013893D01*
X90218253Y-99033598D01*
X90201777Y-99051777D01*
X90183598Y-99068253D01*
X90163893Y-99082867D01*
X90142849Y-99095480D01*
X90120671Y-99105970D01*
X90097571Y-99114235D01*
X90073773Y-99120196D01*
X90049504Y-99123796D01*
X90025000Y-99125000D01*
X88775000Y-99125000D01*
X88750496Y-99123796D01*
X88726227Y-99120196D01*
X88702429Y-99114235D01*
X88679329Y-99105970D01*
X88657151Y-99095480D01*
X88636107Y-99082867D01*
X88616402Y-99068253D01*
X88598223Y-99051777D01*
X88581747Y-99033598D01*
X88567133Y-99013893D01*
X88554520Y-98992849D01*
X88544030Y-98970671D01*
X88535765Y-98947571D01*
X88529804Y-98923773D01*
X88526204Y-98899504D01*
X88525000Y-98875000D01*
X88525000Y-98125000D01*
X88526204Y-98100496D01*
X88529804Y-98076227D01*
X88535765Y-98052429D01*
X88544030Y-98029329D01*
X88554520Y-98007151D01*
X88567133Y-97986107D01*
X88581747Y-97966402D01*
X88598223Y-97948223D01*
X88616402Y-97931747D01*
X88636107Y-97917133D01*
X88657151Y-97904520D01*
X88679329Y-97894030D01*
X88702429Y-97885765D01*
X88726227Y-97879804D01*
X88750496Y-97876204D01*
X88775000Y-97875000D01*
X90025000Y-97875000D01*
X90049504Y-97876204D01*
X90049504Y-97876204D01*
G37*
D11*
X89400000Y-98500000D03*
D12*
X68800000Y-105000000D03*
X68800000Y-108200000D03*
X68800000Y-110400000D03*
X68800000Y-112600000D03*
X75800000Y-112800000D03*
X75800000Y-110600000D03*
X75800000Y-108400000D03*
X75800000Y-105200000D03*
D13*
X65225000Y-100275000D03*
D14*
X66700000Y-98750000D03*
D13*
X68175000Y-100275000D03*
D15*
X75100000Y-89450000D03*
X75100000Y-91550000D03*
D10*
G36*
X63699504Y-81626204D02*
G01*
X63723773Y-81629804D01*
X63747571Y-81635765D01*
X63770671Y-81644030D01*
X63792849Y-81654520D01*
X63813893Y-81667133D01*
X63833598Y-81681747D01*
X63851777Y-81698223D01*
X63868253Y-81716402D01*
X63882867Y-81736107D01*
X63895480Y-81757151D01*
X63905970Y-81779329D01*
X63914235Y-81802429D01*
X63920196Y-81826227D01*
X63923796Y-81850496D01*
X63925000Y-81875000D01*
X63925000Y-83125000D01*
X63923796Y-83149504D01*
X63920196Y-83173773D01*
X63914235Y-83197571D01*
X63905970Y-83220671D01*
X63895480Y-83242849D01*
X63882867Y-83263893D01*
X63868253Y-83283598D01*
X63851777Y-83301777D01*
X63833598Y-83318253D01*
X63813893Y-83332867D01*
X63792849Y-83345480D01*
X63770671Y-83355970D01*
X63747571Y-83364235D01*
X63723773Y-83370196D01*
X63699504Y-83373796D01*
X63675000Y-83375000D01*
X62925000Y-83375000D01*
X62900496Y-83373796D01*
X62876227Y-83370196D01*
X62852429Y-83364235D01*
X62829329Y-83355970D01*
X62807151Y-83345480D01*
X62786107Y-83332867D01*
X62766402Y-83318253D01*
X62748223Y-83301777D01*
X62731747Y-83283598D01*
X62717133Y-83263893D01*
X62704520Y-83242849D01*
X62694030Y-83220671D01*
X62685765Y-83197571D01*
X62679804Y-83173773D01*
X62676204Y-83149504D01*
X62675000Y-83125000D01*
X62675000Y-81875000D01*
X62676204Y-81850496D01*
X62679804Y-81826227D01*
X62685765Y-81802429D01*
X62694030Y-81779329D01*
X62704520Y-81757151D01*
X62717133Y-81736107D01*
X62731747Y-81716402D01*
X62748223Y-81698223D01*
X62766402Y-81681747D01*
X62786107Y-81667133D01*
X62807151Y-81654520D01*
X62829329Y-81644030D01*
X62852429Y-81635765D01*
X62876227Y-81629804D01*
X62900496Y-81626204D01*
X62925000Y-81625000D01*
X63675000Y-81625000D01*
X63699504Y-81626204D01*
X63699504Y-81626204D01*
G37*
D11*
X63300000Y-82500000D03*
D10*
G36*
X66499504Y-81626204D02*
G01*
X66523773Y-81629804D01*
X66547571Y-81635765D01*
X66570671Y-81644030D01*
X66592849Y-81654520D01*
X66613893Y-81667133D01*
X66633598Y-81681747D01*
X66651777Y-81698223D01*
X66668253Y-81716402D01*
X66682867Y-81736107D01*
X66695480Y-81757151D01*
X66705970Y-81779329D01*
X66714235Y-81802429D01*
X66720196Y-81826227D01*
X66723796Y-81850496D01*
X66725000Y-81875000D01*
X66725000Y-83125000D01*
X66723796Y-83149504D01*
X66720196Y-83173773D01*
X66714235Y-83197571D01*
X66705970Y-83220671D01*
X66695480Y-83242849D01*
X66682867Y-83263893D01*
X66668253Y-83283598D01*
X66651777Y-83301777D01*
X66633598Y-83318253D01*
X66613893Y-83332867D01*
X66592849Y-83345480D01*
X66570671Y-83355970D01*
X66547571Y-83364235D01*
X66523773Y-83370196D01*
X66499504Y-83373796D01*
X66475000Y-83375000D01*
X65725000Y-83375000D01*
X65700496Y-83373796D01*
X65676227Y-83370196D01*
X65652429Y-83364235D01*
X65629329Y-83355970D01*
X65607151Y-83345480D01*
X65586107Y-83332867D01*
X65566402Y-83318253D01*
X65548223Y-83301777D01*
X65531747Y-83283598D01*
X65517133Y-83263893D01*
X65504520Y-83242849D01*
X65494030Y-83220671D01*
X65485765Y-83197571D01*
X65479804Y-83173773D01*
X65476204Y-83149504D01*
X65475000Y-83125000D01*
X65475000Y-81875000D01*
X65476204Y-81850496D01*
X65479804Y-81826227D01*
X65485765Y-81802429D01*
X65494030Y-81779329D01*
X65504520Y-81757151D01*
X65517133Y-81736107D01*
X65531747Y-81716402D01*
X65548223Y-81698223D01*
X65566402Y-81681747D01*
X65586107Y-81667133D01*
X65607151Y-81654520D01*
X65629329Y-81644030D01*
X65652429Y-81635765D01*
X65676227Y-81629804D01*
X65700496Y-81626204D01*
X65725000Y-81625000D01*
X66475000Y-81625000D01*
X66499504Y-81626204D01*
X66499504Y-81626204D01*
G37*
D11*
X66100000Y-82500000D03*
D10*
G36*
X72699504Y-95026204D02*
G01*
X72723773Y-95029804D01*
X72747571Y-95035765D01*
X72770671Y-95044030D01*
X72792849Y-95054520D01*
X72813893Y-95067133D01*
X72833598Y-95081747D01*
X72851777Y-95098223D01*
X72868253Y-95116402D01*
X72882867Y-95136107D01*
X72895480Y-95157151D01*
X72905970Y-95179329D01*
X72914235Y-95202429D01*
X72920196Y-95226227D01*
X72923796Y-95250496D01*
X72925000Y-95275000D01*
X72925000Y-96525000D01*
X72923796Y-96549504D01*
X72920196Y-96573773D01*
X72914235Y-96597571D01*
X72905970Y-96620671D01*
X72895480Y-96642849D01*
X72882867Y-96663893D01*
X72868253Y-96683598D01*
X72851777Y-96701777D01*
X72833598Y-96718253D01*
X72813893Y-96732867D01*
X72792849Y-96745480D01*
X72770671Y-96755970D01*
X72747571Y-96764235D01*
X72723773Y-96770196D01*
X72699504Y-96773796D01*
X72675000Y-96775000D01*
X71925000Y-96775000D01*
X71900496Y-96773796D01*
X71876227Y-96770196D01*
X71852429Y-96764235D01*
X71829329Y-96755970D01*
X71807151Y-96745480D01*
X71786107Y-96732867D01*
X71766402Y-96718253D01*
X71748223Y-96701777D01*
X71731747Y-96683598D01*
X71717133Y-96663893D01*
X71704520Y-96642849D01*
X71694030Y-96620671D01*
X71685765Y-96597571D01*
X71679804Y-96573773D01*
X71676204Y-96549504D01*
X71675000Y-96525000D01*
X71675000Y-95275000D01*
X71676204Y-95250496D01*
X71679804Y-95226227D01*
X71685765Y-95202429D01*
X71694030Y-95179329D01*
X71704520Y-95157151D01*
X71717133Y-95136107D01*
X71731747Y-95116402D01*
X71748223Y-95098223D01*
X71766402Y-95081747D01*
X71786107Y-95067133D01*
X71807151Y-95054520D01*
X71829329Y-95044030D01*
X71852429Y-95035765D01*
X71876227Y-95029804D01*
X71900496Y-95026204D01*
X71925000Y-95025000D01*
X72675000Y-95025000D01*
X72699504Y-95026204D01*
X72699504Y-95026204D01*
G37*
D11*
X72300000Y-95900000D03*
D10*
G36*
X75499504Y-95026204D02*
G01*
X75523773Y-95029804D01*
X75547571Y-95035765D01*
X75570671Y-95044030D01*
X75592849Y-95054520D01*
X75613893Y-95067133D01*
X75633598Y-95081747D01*
X75651777Y-95098223D01*
X75668253Y-95116402D01*
X75682867Y-95136107D01*
X75695480Y-95157151D01*
X75705970Y-95179329D01*
X75714235Y-95202429D01*
X75720196Y-95226227D01*
X75723796Y-95250496D01*
X75725000Y-95275000D01*
X75725000Y-96525000D01*
X75723796Y-96549504D01*
X75720196Y-96573773D01*
X75714235Y-96597571D01*
X75705970Y-96620671D01*
X75695480Y-96642849D01*
X75682867Y-96663893D01*
X75668253Y-96683598D01*
X75651777Y-96701777D01*
X75633598Y-96718253D01*
X75613893Y-96732867D01*
X75592849Y-96745480D01*
X75570671Y-96755970D01*
X75547571Y-96764235D01*
X75523773Y-96770196D01*
X75499504Y-96773796D01*
X75475000Y-96775000D01*
X74725000Y-96775000D01*
X74700496Y-96773796D01*
X74676227Y-96770196D01*
X74652429Y-96764235D01*
X74629329Y-96755970D01*
X74607151Y-96745480D01*
X74586107Y-96732867D01*
X74566402Y-96718253D01*
X74548223Y-96701777D01*
X74531747Y-96683598D01*
X74517133Y-96663893D01*
X74504520Y-96642849D01*
X74494030Y-96620671D01*
X74485765Y-96597571D01*
X74479804Y-96573773D01*
X74476204Y-96549504D01*
X74475000Y-96525000D01*
X74475000Y-95275000D01*
X74476204Y-95250496D01*
X74479804Y-95226227D01*
X74485765Y-95202429D01*
X74494030Y-95179329D01*
X74504520Y-95157151D01*
X74517133Y-95136107D01*
X74531747Y-95116402D01*
X74548223Y-95098223D01*
X74566402Y-95081747D01*
X74586107Y-95067133D01*
X74607151Y-95054520D01*
X74629329Y-95044030D01*
X74652429Y-95035765D01*
X74676227Y-95029804D01*
X74700496Y-95026204D01*
X74725000Y-95025000D01*
X75475000Y-95025000D01*
X75499504Y-95026204D01*
X75499504Y-95026204D01*
G37*
D11*
X75100000Y-95900000D03*
D10*
G36*
X68999504Y-66326204D02*
G01*
X69023773Y-66329804D01*
X69047571Y-66335765D01*
X69070671Y-66344030D01*
X69092849Y-66354520D01*
X69113893Y-66367133D01*
X69133598Y-66381747D01*
X69151777Y-66398223D01*
X69168253Y-66416402D01*
X69182867Y-66436107D01*
X69195480Y-66457151D01*
X69205970Y-66479329D01*
X69214235Y-66502429D01*
X69220196Y-66526227D01*
X69223796Y-66550496D01*
X69225000Y-66575000D01*
X69225000Y-67825000D01*
X69223796Y-67849504D01*
X69220196Y-67873773D01*
X69214235Y-67897571D01*
X69205970Y-67920671D01*
X69195480Y-67942849D01*
X69182867Y-67963893D01*
X69168253Y-67983598D01*
X69151777Y-68001777D01*
X69133598Y-68018253D01*
X69113893Y-68032867D01*
X69092849Y-68045480D01*
X69070671Y-68055970D01*
X69047571Y-68064235D01*
X69023773Y-68070196D01*
X68999504Y-68073796D01*
X68975000Y-68075000D01*
X68225000Y-68075000D01*
X68200496Y-68073796D01*
X68176227Y-68070196D01*
X68152429Y-68064235D01*
X68129329Y-68055970D01*
X68107151Y-68045480D01*
X68086107Y-68032867D01*
X68066402Y-68018253D01*
X68048223Y-68001777D01*
X68031747Y-67983598D01*
X68017133Y-67963893D01*
X68004520Y-67942849D01*
X67994030Y-67920671D01*
X67985765Y-67897571D01*
X67979804Y-67873773D01*
X67976204Y-67849504D01*
X67975000Y-67825000D01*
X67975000Y-66575000D01*
X67976204Y-66550496D01*
X67979804Y-66526227D01*
X67985765Y-66502429D01*
X67994030Y-66479329D01*
X68004520Y-66457151D01*
X68017133Y-66436107D01*
X68031747Y-66416402D01*
X68048223Y-66398223D01*
X68066402Y-66381747D01*
X68086107Y-66367133D01*
X68107151Y-66354520D01*
X68129329Y-66344030D01*
X68152429Y-66335765D01*
X68176227Y-66329804D01*
X68200496Y-66326204D01*
X68225000Y-66325000D01*
X68975000Y-66325000D01*
X68999504Y-66326204D01*
X68999504Y-66326204D01*
G37*
D11*
X68600000Y-67200000D03*
D10*
G36*
X71799504Y-66326204D02*
G01*
X71823773Y-66329804D01*
X71847571Y-66335765D01*
X71870671Y-66344030D01*
X71892849Y-66354520D01*
X71913893Y-66367133D01*
X71933598Y-66381747D01*
X71951777Y-66398223D01*
X71968253Y-66416402D01*
X71982867Y-66436107D01*
X71995480Y-66457151D01*
X72005970Y-66479329D01*
X72014235Y-66502429D01*
X72020196Y-66526227D01*
X72023796Y-66550496D01*
X72025000Y-66575000D01*
X72025000Y-67825000D01*
X72023796Y-67849504D01*
X72020196Y-67873773D01*
X72014235Y-67897571D01*
X72005970Y-67920671D01*
X71995480Y-67942849D01*
X71982867Y-67963893D01*
X71968253Y-67983598D01*
X71951777Y-68001777D01*
X71933598Y-68018253D01*
X71913893Y-68032867D01*
X71892849Y-68045480D01*
X71870671Y-68055970D01*
X71847571Y-68064235D01*
X71823773Y-68070196D01*
X71799504Y-68073796D01*
X71775000Y-68075000D01*
X71025000Y-68075000D01*
X71000496Y-68073796D01*
X70976227Y-68070196D01*
X70952429Y-68064235D01*
X70929329Y-68055970D01*
X70907151Y-68045480D01*
X70886107Y-68032867D01*
X70866402Y-68018253D01*
X70848223Y-68001777D01*
X70831747Y-67983598D01*
X70817133Y-67963893D01*
X70804520Y-67942849D01*
X70794030Y-67920671D01*
X70785765Y-67897571D01*
X70779804Y-67873773D01*
X70776204Y-67849504D01*
X70775000Y-67825000D01*
X70775000Y-66575000D01*
X70776204Y-66550496D01*
X70779804Y-66526227D01*
X70785765Y-66502429D01*
X70794030Y-66479329D01*
X70804520Y-66457151D01*
X70817133Y-66436107D01*
X70831747Y-66416402D01*
X70848223Y-66398223D01*
X70866402Y-66381747D01*
X70886107Y-66367133D01*
X70907151Y-66354520D01*
X70929329Y-66344030D01*
X70952429Y-66335765D01*
X70976227Y-66329804D01*
X71000496Y-66326204D01*
X71025000Y-66325000D01*
X71775000Y-66325000D01*
X71799504Y-66326204D01*
X71799504Y-66326204D01*
G37*
D11*
X71400000Y-67200000D03*
D10*
G36*
X74199504Y-66326204D02*
G01*
X74223773Y-66329804D01*
X74247571Y-66335765D01*
X74270671Y-66344030D01*
X74292849Y-66354520D01*
X74313893Y-66367133D01*
X74333598Y-66381747D01*
X74351777Y-66398223D01*
X74368253Y-66416402D01*
X74382867Y-66436107D01*
X74395480Y-66457151D01*
X74405970Y-66479329D01*
X74414235Y-66502429D01*
X74420196Y-66526227D01*
X74423796Y-66550496D01*
X74425000Y-66575000D01*
X74425000Y-67825000D01*
X74423796Y-67849504D01*
X74420196Y-67873773D01*
X74414235Y-67897571D01*
X74405970Y-67920671D01*
X74395480Y-67942849D01*
X74382867Y-67963893D01*
X74368253Y-67983598D01*
X74351777Y-68001777D01*
X74333598Y-68018253D01*
X74313893Y-68032867D01*
X74292849Y-68045480D01*
X74270671Y-68055970D01*
X74247571Y-68064235D01*
X74223773Y-68070196D01*
X74199504Y-68073796D01*
X74175000Y-68075000D01*
X73425000Y-68075000D01*
X73400496Y-68073796D01*
X73376227Y-68070196D01*
X73352429Y-68064235D01*
X73329329Y-68055970D01*
X73307151Y-68045480D01*
X73286107Y-68032867D01*
X73266402Y-68018253D01*
X73248223Y-68001777D01*
X73231747Y-67983598D01*
X73217133Y-67963893D01*
X73204520Y-67942849D01*
X73194030Y-67920671D01*
X73185765Y-67897571D01*
X73179804Y-67873773D01*
X73176204Y-67849504D01*
X73175000Y-67825000D01*
X73175000Y-66575000D01*
X73176204Y-66550496D01*
X73179804Y-66526227D01*
X73185765Y-66502429D01*
X73194030Y-66479329D01*
X73204520Y-66457151D01*
X73217133Y-66436107D01*
X73231747Y-66416402D01*
X73248223Y-66398223D01*
X73266402Y-66381747D01*
X73286107Y-66367133D01*
X73307151Y-66354520D01*
X73329329Y-66344030D01*
X73352429Y-66335765D01*
X73376227Y-66329804D01*
X73400496Y-66326204D01*
X73425000Y-66325000D01*
X74175000Y-66325000D01*
X74199504Y-66326204D01*
X74199504Y-66326204D01*
G37*
D11*
X73800000Y-67200000D03*
D10*
G36*
X76999504Y-66326204D02*
G01*
X77023773Y-66329804D01*
X77047571Y-66335765D01*
X77070671Y-66344030D01*
X77092849Y-66354520D01*
X77113893Y-66367133D01*
X77133598Y-66381747D01*
X77151777Y-66398223D01*
X77168253Y-66416402D01*
X77182867Y-66436107D01*
X77195480Y-66457151D01*
X77205970Y-66479329D01*
X77214235Y-66502429D01*
X77220196Y-66526227D01*
X77223796Y-66550496D01*
X77225000Y-66575000D01*
X77225000Y-67825000D01*
X77223796Y-67849504D01*
X77220196Y-67873773D01*
X77214235Y-67897571D01*
X77205970Y-67920671D01*
X77195480Y-67942849D01*
X77182867Y-67963893D01*
X77168253Y-67983598D01*
X77151777Y-68001777D01*
X77133598Y-68018253D01*
X77113893Y-68032867D01*
X77092849Y-68045480D01*
X77070671Y-68055970D01*
X77047571Y-68064235D01*
X77023773Y-68070196D01*
X76999504Y-68073796D01*
X76975000Y-68075000D01*
X76225000Y-68075000D01*
X76200496Y-68073796D01*
X76176227Y-68070196D01*
X76152429Y-68064235D01*
X76129329Y-68055970D01*
X76107151Y-68045480D01*
X76086107Y-68032867D01*
X76066402Y-68018253D01*
X76048223Y-68001777D01*
X76031747Y-67983598D01*
X76017133Y-67963893D01*
X76004520Y-67942849D01*
X75994030Y-67920671D01*
X75985765Y-67897571D01*
X75979804Y-67873773D01*
X75976204Y-67849504D01*
X75975000Y-67825000D01*
X75975000Y-66575000D01*
X75976204Y-66550496D01*
X75979804Y-66526227D01*
X75985765Y-66502429D01*
X75994030Y-66479329D01*
X76004520Y-66457151D01*
X76017133Y-66436107D01*
X76031747Y-66416402D01*
X76048223Y-66398223D01*
X76066402Y-66381747D01*
X76086107Y-66367133D01*
X76107151Y-66354520D01*
X76129329Y-66344030D01*
X76152429Y-66335765D01*
X76176227Y-66329804D01*
X76200496Y-66326204D01*
X76225000Y-66325000D01*
X76975000Y-66325000D01*
X76999504Y-66326204D01*
X76999504Y-66326204D01*
G37*
D11*
X76600000Y-67200000D03*
D10*
G36*
X75149504Y-100576204D02*
G01*
X75173773Y-100579804D01*
X75197571Y-100585765D01*
X75220671Y-100594030D01*
X75242849Y-100604520D01*
X75263893Y-100617133D01*
X75283598Y-100631747D01*
X75301777Y-100648223D01*
X75318253Y-100666402D01*
X75332867Y-100686107D01*
X75345480Y-100707151D01*
X75355970Y-100729329D01*
X75364235Y-100752429D01*
X75370196Y-100776227D01*
X75373796Y-100800496D01*
X75375000Y-100825000D01*
X75375000Y-101575000D01*
X75373796Y-101599504D01*
X75370196Y-101623773D01*
X75364235Y-101647571D01*
X75355970Y-101670671D01*
X75345480Y-101692849D01*
X75332867Y-101713893D01*
X75318253Y-101733598D01*
X75301777Y-101751777D01*
X75283598Y-101768253D01*
X75263893Y-101782867D01*
X75242849Y-101795480D01*
X75220671Y-101805970D01*
X75197571Y-101814235D01*
X75173773Y-101820196D01*
X75149504Y-101823796D01*
X75125000Y-101825000D01*
X73875000Y-101825000D01*
X73850496Y-101823796D01*
X73826227Y-101820196D01*
X73802429Y-101814235D01*
X73779329Y-101805970D01*
X73757151Y-101795480D01*
X73736107Y-101782867D01*
X73716402Y-101768253D01*
X73698223Y-101751777D01*
X73681747Y-101733598D01*
X73667133Y-101713893D01*
X73654520Y-101692849D01*
X73644030Y-101670671D01*
X73635765Y-101647571D01*
X73629804Y-101623773D01*
X73626204Y-101599504D01*
X73625000Y-101575000D01*
X73625000Y-100825000D01*
X73626204Y-100800496D01*
X73629804Y-100776227D01*
X73635765Y-100752429D01*
X73644030Y-100729329D01*
X73654520Y-100707151D01*
X73667133Y-100686107D01*
X73681747Y-100666402D01*
X73698223Y-100648223D01*
X73716402Y-100631747D01*
X73736107Y-100617133D01*
X73757151Y-100604520D01*
X73779329Y-100594030D01*
X73802429Y-100585765D01*
X73826227Y-100579804D01*
X73850496Y-100576204D01*
X73875000Y-100575000D01*
X75125000Y-100575000D01*
X75149504Y-100576204D01*
X75149504Y-100576204D01*
G37*
D11*
X74500000Y-101200000D03*
D10*
G36*
X75149504Y-97776204D02*
G01*
X75173773Y-97779804D01*
X75197571Y-97785765D01*
X75220671Y-97794030D01*
X75242849Y-97804520D01*
X75263893Y-97817133D01*
X75283598Y-97831747D01*
X75301777Y-97848223D01*
X75318253Y-97866402D01*
X75332867Y-97886107D01*
X75345480Y-97907151D01*
X75355970Y-97929329D01*
X75364235Y-97952429D01*
X75370196Y-97976227D01*
X75373796Y-98000496D01*
X75375000Y-98025000D01*
X75375000Y-98775000D01*
X75373796Y-98799504D01*
X75370196Y-98823773D01*
X75364235Y-98847571D01*
X75355970Y-98870671D01*
X75345480Y-98892849D01*
X75332867Y-98913893D01*
X75318253Y-98933598D01*
X75301777Y-98951777D01*
X75283598Y-98968253D01*
X75263893Y-98982867D01*
X75242849Y-98995480D01*
X75220671Y-99005970D01*
X75197571Y-99014235D01*
X75173773Y-99020196D01*
X75149504Y-99023796D01*
X75125000Y-99025000D01*
X73875000Y-99025000D01*
X73850496Y-99023796D01*
X73826227Y-99020196D01*
X73802429Y-99014235D01*
X73779329Y-99005970D01*
X73757151Y-98995480D01*
X73736107Y-98982867D01*
X73716402Y-98968253D01*
X73698223Y-98951777D01*
X73681747Y-98933598D01*
X73667133Y-98913893D01*
X73654520Y-98892849D01*
X73644030Y-98870671D01*
X73635765Y-98847571D01*
X73629804Y-98823773D01*
X73626204Y-98799504D01*
X73625000Y-98775000D01*
X73625000Y-98025000D01*
X73626204Y-98000496D01*
X73629804Y-97976227D01*
X73635765Y-97952429D01*
X73644030Y-97929329D01*
X73654520Y-97907151D01*
X73667133Y-97886107D01*
X73681747Y-97866402D01*
X73698223Y-97848223D01*
X73716402Y-97831747D01*
X73736107Y-97817133D01*
X73757151Y-97804520D01*
X73779329Y-97794030D01*
X73802429Y-97785765D01*
X73826227Y-97779804D01*
X73850496Y-97776204D01*
X73875000Y-97775000D01*
X75125000Y-97775000D01*
X75149504Y-97776204D01*
X75149504Y-97776204D01*
G37*
D11*
X74500000Y-98400000D03*
D10*
G36*
X80549504Y-97776204D02*
G01*
X80573773Y-97779804D01*
X80597571Y-97785765D01*
X80620671Y-97794030D01*
X80642849Y-97804520D01*
X80663893Y-97817133D01*
X80683598Y-97831747D01*
X80701777Y-97848223D01*
X80718253Y-97866402D01*
X80732867Y-97886107D01*
X80745480Y-97907151D01*
X80755970Y-97929329D01*
X80764235Y-97952429D01*
X80770196Y-97976227D01*
X80773796Y-98000496D01*
X80775000Y-98025000D01*
X80775000Y-98775000D01*
X80773796Y-98799504D01*
X80770196Y-98823773D01*
X80764235Y-98847571D01*
X80755970Y-98870671D01*
X80745480Y-98892849D01*
X80732867Y-98913893D01*
X80718253Y-98933598D01*
X80701777Y-98951777D01*
X80683598Y-98968253D01*
X80663893Y-98982867D01*
X80642849Y-98995480D01*
X80620671Y-99005970D01*
X80597571Y-99014235D01*
X80573773Y-99020196D01*
X80549504Y-99023796D01*
X80525000Y-99025000D01*
X79275000Y-99025000D01*
X79250496Y-99023796D01*
X79226227Y-99020196D01*
X79202429Y-99014235D01*
X79179329Y-99005970D01*
X79157151Y-98995480D01*
X79136107Y-98982867D01*
X79116402Y-98968253D01*
X79098223Y-98951777D01*
X79081747Y-98933598D01*
X79067133Y-98913893D01*
X79054520Y-98892849D01*
X79044030Y-98870671D01*
X79035765Y-98847571D01*
X79029804Y-98823773D01*
X79026204Y-98799504D01*
X79025000Y-98775000D01*
X79025000Y-98025000D01*
X79026204Y-98000496D01*
X79029804Y-97976227D01*
X79035765Y-97952429D01*
X79044030Y-97929329D01*
X79054520Y-97907151D01*
X79067133Y-97886107D01*
X79081747Y-97866402D01*
X79098223Y-97848223D01*
X79116402Y-97831747D01*
X79136107Y-97817133D01*
X79157151Y-97804520D01*
X79179329Y-97794030D01*
X79202429Y-97785765D01*
X79226227Y-97779804D01*
X79250496Y-97776204D01*
X79275000Y-97775000D01*
X80525000Y-97775000D01*
X80549504Y-97776204D01*
X80549504Y-97776204D01*
G37*
D11*
X79900000Y-98400000D03*
D10*
G36*
X80549504Y-100576204D02*
G01*
X80573773Y-100579804D01*
X80597571Y-100585765D01*
X80620671Y-100594030D01*
X80642849Y-100604520D01*
X80663893Y-100617133D01*
X80683598Y-100631747D01*
X80701777Y-100648223D01*
X80718253Y-100666402D01*
X80732867Y-100686107D01*
X80745480Y-100707151D01*
X80755970Y-100729329D01*
X80764235Y-100752429D01*
X80770196Y-100776227D01*
X80773796Y-100800496D01*
X80775000Y-100825000D01*
X80775000Y-101575000D01*
X80773796Y-101599504D01*
X80770196Y-101623773D01*
X80764235Y-101647571D01*
X80755970Y-101670671D01*
X80745480Y-101692849D01*
X80732867Y-101713893D01*
X80718253Y-101733598D01*
X80701777Y-101751777D01*
X80683598Y-101768253D01*
X80663893Y-101782867D01*
X80642849Y-101795480D01*
X80620671Y-101805970D01*
X80597571Y-101814235D01*
X80573773Y-101820196D01*
X80549504Y-101823796D01*
X80525000Y-101825000D01*
X79275000Y-101825000D01*
X79250496Y-101823796D01*
X79226227Y-101820196D01*
X79202429Y-101814235D01*
X79179329Y-101805970D01*
X79157151Y-101795480D01*
X79136107Y-101782867D01*
X79116402Y-101768253D01*
X79098223Y-101751777D01*
X79081747Y-101733598D01*
X79067133Y-101713893D01*
X79054520Y-101692849D01*
X79044030Y-101670671D01*
X79035765Y-101647571D01*
X79029804Y-101623773D01*
X79026204Y-101599504D01*
X79025000Y-101575000D01*
X79025000Y-100825000D01*
X79026204Y-100800496D01*
X79029804Y-100776227D01*
X79035765Y-100752429D01*
X79044030Y-100729329D01*
X79054520Y-100707151D01*
X79067133Y-100686107D01*
X79081747Y-100666402D01*
X79098223Y-100648223D01*
X79116402Y-100631747D01*
X79136107Y-100617133D01*
X79157151Y-100604520D01*
X79179329Y-100594030D01*
X79202429Y-100585765D01*
X79226227Y-100579804D01*
X79250496Y-100576204D01*
X79275000Y-100575000D01*
X80525000Y-100575000D01*
X80549504Y-100576204D01*
X80549504Y-100576204D01*
G37*
D11*
X79900000Y-101200000D03*
D10*
G36*
X84399504Y-83226204D02*
G01*
X84423773Y-83229804D01*
X84447571Y-83235765D01*
X84470671Y-83244030D01*
X84492849Y-83254520D01*
X84513893Y-83267133D01*
X84533598Y-83281747D01*
X84551777Y-83298223D01*
X84568253Y-83316402D01*
X84582867Y-83336107D01*
X84595480Y-83357151D01*
X84605970Y-83379329D01*
X84614235Y-83402429D01*
X84620196Y-83426227D01*
X84623796Y-83450496D01*
X84625000Y-83475000D01*
X84625000Y-84725000D01*
X84623796Y-84749504D01*
X84620196Y-84773773D01*
X84614235Y-84797571D01*
X84605970Y-84820671D01*
X84595480Y-84842849D01*
X84582867Y-84863893D01*
X84568253Y-84883598D01*
X84551777Y-84901777D01*
X84533598Y-84918253D01*
X84513893Y-84932867D01*
X84492849Y-84945480D01*
X84470671Y-84955970D01*
X84447571Y-84964235D01*
X84423773Y-84970196D01*
X84399504Y-84973796D01*
X84375000Y-84975000D01*
X83625000Y-84975000D01*
X83600496Y-84973796D01*
X83576227Y-84970196D01*
X83552429Y-84964235D01*
X83529329Y-84955970D01*
X83507151Y-84945480D01*
X83486107Y-84932867D01*
X83466402Y-84918253D01*
X83448223Y-84901777D01*
X83431747Y-84883598D01*
X83417133Y-84863893D01*
X83404520Y-84842849D01*
X83394030Y-84820671D01*
X83385765Y-84797571D01*
X83379804Y-84773773D01*
X83376204Y-84749504D01*
X83375000Y-84725000D01*
X83375000Y-83475000D01*
X83376204Y-83450496D01*
X83379804Y-83426227D01*
X83385765Y-83402429D01*
X83394030Y-83379329D01*
X83404520Y-83357151D01*
X83417133Y-83336107D01*
X83431747Y-83316402D01*
X83448223Y-83298223D01*
X83466402Y-83281747D01*
X83486107Y-83267133D01*
X83507151Y-83254520D01*
X83529329Y-83244030D01*
X83552429Y-83235765D01*
X83576227Y-83229804D01*
X83600496Y-83226204D01*
X83625000Y-83225000D01*
X84375000Y-83225000D01*
X84399504Y-83226204D01*
X84399504Y-83226204D01*
G37*
D11*
X84000000Y-84100000D03*
D10*
G36*
X87199504Y-83226204D02*
G01*
X87223773Y-83229804D01*
X87247571Y-83235765D01*
X87270671Y-83244030D01*
X87292849Y-83254520D01*
X87313893Y-83267133D01*
X87333598Y-83281747D01*
X87351777Y-83298223D01*
X87368253Y-83316402D01*
X87382867Y-83336107D01*
X87395480Y-83357151D01*
X87405970Y-83379329D01*
X87414235Y-83402429D01*
X87420196Y-83426227D01*
X87423796Y-83450496D01*
X87425000Y-83475000D01*
X87425000Y-84725000D01*
X87423796Y-84749504D01*
X87420196Y-84773773D01*
X87414235Y-84797571D01*
X87405970Y-84820671D01*
X87395480Y-84842849D01*
X87382867Y-84863893D01*
X87368253Y-84883598D01*
X87351777Y-84901777D01*
X87333598Y-84918253D01*
X87313893Y-84932867D01*
X87292849Y-84945480D01*
X87270671Y-84955970D01*
X87247571Y-84964235D01*
X87223773Y-84970196D01*
X87199504Y-84973796D01*
X87175000Y-84975000D01*
X86425000Y-84975000D01*
X86400496Y-84973796D01*
X86376227Y-84970196D01*
X86352429Y-84964235D01*
X86329329Y-84955970D01*
X86307151Y-84945480D01*
X86286107Y-84932867D01*
X86266402Y-84918253D01*
X86248223Y-84901777D01*
X86231747Y-84883598D01*
X86217133Y-84863893D01*
X86204520Y-84842849D01*
X86194030Y-84820671D01*
X86185765Y-84797571D01*
X86179804Y-84773773D01*
X86176204Y-84749504D01*
X86175000Y-84725000D01*
X86175000Y-83475000D01*
X86176204Y-83450496D01*
X86179804Y-83426227D01*
X86185765Y-83402429D01*
X86194030Y-83379329D01*
X86204520Y-83357151D01*
X86217133Y-83336107D01*
X86231747Y-83316402D01*
X86248223Y-83298223D01*
X86266402Y-83281747D01*
X86286107Y-83267133D01*
X86307151Y-83254520D01*
X86329329Y-83244030D01*
X86352429Y-83235765D01*
X86376227Y-83229804D01*
X86400496Y-83226204D01*
X86425000Y-83225000D01*
X87175000Y-83225000D01*
X87199504Y-83226204D01*
X87199504Y-83226204D01*
G37*
D11*
X86800000Y-84100000D03*
D10*
G36*
X84749504Y-88776204D02*
G01*
X84773773Y-88779804D01*
X84797571Y-88785765D01*
X84820671Y-88794030D01*
X84842849Y-88804520D01*
X84863893Y-88817133D01*
X84883598Y-88831747D01*
X84901777Y-88848223D01*
X84918253Y-88866402D01*
X84932867Y-88886107D01*
X84945480Y-88907151D01*
X84955970Y-88929329D01*
X84964235Y-88952429D01*
X84970196Y-88976227D01*
X84973796Y-89000496D01*
X84975000Y-89025000D01*
X84975000Y-89775000D01*
X84973796Y-89799504D01*
X84970196Y-89823773D01*
X84964235Y-89847571D01*
X84955970Y-89870671D01*
X84945480Y-89892849D01*
X84932867Y-89913893D01*
X84918253Y-89933598D01*
X84901777Y-89951777D01*
X84883598Y-89968253D01*
X84863893Y-89982867D01*
X84842849Y-89995480D01*
X84820671Y-90005970D01*
X84797571Y-90014235D01*
X84773773Y-90020196D01*
X84749504Y-90023796D01*
X84725000Y-90025000D01*
X83475000Y-90025000D01*
X83450496Y-90023796D01*
X83426227Y-90020196D01*
X83402429Y-90014235D01*
X83379329Y-90005970D01*
X83357151Y-89995480D01*
X83336107Y-89982867D01*
X83316402Y-89968253D01*
X83298223Y-89951777D01*
X83281747Y-89933598D01*
X83267133Y-89913893D01*
X83254520Y-89892849D01*
X83244030Y-89870671D01*
X83235765Y-89847571D01*
X83229804Y-89823773D01*
X83226204Y-89799504D01*
X83225000Y-89775000D01*
X83225000Y-89025000D01*
X83226204Y-89000496D01*
X83229804Y-88976227D01*
X83235765Y-88952429D01*
X83244030Y-88929329D01*
X83254520Y-88907151D01*
X83267133Y-88886107D01*
X83281747Y-88866402D01*
X83298223Y-88848223D01*
X83316402Y-88831747D01*
X83336107Y-88817133D01*
X83357151Y-88804520D01*
X83379329Y-88794030D01*
X83402429Y-88785765D01*
X83426227Y-88779804D01*
X83450496Y-88776204D01*
X83475000Y-88775000D01*
X84725000Y-88775000D01*
X84749504Y-88776204D01*
X84749504Y-88776204D01*
G37*
D11*
X84100000Y-89400000D03*
D10*
G36*
X84749504Y-91576204D02*
G01*
X84773773Y-91579804D01*
X84797571Y-91585765D01*
X84820671Y-91594030D01*
X84842849Y-91604520D01*
X84863893Y-91617133D01*
X84883598Y-91631747D01*
X84901777Y-91648223D01*
X84918253Y-91666402D01*
X84932867Y-91686107D01*
X84945480Y-91707151D01*
X84955970Y-91729329D01*
X84964235Y-91752429D01*
X84970196Y-91776227D01*
X84973796Y-91800496D01*
X84975000Y-91825000D01*
X84975000Y-92575000D01*
X84973796Y-92599504D01*
X84970196Y-92623773D01*
X84964235Y-92647571D01*
X84955970Y-92670671D01*
X84945480Y-92692849D01*
X84932867Y-92713893D01*
X84918253Y-92733598D01*
X84901777Y-92751777D01*
X84883598Y-92768253D01*
X84863893Y-92782867D01*
X84842849Y-92795480D01*
X84820671Y-92805970D01*
X84797571Y-92814235D01*
X84773773Y-92820196D01*
X84749504Y-92823796D01*
X84725000Y-92825000D01*
X83475000Y-92825000D01*
X83450496Y-92823796D01*
X83426227Y-92820196D01*
X83402429Y-92814235D01*
X83379329Y-92805970D01*
X83357151Y-92795480D01*
X83336107Y-92782867D01*
X83316402Y-92768253D01*
X83298223Y-92751777D01*
X83281747Y-92733598D01*
X83267133Y-92713893D01*
X83254520Y-92692849D01*
X83244030Y-92670671D01*
X83235765Y-92647571D01*
X83229804Y-92623773D01*
X83226204Y-92599504D01*
X83225000Y-92575000D01*
X83225000Y-91825000D01*
X83226204Y-91800496D01*
X83229804Y-91776227D01*
X83235765Y-91752429D01*
X83244030Y-91729329D01*
X83254520Y-91707151D01*
X83267133Y-91686107D01*
X83281747Y-91666402D01*
X83298223Y-91648223D01*
X83316402Y-91631747D01*
X83336107Y-91617133D01*
X83357151Y-91604520D01*
X83379329Y-91594030D01*
X83402429Y-91585765D01*
X83426227Y-91579804D01*
X83450496Y-91576204D01*
X83475000Y-91575000D01*
X84725000Y-91575000D01*
X84749504Y-91576204D01*
X84749504Y-91576204D01*
G37*
D11*
X84100000Y-92200000D03*
D10*
G36*
X92749504Y-100576204D02*
G01*
X92773773Y-100579804D01*
X92797571Y-100585765D01*
X92820671Y-100594030D01*
X92842849Y-100604520D01*
X92863893Y-100617133D01*
X92883598Y-100631747D01*
X92901777Y-100648223D01*
X92918253Y-100666402D01*
X92932867Y-100686107D01*
X92945480Y-100707151D01*
X92955970Y-100729329D01*
X92964235Y-100752429D01*
X92970196Y-100776227D01*
X92973796Y-100800496D01*
X92975000Y-100825000D01*
X92975000Y-101575000D01*
X92973796Y-101599504D01*
X92970196Y-101623773D01*
X92964235Y-101647571D01*
X92955970Y-101670671D01*
X92945480Y-101692849D01*
X92932867Y-101713893D01*
X92918253Y-101733598D01*
X92901777Y-101751777D01*
X92883598Y-101768253D01*
X92863893Y-101782867D01*
X92842849Y-101795480D01*
X92820671Y-101805970D01*
X92797571Y-101814235D01*
X92773773Y-101820196D01*
X92749504Y-101823796D01*
X92725000Y-101825000D01*
X91475000Y-101825000D01*
X91450496Y-101823796D01*
X91426227Y-101820196D01*
X91402429Y-101814235D01*
X91379329Y-101805970D01*
X91357151Y-101795480D01*
X91336107Y-101782867D01*
X91316402Y-101768253D01*
X91298223Y-101751777D01*
X91281747Y-101733598D01*
X91267133Y-101713893D01*
X91254520Y-101692849D01*
X91244030Y-101670671D01*
X91235765Y-101647571D01*
X91229804Y-101623773D01*
X91226204Y-101599504D01*
X91225000Y-101575000D01*
X91225000Y-100825000D01*
X91226204Y-100800496D01*
X91229804Y-100776227D01*
X91235765Y-100752429D01*
X91244030Y-100729329D01*
X91254520Y-100707151D01*
X91267133Y-100686107D01*
X91281747Y-100666402D01*
X91298223Y-100648223D01*
X91316402Y-100631747D01*
X91336107Y-100617133D01*
X91357151Y-100604520D01*
X91379329Y-100594030D01*
X91402429Y-100585765D01*
X91426227Y-100579804D01*
X91450496Y-100576204D01*
X91475000Y-100575000D01*
X92725000Y-100575000D01*
X92749504Y-100576204D01*
X92749504Y-100576204D01*
G37*
D11*
X92100000Y-101200000D03*
D10*
G36*
X92749504Y-97776204D02*
G01*
X92773773Y-97779804D01*
X92797571Y-97785765D01*
X92820671Y-97794030D01*
X92842849Y-97804520D01*
X92863893Y-97817133D01*
X92883598Y-97831747D01*
X92901777Y-97848223D01*
X92918253Y-97866402D01*
X92932867Y-97886107D01*
X92945480Y-97907151D01*
X92955970Y-97929329D01*
X92964235Y-97952429D01*
X92970196Y-97976227D01*
X92973796Y-98000496D01*
X92975000Y-98025000D01*
X92975000Y-98775000D01*
X92973796Y-98799504D01*
X92970196Y-98823773D01*
X92964235Y-98847571D01*
X92955970Y-98870671D01*
X92945480Y-98892849D01*
X92932867Y-98913893D01*
X92918253Y-98933598D01*
X92901777Y-98951777D01*
X92883598Y-98968253D01*
X92863893Y-98982867D01*
X92842849Y-98995480D01*
X92820671Y-99005970D01*
X92797571Y-99014235D01*
X92773773Y-99020196D01*
X92749504Y-99023796D01*
X92725000Y-99025000D01*
X91475000Y-99025000D01*
X91450496Y-99023796D01*
X91426227Y-99020196D01*
X91402429Y-99014235D01*
X91379329Y-99005970D01*
X91357151Y-98995480D01*
X91336107Y-98982867D01*
X91316402Y-98968253D01*
X91298223Y-98951777D01*
X91281747Y-98933598D01*
X91267133Y-98913893D01*
X91254520Y-98892849D01*
X91244030Y-98870671D01*
X91235765Y-98847571D01*
X91229804Y-98823773D01*
X91226204Y-98799504D01*
X91225000Y-98775000D01*
X91225000Y-98025000D01*
X91226204Y-98000496D01*
X91229804Y-97976227D01*
X91235765Y-97952429D01*
X91244030Y-97929329D01*
X91254520Y-97907151D01*
X91267133Y-97886107D01*
X91281747Y-97866402D01*
X91298223Y-97848223D01*
X91316402Y-97831747D01*
X91336107Y-97817133D01*
X91357151Y-97804520D01*
X91379329Y-97794030D01*
X91402429Y-97785765D01*
X91426227Y-97779804D01*
X91450496Y-97776204D01*
X91475000Y-97775000D01*
X92725000Y-97775000D01*
X92749504Y-97776204D01*
X92749504Y-97776204D01*
G37*
D11*
X92100000Y-98400000D03*
D10*
G36*
X81749504Y-71176204D02*
G01*
X81773773Y-71179804D01*
X81797571Y-71185765D01*
X81820671Y-71194030D01*
X81842849Y-71204520D01*
X81863893Y-71217133D01*
X81883598Y-71231747D01*
X81901777Y-71248223D01*
X81918253Y-71266402D01*
X81932867Y-71286107D01*
X81945480Y-71307151D01*
X81955970Y-71329329D01*
X81964235Y-71352429D01*
X81970196Y-71376227D01*
X81973796Y-71400496D01*
X81975000Y-71425000D01*
X81975000Y-72175000D01*
X81973796Y-72199504D01*
X81970196Y-72223773D01*
X81964235Y-72247571D01*
X81955970Y-72270671D01*
X81945480Y-72292849D01*
X81932867Y-72313893D01*
X81918253Y-72333598D01*
X81901777Y-72351777D01*
X81883598Y-72368253D01*
X81863893Y-72382867D01*
X81842849Y-72395480D01*
X81820671Y-72405970D01*
X81797571Y-72414235D01*
X81773773Y-72420196D01*
X81749504Y-72423796D01*
X81725000Y-72425000D01*
X80475000Y-72425000D01*
X80450496Y-72423796D01*
X80426227Y-72420196D01*
X80402429Y-72414235D01*
X80379329Y-72405970D01*
X80357151Y-72395480D01*
X80336107Y-72382867D01*
X80316402Y-72368253D01*
X80298223Y-72351777D01*
X80281747Y-72333598D01*
X80267133Y-72313893D01*
X80254520Y-72292849D01*
X80244030Y-72270671D01*
X80235765Y-72247571D01*
X80229804Y-72223773D01*
X80226204Y-72199504D01*
X80225000Y-72175000D01*
X80225000Y-71425000D01*
X80226204Y-71400496D01*
X80229804Y-71376227D01*
X80235765Y-71352429D01*
X80244030Y-71329329D01*
X80254520Y-71307151D01*
X80267133Y-71286107D01*
X80281747Y-71266402D01*
X80298223Y-71248223D01*
X80316402Y-71231747D01*
X80336107Y-71217133D01*
X80357151Y-71204520D01*
X80379329Y-71194030D01*
X80402429Y-71185765D01*
X80426227Y-71179804D01*
X80450496Y-71176204D01*
X80475000Y-71175000D01*
X81725000Y-71175000D01*
X81749504Y-71176204D01*
X81749504Y-71176204D01*
G37*
D11*
X81100000Y-71800000D03*
D10*
G36*
X81749504Y-68376204D02*
G01*
X81773773Y-68379804D01*
X81797571Y-68385765D01*
X81820671Y-68394030D01*
X81842849Y-68404520D01*
X81863893Y-68417133D01*
X81883598Y-68431747D01*
X81901777Y-68448223D01*
X81918253Y-68466402D01*
X81932867Y-68486107D01*
X81945480Y-68507151D01*
X81955970Y-68529329D01*
X81964235Y-68552429D01*
X81970196Y-68576227D01*
X81973796Y-68600496D01*
X81975000Y-68625000D01*
X81975000Y-69375000D01*
X81973796Y-69399504D01*
X81970196Y-69423773D01*
X81964235Y-69447571D01*
X81955970Y-69470671D01*
X81945480Y-69492849D01*
X81932867Y-69513893D01*
X81918253Y-69533598D01*
X81901777Y-69551777D01*
X81883598Y-69568253D01*
X81863893Y-69582867D01*
X81842849Y-69595480D01*
X81820671Y-69605970D01*
X81797571Y-69614235D01*
X81773773Y-69620196D01*
X81749504Y-69623796D01*
X81725000Y-69625000D01*
X80475000Y-69625000D01*
X80450496Y-69623796D01*
X80426227Y-69620196D01*
X80402429Y-69614235D01*
X80379329Y-69605970D01*
X80357151Y-69595480D01*
X80336107Y-69582867D01*
X80316402Y-69568253D01*
X80298223Y-69551777D01*
X80281747Y-69533598D01*
X80267133Y-69513893D01*
X80254520Y-69492849D01*
X80244030Y-69470671D01*
X80235765Y-69447571D01*
X80229804Y-69423773D01*
X80226204Y-69399504D01*
X80225000Y-69375000D01*
X80225000Y-68625000D01*
X80226204Y-68600496D01*
X80229804Y-68576227D01*
X80235765Y-68552429D01*
X80244030Y-68529329D01*
X80254520Y-68507151D01*
X80267133Y-68486107D01*
X80281747Y-68466402D01*
X80298223Y-68448223D01*
X80316402Y-68431747D01*
X80336107Y-68417133D01*
X80357151Y-68404520D01*
X80379329Y-68394030D01*
X80402429Y-68385765D01*
X80426227Y-68379804D01*
X80450496Y-68376204D01*
X80475000Y-68375000D01*
X81725000Y-68375000D01*
X81749504Y-68376204D01*
X81749504Y-68376204D01*
G37*
D11*
X81100000Y-69000000D03*
D16*
X87950000Y-87700000D03*
X91450000Y-87700000D03*
D10*
G36*
X94599504Y-83026204D02*
G01*
X94623773Y-83029804D01*
X94647571Y-83035765D01*
X94670671Y-83044030D01*
X94692849Y-83054520D01*
X94713893Y-83067133D01*
X94733598Y-83081747D01*
X94751777Y-83098223D01*
X94768253Y-83116402D01*
X94782867Y-83136107D01*
X94795480Y-83157151D01*
X94805970Y-83179329D01*
X94814235Y-83202429D01*
X94820196Y-83226227D01*
X94823796Y-83250496D01*
X94825000Y-83275000D01*
X94825000Y-84525000D01*
X94823796Y-84549504D01*
X94820196Y-84573773D01*
X94814235Y-84597571D01*
X94805970Y-84620671D01*
X94795480Y-84642849D01*
X94782867Y-84663893D01*
X94768253Y-84683598D01*
X94751777Y-84701777D01*
X94733598Y-84718253D01*
X94713893Y-84732867D01*
X94692849Y-84745480D01*
X94670671Y-84755970D01*
X94647571Y-84764235D01*
X94623773Y-84770196D01*
X94599504Y-84773796D01*
X94575000Y-84775000D01*
X93825000Y-84775000D01*
X93800496Y-84773796D01*
X93776227Y-84770196D01*
X93752429Y-84764235D01*
X93729329Y-84755970D01*
X93707151Y-84745480D01*
X93686107Y-84732867D01*
X93666402Y-84718253D01*
X93648223Y-84701777D01*
X93631747Y-84683598D01*
X93617133Y-84663893D01*
X93604520Y-84642849D01*
X93594030Y-84620671D01*
X93585765Y-84597571D01*
X93579804Y-84573773D01*
X93576204Y-84549504D01*
X93575000Y-84525000D01*
X93575000Y-83275000D01*
X93576204Y-83250496D01*
X93579804Y-83226227D01*
X93585765Y-83202429D01*
X93594030Y-83179329D01*
X93604520Y-83157151D01*
X93617133Y-83136107D01*
X93631747Y-83116402D01*
X93648223Y-83098223D01*
X93666402Y-83081747D01*
X93686107Y-83067133D01*
X93707151Y-83054520D01*
X93729329Y-83044030D01*
X93752429Y-83035765D01*
X93776227Y-83029804D01*
X93800496Y-83026204D01*
X93825000Y-83025000D01*
X94575000Y-83025000D01*
X94599504Y-83026204D01*
X94599504Y-83026204D01*
G37*
D11*
X94200000Y-83900000D03*
D10*
G36*
X91799504Y-83026204D02*
G01*
X91823773Y-83029804D01*
X91847571Y-83035765D01*
X91870671Y-83044030D01*
X91892849Y-83054520D01*
X91913893Y-83067133D01*
X91933598Y-83081747D01*
X91951777Y-83098223D01*
X91968253Y-83116402D01*
X91982867Y-83136107D01*
X91995480Y-83157151D01*
X92005970Y-83179329D01*
X92014235Y-83202429D01*
X92020196Y-83226227D01*
X92023796Y-83250496D01*
X92025000Y-83275000D01*
X92025000Y-84525000D01*
X92023796Y-84549504D01*
X92020196Y-84573773D01*
X92014235Y-84597571D01*
X92005970Y-84620671D01*
X91995480Y-84642849D01*
X91982867Y-84663893D01*
X91968253Y-84683598D01*
X91951777Y-84701777D01*
X91933598Y-84718253D01*
X91913893Y-84732867D01*
X91892849Y-84745480D01*
X91870671Y-84755970D01*
X91847571Y-84764235D01*
X91823773Y-84770196D01*
X91799504Y-84773796D01*
X91775000Y-84775000D01*
X91025000Y-84775000D01*
X91000496Y-84773796D01*
X90976227Y-84770196D01*
X90952429Y-84764235D01*
X90929329Y-84755970D01*
X90907151Y-84745480D01*
X90886107Y-84732867D01*
X90866402Y-84718253D01*
X90848223Y-84701777D01*
X90831747Y-84683598D01*
X90817133Y-84663893D01*
X90804520Y-84642849D01*
X90794030Y-84620671D01*
X90785765Y-84597571D01*
X90779804Y-84573773D01*
X90776204Y-84549504D01*
X90775000Y-84525000D01*
X90775000Y-83275000D01*
X90776204Y-83250496D01*
X90779804Y-83226227D01*
X90785765Y-83202429D01*
X90794030Y-83179329D01*
X90804520Y-83157151D01*
X90817133Y-83136107D01*
X90831747Y-83116402D01*
X90848223Y-83098223D01*
X90866402Y-83081747D01*
X90886107Y-83067133D01*
X90907151Y-83054520D01*
X90929329Y-83044030D01*
X90952429Y-83035765D01*
X90976227Y-83029804D01*
X91000496Y-83026204D01*
X91025000Y-83025000D01*
X91775000Y-83025000D01*
X91799504Y-83026204D01*
X91799504Y-83026204D01*
G37*
D11*
X91400000Y-83900000D03*
D10*
G36*
X94799504Y-90526204D02*
G01*
X94823773Y-90529804D01*
X94847571Y-90535765D01*
X94870671Y-90544030D01*
X94892849Y-90554520D01*
X94913893Y-90567133D01*
X94933598Y-90581747D01*
X94951777Y-90598223D01*
X94968253Y-90616402D01*
X94982867Y-90636107D01*
X94995480Y-90657151D01*
X95005970Y-90679329D01*
X95014235Y-90702429D01*
X95020196Y-90726227D01*
X95023796Y-90750496D01*
X95025000Y-90775000D01*
X95025000Y-92025000D01*
X95023796Y-92049504D01*
X95020196Y-92073773D01*
X95014235Y-92097571D01*
X95005970Y-92120671D01*
X94995480Y-92142849D01*
X94982867Y-92163893D01*
X94968253Y-92183598D01*
X94951777Y-92201777D01*
X94933598Y-92218253D01*
X94913893Y-92232867D01*
X94892849Y-92245480D01*
X94870671Y-92255970D01*
X94847571Y-92264235D01*
X94823773Y-92270196D01*
X94799504Y-92273796D01*
X94775000Y-92275000D01*
X94025000Y-92275000D01*
X94000496Y-92273796D01*
X93976227Y-92270196D01*
X93952429Y-92264235D01*
X93929329Y-92255970D01*
X93907151Y-92245480D01*
X93886107Y-92232867D01*
X93866402Y-92218253D01*
X93848223Y-92201777D01*
X93831747Y-92183598D01*
X93817133Y-92163893D01*
X93804520Y-92142849D01*
X93794030Y-92120671D01*
X93785765Y-92097571D01*
X93779804Y-92073773D01*
X93776204Y-92049504D01*
X93775000Y-92025000D01*
X93775000Y-90775000D01*
X93776204Y-90750496D01*
X93779804Y-90726227D01*
X93785765Y-90702429D01*
X93794030Y-90679329D01*
X93804520Y-90657151D01*
X93817133Y-90636107D01*
X93831747Y-90616402D01*
X93848223Y-90598223D01*
X93866402Y-90581747D01*
X93886107Y-90567133D01*
X93907151Y-90554520D01*
X93929329Y-90544030D01*
X93952429Y-90535765D01*
X93976227Y-90529804D01*
X94000496Y-90526204D01*
X94025000Y-90525000D01*
X94775000Y-90525000D01*
X94799504Y-90526204D01*
X94799504Y-90526204D01*
G37*
D11*
X94400000Y-91400000D03*
D10*
G36*
X91999504Y-90526204D02*
G01*
X92023773Y-90529804D01*
X92047571Y-90535765D01*
X92070671Y-90544030D01*
X92092849Y-90554520D01*
X92113893Y-90567133D01*
X92133598Y-90581747D01*
X92151777Y-90598223D01*
X92168253Y-90616402D01*
X92182867Y-90636107D01*
X92195480Y-90657151D01*
X92205970Y-90679329D01*
X92214235Y-90702429D01*
X92220196Y-90726227D01*
X92223796Y-90750496D01*
X92225000Y-90775000D01*
X92225000Y-92025000D01*
X92223796Y-92049504D01*
X92220196Y-92073773D01*
X92214235Y-92097571D01*
X92205970Y-92120671D01*
X92195480Y-92142849D01*
X92182867Y-92163893D01*
X92168253Y-92183598D01*
X92151777Y-92201777D01*
X92133598Y-92218253D01*
X92113893Y-92232867D01*
X92092849Y-92245480D01*
X92070671Y-92255970D01*
X92047571Y-92264235D01*
X92023773Y-92270196D01*
X91999504Y-92273796D01*
X91975000Y-92275000D01*
X91225000Y-92275000D01*
X91200496Y-92273796D01*
X91176227Y-92270196D01*
X91152429Y-92264235D01*
X91129329Y-92255970D01*
X91107151Y-92245480D01*
X91086107Y-92232867D01*
X91066402Y-92218253D01*
X91048223Y-92201777D01*
X91031747Y-92183598D01*
X91017133Y-92163893D01*
X91004520Y-92142849D01*
X90994030Y-92120671D01*
X90985765Y-92097571D01*
X90979804Y-92073773D01*
X90976204Y-92049504D01*
X90975000Y-92025000D01*
X90975000Y-90775000D01*
X90976204Y-90750496D01*
X90979804Y-90726227D01*
X90985765Y-90702429D01*
X90994030Y-90679329D01*
X91004520Y-90657151D01*
X91017133Y-90636107D01*
X91031747Y-90616402D01*
X91048223Y-90598223D01*
X91066402Y-90581747D01*
X91086107Y-90567133D01*
X91107151Y-90554520D01*
X91129329Y-90544030D01*
X91152429Y-90535765D01*
X91176227Y-90529804D01*
X91200496Y-90526204D01*
X91225000Y-90525000D01*
X91975000Y-90525000D01*
X91999504Y-90526204D01*
X91999504Y-90526204D01*
G37*
D11*
X91600000Y-91400000D03*
D10*
G36*
X81649504Y-88976204D02*
G01*
X81673773Y-88979804D01*
X81697571Y-88985765D01*
X81720671Y-88994030D01*
X81742849Y-89004520D01*
X81763893Y-89017133D01*
X81783598Y-89031747D01*
X81801777Y-89048223D01*
X81818253Y-89066402D01*
X81832867Y-89086107D01*
X81845480Y-89107151D01*
X81855970Y-89129329D01*
X81864235Y-89152429D01*
X81870196Y-89176227D01*
X81873796Y-89200496D01*
X81875000Y-89225000D01*
X81875000Y-89975000D01*
X81873796Y-89999504D01*
X81870196Y-90023773D01*
X81864235Y-90047571D01*
X81855970Y-90070671D01*
X81845480Y-90092849D01*
X81832867Y-90113893D01*
X81818253Y-90133598D01*
X81801777Y-90151777D01*
X81783598Y-90168253D01*
X81763893Y-90182867D01*
X81742849Y-90195480D01*
X81720671Y-90205970D01*
X81697571Y-90214235D01*
X81673773Y-90220196D01*
X81649504Y-90223796D01*
X81625000Y-90225000D01*
X80375000Y-90225000D01*
X80350496Y-90223796D01*
X80326227Y-90220196D01*
X80302429Y-90214235D01*
X80279329Y-90205970D01*
X80257151Y-90195480D01*
X80236107Y-90182867D01*
X80216402Y-90168253D01*
X80198223Y-90151777D01*
X80181747Y-90133598D01*
X80167133Y-90113893D01*
X80154520Y-90092849D01*
X80144030Y-90070671D01*
X80135765Y-90047571D01*
X80129804Y-90023773D01*
X80126204Y-89999504D01*
X80125000Y-89975000D01*
X80125000Y-89225000D01*
X80126204Y-89200496D01*
X80129804Y-89176227D01*
X80135765Y-89152429D01*
X80144030Y-89129329D01*
X80154520Y-89107151D01*
X80167133Y-89086107D01*
X80181747Y-89066402D01*
X80198223Y-89048223D01*
X80216402Y-89031747D01*
X80236107Y-89017133D01*
X80257151Y-89004520D01*
X80279329Y-88994030D01*
X80302429Y-88985765D01*
X80326227Y-88979804D01*
X80350496Y-88976204D01*
X80375000Y-88975000D01*
X81625000Y-88975000D01*
X81649504Y-88976204D01*
X81649504Y-88976204D01*
G37*
D11*
X81000000Y-89600000D03*
D10*
G36*
X81649504Y-91776204D02*
G01*
X81673773Y-91779804D01*
X81697571Y-91785765D01*
X81720671Y-91794030D01*
X81742849Y-91804520D01*
X81763893Y-91817133D01*
X81783598Y-91831747D01*
X81801777Y-91848223D01*
X81818253Y-91866402D01*
X81832867Y-91886107D01*
X81845480Y-91907151D01*
X81855970Y-91929329D01*
X81864235Y-91952429D01*
X81870196Y-91976227D01*
X81873796Y-92000496D01*
X81875000Y-92025000D01*
X81875000Y-92775000D01*
X81873796Y-92799504D01*
X81870196Y-92823773D01*
X81864235Y-92847571D01*
X81855970Y-92870671D01*
X81845480Y-92892849D01*
X81832867Y-92913893D01*
X81818253Y-92933598D01*
X81801777Y-92951777D01*
X81783598Y-92968253D01*
X81763893Y-92982867D01*
X81742849Y-92995480D01*
X81720671Y-93005970D01*
X81697571Y-93014235D01*
X81673773Y-93020196D01*
X81649504Y-93023796D01*
X81625000Y-93025000D01*
X80375000Y-93025000D01*
X80350496Y-93023796D01*
X80326227Y-93020196D01*
X80302429Y-93014235D01*
X80279329Y-93005970D01*
X80257151Y-92995480D01*
X80236107Y-92982867D01*
X80216402Y-92968253D01*
X80198223Y-92951777D01*
X80181747Y-92933598D01*
X80167133Y-92913893D01*
X80154520Y-92892849D01*
X80144030Y-92870671D01*
X80135765Y-92847571D01*
X80129804Y-92823773D01*
X80126204Y-92799504D01*
X80125000Y-92775000D01*
X80125000Y-92025000D01*
X80126204Y-92000496D01*
X80129804Y-91976227D01*
X80135765Y-91952429D01*
X80144030Y-91929329D01*
X80154520Y-91907151D01*
X80167133Y-91886107D01*
X80181747Y-91866402D01*
X80198223Y-91848223D01*
X80216402Y-91831747D01*
X80236107Y-91817133D01*
X80257151Y-91804520D01*
X80279329Y-91794030D01*
X80302429Y-91785765D01*
X80326227Y-91779804D01*
X80350496Y-91776204D01*
X80375000Y-91775000D01*
X81625000Y-91775000D01*
X81649504Y-91776204D01*
X81649504Y-91776204D01*
G37*
D11*
X81000000Y-92400000D03*
D10*
G36*
X101849504Y-109676204D02*
G01*
X101873773Y-109679804D01*
X101897571Y-109685765D01*
X101920671Y-109694030D01*
X101942849Y-109704520D01*
X101963893Y-109717133D01*
X101983598Y-109731747D01*
X102001777Y-109748223D01*
X102018253Y-109766402D01*
X102032867Y-109786107D01*
X102045480Y-109807151D01*
X102055970Y-109829329D01*
X102064235Y-109852429D01*
X102070196Y-109876227D01*
X102073796Y-109900496D01*
X102075000Y-109925000D01*
X102075000Y-110675000D01*
X102073796Y-110699504D01*
X102070196Y-110723773D01*
X102064235Y-110747571D01*
X102055970Y-110770671D01*
X102045480Y-110792849D01*
X102032867Y-110813893D01*
X102018253Y-110833598D01*
X102001777Y-110851777D01*
X101983598Y-110868253D01*
X101963893Y-110882867D01*
X101942849Y-110895480D01*
X101920671Y-110905970D01*
X101897571Y-110914235D01*
X101873773Y-110920196D01*
X101849504Y-110923796D01*
X101825000Y-110925000D01*
X100575000Y-110925000D01*
X100550496Y-110923796D01*
X100526227Y-110920196D01*
X100502429Y-110914235D01*
X100479329Y-110905970D01*
X100457151Y-110895480D01*
X100436107Y-110882867D01*
X100416402Y-110868253D01*
X100398223Y-110851777D01*
X100381747Y-110833598D01*
X100367133Y-110813893D01*
X100354520Y-110792849D01*
X100344030Y-110770671D01*
X100335765Y-110747571D01*
X100329804Y-110723773D01*
X100326204Y-110699504D01*
X100325000Y-110675000D01*
X100325000Y-109925000D01*
X100326204Y-109900496D01*
X100329804Y-109876227D01*
X100335765Y-109852429D01*
X100344030Y-109829329D01*
X100354520Y-109807151D01*
X100367133Y-109786107D01*
X100381747Y-109766402D01*
X100398223Y-109748223D01*
X100416402Y-109731747D01*
X100436107Y-109717133D01*
X100457151Y-109704520D01*
X100479329Y-109694030D01*
X100502429Y-109685765D01*
X100526227Y-109679804D01*
X100550496Y-109676204D01*
X100575000Y-109675000D01*
X101825000Y-109675000D01*
X101849504Y-109676204D01*
X101849504Y-109676204D01*
G37*
D11*
X101200000Y-110300000D03*
D10*
G36*
X101849504Y-112476204D02*
G01*
X101873773Y-112479804D01*
X101897571Y-112485765D01*
X101920671Y-112494030D01*
X101942849Y-112504520D01*
X101963893Y-112517133D01*
X101983598Y-112531747D01*
X102001777Y-112548223D01*
X102018253Y-112566402D01*
X102032867Y-112586107D01*
X102045480Y-112607151D01*
X102055970Y-112629329D01*
X102064235Y-112652429D01*
X102070196Y-112676227D01*
X102073796Y-112700496D01*
X102075000Y-112725000D01*
X102075000Y-113475000D01*
X102073796Y-113499504D01*
X102070196Y-113523773D01*
X102064235Y-113547571D01*
X102055970Y-113570671D01*
X102045480Y-113592849D01*
X102032867Y-113613893D01*
X102018253Y-113633598D01*
X102001777Y-113651777D01*
X101983598Y-113668253D01*
X101963893Y-113682867D01*
X101942849Y-113695480D01*
X101920671Y-113705970D01*
X101897571Y-113714235D01*
X101873773Y-113720196D01*
X101849504Y-113723796D01*
X101825000Y-113725000D01*
X100575000Y-113725000D01*
X100550496Y-113723796D01*
X100526227Y-113720196D01*
X100502429Y-113714235D01*
X100479329Y-113705970D01*
X100457151Y-113695480D01*
X100436107Y-113682867D01*
X100416402Y-113668253D01*
X100398223Y-113651777D01*
X100381747Y-113633598D01*
X100367133Y-113613893D01*
X100354520Y-113592849D01*
X100344030Y-113570671D01*
X100335765Y-113547571D01*
X100329804Y-113523773D01*
X100326204Y-113499504D01*
X100325000Y-113475000D01*
X100325000Y-112725000D01*
X100326204Y-112700496D01*
X100329804Y-112676227D01*
X100335765Y-112652429D01*
X100344030Y-112629329D01*
X100354520Y-112607151D01*
X100367133Y-112586107D01*
X100381747Y-112566402D01*
X100398223Y-112548223D01*
X100416402Y-112531747D01*
X100436107Y-112517133D01*
X100457151Y-112504520D01*
X100479329Y-112494030D01*
X100502429Y-112485765D01*
X100526227Y-112479804D01*
X100550496Y-112476204D01*
X100575000Y-112475000D01*
X101825000Y-112475000D01*
X101849504Y-112476204D01*
X101849504Y-112476204D01*
G37*
D11*
X101200000Y-113100000D03*
D10*
G36*
X107149504Y-109776204D02*
G01*
X107173773Y-109779804D01*
X107197571Y-109785765D01*
X107220671Y-109794030D01*
X107242849Y-109804520D01*
X107263893Y-109817133D01*
X107283598Y-109831747D01*
X107301777Y-109848223D01*
X107318253Y-109866402D01*
X107332867Y-109886107D01*
X107345480Y-109907151D01*
X107355970Y-109929329D01*
X107364235Y-109952429D01*
X107370196Y-109976227D01*
X107373796Y-110000496D01*
X107375000Y-110025000D01*
X107375000Y-110775000D01*
X107373796Y-110799504D01*
X107370196Y-110823773D01*
X107364235Y-110847571D01*
X107355970Y-110870671D01*
X107345480Y-110892849D01*
X107332867Y-110913893D01*
X107318253Y-110933598D01*
X107301777Y-110951777D01*
X107283598Y-110968253D01*
X107263893Y-110982867D01*
X107242849Y-110995480D01*
X107220671Y-111005970D01*
X107197571Y-111014235D01*
X107173773Y-111020196D01*
X107149504Y-111023796D01*
X107125000Y-111025000D01*
X105875000Y-111025000D01*
X105850496Y-111023796D01*
X105826227Y-111020196D01*
X105802429Y-111014235D01*
X105779329Y-111005970D01*
X105757151Y-110995480D01*
X105736107Y-110982867D01*
X105716402Y-110968253D01*
X105698223Y-110951777D01*
X105681747Y-110933598D01*
X105667133Y-110913893D01*
X105654520Y-110892849D01*
X105644030Y-110870671D01*
X105635765Y-110847571D01*
X105629804Y-110823773D01*
X105626204Y-110799504D01*
X105625000Y-110775000D01*
X105625000Y-110025000D01*
X105626204Y-110000496D01*
X105629804Y-109976227D01*
X105635765Y-109952429D01*
X105644030Y-109929329D01*
X105654520Y-109907151D01*
X105667133Y-109886107D01*
X105681747Y-109866402D01*
X105698223Y-109848223D01*
X105716402Y-109831747D01*
X105736107Y-109817133D01*
X105757151Y-109804520D01*
X105779329Y-109794030D01*
X105802429Y-109785765D01*
X105826227Y-109779804D01*
X105850496Y-109776204D01*
X105875000Y-109775000D01*
X107125000Y-109775000D01*
X107149504Y-109776204D01*
X107149504Y-109776204D01*
G37*
D11*
X106500000Y-110400000D03*
D10*
G36*
X107149504Y-112576204D02*
G01*
X107173773Y-112579804D01*
X107197571Y-112585765D01*
X107220671Y-112594030D01*
X107242849Y-112604520D01*
X107263893Y-112617133D01*
X107283598Y-112631747D01*
X107301777Y-112648223D01*
X107318253Y-112666402D01*
X107332867Y-112686107D01*
X107345480Y-112707151D01*
X107355970Y-112729329D01*
X107364235Y-112752429D01*
X107370196Y-112776227D01*
X107373796Y-112800496D01*
X107375000Y-112825000D01*
X107375000Y-113575000D01*
X107373796Y-113599504D01*
X107370196Y-113623773D01*
X107364235Y-113647571D01*
X107355970Y-113670671D01*
X107345480Y-113692849D01*
X107332867Y-113713893D01*
X107318253Y-113733598D01*
X107301777Y-113751777D01*
X107283598Y-113768253D01*
X107263893Y-113782867D01*
X107242849Y-113795480D01*
X107220671Y-113805970D01*
X107197571Y-113814235D01*
X107173773Y-113820196D01*
X107149504Y-113823796D01*
X107125000Y-113825000D01*
X105875000Y-113825000D01*
X105850496Y-113823796D01*
X105826227Y-113820196D01*
X105802429Y-113814235D01*
X105779329Y-113805970D01*
X105757151Y-113795480D01*
X105736107Y-113782867D01*
X105716402Y-113768253D01*
X105698223Y-113751777D01*
X105681747Y-113733598D01*
X105667133Y-113713893D01*
X105654520Y-113692849D01*
X105644030Y-113670671D01*
X105635765Y-113647571D01*
X105629804Y-113623773D01*
X105626204Y-113599504D01*
X105625000Y-113575000D01*
X105625000Y-112825000D01*
X105626204Y-112800496D01*
X105629804Y-112776227D01*
X105635765Y-112752429D01*
X105644030Y-112729329D01*
X105654520Y-112707151D01*
X105667133Y-112686107D01*
X105681747Y-112666402D01*
X105698223Y-112648223D01*
X105716402Y-112631747D01*
X105736107Y-112617133D01*
X105757151Y-112604520D01*
X105779329Y-112594030D01*
X105802429Y-112585765D01*
X105826227Y-112579804D01*
X105850496Y-112576204D01*
X105875000Y-112575000D01*
X107125000Y-112575000D01*
X107149504Y-112576204D01*
X107149504Y-112576204D01*
G37*
D11*
X106500000Y-113200000D03*
D10*
G36*
X105599504Y-65126204D02*
G01*
X105623773Y-65129804D01*
X105647571Y-65135765D01*
X105670671Y-65144030D01*
X105692849Y-65154520D01*
X105713893Y-65167133D01*
X105733598Y-65181747D01*
X105751777Y-65198223D01*
X105768253Y-65216402D01*
X105782867Y-65236107D01*
X105795480Y-65257151D01*
X105805970Y-65279329D01*
X105814235Y-65302429D01*
X105820196Y-65326227D01*
X105823796Y-65350496D01*
X105825000Y-65375000D01*
X105825000Y-66625000D01*
X105823796Y-66649504D01*
X105820196Y-66673773D01*
X105814235Y-66697571D01*
X105805970Y-66720671D01*
X105795480Y-66742849D01*
X105782867Y-66763893D01*
X105768253Y-66783598D01*
X105751777Y-66801777D01*
X105733598Y-66818253D01*
X105713893Y-66832867D01*
X105692849Y-66845480D01*
X105670671Y-66855970D01*
X105647571Y-66864235D01*
X105623773Y-66870196D01*
X105599504Y-66873796D01*
X105575000Y-66875000D01*
X104825000Y-66875000D01*
X104800496Y-66873796D01*
X104776227Y-66870196D01*
X104752429Y-66864235D01*
X104729329Y-66855970D01*
X104707151Y-66845480D01*
X104686107Y-66832867D01*
X104666402Y-66818253D01*
X104648223Y-66801777D01*
X104631747Y-66783598D01*
X104617133Y-66763893D01*
X104604520Y-66742849D01*
X104594030Y-66720671D01*
X104585765Y-66697571D01*
X104579804Y-66673773D01*
X104576204Y-66649504D01*
X104575000Y-66625000D01*
X104575000Y-65375000D01*
X104576204Y-65350496D01*
X104579804Y-65326227D01*
X104585765Y-65302429D01*
X104594030Y-65279329D01*
X104604520Y-65257151D01*
X104617133Y-65236107D01*
X104631747Y-65216402D01*
X104648223Y-65198223D01*
X104666402Y-65181747D01*
X104686107Y-65167133D01*
X104707151Y-65154520D01*
X104729329Y-65144030D01*
X104752429Y-65135765D01*
X104776227Y-65129804D01*
X104800496Y-65126204D01*
X104825000Y-65125000D01*
X105575000Y-65125000D01*
X105599504Y-65126204D01*
X105599504Y-65126204D01*
G37*
D11*
X105200000Y-66000000D03*
D10*
G36*
X102799504Y-65126204D02*
G01*
X102823773Y-65129804D01*
X102847571Y-65135765D01*
X102870671Y-65144030D01*
X102892849Y-65154520D01*
X102913893Y-65167133D01*
X102933598Y-65181747D01*
X102951777Y-65198223D01*
X102968253Y-65216402D01*
X102982867Y-65236107D01*
X102995480Y-65257151D01*
X103005970Y-65279329D01*
X103014235Y-65302429D01*
X103020196Y-65326227D01*
X103023796Y-65350496D01*
X103025000Y-65375000D01*
X103025000Y-66625000D01*
X103023796Y-66649504D01*
X103020196Y-66673773D01*
X103014235Y-66697571D01*
X103005970Y-66720671D01*
X102995480Y-66742849D01*
X102982867Y-66763893D01*
X102968253Y-66783598D01*
X102951777Y-66801777D01*
X102933598Y-66818253D01*
X102913893Y-66832867D01*
X102892849Y-66845480D01*
X102870671Y-66855970D01*
X102847571Y-66864235D01*
X102823773Y-66870196D01*
X102799504Y-66873796D01*
X102775000Y-66875000D01*
X102025000Y-66875000D01*
X102000496Y-66873796D01*
X101976227Y-66870196D01*
X101952429Y-66864235D01*
X101929329Y-66855970D01*
X101907151Y-66845480D01*
X101886107Y-66832867D01*
X101866402Y-66818253D01*
X101848223Y-66801777D01*
X101831747Y-66783598D01*
X101817133Y-66763893D01*
X101804520Y-66742849D01*
X101794030Y-66720671D01*
X101785765Y-66697571D01*
X101779804Y-66673773D01*
X101776204Y-66649504D01*
X101775000Y-66625000D01*
X101775000Y-65375000D01*
X101776204Y-65350496D01*
X101779804Y-65326227D01*
X101785765Y-65302429D01*
X101794030Y-65279329D01*
X101804520Y-65257151D01*
X101817133Y-65236107D01*
X101831747Y-65216402D01*
X101848223Y-65198223D01*
X101866402Y-65181747D01*
X101886107Y-65167133D01*
X101907151Y-65154520D01*
X101929329Y-65144030D01*
X101952429Y-65135765D01*
X101976227Y-65129804D01*
X102000496Y-65126204D01*
X102025000Y-65125000D01*
X102775000Y-65125000D01*
X102799504Y-65126204D01*
X102799504Y-65126204D01*
G37*
D11*
X102400000Y-66000000D03*
D10*
G36*
X110299504Y-84326204D02*
G01*
X110323773Y-84329804D01*
X110347571Y-84335765D01*
X110370671Y-84344030D01*
X110392849Y-84354520D01*
X110413893Y-84367133D01*
X110433598Y-84381747D01*
X110451777Y-84398223D01*
X110468253Y-84416402D01*
X110482867Y-84436107D01*
X110495480Y-84457151D01*
X110505970Y-84479329D01*
X110514235Y-84502429D01*
X110520196Y-84526227D01*
X110523796Y-84550496D01*
X110525000Y-84575000D01*
X110525000Y-85825000D01*
X110523796Y-85849504D01*
X110520196Y-85873773D01*
X110514235Y-85897571D01*
X110505970Y-85920671D01*
X110495480Y-85942849D01*
X110482867Y-85963893D01*
X110468253Y-85983598D01*
X110451777Y-86001777D01*
X110433598Y-86018253D01*
X110413893Y-86032867D01*
X110392849Y-86045480D01*
X110370671Y-86055970D01*
X110347571Y-86064235D01*
X110323773Y-86070196D01*
X110299504Y-86073796D01*
X110275000Y-86075000D01*
X109525000Y-86075000D01*
X109500496Y-86073796D01*
X109476227Y-86070196D01*
X109452429Y-86064235D01*
X109429329Y-86055970D01*
X109407151Y-86045480D01*
X109386107Y-86032867D01*
X109366402Y-86018253D01*
X109348223Y-86001777D01*
X109331747Y-85983598D01*
X109317133Y-85963893D01*
X109304520Y-85942849D01*
X109294030Y-85920671D01*
X109285765Y-85897571D01*
X109279804Y-85873773D01*
X109276204Y-85849504D01*
X109275000Y-85825000D01*
X109275000Y-84575000D01*
X109276204Y-84550496D01*
X109279804Y-84526227D01*
X109285765Y-84502429D01*
X109294030Y-84479329D01*
X109304520Y-84457151D01*
X109317133Y-84436107D01*
X109331747Y-84416402D01*
X109348223Y-84398223D01*
X109366402Y-84381747D01*
X109386107Y-84367133D01*
X109407151Y-84354520D01*
X109429329Y-84344030D01*
X109452429Y-84335765D01*
X109476227Y-84329804D01*
X109500496Y-84326204D01*
X109525000Y-84325000D01*
X110275000Y-84325000D01*
X110299504Y-84326204D01*
X110299504Y-84326204D01*
G37*
D11*
X109900000Y-85200000D03*
D10*
G36*
X113099504Y-84326204D02*
G01*
X113123773Y-84329804D01*
X113147571Y-84335765D01*
X113170671Y-84344030D01*
X113192849Y-84354520D01*
X113213893Y-84367133D01*
X113233598Y-84381747D01*
X113251777Y-84398223D01*
X113268253Y-84416402D01*
X113282867Y-84436107D01*
X113295480Y-84457151D01*
X113305970Y-84479329D01*
X113314235Y-84502429D01*
X113320196Y-84526227D01*
X113323796Y-84550496D01*
X113325000Y-84575000D01*
X113325000Y-85825000D01*
X113323796Y-85849504D01*
X113320196Y-85873773D01*
X113314235Y-85897571D01*
X113305970Y-85920671D01*
X113295480Y-85942849D01*
X113282867Y-85963893D01*
X113268253Y-85983598D01*
X113251777Y-86001777D01*
X113233598Y-86018253D01*
X113213893Y-86032867D01*
X113192849Y-86045480D01*
X113170671Y-86055970D01*
X113147571Y-86064235D01*
X113123773Y-86070196D01*
X113099504Y-86073796D01*
X113075000Y-86075000D01*
X112325000Y-86075000D01*
X112300496Y-86073796D01*
X112276227Y-86070196D01*
X112252429Y-86064235D01*
X112229329Y-86055970D01*
X112207151Y-86045480D01*
X112186107Y-86032867D01*
X112166402Y-86018253D01*
X112148223Y-86001777D01*
X112131747Y-85983598D01*
X112117133Y-85963893D01*
X112104520Y-85942849D01*
X112094030Y-85920671D01*
X112085765Y-85897571D01*
X112079804Y-85873773D01*
X112076204Y-85849504D01*
X112075000Y-85825000D01*
X112075000Y-84575000D01*
X112076204Y-84550496D01*
X112079804Y-84526227D01*
X112085765Y-84502429D01*
X112094030Y-84479329D01*
X112104520Y-84457151D01*
X112117133Y-84436107D01*
X112131747Y-84416402D01*
X112148223Y-84398223D01*
X112166402Y-84381747D01*
X112186107Y-84367133D01*
X112207151Y-84354520D01*
X112229329Y-84344030D01*
X112252429Y-84335765D01*
X112276227Y-84329804D01*
X112300496Y-84326204D01*
X112325000Y-84325000D01*
X113075000Y-84325000D01*
X113099504Y-84326204D01*
X113099504Y-84326204D01*
G37*
D11*
X112700000Y-85200000D03*
D16*
X124950000Y-95300000D03*
X121450000Y-95300000D03*
D10*
G36*
X130299504Y-81326204D02*
G01*
X130323773Y-81329804D01*
X130347571Y-81335765D01*
X130370671Y-81344030D01*
X130392849Y-81354520D01*
X130413893Y-81367133D01*
X130433598Y-81381747D01*
X130451777Y-81398223D01*
X130468253Y-81416402D01*
X130482867Y-81436107D01*
X130495480Y-81457151D01*
X130505970Y-81479329D01*
X130514235Y-81502429D01*
X130520196Y-81526227D01*
X130523796Y-81550496D01*
X130525000Y-81575000D01*
X130525000Y-82825000D01*
X130523796Y-82849504D01*
X130520196Y-82873773D01*
X130514235Y-82897571D01*
X130505970Y-82920671D01*
X130495480Y-82942849D01*
X130482867Y-82963893D01*
X130468253Y-82983598D01*
X130451777Y-83001777D01*
X130433598Y-83018253D01*
X130413893Y-83032867D01*
X130392849Y-83045480D01*
X130370671Y-83055970D01*
X130347571Y-83064235D01*
X130323773Y-83070196D01*
X130299504Y-83073796D01*
X130275000Y-83075000D01*
X129525000Y-83075000D01*
X129500496Y-83073796D01*
X129476227Y-83070196D01*
X129452429Y-83064235D01*
X129429329Y-83055970D01*
X129407151Y-83045480D01*
X129386107Y-83032867D01*
X129366402Y-83018253D01*
X129348223Y-83001777D01*
X129331747Y-82983598D01*
X129317133Y-82963893D01*
X129304520Y-82942849D01*
X129294030Y-82920671D01*
X129285765Y-82897571D01*
X129279804Y-82873773D01*
X129276204Y-82849504D01*
X129275000Y-82825000D01*
X129275000Y-81575000D01*
X129276204Y-81550496D01*
X129279804Y-81526227D01*
X129285765Y-81502429D01*
X129294030Y-81479329D01*
X129304520Y-81457151D01*
X129317133Y-81436107D01*
X129331747Y-81416402D01*
X129348223Y-81398223D01*
X129366402Y-81381747D01*
X129386107Y-81367133D01*
X129407151Y-81354520D01*
X129429329Y-81344030D01*
X129452429Y-81335765D01*
X129476227Y-81329804D01*
X129500496Y-81326204D01*
X129525000Y-81325000D01*
X130275000Y-81325000D01*
X130299504Y-81326204D01*
X130299504Y-81326204D01*
G37*
D11*
X129900000Y-82200000D03*
D10*
G36*
X127499504Y-81326204D02*
G01*
X127523773Y-81329804D01*
X127547571Y-81335765D01*
X127570671Y-81344030D01*
X127592849Y-81354520D01*
X127613893Y-81367133D01*
X127633598Y-81381747D01*
X127651777Y-81398223D01*
X127668253Y-81416402D01*
X127682867Y-81436107D01*
X127695480Y-81457151D01*
X127705970Y-81479329D01*
X127714235Y-81502429D01*
X127720196Y-81526227D01*
X127723796Y-81550496D01*
X127725000Y-81575000D01*
X127725000Y-82825000D01*
X127723796Y-82849504D01*
X127720196Y-82873773D01*
X127714235Y-82897571D01*
X127705970Y-82920671D01*
X127695480Y-82942849D01*
X127682867Y-82963893D01*
X127668253Y-82983598D01*
X127651777Y-83001777D01*
X127633598Y-83018253D01*
X127613893Y-83032867D01*
X127592849Y-83045480D01*
X127570671Y-83055970D01*
X127547571Y-83064235D01*
X127523773Y-83070196D01*
X127499504Y-83073796D01*
X127475000Y-83075000D01*
X126725000Y-83075000D01*
X126700496Y-83073796D01*
X126676227Y-83070196D01*
X126652429Y-83064235D01*
X126629329Y-83055970D01*
X126607151Y-83045480D01*
X126586107Y-83032867D01*
X126566402Y-83018253D01*
X126548223Y-83001777D01*
X126531747Y-82983598D01*
X126517133Y-82963893D01*
X126504520Y-82942849D01*
X126494030Y-82920671D01*
X126485765Y-82897571D01*
X126479804Y-82873773D01*
X126476204Y-82849504D01*
X126475000Y-82825000D01*
X126475000Y-81575000D01*
X126476204Y-81550496D01*
X126479804Y-81526227D01*
X126485765Y-81502429D01*
X126494030Y-81479329D01*
X126504520Y-81457151D01*
X126517133Y-81436107D01*
X126531747Y-81416402D01*
X126548223Y-81398223D01*
X126566402Y-81381747D01*
X126586107Y-81367133D01*
X126607151Y-81354520D01*
X126629329Y-81344030D01*
X126652429Y-81335765D01*
X126676227Y-81329804D01*
X126700496Y-81326204D01*
X126725000Y-81325000D01*
X127475000Y-81325000D01*
X127499504Y-81326204D01*
X127499504Y-81326204D01*
G37*
D11*
X127100000Y-82200000D03*
D10*
G36*
X121099504Y-81126204D02*
G01*
X121123773Y-81129804D01*
X121147571Y-81135765D01*
X121170671Y-81144030D01*
X121192849Y-81154520D01*
X121213893Y-81167133D01*
X121233598Y-81181747D01*
X121251777Y-81198223D01*
X121268253Y-81216402D01*
X121282867Y-81236107D01*
X121295480Y-81257151D01*
X121305970Y-81279329D01*
X121314235Y-81302429D01*
X121320196Y-81326227D01*
X121323796Y-81350496D01*
X121325000Y-81375000D01*
X121325000Y-82625000D01*
X121323796Y-82649504D01*
X121320196Y-82673773D01*
X121314235Y-82697571D01*
X121305970Y-82720671D01*
X121295480Y-82742849D01*
X121282867Y-82763893D01*
X121268253Y-82783598D01*
X121251777Y-82801777D01*
X121233598Y-82818253D01*
X121213893Y-82832867D01*
X121192849Y-82845480D01*
X121170671Y-82855970D01*
X121147571Y-82864235D01*
X121123773Y-82870196D01*
X121099504Y-82873796D01*
X121075000Y-82875000D01*
X120325000Y-82875000D01*
X120300496Y-82873796D01*
X120276227Y-82870196D01*
X120252429Y-82864235D01*
X120229329Y-82855970D01*
X120207151Y-82845480D01*
X120186107Y-82832867D01*
X120166402Y-82818253D01*
X120148223Y-82801777D01*
X120131747Y-82783598D01*
X120117133Y-82763893D01*
X120104520Y-82742849D01*
X120094030Y-82720671D01*
X120085765Y-82697571D01*
X120079804Y-82673773D01*
X120076204Y-82649504D01*
X120075000Y-82625000D01*
X120075000Y-81375000D01*
X120076204Y-81350496D01*
X120079804Y-81326227D01*
X120085765Y-81302429D01*
X120094030Y-81279329D01*
X120104520Y-81257151D01*
X120117133Y-81236107D01*
X120131747Y-81216402D01*
X120148223Y-81198223D01*
X120166402Y-81181747D01*
X120186107Y-81167133D01*
X120207151Y-81154520D01*
X120229329Y-81144030D01*
X120252429Y-81135765D01*
X120276227Y-81129804D01*
X120300496Y-81126204D01*
X120325000Y-81125000D01*
X121075000Y-81125000D01*
X121099504Y-81126204D01*
X121099504Y-81126204D01*
G37*
D11*
X120700000Y-82000000D03*
D10*
G36*
X123899504Y-81126204D02*
G01*
X123923773Y-81129804D01*
X123947571Y-81135765D01*
X123970671Y-81144030D01*
X123992849Y-81154520D01*
X124013893Y-81167133D01*
X124033598Y-81181747D01*
X124051777Y-81198223D01*
X124068253Y-81216402D01*
X124082867Y-81236107D01*
X124095480Y-81257151D01*
X124105970Y-81279329D01*
X124114235Y-81302429D01*
X124120196Y-81326227D01*
X124123796Y-81350496D01*
X124125000Y-81375000D01*
X124125000Y-82625000D01*
X124123796Y-82649504D01*
X124120196Y-82673773D01*
X124114235Y-82697571D01*
X124105970Y-82720671D01*
X124095480Y-82742849D01*
X124082867Y-82763893D01*
X124068253Y-82783598D01*
X124051777Y-82801777D01*
X124033598Y-82818253D01*
X124013893Y-82832867D01*
X123992849Y-82845480D01*
X123970671Y-82855970D01*
X123947571Y-82864235D01*
X123923773Y-82870196D01*
X123899504Y-82873796D01*
X123875000Y-82875000D01*
X123125000Y-82875000D01*
X123100496Y-82873796D01*
X123076227Y-82870196D01*
X123052429Y-82864235D01*
X123029329Y-82855970D01*
X123007151Y-82845480D01*
X122986107Y-82832867D01*
X122966402Y-82818253D01*
X122948223Y-82801777D01*
X122931747Y-82783598D01*
X122917133Y-82763893D01*
X122904520Y-82742849D01*
X122894030Y-82720671D01*
X122885765Y-82697571D01*
X122879804Y-82673773D01*
X122876204Y-82649504D01*
X122875000Y-82625000D01*
X122875000Y-81375000D01*
X122876204Y-81350496D01*
X122879804Y-81326227D01*
X122885765Y-81302429D01*
X122894030Y-81279329D01*
X122904520Y-81257151D01*
X122917133Y-81236107D01*
X122931747Y-81216402D01*
X122948223Y-81198223D01*
X122966402Y-81181747D01*
X122986107Y-81167133D01*
X123007151Y-81154520D01*
X123029329Y-81144030D01*
X123052429Y-81135765D01*
X123076227Y-81129804D01*
X123100496Y-81126204D01*
X123125000Y-81125000D01*
X123875000Y-81125000D01*
X123899504Y-81126204D01*
X123899504Y-81126204D01*
G37*
D11*
X123500000Y-82000000D03*
D10*
G36*
X130599504Y-87926204D02*
G01*
X130623773Y-87929804D01*
X130647571Y-87935765D01*
X130670671Y-87944030D01*
X130692849Y-87954520D01*
X130713893Y-87967133D01*
X130733598Y-87981747D01*
X130751777Y-87998223D01*
X130768253Y-88016402D01*
X130782867Y-88036107D01*
X130795480Y-88057151D01*
X130805970Y-88079329D01*
X130814235Y-88102429D01*
X130820196Y-88126227D01*
X130823796Y-88150496D01*
X130825000Y-88175000D01*
X130825000Y-89425000D01*
X130823796Y-89449504D01*
X130820196Y-89473773D01*
X130814235Y-89497571D01*
X130805970Y-89520671D01*
X130795480Y-89542849D01*
X130782867Y-89563893D01*
X130768253Y-89583598D01*
X130751777Y-89601777D01*
X130733598Y-89618253D01*
X130713893Y-89632867D01*
X130692849Y-89645480D01*
X130670671Y-89655970D01*
X130647571Y-89664235D01*
X130623773Y-89670196D01*
X130599504Y-89673796D01*
X130575000Y-89675000D01*
X129825000Y-89675000D01*
X129800496Y-89673796D01*
X129776227Y-89670196D01*
X129752429Y-89664235D01*
X129729329Y-89655970D01*
X129707151Y-89645480D01*
X129686107Y-89632867D01*
X129666402Y-89618253D01*
X129648223Y-89601777D01*
X129631747Y-89583598D01*
X129617133Y-89563893D01*
X129604520Y-89542849D01*
X129594030Y-89520671D01*
X129585765Y-89497571D01*
X129579804Y-89473773D01*
X129576204Y-89449504D01*
X129575000Y-89425000D01*
X129575000Y-88175000D01*
X129576204Y-88150496D01*
X129579804Y-88126227D01*
X129585765Y-88102429D01*
X129594030Y-88079329D01*
X129604520Y-88057151D01*
X129617133Y-88036107D01*
X129631747Y-88016402D01*
X129648223Y-87998223D01*
X129666402Y-87981747D01*
X129686107Y-87967133D01*
X129707151Y-87954520D01*
X129729329Y-87944030D01*
X129752429Y-87935765D01*
X129776227Y-87929804D01*
X129800496Y-87926204D01*
X129825000Y-87925000D01*
X130575000Y-87925000D01*
X130599504Y-87926204D01*
X130599504Y-87926204D01*
G37*
D11*
X130200000Y-88800000D03*
D10*
G36*
X127799504Y-87926204D02*
G01*
X127823773Y-87929804D01*
X127847571Y-87935765D01*
X127870671Y-87944030D01*
X127892849Y-87954520D01*
X127913893Y-87967133D01*
X127933598Y-87981747D01*
X127951777Y-87998223D01*
X127968253Y-88016402D01*
X127982867Y-88036107D01*
X127995480Y-88057151D01*
X128005970Y-88079329D01*
X128014235Y-88102429D01*
X128020196Y-88126227D01*
X128023796Y-88150496D01*
X128025000Y-88175000D01*
X128025000Y-89425000D01*
X128023796Y-89449504D01*
X128020196Y-89473773D01*
X128014235Y-89497571D01*
X128005970Y-89520671D01*
X127995480Y-89542849D01*
X127982867Y-89563893D01*
X127968253Y-89583598D01*
X127951777Y-89601777D01*
X127933598Y-89618253D01*
X127913893Y-89632867D01*
X127892849Y-89645480D01*
X127870671Y-89655970D01*
X127847571Y-89664235D01*
X127823773Y-89670196D01*
X127799504Y-89673796D01*
X127775000Y-89675000D01*
X127025000Y-89675000D01*
X127000496Y-89673796D01*
X126976227Y-89670196D01*
X126952429Y-89664235D01*
X126929329Y-89655970D01*
X126907151Y-89645480D01*
X126886107Y-89632867D01*
X126866402Y-89618253D01*
X126848223Y-89601777D01*
X126831747Y-89583598D01*
X126817133Y-89563893D01*
X126804520Y-89542849D01*
X126794030Y-89520671D01*
X126785765Y-89497571D01*
X126779804Y-89473773D01*
X126776204Y-89449504D01*
X126775000Y-89425000D01*
X126775000Y-88175000D01*
X126776204Y-88150496D01*
X126779804Y-88126227D01*
X126785765Y-88102429D01*
X126794030Y-88079329D01*
X126804520Y-88057151D01*
X126817133Y-88036107D01*
X126831747Y-88016402D01*
X126848223Y-87998223D01*
X126866402Y-87981747D01*
X126886107Y-87967133D01*
X126907151Y-87954520D01*
X126929329Y-87944030D01*
X126952429Y-87935765D01*
X126976227Y-87929804D01*
X127000496Y-87926204D01*
X127025000Y-87925000D01*
X127775000Y-87925000D01*
X127799504Y-87926204D01*
X127799504Y-87926204D01*
G37*
D11*
X127400000Y-88800000D03*
D10*
G36*
X110749504Y-88476204D02*
G01*
X110773773Y-88479804D01*
X110797571Y-88485765D01*
X110820671Y-88494030D01*
X110842849Y-88504520D01*
X110863893Y-88517133D01*
X110883598Y-88531747D01*
X110901777Y-88548223D01*
X110918253Y-88566402D01*
X110932867Y-88586107D01*
X110945480Y-88607151D01*
X110955970Y-88629329D01*
X110964235Y-88652429D01*
X110970196Y-88676227D01*
X110973796Y-88700496D01*
X110975000Y-88725000D01*
X110975000Y-89475000D01*
X110973796Y-89499504D01*
X110970196Y-89523773D01*
X110964235Y-89547571D01*
X110955970Y-89570671D01*
X110945480Y-89592849D01*
X110932867Y-89613893D01*
X110918253Y-89633598D01*
X110901777Y-89651777D01*
X110883598Y-89668253D01*
X110863893Y-89682867D01*
X110842849Y-89695480D01*
X110820671Y-89705970D01*
X110797571Y-89714235D01*
X110773773Y-89720196D01*
X110749504Y-89723796D01*
X110725000Y-89725000D01*
X109475000Y-89725000D01*
X109450496Y-89723796D01*
X109426227Y-89720196D01*
X109402429Y-89714235D01*
X109379329Y-89705970D01*
X109357151Y-89695480D01*
X109336107Y-89682867D01*
X109316402Y-89668253D01*
X109298223Y-89651777D01*
X109281747Y-89633598D01*
X109267133Y-89613893D01*
X109254520Y-89592849D01*
X109244030Y-89570671D01*
X109235765Y-89547571D01*
X109229804Y-89523773D01*
X109226204Y-89499504D01*
X109225000Y-89475000D01*
X109225000Y-88725000D01*
X109226204Y-88700496D01*
X109229804Y-88676227D01*
X109235765Y-88652429D01*
X109244030Y-88629329D01*
X109254520Y-88607151D01*
X109267133Y-88586107D01*
X109281747Y-88566402D01*
X109298223Y-88548223D01*
X109316402Y-88531747D01*
X109336107Y-88517133D01*
X109357151Y-88504520D01*
X109379329Y-88494030D01*
X109402429Y-88485765D01*
X109426227Y-88479804D01*
X109450496Y-88476204D01*
X109475000Y-88475000D01*
X110725000Y-88475000D01*
X110749504Y-88476204D01*
X110749504Y-88476204D01*
G37*
D11*
X110100000Y-89100000D03*
D10*
G36*
X110749504Y-91276204D02*
G01*
X110773773Y-91279804D01*
X110797571Y-91285765D01*
X110820671Y-91294030D01*
X110842849Y-91304520D01*
X110863893Y-91317133D01*
X110883598Y-91331747D01*
X110901777Y-91348223D01*
X110918253Y-91366402D01*
X110932867Y-91386107D01*
X110945480Y-91407151D01*
X110955970Y-91429329D01*
X110964235Y-91452429D01*
X110970196Y-91476227D01*
X110973796Y-91500496D01*
X110975000Y-91525000D01*
X110975000Y-92275000D01*
X110973796Y-92299504D01*
X110970196Y-92323773D01*
X110964235Y-92347571D01*
X110955970Y-92370671D01*
X110945480Y-92392849D01*
X110932867Y-92413893D01*
X110918253Y-92433598D01*
X110901777Y-92451777D01*
X110883598Y-92468253D01*
X110863893Y-92482867D01*
X110842849Y-92495480D01*
X110820671Y-92505970D01*
X110797571Y-92514235D01*
X110773773Y-92520196D01*
X110749504Y-92523796D01*
X110725000Y-92525000D01*
X109475000Y-92525000D01*
X109450496Y-92523796D01*
X109426227Y-92520196D01*
X109402429Y-92514235D01*
X109379329Y-92505970D01*
X109357151Y-92495480D01*
X109336107Y-92482867D01*
X109316402Y-92468253D01*
X109298223Y-92451777D01*
X109281747Y-92433598D01*
X109267133Y-92413893D01*
X109254520Y-92392849D01*
X109244030Y-92370671D01*
X109235765Y-92347571D01*
X109229804Y-92323773D01*
X109226204Y-92299504D01*
X109225000Y-92275000D01*
X109225000Y-91525000D01*
X109226204Y-91500496D01*
X109229804Y-91476227D01*
X109235765Y-91452429D01*
X109244030Y-91429329D01*
X109254520Y-91407151D01*
X109267133Y-91386107D01*
X109281747Y-91366402D01*
X109298223Y-91348223D01*
X109316402Y-91331747D01*
X109336107Y-91317133D01*
X109357151Y-91304520D01*
X109379329Y-91294030D01*
X109402429Y-91285765D01*
X109426227Y-91279804D01*
X109450496Y-91276204D01*
X109475000Y-91275000D01*
X110725000Y-91275000D01*
X110749504Y-91276204D01*
X110749504Y-91276204D01*
G37*
D11*
X110100000Y-91900000D03*
D10*
G36*
X109599504Y-102026204D02*
G01*
X109623773Y-102029804D01*
X109647571Y-102035765D01*
X109670671Y-102044030D01*
X109692849Y-102054520D01*
X109713893Y-102067133D01*
X109733598Y-102081747D01*
X109751777Y-102098223D01*
X109768253Y-102116402D01*
X109782867Y-102136107D01*
X109795480Y-102157151D01*
X109805970Y-102179329D01*
X109814235Y-102202429D01*
X109820196Y-102226227D01*
X109823796Y-102250496D01*
X109825000Y-102275000D01*
X109825000Y-103525000D01*
X109823796Y-103549504D01*
X109820196Y-103573773D01*
X109814235Y-103597571D01*
X109805970Y-103620671D01*
X109795480Y-103642849D01*
X109782867Y-103663893D01*
X109768253Y-103683598D01*
X109751777Y-103701777D01*
X109733598Y-103718253D01*
X109713893Y-103732867D01*
X109692849Y-103745480D01*
X109670671Y-103755970D01*
X109647571Y-103764235D01*
X109623773Y-103770196D01*
X109599504Y-103773796D01*
X109575000Y-103775000D01*
X108825000Y-103775000D01*
X108800496Y-103773796D01*
X108776227Y-103770196D01*
X108752429Y-103764235D01*
X108729329Y-103755970D01*
X108707151Y-103745480D01*
X108686107Y-103732867D01*
X108666402Y-103718253D01*
X108648223Y-103701777D01*
X108631747Y-103683598D01*
X108617133Y-103663893D01*
X108604520Y-103642849D01*
X108594030Y-103620671D01*
X108585765Y-103597571D01*
X108579804Y-103573773D01*
X108576204Y-103549504D01*
X108575000Y-103525000D01*
X108575000Y-102275000D01*
X108576204Y-102250496D01*
X108579804Y-102226227D01*
X108585765Y-102202429D01*
X108594030Y-102179329D01*
X108604520Y-102157151D01*
X108617133Y-102136107D01*
X108631747Y-102116402D01*
X108648223Y-102098223D01*
X108666402Y-102081747D01*
X108686107Y-102067133D01*
X108707151Y-102054520D01*
X108729329Y-102044030D01*
X108752429Y-102035765D01*
X108776227Y-102029804D01*
X108800496Y-102026204D01*
X108825000Y-102025000D01*
X109575000Y-102025000D01*
X109599504Y-102026204D01*
X109599504Y-102026204D01*
G37*
D11*
X109200000Y-102900000D03*
D10*
G36*
X112399504Y-102026204D02*
G01*
X112423773Y-102029804D01*
X112447571Y-102035765D01*
X112470671Y-102044030D01*
X112492849Y-102054520D01*
X112513893Y-102067133D01*
X112533598Y-102081747D01*
X112551777Y-102098223D01*
X112568253Y-102116402D01*
X112582867Y-102136107D01*
X112595480Y-102157151D01*
X112605970Y-102179329D01*
X112614235Y-102202429D01*
X112620196Y-102226227D01*
X112623796Y-102250496D01*
X112625000Y-102275000D01*
X112625000Y-103525000D01*
X112623796Y-103549504D01*
X112620196Y-103573773D01*
X112614235Y-103597571D01*
X112605970Y-103620671D01*
X112595480Y-103642849D01*
X112582867Y-103663893D01*
X112568253Y-103683598D01*
X112551777Y-103701777D01*
X112533598Y-103718253D01*
X112513893Y-103732867D01*
X112492849Y-103745480D01*
X112470671Y-103755970D01*
X112447571Y-103764235D01*
X112423773Y-103770196D01*
X112399504Y-103773796D01*
X112375000Y-103775000D01*
X111625000Y-103775000D01*
X111600496Y-103773796D01*
X111576227Y-103770196D01*
X111552429Y-103764235D01*
X111529329Y-103755970D01*
X111507151Y-103745480D01*
X111486107Y-103732867D01*
X111466402Y-103718253D01*
X111448223Y-103701777D01*
X111431747Y-103683598D01*
X111417133Y-103663893D01*
X111404520Y-103642849D01*
X111394030Y-103620671D01*
X111385765Y-103597571D01*
X111379804Y-103573773D01*
X111376204Y-103549504D01*
X111375000Y-103525000D01*
X111375000Y-102275000D01*
X111376204Y-102250496D01*
X111379804Y-102226227D01*
X111385765Y-102202429D01*
X111394030Y-102179329D01*
X111404520Y-102157151D01*
X111417133Y-102136107D01*
X111431747Y-102116402D01*
X111448223Y-102098223D01*
X111466402Y-102081747D01*
X111486107Y-102067133D01*
X111507151Y-102054520D01*
X111529329Y-102044030D01*
X111552429Y-102035765D01*
X111576227Y-102029804D01*
X111600496Y-102026204D01*
X111625000Y-102025000D01*
X112375000Y-102025000D01*
X112399504Y-102026204D01*
X112399504Y-102026204D01*
G37*
D11*
X112000000Y-102900000D03*
D17*
X117700000Y-90850000D03*
X117700000Y-82350000D03*
D10*
G36*
X115949504Y-103176204D02*
G01*
X115973773Y-103179804D01*
X115997571Y-103185765D01*
X116020671Y-103194030D01*
X116042849Y-103204520D01*
X116063893Y-103217133D01*
X116083598Y-103231747D01*
X116101777Y-103248223D01*
X116118253Y-103266402D01*
X116132867Y-103286107D01*
X116145480Y-103307151D01*
X116155970Y-103329329D01*
X116164235Y-103352429D01*
X116170196Y-103376227D01*
X116173796Y-103400496D01*
X116175000Y-103425000D01*
X116175000Y-104175000D01*
X116173796Y-104199504D01*
X116170196Y-104223773D01*
X116164235Y-104247571D01*
X116155970Y-104270671D01*
X116145480Y-104292849D01*
X116132867Y-104313893D01*
X116118253Y-104333598D01*
X116101777Y-104351777D01*
X116083598Y-104368253D01*
X116063893Y-104382867D01*
X116042849Y-104395480D01*
X116020671Y-104405970D01*
X115997571Y-104414235D01*
X115973773Y-104420196D01*
X115949504Y-104423796D01*
X115925000Y-104425000D01*
X114675000Y-104425000D01*
X114650496Y-104423796D01*
X114626227Y-104420196D01*
X114602429Y-104414235D01*
X114579329Y-104405970D01*
X114557151Y-104395480D01*
X114536107Y-104382867D01*
X114516402Y-104368253D01*
X114498223Y-104351777D01*
X114481747Y-104333598D01*
X114467133Y-104313893D01*
X114454520Y-104292849D01*
X114444030Y-104270671D01*
X114435765Y-104247571D01*
X114429804Y-104223773D01*
X114426204Y-104199504D01*
X114425000Y-104175000D01*
X114425000Y-103425000D01*
X114426204Y-103400496D01*
X114429804Y-103376227D01*
X114435765Y-103352429D01*
X114444030Y-103329329D01*
X114454520Y-103307151D01*
X114467133Y-103286107D01*
X114481747Y-103266402D01*
X114498223Y-103248223D01*
X114516402Y-103231747D01*
X114536107Y-103217133D01*
X114557151Y-103204520D01*
X114579329Y-103194030D01*
X114602429Y-103185765D01*
X114626227Y-103179804D01*
X114650496Y-103176204D01*
X114675000Y-103175000D01*
X115925000Y-103175000D01*
X115949504Y-103176204D01*
X115949504Y-103176204D01*
G37*
D11*
X115300000Y-103800000D03*
D10*
G36*
X115949504Y-100376204D02*
G01*
X115973773Y-100379804D01*
X115997571Y-100385765D01*
X116020671Y-100394030D01*
X116042849Y-100404520D01*
X116063893Y-100417133D01*
X116083598Y-100431747D01*
X116101777Y-100448223D01*
X116118253Y-100466402D01*
X116132867Y-100486107D01*
X116145480Y-100507151D01*
X116155970Y-100529329D01*
X116164235Y-100552429D01*
X116170196Y-100576227D01*
X116173796Y-100600496D01*
X116175000Y-100625000D01*
X116175000Y-101375000D01*
X116173796Y-101399504D01*
X116170196Y-101423773D01*
X116164235Y-101447571D01*
X116155970Y-101470671D01*
X116145480Y-101492849D01*
X116132867Y-101513893D01*
X116118253Y-101533598D01*
X116101777Y-101551777D01*
X116083598Y-101568253D01*
X116063893Y-101582867D01*
X116042849Y-101595480D01*
X116020671Y-101605970D01*
X115997571Y-101614235D01*
X115973773Y-101620196D01*
X115949504Y-101623796D01*
X115925000Y-101625000D01*
X114675000Y-101625000D01*
X114650496Y-101623796D01*
X114626227Y-101620196D01*
X114602429Y-101614235D01*
X114579329Y-101605970D01*
X114557151Y-101595480D01*
X114536107Y-101582867D01*
X114516402Y-101568253D01*
X114498223Y-101551777D01*
X114481747Y-101533598D01*
X114467133Y-101513893D01*
X114454520Y-101492849D01*
X114444030Y-101470671D01*
X114435765Y-101447571D01*
X114429804Y-101423773D01*
X114426204Y-101399504D01*
X114425000Y-101375000D01*
X114425000Y-100625000D01*
X114426204Y-100600496D01*
X114429804Y-100576227D01*
X114435765Y-100552429D01*
X114444030Y-100529329D01*
X114454520Y-100507151D01*
X114467133Y-100486107D01*
X114481747Y-100466402D01*
X114498223Y-100448223D01*
X114516402Y-100431747D01*
X114536107Y-100417133D01*
X114557151Y-100404520D01*
X114579329Y-100394030D01*
X114602429Y-100385765D01*
X114626227Y-100379804D01*
X114650496Y-100376204D01*
X114675000Y-100375000D01*
X115925000Y-100375000D01*
X115949504Y-100376204D01*
X115949504Y-100376204D01*
G37*
D11*
X115300000Y-101000000D03*
D10*
G36*
X104449504Y-109776204D02*
G01*
X104473773Y-109779804D01*
X104497571Y-109785765D01*
X104520671Y-109794030D01*
X104542849Y-109804520D01*
X104563893Y-109817133D01*
X104583598Y-109831747D01*
X104601777Y-109848223D01*
X104618253Y-109866402D01*
X104632867Y-109886107D01*
X104645480Y-109907151D01*
X104655970Y-109929329D01*
X104664235Y-109952429D01*
X104670196Y-109976227D01*
X104673796Y-110000496D01*
X104675000Y-110025000D01*
X104675000Y-110775000D01*
X104673796Y-110799504D01*
X104670196Y-110823773D01*
X104664235Y-110847571D01*
X104655970Y-110870671D01*
X104645480Y-110892849D01*
X104632867Y-110913893D01*
X104618253Y-110933598D01*
X104601777Y-110951777D01*
X104583598Y-110968253D01*
X104563893Y-110982867D01*
X104542849Y-110995480D01*
X104520671Y-111005970D01*
X104497571Y-111014235D01*
X104473773Y-111020196D01*
X104449504Y-111023796D01*
X104425000Y-111025000D01*
X103175000Y-111025000D01*
X103150496Y-111023796D01*
X103126227Y-111020196D01*
X103102429Y-111014235D01*
X103079329Y-111005970D01*
X103057151Y-110995480D01*
X103036107Y-110982867D01*
X103016402Y-110968253D01*
X102998223Y-110951777D01*
X102981747Y-110933598D01*
X102967133Y-110913893D01*
X102954520Y-110892849D01*
X102944030Y-110870671D01*
X102935765Y-110847571D01*
X102929804Y-110823773D01*
X102926204Y-110799504D01*
X102925000Y-110775000D01*
X102925000Y-110025000D01*
X102926204Y-110000496D01*
X102929804Y-109976227D01*
X102935765Y-109952429D01*
X102944030Y-109929329D01*
X102954520Y-109907151D01*
X102967133Y-109886107D01*
X102981747Y-109866402D01*
X102998223Y-109848223D01*
X103016402Y-109831747D01*
X103036107Y-109817133D01*
X103057151Y-109804520D01*
X103079329Y-109794030D01*
X103102429Y-109785765D01*
X103126227Y-109779804D01*
X103150496Y-109776204D01*
X103175000Y-109775000D01*
X104425000Y-109775000D01*
X104449504Y-109776204D01*
X104449504Y-109776204D01*
G37*
D11*
X103800000Y-110400000D03*
D10*
G36*
X104449504Y-112576204D02*
G01*
X104473773Y-112579804D01*
X104497571Y-112585765D01*
X104520671Y-112594030D01*
X104542849Y-112604520D01*
X104563893Y-112617133D01*
X104583598Y-112631747D01*
X104601777Y-112648223D01*
X104618253Y-112666402D01*
X104632867Y-112686107D01*
X104645480Y-112707151D01*
X104655970Y-112729329D01*
X104664235Y-112752429D01*
X104670196Y-112776227D01*
X104673796Y-112800496D01*
X104675000Y-112825000D01*
X104675000Y-113575000D01*
X104673796Y-113599504D01*
X104670196Y-113623773D01*
X104664235Y-113647571D01*
X104655970Y-113670671D01*
X104645480Y-113692849D01*
X104632867Y-113713893D01*
X104618253Y-113733598D01*
X104601777Y-113751777D01*
X104583598Y-113768253D01*
X104563893Y-113782867D01*
X104542849Y-113795480D01*
X104520671Y-113805970D01*
X104497571Y-113814235D01*
X104473773Y-113820196D01*
X104449504Y-113823796D01*
X104425000Y-113825000D01*
X103175000Y-113825000D01*
X103150496Y-113823796D01*
X103126227Y-113820196D01*
X103102429Y-113814235D01*
X103079329Y-113805970D01*
X103057151Y-113795480D01*
X103036107Y-113782867D01*
X103016402Y-113768253D01*
X102998223Y-113751777D01*
X102981747Y-113733598D01*
X102967133Y-113713893D01*
X102954520Y-113692849D01*
X102944030Y-113670671D01*
X102935765Y-113647571D01*
X102929804Y-113623773D01*
X102926204Y-113599504D01*
X102925000Y-113575000D01*
X102925000Y-112825000D01*
X102926204Y-112800496D01*
X102929804Y-112776227D01*
X102935765Y-112752429D01*
X102944030Y-112729329D01*
X102954520Y-112707151D01*
X102967133Y-112686107D01*
X102981747Y-112666402D01*
X102998223Y-112648223D01*
X103016402Y-112631747D01*
X103036107Y-112617133D01*
X103057151Y-112604520D01*
X103079329Y-112594030D01*
X103102429Y-112585765D01*
X103126227Y-112579804D01*
X103150496Y-112576204D01*
X103175000Y-112575000D01*
X104425000Y-112575000D01*
X104449504Y-112576204D01*
X104449504Y-112576204D01*
G37*
D11*
X103800000Y-113200000D03*
D16*
X100550000Y-105200000D03*
X104050000Y-105200000D03*
X134350000Y-81000000D03*
X142850000Y-81000000D03*
D18*
X78100000Y-89450000D03*
X78100000Y-92750000D03*
D17*
X95000000Y-99050000D03*
X95000000Y-111550000D03*
X118000000Y-95550000D03*
X118000000Y-108050000D03*
D19*
X68000000Y-76300000D03*
X68000000Y-77600000D03*
X68000000Y-78900000D03*
D10*
G36*
X65699504Y-95026204D02*
G01*
X65723773Y-95029804D01*
X65747571Y-95035765D01*
X65770671Y-95044030D01*
X65792849Y-95054520D01*
X65813893Y-95067133D01*
X65833598Y-95081747D01*
X65851777Y-95098223D01*
X65868253Y-95116402D01*
X65882867Y-95136107D01*
X65895480Y-95157151D01*
X65905970Y-95179329D01*
X65914235Y-95202429D01*
X65920196Y-95226227D01*
X65923796Y-95250496D01*
X65925000Y-95275000D01*
X65925000Y-96525000D01*
X65923796Y-96549504D01*
X65920196Y-96573773D01*
X65914235Y-96597571D01*
X65905970Y-96620671D01*
X65895480Y-96642849D01*
X65882867Y-96663893D01*
X65868253Y-96683598D01*
X65851777Y-96701777D01*
X65833598Y-96718253D01*
X65813893Y-96732867D01*
X65792849Y-96745480D01*
X65770671Y-96755970D01*
X65747571Y-96764235D01*
X65723773Y-96770196D01*
X65699504Y-96773796D01*
X65675000Y-96775000D01*
X64925000Y-96775000D01*
X64900496Y-96773796D01*
X64876227Y-96770196D01*
X64852429Y-96764235D01*
X64829329Y-96755970D01*
X64807151Y-96745480D01*
X64786107Y-96732867D01*
X64766402Y-96718253D01*
X64748223Y-96701777D01*
X64731747Y-96683598D01*
X64717133Y-96663893D01*
X64704520Y-96642849D01*
X64694030Y-96620671D01*
X64685765Y-96597571D01*
X64679804Y-96573773D01*
X64676204Y-96549504D01*
X64675000Y-96525000D01*
X64675000Y-95275000D01*
X64676204Y-95250496D01*
X64679804Y-95226227D01*
X64685765Y-95202429D01*
X64694030Y-95179329D01*
X64704520Y-95157151D01*
X64717133Y-95136107D01*
X64731747Y-95116402D01*
X64748223Y-95098223D01*
X64766402Y-95081747D01*
X64786107Y-95067133D01*
X64807151Y-95054520D01*
X64829329Y-95044030D01*
X64852429Y-95035765D01*
X64876227Y-95029804D01*
X64900496Y-95026204D01*
X64925000Y-95025000D01*
X65675000Y-95025000D01*
X65699504Y-95026204D01*
X65699504Y-95026204D01*
G37*
D11*
X65300000Y-95900000D03*
D10*
G36*
X62899504Y-95026204D02*
G01*
X62923773Y-95029804D01*
X62947571Y-95035765D01*
X62970671Y-95044030D01*
X62992849Y-95054520D01*
X63013893Y-95067133D01*
X63033598Y-95081747D01*
X63051777Y-95098223D01*
X63068253Y-95116402D01*
X63082867Y-95136107D01*
X63095480Y-95157151D01*
X63105970Y-95179329D01*
X63114235Y-95202429D01*
X63120196Y-95226227D01*
X63123796Y-95250496D01*
X63125000Y-95275000D01*
X63125000Y-96525000D01*
X63123796Y-96549504D01*
X63120196Y-96573773D01*
X63114235Y-96597571D01*
X63105970Y-96620671D01*
X63095480Y-96642849D01*
X63082867Y-96663893D01*
X63068253Y-96683598D01*
X63051777Y-96701777D01*
X63033598Y-96718253D01*
X63013893Y-96732867D01*
X62992849Y-96745480D01*
X62970671Y-96755970D01*
X62947571Y-96764235D01*
X62923773Y-96770196D01*
X62899504Y-96773796D01*
X62875000Y-96775000D01*
X62125000Y-96775000D01*
X62100496Y-96773796D01*
X62076227Y-96770196D01*
X62052429Y-96764235D01*
X62029329Y-96755970D01*
X62007151Y-96745480D01*
X61986107Y-96732867D01*
X61966402Y-96718253D01*
X61948223Y-96701777D01*
X61931747Y-96683598D01*
X61917133Y-96663893D01*
X61904520Y-96642849D01*
X61894030Y-96620671D01*
X61885765Y-96597571D01*
X61879804Y-96573773D01*
X61876204Y-96549504D01*
X61875000Y-96525000D01*
X61875000Y-95275000D01*
X61876204Y-95250496D01*
X61879804Y-95226227D01*
X61885765Y-95202429D01*
X61894030Y-95179329D01*
X61904520Y-95157151D01*
X61917133Y-95136107D01*
X61931747Y-95116402D01*
X61948223Y-95098223D01*
X61966402Y-95081747D01*
X61986107Y-95067133D01*
X62007151Y-95054520D01*
X62029329Y-95044030D01*
X62052429Y-95035765D01*
X62076227Y-95029804D01*
X62100496Y-95026204D01*
X62125000Y-95025000D01*
X62875000Y-95025000D01*
X62899504Y-95026204D01*
X62899504Y-95026204D01*
G37*
D11*
X62500000Y-95900000D03*
D10*
G36*
X70499504Y-95026204D02*
G01*
X70523773Y-95029804D01*
X70547571Y-95035765D01*
X70570671Y-95044030D01*
X70592849Y-95054520D01*
X70613893Y-95067133D01*
X70633598Y-95081747D01*
X70651777Y-95098223D01*
X70668253Y-95116402D01*
X70682867Y-95136107D01*
X70695480Y-95157151D01*
X70705970Y-95179329D01*
X70714235Y-95202429D01*
X70720196Y-95226227D01*
X70723796Y-95250496D01*
X70725000Y-95275000D01*
X70725000Y-96525000D01*
X70723796Y-96549504D01*
X70720196Y-96573773D01*
X70714235Y-96597571D01*
X70705970Y-96620671D01*
X70695480Y-96642849D01*
X70682867Y-96663893D01*
X70668253Y-96683598D01*
X70651777Y-96701777D01*
X70633598Y-96718253D01*
X70613893Y-96732867D01*
X70592849Y-96745480D01*
X70570671Y-96755970D01*
X70547571Y-96764235D01*
X70523773Y-96770196D01*
X70499504Y-96773796D01*
X70475000Y-96775000D01*
X69725000Y-96775000D01*
X69700496Y-96773796D01*
X69676227Y-96770196D01*
X69652429Y-96764235D01*
X69629329Y-96755970D01*
X69607151Y-96745480D01*
X69586107Y-96732867D01*
X69566402Y-96718253D01*
X69548223Y-96701777D01*
X69531747Y-96683598D01*
X69517133Y-96663893D01*
X69504520Y-96642849D01*
X69494030Y-96620671D01*
X69485765Y-96597571D01*
X69479804Y-96573773D01*
X69476204Y-96549504D01*
X69475000Y-96525000D01*
X69475000Y-95275000D01*
X69476204Y-95250496D01*
X69479804Y-95226227D01*
X69485765Y-95202429D01*
X69494030Y-95179329D01*
X69504520Y-95157151D01*
X69517133Y-95136107D01*
X69531747Y-95116402D01*
X69548223Y-95098223D01*
X69566402Y-95081747D01*
X69586107Y-95067133D01*
X69607151Y-95054520D01*
X69629329Y-95044030D01*
X69652429Y-95035765D01*
X69676227Y-95029804D01*
X69700496Y-95026204D01*
X69725000Y-95025000D01*
X70475000Y-95025000D01*
X70499504Y-95026204D01*
X70499504Y-95026204D01*
G37*
D11*
X70100000Y-95900000D03*
D10*
G36*
X67699504Y-95026204D02*
G01*
X67723773Y-95029804D01*
X67747571Y-95035765D01*
X67770671Y-95044030D01*
X67792849Y-95054520D01*
X67813893Y-95067133D01*
X67833598Y-95081747D01*
X67851777Y-95098223D01*
X67868253Y-95116402D01*
X67882867Y-95136107D01*
X67895480Y-95157151D01*
X67905970Y-95179329D01*
X67914235Y-95202429D01*
X67920196Y-95226227D01*
X67923796Y-95250496D01*
X67925000Y-95275000D01*
X67925000Y-96525000D01*
X67923796Y-96549504D01*
X67920196Y-96573773D01*
X67914235Y-96597571D01*
X67905970Y-96620671D01*
X67895480Y-96642849D01*
X67882867Y-96663893D01*
X67868253Y-96683598D01*
X67851777Y-96701777D01*
X67833598Y-96718253D01*
X67813893Y-96732867D01*
X67792849Y-96745480D01*
X67770671Y-96755970D01*
X67747571Y-96764235D01*
X67723773Y-96770196D01*
X67699504Y-96773796D01*
X67675000Y-96775000D01*
X66925000Y-96775000D01*
X66900496Y-96773796D01*
X66876227Y-96770196D01*
X66852429Y-96764235D01*
X66829329Y-96755970D01*
X66807151Y-96745480D01*
X66786107Y-96732867D01*
X66766402Y-96718253D01*
X66748223Y-96701777D01*
X66731747Y-96683598D01*
X66717133Y-96663893D01*
X66704520Y-96642849D01*
X66694030Y-96620671D01*
X66685765Y-96597571D01*
X66679804Y-96573773D01*
X66676204Y-96549504D01*
X66675000Y-96525000D01*
X66675000Y-95275000D01*
X66676204Y-95250496D01*
X66679804Y-95226227D01*
X66685765Y-95202429D01*
X66694030Y-95179329D01*
X66704520Y-95157151D01*
X66717133Y-95136107D01*
X66731747Y-95116402D01*
X66748223Y-95098223D01*
X66766402Y-95081747D01*
X66786107Y-95067133D01*
X66807151Y-95054520D01*
X66829329Y-95044030D01*
X66852429Y-95035765D01*
X66876227Y-95029804D01*
X66900496Y-95026204D01*
X66925000Y-95025000D01*
X67675000Y-95025000D01*
X67699504Y-95026204D01*
X67699504Y-95026204D01*
G37*
D11*
X67300000Y-95900000D03*
D10*
G36*
X63349504Y-100576204D02*
G01*
X63373773Y-100579804D01*
X63397571Y-100585765D01*
X63420671Y-100594030D01*
X63442849Y-100604520D01*
X63463893Y-100617133D01*
X63483598Y-100631747D01*
X63501777Y-100648223D01*
X63518253Y-100666402D01*
X63532867Y-100686107D01*
X63545480Y-100707151D01*
X63555970Y-100729329D01*
X63564235Y-100752429D01*
X63570196Y-100776227D01*
X63573796Y-100800496D01*
X63575000Y-100825000D01*
X63575000Y-101575000D01*
X63573796Y-101599504D01*
X63570196Y-101623773D01*
X63564235Y-101647571D01*
X63555970Y-101670671D01*
X63545480Y-101692849D01*
X63532867Y-101713893D01*
X63518253Y-101733598D01*
X63501777Y-101751777D01*
X63483598Y-101768253D01*
X63463893Y-101782867D01*
X63442849Y-101795480D01*
X63420671Y-101805970D01*
X63397571Y-101814235D01*
X63373773Y-101820196D01*
X63349504Y-101823796D01*
X63325000Y-101825000D01*
X62075000Y-101825000D01*
X62050496Y-101823796D01*
X62026227Y-101820196D01*
X62002429Y-101814235D01*
X61979329Y-101805970D01*
X61957151Y-101795480D01*
X61936107Y-101782867D01*
X61916402Y-101768253D01*
X61898223Y-101751777D01*
X61881747Y-101733598D01*
X61867133Y-101713893D01*
X61854520Y-101692849D01*
X61844030Y-101670671D01*
X61835765Y-101647571D01*
X61829804Y-101623773D01*
X61826204Y-101599504D01*
X61825000Y-101575000D01*
X61825000Y-100825000D01*
X61826204Y-100800496D01*
X61829804Y-100776227D01*
X61835765Y-100752429D01*
X61844030Y-100729329D01*
X61854520Y-100707151D01*
X61867133Y-100686107D01*
X61881747Y-100666402D01*
X61898223Y-100648223D01*
X61916402Y-100631747D01*
X61936107Y-100617133D01*
X61957151Y-100604520D01*
X61979329Y-100594030D01*
X62002429Y-100585765D01*
X62026227Y-100579804D01*
X62050496Y-100576204D01*
X62075000Y-100575000D01*
X63325000Y-100575000D01*
X63349504Y-100576204D01*
X63349504Y-100576204D01*
G37*
D11*
X62700000Y-101200000D03*
D10*
G36*
X63349504Y-97776204D02*
G01*
X63373773Y-97779804D01*
X63397571Y-97785765D01*
X63420671Y-97794030D01*
X63442849Y-97804520D01*
X63463893Y-97817133D01*
X63483598Y-97831747D01*
X63501777Y-97848223D01*
X63518253Y-97866402D01*
X63532867Y-97886107D01*
X63545480Y-97907151D01*
X63555970Y-97929329D01*
X63564235Y-97952429D01*
X63570196Y-97976227D01*
X63573796Y-98000496D01*
X63575000Y-98025000D01*
X63575000Y-98775000D01*
X63573796Y-98799504D01*
X63570196Y-98823773D01*
X63564235Y-98847571D01*
X63555970Y-98870671D01*
X63545480Y-98892849D01*
X63532867Y-98913893D01*
X63518253Y-98933598D01*
X63501777Y-98951777D01*
X63483598Y-98968253D01*
X63463893Y-98982867D01*
X63442849Y-98995480D01*
X63420671Y-99005970D01*
X63397571Y-99014235D01*
X63373773Y-99020196D01*
X63349504Y-99023796D01*
X63325000Y-99025000D01*
X62075000Y-99025000D01*
X62050496Y-99023796D01*
X62026227Y-99020196D01*
X62002429Y-99014235D01*
X61979329Y-99005970D01*
X61957151Y-98995480D01*
X61936107Y-98982867D01*
X61916402Y-98968253D01*
X61898223Y-98951777D01*
X61881747Y-98933598D01*
X61867133Y-98913893D01*
X61854520Y-98892849D01*
X61844030Y-98870671D01*
X61835765Y-98847571D01*
X61829804Y-98823773D01*
X61826204Y-98799504D01*
X61825000Y-98775000D01*
X61825000Y-98025000D01*
X61826204Y-98000496D01*
X61829804Y-97976227D01*
X61835765Y-97952429D01*
X61844030Y-97929329D01*
X61854520Y-97907151D01*
X61867133Y-97886107D01*
X61881747Y-97866402D01*
X61898223Y-97848223D01*
X61916402Y-97831747D01*
X61936107Y-97817133D01*
X61957151Y-97804520D01*
X61979329Y-97794030D01*
X62002429Y-97785765D01*
X62026227Y-97779804D01*
X62050496Y-97776204D01*
X62075000Y-97775000D01*
X63325000Y-97775000D01*
X63349504Y-97776204D01*
X63349504Y-97776204D01*
G37*
D11*
X62700000Y-98400000D03*
D10*
G36*
X71349504Y-85876204D02*
G01*
X71373773Y-85879804D01*
X71397571Y-85885765D01*
X71420671Y-85894030D01*
X71442849Y-85904520D01*
X71463893Y-85917133D01*
X71483598Y-85931747D01*
X71501777Y-85948223D01*
X71518253Y-85966402D01*
X71532867Y-85986107D01*
X71545480Y-86007151D01*
X71555970Y-86029329D01*
X71564235Y-86052429D01*
X71570196Y-86076227D01*
X71573796Y-86100496D01*
X71575000Y-86125000D01*
X71575000Y-86875000D01*
X71573796Y-86899504D01*
X71570196Y-86923773D01*
X71564235Y-86947571D01*
X71555970Y-86970671D01*
X71545480Y-86992849D01*
X71532867Y-87013893D01*
X71518253Y-87033598D01*
X71501777Y-87051777D01*
X71483598Y-87068253D01*
X71463893Y-87082867D01*
X71442849Y-87095480D01*
X71420671Y-87105970D01*
X71397571Y-87114235D01*
X71373773Y-87120196D01*
X71349504Y-87123796D01*
X71325000Y-87125000D01*
X70075000Y-87125000D01*
X70050496Y-87123796D01*
X70026227Y-87120196D01*
X70002429Y-87114235D01*
X69979329Y-87105970D01*
X69957151Y-87095480D01*
X69936107Y-87082867D01*
X69916402Y-87068253D01*
X69898223Y-87051777D01*
X69881747Y-87033598D01*
X69867133Y-87013893D01*
X69854520Y-86992849D01*
X69844030Y-86970671D01*
X69835765Y-86947571D01*
X69829804Y-86923773D01*
X69826204Y-86899504D01*
X69825000Y-86875000D01*
X69825000Y-86125000D01*
X69826204Y-86100496D01*
X69829804Y-86076227D01*
X69835765Y-86052429D01*
X69844030Y-86029329D01*
X69854520Y-86007151D01*
X69867133Y-85986107D01*
X69881747Y-85966402D01*
X69898223Y-85948223D01*
X69916402Y-85931747D01*
X69936107Y-85917133D01*
X69957151Y-85904520D01*
X69979329Y-85894030D01*
X70002429Y-85885765D01*
X70026227Y-85879804D01*
X70050496Y-85876204D01*
X70075000Y-85875000D01*
X71325000Y-85875000D01*
X71349504Y-85876204D01*
X71349504Y-85876204D01*
G37*
D11*
X70700000Y-86500000D03*
D10*
G36*
X71349504Y-88676204D02*
G01*
X71373773Y-88679804D01*
X71397571Y-88685765D01*
X71420671Y-88694030D01*
X71442849Y-88704520D01*
X71463893Y-88717133D01*
X71483598Y-88731747D01*
X71501777Y-88748223D01*
X71518253Y-88766402D01*
X71532867Y-88786107D01*
X71545480Y-88807151D01*
X71555970Y-88829329D01*
X71564235Y-88852429D01*
X71570196Y-88876227D01*
X71573796Y-88900496D01*
X71575000Y-88925000D01*
X71575000Y-89675000D01*
X71573796Y-89699504D01*
X71570196Y-89723773D01*
X71564235Y-89747571D01*
X71555970Y-89770671D01*
X71545480Y-89792849D01*
X71532867Y-89813893D01*
X71518253Y-89833598D01*
X71501777Y-89851777D01*
X71483598Y-89868253D01*
X71463893Y-89882867D01*
X71442849Y-89895480D01*
X71420671Y-89905970D01*
X71397571Y-89914235D01*
X71373773Y-89920196D01*
X71349504Y-89923796D01*
X71325000Y-89925000D01*
X70075000Y-89925000D01*
X70050496Y-89923796D01*
X70026227Y-89920196D01*
X70002429Y-89914235D01*
X69979329Y-89905970D01*
X69957151Y-89895480D01*
X69936107Y-89882867D01*
X69916402Y-89868253D01*
X69898223Y-89851777D01*
X69881747Y-89833598D01*
X69867133Y-89813893D01*
X69854520Y-89792849D01*
X69844030Y-89770671D01*
X69835765Y-89747571D01*
X69829804Y-89723773D01*
X69826204Y-89699504D01*
X69825000Y-89675000D01*
X69825000Y-88925000D01*
X69826204Y-88900496D01*
X69829804Y-88876227D01*
X69835765Y-88852429D01*
X69844030Y-88829329D01*
X69854520Y-88807151D01*
X69867133Y-88786107D01*
X69881747Y-88766402D01*
X69898223Y-88748223D01*
X69916402Y-88731747D01*
X69936107Y-88717133D01*
X69957151Y-88704520D01*
X69979329Y-88694030D01*
X70002429Y-88685765D01*
X70026227Y-88679804D01*
X70050496Y-88676204D01*
X70075000Y-88675000D01*
X71325000Y-88675000D01*
X71349504Y-88676204D01*
X71349504Y-88676204D01*
G37*
D11*
X70700000Y-89300000D03*
D10*
G36*
X72249504Y-100576204D02*
G01*
X72273773Y-100579804D01*
X72297571Y-100585765D01*
X72320671Y-100594030D01*
X72342849Y-100604520D01*
X72363893Y-100617133D01*
X72383598Y-100631747D01*
X72401777Y-100648223D01*
X72418253Y-100666402D01*
X72432867Y-100686107D01*
X72445480Y-100707151D01*
X72455970Y-100729329D01*
X72464235Y-100752429D01*
X72470196Y-100776227D01*
X72473796Y-100800496D01*
X72475000Y-100825000D01*
X72475000Y-101575000D01*
X72473796Y-101599504D01*
X72470196Y-101623773D01*
X72464235Y-101647571D01*
X72455970Y-101670671D01*
X72445480Y-101692849D01*
X72432867Y-101713893D01*
X72418253Y-101733598D01*
X72401777Y-101751777D01*
X72383598Y-101768253D01*
X72363893Y-101782867D01*
X72342849Y-101795480D01*
X72320671Y-101805970D01*
X72297571Y-101814235D01*
X72273773Y-101820196D01*
X72249504Y-101823796D01*
X72225000Y-101825000D01*
X70975000Y-101825000D01*
X70950496Y-101823796D01*
X70926227Y-101820196D01*
X70902429Y-101814235D01*
X70879329Y-101805970D01*
X70857151Y-101795480D01*
X70836107Y-101782867D01*
X70816402Y-101768253D01*
X70798223Y-101751777D01*
X70781747Y-101733598D01*
X70767133Y-101713893D01*
X70754520Y-101692849D01*
X70744030Y-101670671D01*
X70735765Y-101647571D01*
X70729804Y-101623773D01*
X70726204Y-101599504D01*
X70725000Y-101575000D01*
X70725000Y-100825000D01*
X70726204Y-100800496D01*
X70729804Y-100776227D01*
X70735765Y-100752429D01*
X70744030Y-100729329D01*
X70754520Y-100707151D01*
X70767133Y-100686107D01*
X70781747Y-100666402D01*
X70798223Y-100648223D01*
X70816402Y-100631747D01*
X70836107Y-100617133D01*
X70857151Y-100604520D01*
X70879329Y-100594030D01*
X70902429Y-100585765D01*
X70926227Y-100579804D01*
X70950496Y-100576204D01*
X70975000Y-100575000D01*
X72225000Y-100575000D01*
X72249504Y-100576204D01*
X72249504Y-100576204D01*
G37*
D11*
X71600000Y-101200000D03*
D10*
G36*
X72249504Y-97776204D02*
G01*
X72273773Y-97779804D01*
X72297571Y-97785765D01*
X72320671Y-97794030D01*
X72342849Y-97804520D01*
X72363893Y-97817133D01*
X72383598Y-97831747D01*
X72401777Y-97848223D01*
X72418253Y-97866402D01*
X72432867Y-97886107D01*
X72445480Y-97907151D01*
X72455970Y-97929329D01*
X72464235Y-97952429D01*
X72470196Y-97976227D01*
X72473796Y-98000496D01*
X72475000Y-98025000D01*
X72475000Y-98775000D01*
X72473796Y-98799504D01*
X72470196Y-98823773D01*
X72464235Y-98847571D01*
X72455970Y-98870671D01*
X72445480Y-98892849D01*
X72432867Y-98913893D01*
X72418253Y-98933598D01*
X72401777Y-98951777D01*
X72383598Y-98968253D01*
X72363893Y-98982867D01*
X72342849Y-98995480D01*
X72320671Y-99005970D01*
X72297571Y-99014235D01*
X72273773Y-99020196D01*
X72249504Y-99023796D01*
X72225000Y-99025000D01*
X70975000Y-99025000D01*
X70950496Y-99023796D01*
X70926227Y-99020196D01*
X70902429Y-99014235D01*
X70879329Y-99005970D01*
X70857151Y-98995480D01*
X70836107Y-98982867D01*
X70816402Y-98968253D01*
X70798223Y-98951777D01*
X70781747Y-98933598D01*
X70767133Y-98913893D01*
X70754520Y-98892849D01*
X70744030Y-98870671D01*
X70735765Y-98847571D01*
X70729804Y-98823773D01*
X70726204Y-98799504D01*
X70725000Y-98775000D01*
X70725000Y-98025000D01*
X70726204Y-98000496D01*
X70729804Y-97976227D01*
X70735765Y-97952429D01*
X70744030Y-97929329D01*
X70754520Y-97907151D01*
X70767133Y-97886107D01*
X70781747Y-97866402D01*
X70798223Y-97848223D01*
X70816402Y-97831747D01*
X70836107Y-97817133D01*
X70857151Y-97804520D01*
X70879329Y-97794030D01*
X70902429Y-97785765D01*
X70926227Y-97779804D01*
X70950496Y-97776204D01*
X70975000Y-97775000D01*
X72225000Y-97775000D01*
X72249504Y-97776204D01*
X72249504Y-97776204D01*
G37*
D11*
X71600000Y-98400000D03*
D10*
G36*
X71399504Y-81126204D02*
G01*
X71423773Y-81129804D01*
X71447571Y-81135765D01*
X71470671Y-81144030D01*
X71492849Y-81154520D01*
X71513893Y-81167133D01*
X71533598Y-81181747D01*
X71551777Y-81198223D01*
X71568253Y-81216402D01*
X71582867Y-81236107D01*
X71595480Y-81257151D01*
X71605970Y-81279329D01*
X71614235Y-81302429D01*
X71620196Y-81326227D01*
X71623796Y-81350496D01*
X71625000Y-81375000D01*
X71625000Y-82625000D01*
X71623796Y-82649504D01*
X71620196Y-82673773D01*
X71614235Y-82697571D01*
X71605970Y-82720671D01*
X71595480Y-82742849D01*
X71582867Y-82763893D01*
X71568253Y-82783598D01*
X71551777Y-82801777D01*
X71533598Y-82818253D01*
X71513893Y-82832867D01*
X71492849Y-82845480D01*
X71470671Y-82855970D01*
X71447571Y-82864235D01*
X71423773Y-82870196D01*
X71399504Y-82873796D01*
X71375000Y-82875000D01*
X70625000Y-82875000D01*
X70600496Y-82873796D01*
X70576227Y-82870196D01*
X70552429Y-82864235D01*
X70529329Y-82855970D01*
X70507151Y-82845480D01*
X70486107Y-82832867D01*
X70466402Y-82818253D01*
X70448223Y-82801777D01*
X70431747Y-82783598D01*
X70417133Y-82763893D01*
X70404520Y-82742849D01*
X70394030Y-82720671D01*
X70385765Y-82697571D01*
X70379804Y-82673773D01*
X70376204Y-82649504D01*
X70375000Y-82625000D01*
X70375000Y-81375000D01*
X70376204Y-81350496D01*
X70379804Y-81326227D01*
X70385765Y-81302429D01*
X70394030Y-81279329D01*
X70404520Y-81257151D01*
X70417133Y-81236107D01*
X70431747Y-81216402D01*
X70448223Y-81198223D01*
X70466402Y-81181747D01*
X70486107Y-81167133D01*
X70507151Y-81154520D01*
X70529329Y-81144030D01*
X70552429Y-81135765D01*
X70576227Y-81129804D01*
X70600496Y-81126204D01*
X70625000Y-81125000D01*
X71375000Y-81125000D01*
X71399504Y-81126204D01*
X71399504Y-81126204D01*
G37*
D11*
X71000000Y-82000000D03*
D10*
G36*
X68599504Y-81126204D02*
G01*
X68623773Y-81129804D01*
X68647571Y-81135765D01*
X68670671Y-81144030D01*
X68692849Y-81154520D01*
X68713893Y-81167133D01*
X68733598Y-81181747D01*
X68751777Y-81198223D01*
X68768253Y-81216402D01*
X68782867Y-81236107D01*
X68795480Y-81257151D01*
X68805970Y-81279329D01*
X68814235Y-81302429D01*
X68820196Y-81326227D01*
X68823796Y-81350496D01*
X68825000Y-81375000D01*
X68825000Y-82625000D01*
X68823796Y-82649504D01*
X68820196Y-82673773D01*
X68814235Y-82697571D01*
X68805970Y-82720671D01*
X68795480Y-82742849D01*
X68782867Y-82763893D01*
X68768253Y-82783598D01*
X68751777Y-82801777D01*
X68733598Y-82818253D01*
X68713893Y-82832867D01*
X68692849Y-82845480D01*
X68670671Y-82855970D01*
X68647571Y-82864235D01*
X68623773Y-82870196D01*
X68599504Y-82873796D01*
X68575000Y-82875000D01*
X67825000Y-82875000D01*
X67800496Y-82873796D01*
X67776227Y-82870196D01*
X67752429Y-82864235D01*
X67729329Y-82855970D01*
X67707151Y-82845480D01*
X67686107Y-82832867D01*
X67666402Y-82818253D01*
X67648223Y-82801777D01*
X67631747Y-82783598D01*
X67617133Y-82763893D01*
X67604520Y-82742849D01*
X67594030Y-82720671D01*
X67585765Y-82697571D01*
X67579804Y-82673773D01*
X67576204Y-82649504D01*
X67575000Y-82625000D01*
X67575000Y-81375000D01*
X67576204Y-81350496D01*
X67579804Y-81326227D01*
X67585765Y-81302429D01*
X67594030Y-81279329D01*
X67604520Y-81257151D01*
X67617133Y-81236107D01*
X67631747Y-81216402D01*
X67648223Y-81198223D01*
X67666402Y-81181747D01*
X67686107Y-81167133D01*
X67707151Y-81154520D01*
X67729329Y-81144030D01*
X67752429Y-81135765D01*
X67776227Y-81129804D01*
X67800496Y-81126204D01*
X67825000Y-81125000D01*
X68575000Y-81125000D01*
X68599504Y-81126204D01*
X68599504Y-81126204D01*
G37*
D11*
X68200000Y-82000000D03*
D10*
G36*
X77749504Y-97776204D02*
G01*
X77773773Y-97779804D01*
X77797571Y-97785765D01*
X77820671Y-97794030D01*
X77842849Y-97804520D01*
X77863893Y-97817133D01*
X77883598Y-97831747D01*
X77901777Y-97848223D01*
X77918253Y-97866402D01*
X77932867Y-97886107D01*
X77945480Y-97907151D01*
X77955970Y-97929329D01*
X77964235Y-97952429D01*
X77970196Y-97976227D01*
X77973796Y-98000496D01*
X77975000Y-98025000D01*
X77975000Y-98775000D01*
X77973796Y-98799504D01*
X77970196Y-98823773D01*
X77964235Y-98847571D01*
X77955970Y-98870671D01*
X77945480Y-98892849D01*
X77932867Y-98913893D01*
X77918253Y-98933598D01*
X77901777Y-98951777D01*
X77883598Y-98968253D01*
X77863893Y-98982867D01*
X77842849Y-98995480D01*
X77820671Y-99005970D01*
X77797571Y-99014235D01*
X77773773Y-99020196D01*
X77749504Y-99023796D01*
X77725000Y-99025000D01*
X76475000Y-99025000D01*
X76450496Y-99023796D01*
X76426227Y-99020196D01*
X76402429Y-99014235D01*
X76379329Y-99005970D01*
X76357151Y-98995480D01*
X76336107Y-98982867D01*
X76316402Y-98968253D01*
X76298223Y-98951777D01*
X76281747Y-98933598D01*
X76267133Y-98913893D01*
X76254520Y-98892849D01*
X76244030Y-98870671D01*
X76235765Y-98847571D01*
X76229804Y-98823773D01*
X76226204Y-98799504D01*
X76225000Y-98775000D01*
X76225000Y-98025000D01*
X76226204Y-98000496D01*
X76229804Y-97976227D01*
X76235765Y-97952429D01*
X76244030Y-97929329D01*
X76254520Y-97907151D01*
X76267133Y-97886107D01*
X76281747Y-97866402D01*
X76298223Y-97848223D01*
X76316402Y-97831747D01*
X76336107Y-97817133D01*
X76357151Y-97804520D01*
X76379329Y-97794030D01*
X76402429Y-97785765D01*
X76426227Y-97779804D01*
X76450496Y-97776204D01*
X76475000Y-97775000D01*
X77725000Y-97775000D01*
X77749504Y-97776204D01*
X77749504Y-97776204D01*
G37*
D11*
X77100000Y-98400000D03*
D10*
G36*
X77749504Y-100576204D02*
G01*
X77773773Y-100579804D01*
X77797571Y-100585765D01*
X77820671Y-100594030D01*
X77842849Y-100604520D01*
X77863893Y-100617133D01*
X77883598Y-100631747D01*
X77901777Y-100648223D01*
X77918253Y-100666402D01*
X77932867Y-100686107D01*
X77945480Y-100707151D01*
X77955970Y-100729329D01*
X77964235Y-100752429D01*
X77970196Y-100776227D01*
X77973796Y-100800496D01*
X77975000Y-100825000D01*
X77975000Y-101575000D01*
X77973796Y-101599504D01*
X77970196Y-101623773D01*
X77964235Y-101647571D01*
X77955970Y-101670671D01*
X77945480Y-101692849D01*
X77932867Y-101713893D01*
X77918253Y-101733598D01*
X77901777Y-101751777D01*
X77883598Y-101768253D01*
X77863893Y-101782867D01*
X77842849Y-101795480D01*
X77820671Y-101805970D01*
X77797571Y-101814235D01*
X77773773Y-101820196D01*
X77749504Y-101823796D01*
X77725000Y-101825000D01*
X76475000Y-101825000D01*
X76450496Y-101823796D01*
X76426227Y-101820196D01*
X76402429Y-101814235D01*
X76379329Y-101805970D01*
X76357151Y-101795480D01*
X76336107Y-101782867D01*
X76316402Y-101768253D01*
X76298223Y-101751777D01*
X76281747Y-101733598D01*
X76267133Y-101713893D01*
X76254520Y-101692849D01*
X76244030Y-101670671D01*
X76235765Y-101647571D01*
X76229804Y-101623773D01*
X76226204Y-101599504D01*
X76225000Y-101575000D01*
X76225000Y-100825000D01*
X76226204Y-100800496D01*
X76229804Y-100776227D01*
X76235765Y-100752429D01*
X76244030Y-100729329D01*
X76254520Y-100707151D01*
X76267133Y-100686107D01*
X76281747Y-100666402D01*
X76298223Y-100648223D01*
X76316402Y-100631747D01*
X76336107Y-100617133D01*
X76357151Y-100604520D01*
X76379329Y-100594030D01*
X76402429Y-100585765D01*
X76426227Y-100579804D01*
X76450496Y-100576204D01*
X76475000Y-100575000D01*
X77725000Y-100575000D01*
X77749504Y-100576204D01*
X77749504Y-100576204D01*
G37*
D11*
X77100000Y-101200000D03*
D10*
G36*
X71799504Y-61926204D02*
G01*
X71823773Y-61929804D01*
X71847571Y-61935765D01*
X71870671Y-61944030D01*
X71892849Y-61954520D01*
X71913893Y-61967133D01*
X71933598Y-61981747D01*
X71951777Y-61998223D01*
X71968253Y-62016402D01*
X71982867Y-62036107D01*
X71995480Y-62057151D01*
X72005970Y-62079329D01*
X72014235Y-62102429D01*
X72020196Y-62126227D01*
X72023796Y-62150496D01*
X72025000Y-62175000D01*
X72025000Y-63425000D01*
X72023796Y-63449504D01*
X72020196Y-63473773D01*
X72014235Y-63497571D01*
X72005970Y-63520671D01*
X71995480Y-63542849D01*
X71982867Y-63563893D01*
X71968253Y-63583598D01*
X71951777Y-63601777D01*
X71933598Y-63618253D01*
X71913893Y-63632867D01*
X71892849Y-63645480D01*
X71870671Y-63655970D01*
X71847571Y-63664235D01*
X71823773Y-63670196D01*
X71799504Y-63673796D01*
X71775000Y-63675000D01*
X71025000Y-63675000D01*
X71000496Y-63673796D01*
X70976227Y-63670196D01*
X70952429Y-63664235D01*
X70929329Y-63655970D01*
X70907151Y-63645480D01*
X70886107Y-63632867D01*
X70866402Y-63618253D01*
X70848223Y-63601777D01*
X70831747Y-63583598D01*
X70817133Y-63563893D01*
X70804520Y-63542849D01*
X70794030Y-63520671D01*
X70785765Y-63497571D01*
X70779804Y-63473773D01*
X70776204Y-63449504D01*
X70775000Y-63425000D01*
X70775000Y-62175000D01*
X70776204Y-62150496D01*
X70779804Y-62126227D01*
X70785765Y-62102429D01*
X70794030Y-62079329D01*
X70804520Y-62057151D01*
X70817133Y-62036107D01*
X70831747Y-62016402D01*
X70848223Y-61998223D01*
X70866402Y-61981747D01*
X70886107Y-61967133D01*
X70907151Y-61954520D01*
X70929329Y-61944030D01*
X70952429Y-61935765D01*
X70976227Y-61929804D01*
X71000496Y-61926204D01*
X71025000Y-61925000D01*
X71775000Y-61925000D01*
X71799504Y-61926204D01*
X71799504Y-61926204D01*
G37*
D11*
X71400000Y-62800000D03*
D10*
G36*
X68999504Y-61926204D02*
G01*
X69023773Y-61929804D01*
X69047571Y-61935765D01*
X69070671Y-61944030D01*
X69092849Y-61954520D01*
X69113893Y-61967133D01*
X69133598Y-61981747D01*
X69151777Y-61998223D01*
X69168253Y-62016402D01*
X69182867Y-62036107D01*
X69195480Y-62057151D01*
X69205970Y-62079329D01*
X69214235Y-62102429D01*
X69220196Y-62126227D01*
X69223796Y-62150496D01*
X69225000Y-62175000D01*
X69225000Y-63425000D01*
X69223796Y-63449504D01*
X69220196Y-63473773D01*
X69214235Y-63497571D01*
X69205970Y-63520671D01*
X69195480Y-63542849D01*
X69182867Y-63563893D01*
X69168253Y-63583598D01*
X69151777Y-63601777D01*
X69133598Y-63618253D01*
X69113893Y-63632867D01*
X69092849Y-63645480D01*
X69070671Y-63655970D01*
X69047571Y-63664235D01*
X69023773Y-63670196D01*
X68999504Y-63673796D01*
X68975000Y-63675000D01*
X68225000Y-63675000D01*
X68200496Y-63673796D01*
X68176227Y-63670196D01*
X68152429Y-63664235D01*
X68129329Y-63655970D01*
X68107151Y-63645480D01*
X68086107Y-63632867D01*
X68066402Y-63618253D01*
X68048223Y-63601777D01*
X68031747Y-63583598D01*
X68017133Y-63563893D01*
X68004520Y-63542849D01*
X67994030Y-63520671D01*
X67985765Y-63497571D01*
X67979804Y-63473773D01*
X67976204Y-63449504D01*
X67975000Y-63425000D01*
X67975000Y-62175000D01*
X67976204Y-62150496D01*
X67979804Y-62126227D01*
X67985765Y-62102429D01*
X67994030Y-62079329D01*
X68004520Y-62057151D01*
X68017133Y-62036107D01*
X68031747Y-62016402D01*
X68048223Y-61998223D01*
X68066402Y-61981747D01*
X68086107Y-61967133D01*
X68107151Y-61954520D01*
X68129329Y-61944030D01*
X68152429Y-61935765D01*
X68176227Y-61929804D01*
X68200496Y-61926204D01*
X68225000Y-61925000D01*
X68975000Y-61925000D01*
X68999504Y-61926204D01*
X68999504Y-61926204D01*
G37*
D11*
X68600000Y-62800000D03*
D10*
G36*
X76899504Y-61926204D02*
G01*
X76923773Y-61929804D01*
X76947571Y-61935765D01*
X76970671Y-61944030D01*
X76992849Y-61954520D01*
X77013893Y-61967133D01*
X77033598Y-61981747D01*
X77051777Y-61998223D01*
X77068253Y-62016402D01*
X77082867Y-62036107D01*
X77095480Y-62057151D01*
X77105970Y-62079329D01*
X77114235Y-62102429D01*
X77120196Y-62126227D01*
X77123796Y-62150496D01*
X77125000Y-62175000D01*
X77125000Y-63425000D01*
X77123796Y-63449504D01*
X77120196Y-63473773D01*
X77114235Y-63497571D01*
X77105970Y-63520671D01*
X77095480Y-63542849D01*
X77082867Y-63563893D01*
X77068253Y-63583598D01*
X77051777Y-63601777D01*
X77033598Y-63618253D01*
X77013893Y-63632867D01*
X76992849Y-63645480D01*
X76970671Y-63655970D01*
X76947571Y-63664235D01*
X76923773Y-63670196D01*
X76899504Y-63673796D01*
X76875000Y-63675000D01*
X76125000Y-63675000D01*
X76100496Y-63673796D01*
X76076227Y-63670196D01*
X76052429Y-63664235D01*
X76029329Y-63655970D01*
X76007151Y-63645480D01*
X75986107Y-63632867D01*
X75966402Y-63618253D01*
X75948223Y-63601777D01*
X75931747Y-63583598D01*
X75917133Y-63563893D01*
X75904520Y-63542849D01*
X75894030Y-63520671D01*
X75885765Y-63497571D01*
X75879804Y-63473773D01*
X75876204Y-63449504D01*
X75875000Y-63425000D01*
X75875000Y-62175000D01*
X75876204Y-62150496D01*
X75879804Y-62126227D01*
X75885765Y-62102429D01*
X75894030Y-62079329D01*
X75904520Y-62057151D01*
X75917133Y-62036107D01*
X75931747Y-62016402D01*
X75948223Y-61998223D01*
X75966402Y-61981747D01*
X75986107Y-61967133D01*
X76007151Y-61954520D01*
X76029329Y-61944030D01*
X76052429Y-61935765D01*
X76076227Y-61929804D01*
X76100496Y-61926204D01*
X76125000Y-61925000D01*
X76875000Y-61925000D01*
X76899504Y-61926204D01*
X76899504Y-61926204D01*
G37*
D11*
X76500000Y-62800000D03*
D10*
G36*
X74099504Y-61926204D02*
G01*
X74123773Y-61929804D01*
X74147571Y-61935765D01*
X74170671Y-61944030D01*
X74192849Y-61954520D01*
X74213893Y-61967133D01*
X74233598Y-61981747D01*
X74251777Y-61998223D01*
X74268253Y-62016402D01*
X74282867Y-62036107D01*
X74295480Y-62057151D01*
X74305970Y-62079329D01*
X74314235Y-62102429D01*
X74320196Y-62126227D01*
X74323796Y-62150496D01*
X74325000Y-62175000D01*
X74325000Y-63425000D01*
X74323796Y-63449504D01*
X74320196Y-63473773D01*
X74314235Y-63497571D01*
X74305970Y-63520671D01*
X74295480Y-63542849D01*
X74282867Y-63563893D01*
X74268253Y-63583598D01*
X74251777Y-63601777D01*
X74233598Y-63618253D01*
X74213893Y-63632867D01*
X74192849Y-63645480D01*
X74170671Y-63655970D01*
X74147571Y-63664235D01*
X74123773Y-63670196D01*
X74099504Y-63673796D01*
X74075000Y-63675000D01*
X73325000Y-63675000D01*
X73300496Y-63673796D01*
X73276227Y-63670196D01*
X73252429Y-63664235D01*
X73229329Y-63655970D01*
X73207151Y-63645480D01*
X73186107Y-63632867D01*
X73166402Y-63618253D01*
X73148223Y-63601777D01*
X73131747Y-63583598D01*
X73117133Y-63563893D01*
X73104520Y-63542849D01*
X73094030Y-63520671D01*
X73085765Y-63497571D01*
X73079804Y-63473773D01*
X73076204Y-63449504D01*
X73075000Y-63425000D01*
X73075000Y-62175000D01*
X73076204Y-62150496D01*
X73079804Y-62126227D01*
X73085765Y-62102429D01*
X73094030Y-62079329D01*
X73104520Y-62057151D01*
X73117133Y-62036107D01*
X73131747Y-62016402D01*
X73148223Y-61998223D01*
X73166402Y-61981747D01*
X73186107Y-61967133D01*
X73207151Y-61954520D01*
X73229329Y-61944030D01*
X73252429Y-61935765D01*
X73276227Y-61929804D01*
X73300496Y-61926204D01*
X73325000Y-61925000D01*
X74075000Y-61925000D01*
X74099504Y-61926204D01*
X74099504Y-61926204D01*
G37*
D11*
X73700000Y-62800000D03*
D10*
G36*
X78949504Y-71376204D02*
G01*
X78973773Y-71379804D01*
X78997571Y-71385765D01*
X79020671Y-71394030D01*
X79042849Y-71404520D01*
X79063893Y-71417133D01*
X79083598Y-71431747D01*
X79101777Y-71448223D01*
X79118253Y-71466402D01*
X79132867Y-71486107D01*
X79145480Y-71507151D01*
X79155970Y-71529329D01*
X79164235Y-71552429D01*
X79170196Y-71576227D01*
X79173796Y-71600496D01*
X79175000Y-71625000D01*
X79175000Y-72375000D01*
X79173796Y-72399504D01*
X79170196Y-72423773D01*
X79164235Y-72447571D01*
X79155970Y-72470671D01*
X79145480Y-72492849D01*
X79132867Y-72513893D01*
X79118253Y-72533598D01*
X79101777Y-72551777D01*
X79083598Y-72568253D01*
X79063893Y-72582867D01*
X79042849Y-72595480D01*
X79020671Y-72605970D01*
X78997571Y-72614235D01*
X78973773Y-72620196D01*
X78949504Y-72623796D01*
X78925000Y-72625000D01*
X77675000Y-72625000D01*
X77650496Y-72623796D01*
X77626227Y-72620196D01*
X77602429Y-72614235D01*
X77579329Y-72605970D01*
X77557151Y-72595480D01*
X77536107Y-72582867D01*
X77516402Y-72568253D01*
X77498223Y-72551777D01*
X77481747Y-72533598D01*
X77467133Y-72513893D01*
X77454520Y-72492849D01*
X77444030Y-72470671D01*
X77435765Y-72447571D01*
X77429804Y-72423773D01*
X77426204Y-72399504D01*
X77425000Y-72375000D01*
X77425000Y-71625000D01*
X77426204Y-71600496D01*
X77429804Y-71576227D01*
X77435765Y-71552429D01*
X77444030Y-71529329D01*
X77454520Y-71507151D01*
X77467133Y-71486107D01*
X77481747Y-71466402D01*
X77498223Y-71448223D01*
X77516402Y-71431747D01*
X77536107Y-71417133D01*
X77557151Y-71404520D01*
X77579329Y-71394030D01*
X77602429Y-71385765D01*
X77626227Y-71379804D01*
X77650496Y-71376204D01*
X77675000Y-71375000D01*
X78925000Y-71375000D01*
X78949504Y-71376204D01*
X78949504Y-71376204D01*
G37*
D11*
X78300000Y-72000000D03*
D10*
G36*
X78949504Y-74176204D02*
G01*
X78973773Y-74179804D01*
X78997571Y-74185765D01*
X79020671Y-74194030D01*
X79042849Y-74204520D01*
X79063893Y-74217133D01*
X79083598Y-74231747D01*
X79101777Y-74248223D01*
X79118253Y-74266402D01*
X79132867Y-74286107D01*
X79145480Y-74307151D01*
X79155970Y-74329329D01*
X79164235Y-74352429D01*
X79170196Y-74376227D01*
X79173796Y-74400496D01*
X79175000Y-74425000D01*
X79175000Y-75175000D01*
X79173796Y-75199504D01*
X79170196Y-75223773D01*
X79164235Y-75247571D01*
X79155970Y-75270671D01*
X79145480Y-75292849D01*
X79132867Y-75313893D01*
X79118253Y-75333598D01*
X79101777Y-75351777D01*
X79083598Y-75368253D01*
X79063893Y-75382867D01*
X79042849Y-75395480D01*
X79020671Y-75405970D01*
X78997571Y-75414235D01*
X78973773Y-75420196D01*
X78949504Y-75423796D01*
X78925000Y-75425000D01*
X77675000Y-75425000D01*
X77650496Y-75423796D01*
X77626227Y-75420196D01*
X77602429Y-75414235D01*
X77579329Y-75405970D01*
X77557151Y-75395480D01*
X77536107Y-75382867D01*
X77516402Y-75368253D01*
X77498223Y-75351777D01*
X77481747Y-75333598D01*
X77467133Y-75313893D01*
X77454520Y-75292849D01*
X77444030Y-75270671D01*
X77435765Y-75247571D01*
X77429804Y-75223773D01*
X77426204Y-75199504D01*
X77425000Y-75175000D01*
X77425000Y-74425000D01*
X77426204Y-74400496D01*
X77429804Y-74376227D01*
X77435765Y-74352429D01*
X77444030Y-74329329D01*
X77454520Y-74307151D01*
X77467133Y-74286107D01*
X77481747Y-74266402D01*
X77498223Y-74248223D01*
X77516402Y-74231747D01*
X77536107Y-74217133D01*
X77557151Y-74204520D01*
X77579329Y-74194030D01*
X77602429Y-74185765D01*
X77626227Y-74179804D01*
X77650496Y-74176204D01*
X77675000Y-74175000D01*
X78925000Y-74175000D01*
X78949504Y-74176204D01*
X78949504Y-74176204D01*
G37*
D11*
X78300000Y-74800000D03*
D10*
G36*
X103649504Y-73276204D02*
G01*
X103673773Y-73279804D01*
X103697571Y-73285765D01*
X103720671Y-73294030D01*
X103742849Y-73304520D01*
X103763893Y-73317133D01*
X103783598Y-73331747D01*
X103801777Y-73348223D01*
X103818253Y-73366402D01*
X103832867Y-73386107D01*
X103845480Y-73407151D01*
X103855970Y-73429329D01*
X103864235Y-73452429D01*
X103870196Y-73476227D01*
X103873796Y-73500496D01*
X103875000Y-73525000D01*
X103875000Y-74275000D01*
X103873796Y-74299504D01*
X103870196Y-74323773D01*
X103864235Y-74347571D01*
X103855970Y-74370671D01*
X103845480Y-74392849D01*
X103832867Y-74413893D01*
X103818253Y-74433598D01*
X103801777Y-74451777D01*
X103783598Y-74468253D01*
X103763893Y-74482867D01*
X103742849Y-74495480D01*
X103720671Y-74505970D01*
X103697571Y-74514235D01*
X103673773Y-74520196D01*
X103649504Y-74523796D01*
X103625000Y-74525000D01*
X102375000Y-74525000D01*
X102350496Y-74523796D01*
X102326227Y-74520196D01*
X102302429Y-74514235D01*
X102279329Y-74505970D01*
X102257151Y-74495480D01*
X102236107Y-74482867D01*
X102216402Y-74468253D01*
X102198223Y-74451777D01*
X102181747Y-74433598D01*
X102167133Y-74413893D01*
X102154520Y-74392849D01*
X102144030Y-74370671D01*
X102135765Y-74347571D01*
X102129804Y-74323773D01*
X102126204Y-74299504D01*
X102125000Y-74275000D01*
X102125000Y-73525000D01*
X102126204Y-73500496D01*
X102129804Y-73476227D01*
X102135765Y-73452429D01*
X102144030Y-73429329D01*
X102154520Y-73407151D01*
X102167133Y-73386107D01*
X102181747Y-73366402D01*
X102198223Y-73348223D01*
X102216402Y-73331747D01*
X102236107Y-73317133D01*
X102257151Y-73304520D01*
X102279329Y-73294030D01*
X102302429Y-73285765D01*
X102326227Y-73279804D01*
X102350496Y-73276204D01*
X102375000Y-73275000D01*
X103625000Y-73275000D01*
X103649504Y-73276204D01*
X103649504Y-73276204D01*
G37*
D11*
X103000000Y-73900000D03*
D10*
G36*
X103649504Y-76076204D02*
G01*
X103673773Y-76079804D01*
X103697571Y-76085765D01*
X103720671Y-76094030D01*
X103742849Y-76104520D01*
X103763893Y-76117133D01*
X103783598Y-76131747D01*
X103801777Y-76148223D01*
X103818253Y-76166402D01*
X103832867Y-76186107D01*
X103845480Y-76207151D01*
X103855970Y-76229329D01*
X103864235Y-76252429D01*
X103870196Y-76276227D01*
X103873796Y-76300496D01*
X103875000Y-76325000D01*
X103875000Y-77075000D01*
X103873796Y-77099504D01*
X103870196Y-77123773D01*
X103864235Y-77147571D01*
X103855970Y-77170671D01*
X103845480Y-77192849D01*
X103832867Y-77213893D01*
X103818253Y-77233598D01*
X103801777Y-77251777D01*
X103783598Y-77268253D01*
X103763893Y-77282867D01*
X103742849Y-77295480D01*
X103720671Y-77305970D01*
X103697571Y-77314235D01*
X103673773Y-77320196D01*
X103649504Y-77323796D01*
X103625000Y-77325000D01*
X102375000Y-77325000D01*
X102350496Y-77323796D01*
X102326227Y-77320196D01*
X102302429Y-77314235D01*
X102279329Y-77305970D01*
X102257151Y-77295480D01*
X102236107Y-77282867D01*
X102216402Y-77268253D01*
X102198223Y-77251777D01*
X102181747Y-77233598D01*
X102167133Y-77213893D01*
X102154520Y-77192849D01*
X102144030Y-77170671D01*
X102135765Y-77147571D01*
X102129804Y-77123773D01*
X102126204Y-77099504D01*
X102125000Y-77075000D01*
X102125000Y-76325000D01*
X102126204Y-76300496D01*
X102129804Y-76276227D01*
X102135765Y-76252429D01*
X102144030Y-76229329D01*
X102154520Y-76207151D01*
X102167133Y-76186107D01*
X102181747Y-76166402D01*
X102198223Y-76148223D01*
X102216402Y-76131747D01*
X102236107Y-76117133D01*
X102257151Y-76104520D01*
X102279329Y-76094030D01*
X102302429Y-76085765D01*
X102326227Y-76079804D01*
X102350496Y-76076204D01*
X102375000Y-76075000D01*
X103625000Y-76075000D01*
X103649504Y-76076204D01*
X103649504Y-76076204D01*
G37*
D11*
X103000000Y-76700000D03*
D10*
G36*
X109499504Y-99226204D02*
G01*
X109523773Y-99229804D01*
X109547571Y-99235765D01*
X109570671Y-99244030D01*
X109592849Y-99254520D01*
X109613893Y-99267133D01*
X109633598Y-99281747D01*
X109651777Y-99298223D01*
X109668253Y-99316402D01*
X109682867Y-99336107D01*
X109695480Y-99357151D01*
X109705970Y-99379329D01*
X109714235Y-99402429D01*
X109720196Y-99426227D01*
X109723796Y-99450496D01*
X109725000Y-99475000D01*
X109725000Y-100725000D01*
X109723796Y-100749504D01*
X109720196Y-100773773D01*
X109714235Y-100797571D01*
X109705970Y-100820671D01*
X109695480Y-100842849D01*
X109682867Y-100863893D01*
X109668253Y-100883598D01*
X109651777Y-100901777D01*
X109633598Y-100918253D01*
X109613893Y-100932867D01*
X109592849Y-100945480D01*
X109570671Y-100955970D01*
X109547571Y-100964235D01*
X109523773Y-100970196D01*
X109499504Y-100973796D01*
X109475000Y-100975000D01*
X108725000Y-100975000D01*
X108700496Y-100973796D01*
X108676227Y-100970196D01*
X108652429Y-100964235D01*
X108629329Y-100955970D01*
X108607151Y-100945480D01*
X108586107Y-100932867D01*
X108566402Y-100918253D01*
X108548223Y-100901777D01*
X108531747Y-100883598D01*
X108517133Y-100863893D01*
X108504520Y-100842849D01*
X108494030Y-100820671D01*
X108485765Y-100797571D01*
X108479804Y-100773773D01*
X108476204Y-100749504D01*
X108475000Y-100725000D01*
X108475000Y-99475000D01*
X108476204Y-99450496D01*
X108479804Y-99426227D01*
X108485765Y-99402429D01*
X108494030Y-99379329D01*
X108504520Y-99357151D01*
X108517133Y-99336107D01*
X108531747Y-99316402D01*
X108548223Y-99298223D01*
X108566402Y-99281747D01*
X108586107Y-99267133D01*
X108607151Y-99254520D01*
X108629329Y-99244030D01*
X108652429Y-99235765D01*
X108676227Y-99229804D01*
X108700496Y-99226204D01*
X108725000Y-99225000D01*
X109475000Y-99225000D01*
X109499504Y-99226204D01*
X109499504Y-99226204D01*
G37*
D11*
X109100000Y-100100000D03*
D10*
G36*
X112299504Y-99226204D02*
G01*
X112323773Y-99229804D01*
X112347571Y-99235765D01*
X112370671Y-99244030D01*
X112392849Y-99254520D01*
X112413893Y-99267133D01*
X112433598Y-99281747D01*
X112451777Y-99298223D01*
X112468253Y-99316402D01*
X112482867Y-99336107D01*
X112495480Y-99357151D01*
X112505970Y-99379329D01*
X112514235Y-99402429D01*
X112520196Y-99426227D01*
X112523796Y-99450496D01*
X112525000Y-99475000D01*
X112525000Y-100725000D01*
X112523796Y-100749504D01*
X112520196Y-100773773D01*
X112514235Y-100797571D01*
X112505970Y-100820671D01*
X112495480Y-100842849D01*
X112482867Y-100863893D01*
X112468253Y-100883598D01*
X112451777Y-100901777D01*
X112433598Y-100918253D01*
X112413893Y-100932867D01*
X112392849Y-100945480D01*
X112370671Y-100955970D01*
X112347571Y-100964235D01*
X112323773Y-100970196D01*
X112299504Y-100973796D01*
X112275000Y-100975000D01*
X111525000Y-100975000D01*
X111500496Y-100973796D01*
X111476227Y-100970196D01*
X111452429Y-100964235D01*
X111429329Y-100955970D01*
X111407151Y-100945480D01*
X111386107Y-100932867D01*
X111366402Y-100918253D01*
X111348223Y-100901777D01*
X111331747Y-100883598D01*
X111317133Y-100863893D01*
X111304520Y-100842849D01*
X111294030Y-100820671D01*
X111285765Y-100797571D01*
X111279804Y-100773773D01*
X111276204Y-100749504D01*
X111275000Y-100725000D01*
X111275000Y-99475000D01*
X111276204Y-99450496D01*
X111279804Y-99426227D01*
X111285765Y-99402429D01*
X111294030Y-99379329D01*
X111304520Y-99357151D01*
X111317133Y-99336107D01*
X111331747Y-99316402D01*
X111348223Y-99298223D01*
X111366402Y-99281747D01*
X111386107Y-99267133D01*
X111407151Y-99254520D01*
X111429329Y-99244030D01*
X111452429Y-99235765D01*
X111476227Y-99229804D01*
X111500496Y-99226204D01*
X111525000Y-99225000D01*
X112275000Y-99225000D01*
X112299504Y-99226204D01*
X112299504Y-99226204D01*
G37*
D11*
X111900000Y-100100000D03*
D20*
X72600000Y-71300000D03*
D21*
X75850000Y-72300000D03*
D20*
X72600000Y-73300000D03*
X83900000Y-100100000D03*
D21*
X87150000Y-101100000D03*
D20*
X83900000Y-102100000D03*
X102000000Y-68800000D03*
D21*
X105250000Y-69800000D03*
D20*
X102000000Y-70800000D03*
X102100000Y-98500000D03*
D21*
X105350000Y-99500000D03*
D20*
X102100000Y-100500000D03*
D22*
X66800000Y-85600000D03*
X63900000Y-85600000D03*
X63900000Y-93500000D03*
X66800000Y-93500000D03*
D23*
X81400000Y-86300000D03*
X81400000Y-83400000D03*
X73500000Y-83400000D03*
X73500000Y-86300000D03*
D24*
X106500000Y-90900000D03*
X106500000Y-85200000D03*
X97700000Y-83650000D03*
X97700000Y-88100000D03*
X97700000Y-92450000D03*
D25*
X141000000Y-75300000D03*
X141000000Y-69600000D03*
X122950000Y-69600000D03*
X122950000Y-75300000D03*
X140700000Y-107400000D03*
X140700000Y-101700000D03*
X122650000Y-101700000D03*
X122650000Y-107400000D03*
M02*
