M48
; DRILL file {KiCad (5.1.2)-1} date 29-Mar-20 1:12:18 PM
; FORMAT={-:-/ absolute / metric / decimal}
; #@! TF.CreationDate,2020-03-29T13:12:18+05:30
; #@! TF.GenerationSoftware,Kicad,Pcbnew,(5.1.2)-1
FMAT,2
METRIC
T1C0.400
T2C0.500
T3C1.000
T4C1.500
T5C1.700
T6C2.700
T7C2.800
T8C3.600
%
G90
G05
T1
X96.7Y-72.4
T2
X72.6Y-75.7
X77.1Y-95.5
X78.3Y-79.7
X81.9Y-103.9
X100.7Y-101.7
X105.3Y-76.8
T3
X72.3Y-106.5
X94.7Y-88.0
X98.1Y-97.7
X62.7Y-105.5
X65.24Y-105.5
X109.1Y-94.6
X111.6Y-94.6
X114.1Y-94.6
X98.0Y-110.6
X98.0Y-113.14
X80.1Y-107.7
X80.1Y-110.24
X84.1Y-95.0
X86.6Y-95.0
X89.1Y-95.0
X109.1Y-81.1
X111.6Y-81.1
X114.1Y-81.1
X84.1Y-81.1
X86.6Y-81.1
X89.1Y-81.1
T4
X121.4Y-105.1
X142.6Y-69.6
X138.4Y-87.8
T5
X135.86Y-85.26
X135.86Y-90.34
X140.94Y-85.26
X140.94Y-90.34
T6
X63.5Y-63.5
X121.4Y-112.5
X121.5Y-63.5
T7
X63.5Y-112.5
T8
X86.6Y-112.1
X111.6Y-64.0
X86.6Y-64.0
X111.6Y-111.7
T0
M30
