G04 #@! TF.GenerationSoftware,KiCad,Pcbnew,(5.1.2)-1*
G04 #@! TF.CreationDate,2020-03-29T12:59:04+05:30*
G04 #@! TF.ProjectId,G6ALU_20WPA,4736414c-555f-4323-9057-50412e6b6963,rev?*
G04 #@! TF.SameCoordinates,Original*
G04 #@! TF.FileFunction,Soldermask,Bot*
G04 #@! TF.FilePolarity,Negative*
%FSLAX46Y46*%
G04 Gerber Fmt 4.6, Leading zero omitted, Abs format (unit mm)*
G04 Created by KiCad (PCBNEW (5.1.2)-1) date 2020-03-29 12:59:04*
%MOMM*%
%LPD*%
G04 APERTURE LIST*
%ADD10C,0.100000*%
G04 APERTURE END LIST*
D10*
G36*
X87234239Y-108911467D02*
G01*
X87548282Y-108973934D01*
X88139926Y-109219001D01*
X88541345Y-109487221D01*
X88672391Y-109574783D01*
X89125217Y-110027609D01*
X89149115Y-110063375D01*
X89480999Y-110560074D01*
X89694886Y-111076443D01*
X89726066Y-111151719D01*
X89851000Y-111779803D01*
X89851000Y-112420197D01*
X89806448Y-112644174D01*
X89726066Y-113048282D01*
X89480999Y-113639926D01*
X89125216Y-114172392D01*
X88672392Y-114625216D01*
X88139926Y-114980999D01*
X87548282Y-115226066D01*
X87234239Y-115288533D01*
X86920197Y-115351000D01*
X86279803Y-115351000D01*
X85965761Y-115288533D01*
X85651718Y-115226066D01*
X85060074Y-114980999D01*
X84527608Y-114625216D01*
X84074784Y-114172392D01*
X83719001Y-113639926D01*
X83473934Y-113048282D01*
X83393552Y-112644174D01*
X83349000Y-112420197D01*
X83349000Y-111779803D01*
X83473934Y-111151719D01*
X83505114Y-111076443D01*
X83719001Y-110560074D01*
X84050885Y-110063375D01*
X84074783Y-110027609D01*
X84527609Y-109574783D01*
X84658655Y-109487221D01*
X85060074Y-109219001D01*
X85651718Y-108973934D01*
X85965761Y-108911467D01*
X86279803Y-108849000D01*
X86920197Y-108849000D01*
X87234239Y-108911467D01*
X87234239Y-108911467D01*
G37*
G36*
X112234239Y-108511467D02*
G01*
X112548282Y-108573934D01*
X113139926Y-108819001D01*
X113566477Y-109104014D01*
X113672391Y-109174783D01*
X114125217Y-109627609D01*
X114189623Y-109724000D01*
X114480999Y-110160074D01*
X114726066Y-110751718D01*
X114851000Y-111379804D01*
X114851000Y-112020196D01*
X114726066Y-112648282D01*
X114480999Y-113239926D01*
X114303481Y-113505600D01*
X114136559Y-113755417D01*
X114125216Y-113772392D01*
X113672392Y-114225216D01*
X113139926Y-114580999D01*
X112548282Y-114826066D01*
X112234239Y-114888533D01*
X111920197Y-114951000D01*
X111279803Y-114951000D01*
X110965761Y-114888533D01*
X110651718Y-114826066D01*
X110060074Y-114580999D01*
X109527608Y-114225216D01*
X109074784Y-113772392D01*
X109063442Y-113755417D01*
X108896519Y-113505600D01*
X108719001Y-113239926D01*
X108473934Y-112648282D01*
X108349000Y-112020196D01*
X108349000Y-111379804D01*
X108473934Y-110751718D01*
X108719001Y-110160074D01*
X109010377Y-109724000D01*
X109074783Y-109627609D01*
X109527609Y-109174783D01*
X109633523Y-109104014D01*
X110060074Y-108819001D01*
X110651718Y-108573934D01*
X110965761Y-108511467D01*
X111279803Y-108449000D01*
X111920197Y-108449000D01*
X112234239Y-108511467D01*
X112234239Y-108511467D01*
G37*
G36*
X98110442Y-112245518D02*
G01*
X98176627Y-112252037D01*
X98346466Y-112303557D01*
X98502991Y-112387222D01*
X98538729Y-112416552D01*
X98640186Y-112499814D01*
X98707353Y-112581659D01*
X98752778Y-112637009D01*
X98836443Y-112793534D01*
X98887963Y-112963373D01*
X98905359Y-113140000D01*
X98887963Y-113316627D01*
X98836443Y-113486466D01*
X98752778Y-113642991D01*
X98740171Y-113658352D01*
X98640186Y-113780186D01*
X98564173Y-113842567D01*
X98502991Y-113892778D01*
X98346466Y-113976443D01*
X98176627Y-114027963D01*
X98110442Y-114034482D01*
X98044260Y-114041000D01*
X97955740Y-114041000D01*
X97889558Y-114034482D01*
X97823373Y-114027963D01*
X97653534Y-113976443D01*
X97497009Y-113892778D01*
X97435827Y-113842567D01*
X97359814Y-113780186D01*
X97259829Y-113658352D01*
X97247222Y-113642991D01*
X97163557Y-113486466D01*
X97112037Y-113316627D01*
X97094641Y-113140000D01*
X97112037Y-112963373D01*
X97163557Y-112793534D01*
X97247222Y-112637009D01*
X97292647Y-112581659D01*
X97359814Y-112499814D01*
X97461271Y-112416552D01*
X97497009Y-112387222D01*
X97653534Y-112303557D01*
X97823373Y-112252037D01*
X97889558Y-112245518D01*
X97955740Y-112239000D01*
X98044260Y-112239000D01*
X98110442Y-112245518D01*
X98110442Y-112245518D01*
G37*
G36*
X107268604Y-112528347D02*
G01*
X107305144Y-112539432D01*
X107338821Y-112557433D01*
X107368341Y-112581659D01*
X107392567Y-112611179D01*
X107410568Y-112644856D01*
X107421653Y-112681396D01*
X107426000Y-112725538D01*
X107426000Y-113674462D01*
X107421653Y-113718604D01*
X107410568Y-113755144D01*
X107392567Y-113788821D01*
X107368341Y-113818341D01*
X107338821Y-113842567D01*
X107305144Y-113860568D01*
X107268604Y-113871653D01*
X107224462Y-113876000D01*
X105775538Y-113876000D01*
X105731396Y-113871653D01*
X105694856Y-113860568D01*
X105661179Y-113842567D01*
X105631659Y-113818341D01*
X105607433Y-113788821D01*
X105589432Y-113755144D01*
X105578347Y-113718604D01*
X105574000Y-113674462D01*
X105574000Y-112725538D01*
X105578347Y-112681396D01*
X105589432Y-112644856D01*
X105607433Y-112611179D01*
X105631659Y-112581659D01*
X105661179Y-112557433D01*
X105694856Y-112539432D01*
X105731396Y-112528347D01*
X105775538Y-112524000D01*
X107224462Y-112524000D01*
X107268604Y-112528347D01*
X107268604Y-112528347D01*
G37*
G36*
X104568604Y-112528347D02*
G01*
X104605144Y-112539432D01*
X104638821Y-112557433D01*
X104668341Y-112581659D01*
X104692567Y-112611179D01*
X104710568Y-112644856D01*
X104721653Y-112681396D01*
X104726000Y-112725538D01*
X104726000Y-113674462D01*
X104721653Y-113718604D01*
X104710568Y-113755144D01*
X104692567Y-113788821D01*
X104668341Y-113818341D01*
X104638821Y-113842567D01*
X104605144Y-113860568D01*
X104568604Y-113871653D01*
X104524462Y-113876000D01*
X103075538Y-113876000D01*
X103031396Y-113871653D01*
X102994856Y-113860568D01*
X102961179Y-113842567D01*
X102931659Y-113818341D01*
X102907433Y-113788821D01*
X102889432Y-113755144D01*
X102878347Y-113718604D01*
X102874000Y-113674462D01*
X102874000Y-112725538D01*
X102878347Y-112681396D01*
X102889432Y-112644856D01*
X102907433Y-112611179D01*
X102931659Y-112581659D01*
X102961179Y-112557433D01*
X102994856Y-112539432D01*
X103031396Y-112528347D01*
X103075538Y-112524000D01*
X104524462Y-112524000D01*
X104568604Y-112528347D01*
X104568604Y-112528347D01*
G37*
G36*
X101968604Y-112428347D02*
G01*
X102005144Y-112439432D01*
X102038821Y-112457433D01*
X102068341Y-112481659D01*
X102092567Y-112511179D01*
X102110568Y-112544856D01*
X102121653Y-112581396D01*
X102126000Y-112625538D01*
X102126000Y-113574462D01*
X102121653Y-113618604D01*
X102110568Y-113655144D01*
X102092567Y-113688821D01*
X102068341Y-113718341D01*
X102038821Y-113742567D01*
X102005144Y-113760568D01*
X101968604Y-113771653D01*
X101924462Y-113776000D01*
X100475538Y-113776000D01*
X100431396Y-113771653D01*
X100394856Y-113760568D01*
X100361179Y-113742567D01*
X100331659Y-113718341D01*
X100307433Y-113688821D01*
X100289432Y-113655144D01*
X100278347Y-113618604D01*
X100274000Y-113574462D01*
X100274000Y-112625538D01*
X100278347Y-112581396D01*
X100289432Y-112544856D01*
X100307433Y-112511179D01*
X100331659Y-112481659D01*
X100361179Y-112457433D01*
X100394856Y-112439432D01*
X100431396Y-112428347D01*
X100475538Y-112424000D01*
X101924462Y-112424000D01*
X101968604Y-112428347D01*
X101968604Y-112428347D01*
G37*
G36*
X76751000Y-113251000D02*
G01*
X74849000Y-113251000D01*
X74849000Y-112349000D01*
X76751000Y-112349000D01*
X76751000Y-113251000D01*
X76751000Y-113251000D01*
G37*
G36*
X69751000Y-113051000D02*
G01*
X67849000Y-113051000D01*
X67849000Y-112149000D01*
X69751000Y-112149000D01*
X69751000Y-113051000D01*
X69751000Y-113051000D01*
G37*
G36*
X95801000Y-112851000D02*
G01*
X94199000Y-112851000D01*
X94199000Y-110249000D01*
X95801000Y-110249000D01*
X95801000Y-112851000D01*
X95801000Y-112851000D01*
G37*
G36*
X98901000Y-111501000D02*
G01*
X97099000Y-111501000D01*
X97099000Y-109699000D01*
X98901000Y-109699000D01*
X98901000Y-111501000D01*
X98901000Y-111501000D01*
G37*
G36*
X80210443Y-109345519D02*
G01*
X80276627Y-109352037D01*
X80446466Y-109403557D01*
X80602991Y-109487222D01*
X80638729Y-109516552D01*
X80740186Y-109599814D01*
X80797433Y-109669571D01*
X80852778Y-109737009D01*
X80936443Y-109893534D01*
X80987963Y-110063373D01*
X81005359Y-110240000D01*
X80987963Y-110416627D01*
X80936443Y-110586466D01*
X80852778Y-110742991D01*
X80845615Y-110751719D01*
X80740186Y-110880186D01*
X80664173Y-110942567D01*
X80602991Y-110992778D01*
X80602989Y-110992779D01*
X80455428Y-111071653D01*
X80446466Y-111076443D01*
X80276627Y-111127963D01*
X80210443Y-111134481D01*
X80144260Y-111141000D01*
X80055740Y-111141000D01*
X79989557Y-111134481D01*
X79923373Y-111127963D01*
X79753534Y-111076443D01*
X79744573Y-111071653D01*
X79597011Y-110992779D01*
X79597009Y-110992778D01*
X79535827Y-110942567D01*
X79459814Y-110880186D01*
X79354385Y-110751719D01*
X79347222Y-110742991D01*
X79263557Y-110586466D01*
X79212037Y-110416627D01*
X79194641Y-110240000D01*
X79212037Y-110063373D01*
X79263557Y-109893534D01*
X79347222Y-109737009D01*
X79402567Y-109669571D01*
X79459814Y-109599814D01*
X79561271Y-109516552D01*
X79597009Y-109487222D01*
X79753534Y-109403557D01*
X79923373Y-109352037D01*
X79989557Y-109345519D01*
X80055740Y-109339000D01*
X80144260Y-109339000D01*
X80210443Y-109345519D01*
X80210443Y-109345519D01*
G37*
G36*
X107268604Y-109728347D02*
G01*
X107305144Y-109739432D01*
X107338821Y-109757433D01*
X107368341Y-109781659D01*
X107392567Y-109811179D01*
X107410568Y-109844856D01*
X107421653Y-109881396D01*
X107426000Y-109925538D01*
X107426000Y-110874462D01*
X107421653Y-110918604D01*
X107410568Y-110955144D01*
X107392567Y-110988821D01*
X107368341Y-111018341D01*
X107338821Y-111042567D01*
X107305144Y-111060568D01*
X107268604Y-111071653D01*
X107224462Y-111076000D01*
X105775538Y-111076000D01*
X105731396Y-111071653D01*
X105694856Y-111060568D01*
X105661179Y-111042567D01*
X105631659Y-111018341D01*
X105607433Y-110988821D01*
X105589432Y-110955144D01*
X105578347Y-110918604D01*
X105574000Y-110874462D01*
X105574000Y-109925538D01*
X105578347Y-109881396D01*
X105589432Y-109844856D01*
X105607433Y-109811179D01*
X105631659Y-109781659D01*
X105661179Y-109757433D01*
X105694856Y-109739432D01*
X105731396Y-109728347D01*
X105775538Y-109724000D01*
X107224462Y-109724000D01*
X107268604Y-109728347D01*
X107268604Y-109728347D01*
G37*
G36*
X104568604Y-109728347D02*
G01*
X104605144Y-109739432D01*
X104638821Y-109757433D01*
X104668341Y-109781659D01*
X104692567Y-109811179D01*
X104710568Y-109844856D01*
X104721653Y-109881396D01*
X104726000Y-109925538D01*
X104726000Y-110874462D01*
X104721653Y-110918604D01*
X104710568Y-110955144D01*
X104692567Y-110988821D01*
X104668341Y-111018341D01*
X104638821Y-111042567D01*
X104605144Y-111060568D01*
X104568604Y-111071653D01*
X104524462Y-111076000D01*
X103075538Y-111076000D01*
X103031396Y-111071653D01*
X102994856Y-111060568D01*
X102961179Y-111042567D01*
X102931659Y-111018341D01*
X102907433Y-110988821D01*
X102889432Y-110955144D01*
X102878347Y-110918604D01*
X102874000Y-110874462D01*
X102874000Y-109925538D01*
X102878347Y-109881396D01*
X102889432Y-109844856D01*
X102907433Y-109811179D01*
X102931659Y-109781659D01*
X102961179Y-109757433D01*
X102994856Y-109739432D01*
X103031396Y-109728347D01*
X103075538Y-109724000D01*
X104524462Y-109724000D01*
X104568604Y-109728347D01*
X104568604Y-109728347D01*
G37*
G36*
X76751000Y-111051000D02*
G01*
X74849000Y-111051000D01*
X74849000Y-110149000D01*
X76751000Y-110149000D01*
X76751000Y-111051000D01*
X76751000Y-111051000D01*
G37*
G36*
X101968604Y-109628347D02*
G01*
X102005144Y-109639432D01*
X102038821Y-109657433D01*
X102068341Y-109681659D01*
X102092567Y-109711179D01*
X102110568Y-109744856D01*
X102121653Y-109781396D01*
X102126000Y-109825538D01*
X102126000Y-110774462D01*
X102121653Y-110818604D01*
X102110568Y-110855144D01*
X102092567Y-110888821D01*
X102068341Y-110918341D01*
X102038821Y-110942567D01*
X102005144Y-110960568D01*
X101968604Y-110971653D01*
X101924462Y-110976000D01*
X100475538Y-110976000D01*
X100431396Y-110971653D01*
X100394856Y-110960568D01*
X100361179Y-110942567D01*
X100331659Y-110918341D01*
X100307433Y-110888821D01*
X100289432Y-110855144D01*
X100278347Y-110818604D01*
X100274000Y-110774462D01*
X100274000Y-109825538D01*
X100278347Y-109781396D01*
X100289432Y-109744856D01*
X100307433Y-109711179D01*
X100331659Y-109681659D01*
X100361179Y-109657433D01*
X100394856Y-109639432D01*
X100431396Y-109628347D01*
X100475538Y-109624000D01*
X101924462Y-109624000D01*
X101968604Y-109628347D01*
X101968604Y-109628347D01*
G37*
G36*
X69751000Y-110851000D02*
G01*
X67849000Y-110851000D01*
X67849000Y-109949000D01*
X69751000Y-109949000D01*
X69751000Y-110851000D01*
X69751000Y-110851000D01*
G37*
G36*
X118801000Y-109351000D02*
G01*
X117199000Y-109351000D01*
X117199000Y-106749000D01*
X118801000Y-106749000D01*
X118801000Y-109351000D01*
X118801000Y-109351000D01*
G37*
G36*
X76751000Y-108851000D02*
G01*
X74849000Y-108851000D01*
X74849000Y-107949000D01*
X76751000Y-107949000D01*
X76751000Y-108851000D01*
X76751000Y-108851000D01*
G37*
G36*
X69751000Y-108651000D02*
G01*
X67849000Y-108651000D01*
X67849000Y-107749000D01*
X69751000Y-107749000D01*
X69751000Y-108651000D01*
X69751000Y-108651000D01*
G37*
G36*
X81001000Y-108601000D02*
G01*
X79199000Y-108601000D01*
X79199000Y-106799000D01*
X81001000Y-106799000D01*
X81001000Y-108601000D01*
X81001000Y-108601000D01*
G37*
G36*
X142501000Y-108201000D02*
G01*
X138899000Y-108201000D01*
X138899000Y-106599000D01*
X142501000Y-106599000D01*
X142501000Y-108201000D01*
X142501000Y-108201000D01*
G37*
G36*
X124451000Y-108201000D02*
G01*
X120849000Y-108201000D01*
X120849000Y-106599000D01*
X124451000Y-106599000D01*
X124451000Y-108201000D01*
X124451000Y-108201000D01*
G37*
G36*
X63601000Y-106401000D02*
G01*
X61799000Y-106401000D01*
X61799000Y-104599000D01*
X63601000Y-104599000D01*
X63601000Y-106401000D01*
X63601000Y-106401000D01*
G37*
G36*
X65350443Y-104605519D02*
G01*
X65416627Y-104612037D01*
X65586466Y-104663557D01*
X65742991Y-104747222D01*
X65745157Y-104749000D01*
X65880186Y-104859814D01*
X65963448Y-104961271D01*
X65992778Y-104997009D01*
X66076443Y-105153534D01*
X66127963Y-105323373D01*
X66145359Y-105500000D01*
X66127963Y-105676627D01*
X66076443Y-105846466D01*
X65992778Y-106002991D01*
X65963448Y-106038729D01*
X65880186Y-106140186D01*
X65778729Y-106223448D01*
X65742991Y-106252778D01*
X65586466Y-106336443D01*
X65416627Y-106387963D01*
X65350442Y-106394482D01*
X65284260Y-106401000D01*
X65195740Y-106401000D01*
X65129558Y-106394482D01*
X65063373Y-106387963D01*
X64893534Y-106336443D01*
X64737009Y-106252778D01*
X64701271Y-106223448D01*
X64599814Y-106140186D01*
X64516552Y-106038729D01*
X64487222Y-106002991D01*
X64403557Y-105846466D01*
X64352037Y-105676627D01*
X64334641Y-105500000D01*
X64352037Y-105323373D01*
X64403557Y-105153534D01*
X64487222Y-104997009D01*
X64516552Y-104961271D01*
X64599814Y-104859814D01*
X64734843Y-104749000D01*
X64737009Y-104747222D01*
X64893534Y-104663557D01*
X65063373Y-104612037D01*
X65129558Y-104605518D01*
X65195740Y-104599000D01*
X65284260Y-104599000D01*
X65350443Y-104605519D01*
X65350443Y-104605519D01*
G37*
G36*
X101851000Y-106001000D02*
G01*
X99249000Y-106001000D01*
X99249000Y-104399000D01*
X101851000Y-104399000D01*
X101851000Y-106001000D01*
X101851000Y-106001000D01*
G37*
G36*
X105351000Y-106001000D02*
G01*
X102749000Y-106001000D01*
X102749000Y-104399000D01*
X105351000Y-104399000D01*
X105351000Y-106001000D01*
X105351000Y-106001000D01*
G37*
G36*
X76751000Y-105651000D02*
G01*
X74849000Y-105651000D01*
X74849000Y-104749000D01*
X76751000Y-104749000D01*
X76751000Y-105651000D01*
X76751000Y-105651000D01*
G37*
G36*
X69751000Y-105451000D02*
G01*
X67849000Y-105451000D01*
X67849000Y-104549000D01*
X69751000Y-104549000D01*
X69751000Y-105451000D01*
X69751000Y-105451000D01*
G37*
G36*
X116068604Y-103128347D02*
G01*
X116105144Y-103139432D01*
X116138821Y-103157433D01*
X116168341Y-103181659D01*
X116192567Y-103211179D01*
X116210568Y-103244856D01*
X116221653Y-103281396D01*
X116226000Y-103325538D01*
X116226000Y-104274462D01*
X116221653Y-104318604D01*
X116210568Y-104355144D01*
X116192567Y-104388821D01*
X116168341Y-104418341D01*
X116138821Y-104442567D01*
X116105144Y-104460568D01*
X116068604Y-104471653D01*
X116024462Y-104476000D01*
X114575538Y-104476000D01*
X114531396Y-104471653D01*
X114494856Y-104460568D01*
X114461179Y-104442567D01*
X114431659Y-104418341D01*
X114407433Y-104388821D01*
X114389432Y-104355144D01*
X114378347Y-104318604D01*
X114374000Y-104274462D01*
X114374000Y-103325538D01*
X114378347Y-103281396D01*
X114389432Y-103244856D01*
X114407433Y-103211179D01*
X114431659Y-103181659D01*
X114461179Y-103157433D01*
X114494856Y-103139432D01*
X114531396Y-103128347D01*
X114575538Y-103124000D01*
X116024462Y-103124000D01*
X116068604Y-103128347D01*
X116068604Y-103128347D01*
G37*
G36*
X112518604Y-101978347D02*
G01*
X112555144Y-101989432D01*
X112588821Y-102007433D01*
X112618341Y-102031659D01*
X112642567Y-102061179D01*
X112660568Y-102094856D01*
X112671653Y-102131396D01*
X112676000Y-102175538D01*
X112676000Y-103624462D01*
X112671653Y-103668604D01*
X112660568Y-103705144D01*
X112642567Y-103738821D01*
X112618341Y-103768341D01*
X112588821Y-103792567D01*
X112555144Y-103810568D01*
X112518604Y-103821653D01*
X112474462Y-103826000D01*
X111525538Y-103826000D01*
X111481396Y-103821653D01*
X111444856Y-103810568D01*
X111411179Y-103792567D01*
X111381659Y-103768341D01*
X111357433Y-103738821D01*
X111339432Y-103705144D01*
X111328347Y-103668604D01*
X111324000Y-103624462D01*
X111324000Y-102175538D01*
X111328347Y-102131396D01*
X111339432Y-102094856D01*
X111357433Y-102061179D01*
X111381659Y-102031659D01*
X111411179Y-102007433D01*
X111444856Y-101989432D01*
X111481396Y-101978347D01*
X111525538Y-101974000D01*
X112474462Y-101974000D01*
X112518604Y-101978347D01*
X112518604Y-101978347D01*
G37*
G36*
X109718604Y-101978347D02*
G01*
X109755144Y-101989432D01*
X109788821Y-102007433D01*
X109818341Y-102031659D01*
X109842567Y-102061179D01*
X109860568Y-102094856D01*
X109871653Y-102131396D01*
X109876000Y-102175538D01*
X109876000Y-103624462D01*
X109871653Y-103668604D01*
X109860568Y-103705144D01*
X109842567Y-103738821D01*
X109818341Y-103768341D01*
X109788821Y-103792567D01*
X109755144Y-103810568D01*
X109718604Y-103821653D01*
X109674462Y-103826000D01*
X108725538Y-103826000D01*
X108681396Y-103821653D01*
X108644856Y-103810568D01*
X108611179Y-103792567D01*
X108581659Y-103768341D01*
X108557433Y-103738821D01*
X108539432Y-103705144D01*
X108528347Y-103668604D01*
X108524000Y-103624462D01*
X108524000Y-102175538D01*
X108528347Y-102131396D01*
X108539432Y-102094856D01*
X108557433Y-102061179D01*
X108581659Y-102031659D01*
X108611179Y-102007433D01*
X108644856Y-101989432D01*
X108681396Y-101978347D01*
X108725538Y-101974000D01*
X109674462Y-101974000D01*
X109718604Y-101978347D01*
X109718604Y-101978347D01*
G37*
G36*
X84576000Y-102776000D02*
G01*
X83224000Y-102776000D01*
X83224000Y-101424000D01*
X84576000Y-101424000D01*
X84576000Y-102776000D01*
X84576000Y-102776000D01*
G37*
G36*
X124451000Y-102501000D02*
G01*
X120849000Y-102501000D01*
X120849000Y-100899000D01*
X124451000Y-100899000D01*
X124451000Y-102501000D01*
X124451000Y-102501000D01*
G37*
G36*
X142501000Y-102501000D02*
G01*
X138899000Y-102501000D01*
X138899000Y-100899000D01*
X142501000Y-100899000D01*
X142501000Y-102501000D01*
X142501000Y-102501000D01*
G37*
G36*
X90168604Y-100628347D02*
G01*
X90205144Y-100639432D01*
X90238821Y-100657433D01*
X90268341Y-100681659D01*
X90292567Y-100711179D01*
X90310568Y-100744856D01*
X90321653Y-100781396D01*
X90326000Y-100825538D01*
X90326000Y-101774462D01*
X90321653Y-101818604D01*
X90310568Y-101855144D01*
X90292567Y-101888821D01*
X90268341Y-101918341D01*
X90238821Y-101942567D01*
X90205144Y-101960568D01*
X90168604Y-101971653D01*
X90124462Y-101976000D01*
X88675538Y-101976000D01*
X88631396Y-101971653D01*
X88594856Y-101960568D01*
X88561179Y-101942567D01*
X88531659Y-101918341D01*
X88507433Y-101888821D01*
X88489432Y-101855144D01*
X88478347Y-101818604D01*
X88474000Y-101774462D01*
X88474000Y-100825538D01*
X88478347Y-100781396D01*
X88489432Y-100744856D01*
X88507433Y-100711179D01*
X88531659Y-100681659D01*
X88561179Y-100657433D01*
X88594856Y-100639432D01*
X88631396Y-100628347D01*
X88675538Y-100624000D01*
X90124462Y-100624000D01*
X90168604Y-100628347D01*
X90168604Y-100628347D01*
G37*
G36*
X87951000Y-101951000D02*
G01*
X86349000Y-101951000D01*
X86349000Y-100249000D01*
X87951000Y-100249000D01*
X87951000Y-101951000D01*
X87951000Y-101951000D01*
G37*
G36*
X63468604Y-100528347D02*
G01*
X63505144Y-100539432D01*
X63538821Y-100557433D01*
X63568341Y-100581659D01*
X63592567Y-100611179D01*
X63610568Y-100644856D01*
X63621653Y-100681396D01*
X63626000Y-100725538D01*
X63626000Y-101674462D01*
X63621653Y-101718604D01*
X63610568Y-101755144D01*
X63592567Y-101788821D01*
X63568341Y-101818341D01*
X63538821Y-101842567D01*
X63505144Y-101860568D01*
X63468604Y-101871653D01*
X63424462Y-101876000D01*
X61975538Y-101876000D01*
X61931396Y-101871653D01*
X61894856Y-101860568D01*
X61861179Y-101842567D01*
X61831659Y-101818341D01*
X61807433Y-101788821D01*
X61789432Y-101755144D01*
X61778347Y-101718604D01*
X61774000Y-101674462D01*
X61774000Y-100725538D01*
X61778347Y-100681396D01*
X61789432Y-100644856D01*
X61807433Y-100611179D01*
X61831659Y-100581659D01*
X61861179Y-100557433D01*
X61894856Y-100539432D01*
X61931396Y-100528347D01*
X61975538Y-100524000D01*
X63424462Y-100524000D01*
X63468604Y-100528347D01*
X63468604Y-100528347D01*
G37*
G36*
X72368604Y-100528347D02*
G01*
X72405144Y-100539432D01*
X72438821Y-100557433D01*
X72468341Y-100581659D01*
X72492567Y-100611179D01*
X72510568Y-100644856D01*
X72521653Y-100681396D01*
X72526000Y-100725538D01*
X72526000Y-101674462D01*
X72521653Y-101718604D01*
X72510568Y-101755144D01*
X72492567Y-101788821D01*
X72468341Y-101818341D01*
X72438821Y-101842567D01*
X72405144Y-101860568D01*
X72368604Y-101871653D01*
X72324462Y-101876000D01*
X70875538Y-101876000D01*
X70831396Y-101871653D01*
X70794856Y-101860568D01*
X70761179Y-101842567D01*
X70731659Y-101818341D01*
X70707433Y-101788821D01*
X70689432Y-101755144D01*
X70678347Y-101718604D01*
X70674000Y-101674462D01*
X70674000Y-100725538D01*
X70678347Y-100681396D01*
X70689432Y-100644856D01*
X70707433Y-100611179D01*
X70731659Y-100581659D01*
X70761179Y-100557433D01*
X70794856Y-100539432D01*
X70831396Y-100528347D01*
X70875538Y-100524000D01*
X72324462Y-100524000D01*
X72368604Y-100528347D01*
X72368604Y-100528347D01*
G37*
G36*
X77868604Y-100528347D02*
G01*
X77905144Y-100539432D01*
X77938821Y-100557433D01*
X77968341Y-100581659D01*
X77992567Y-100611179D01*
X78010568Y-100644856D01*
X78021653Y-100681396D01*
X78026000Y-100725538D01*
X78026000Y-101674462D01*
X78021653Y-101718604D01*
X78010568Y-101755144D01*
X77992567Y-101788821D01*
X77968341Y-101818341D01*
X77938821Y-101842567D01*
X77905144Y-101860568D01*
X77868604Y-101871653D01*
X77824462Y-101876000D01*
X76375538Y-101876000D01*
X76331396Y-101871653D01*
X76294856Y-101860568D01*
X76261179Y-101842567D01*
X76231659Y-101818341D01*
X76207433Y-101788821D01*
X76189432Y-101755144D01*
X76178347Y-101718604D01*
X76174000Y-101674462D01*
X76174000Y-100725538D01*
X76178347Y-100681396D01*
X76189432Y-100644856D01*
X76207433Y-100611179D01*
X76231659Y-100581659D01*
X76261179Y-100557433D01*
X76294856Y-100539432D01*
X76331396Y-100528347D01*
X76375538Y-100524000D01*
X77824462Y-100524000D01*
X77868604Y-100528347D01*
X77868604Y-100528347D01*
G37*
G36*
X92868604Y-100528347D02*
G01*
X92905144Y-100539432D01*
X92938821Y-100557433D01*
X92968341Y-100581659D01*
X92992567Y-100611179D01*
X93010568Y-100644856D01*
X93021653Y-100681396D01*
X93026000Y-100725538D01*
X93026000Y-101674462D01*
X93021653Y-101718604D01*
X93010568Y-101755144D01*
X92992567Y-101788821D01*
X92968341Y-101818341D01*
X92938821Y-101842567D01*
X92905144Y-101860568D01*
X92868604Y-101871653D01*
X92824462Y-101876000D01*
X91375538Y-101876000D01*
X91331396Y-101871653D01*
X91294856Y-101860568D01*
X91261179Y-101842567D01*
X91231659Y-101818341D01*
X91207433Y-101788821D01*
X91189432Y-101755144D01*
X91178347Y-101718604D01*
X91174000Y-101674462D01*
X91174000Y-100725538D01*
X91178347Y-100681396D01*
X91189432Y-100644856D01*
X91207433Y-100611179D01*
X91231659Y-100581659D01*
X91261179Y-100557433D01*
X91294856Y-100539432D01*
X91331396Y-100528347D01*
X91375538Y-100524000D01*
X92824462Y-100524000D01*
X92868604Y-100528347D01*
X92868604Y-100528347D01*
G37*
G36*
X80668604Y-100528347D02*
G01*
X80705144Y-100539432D01*
X80738821Y-100557433D01*
X80768341Y-100581659D01*
X80792567Y-100611179D01*
X80810568Y-100644856D01*
X80821653Y-100681396D01*
X80826000Y-100725538D01*
X80826000Y-101674462D01*
X80821653Y-101718604D01*
X80810568Y-101755144D01*
X80792567Y-101788821D01*
X80768341Y-101818341D01*
X80738821Y-101842567D01*
X80705144Y-101860568D01*
X80668604Y-101871653D01*
X80624462Y-101876000D01*
X79175538Y-101876000D01*
X79131396Y-101871653D01*
X79094856Y-101860568D01*
X79061179Y-101842567D01*
X79031659Y-101818341D01*
X79007433Y-101788821D01*
X78989432Y-101755144D01*
X78978347Y-101718604D01*
X78974000Y-101674462D01*
X78974000Y-100725538D01*
X78978347Y-100681396D01*
X78989432Y-100644856D01*
X79007433Y-100611179D01*
X79031659Y-100581659D01*
X79061179Y-100557433D01*
X79094856Y-100539432D01*
X79131396Y-100528347D01*
X79175538Y-100524000D01*
X80624462Y-100524000D01*
X80668604Y-100528347D01*
X80668604Y-100528347D01*
G37*
G36*
X75268604Y-100528347D02*
G01*
X75305144Y-100539432D01*
X75338821Y-100557433D01*
X75368341Y-100581659D01*
X75392567Y-100611179D01*
X75410568Y-100644856D01*
X75421653Y-100681396D01*
X75426000Y-100725538D01*
X75426000Y-101674462D01*
X75421653Y-101718604D01*
X75410568Y-101755144D01*
X75392567Y-101788821D01*
X75368341Y-101818341D01*
X75338821Y-101842567D01*
X75305144Y-101860568D01*
X75268604Y-101871653D01*
X75224462Y-101876000D01*
X73775538Y-101876000D01*
X73731396Y-101871653D01*
X73694856Y-101860568D01*
X73661179Y-101842567D01*
X73631659Y-101818341D01*
X73607433Y-101788821D01*
X73589432Y-101755144D01*
X73578347Y-101718604D01*
X73574000Y-101674462D01*
X73574000Y-100725538D01*
X73578347Y-100681396D01*
X73589432Y-100644856D01*
X73607433Y-100611179D01*
X73631659Y-100581659D01*
X73661179Y-100557433D01*
X73694856Y-100539432D01*
X73731396Y-100528347D01*
X73775538Y-100524000D01*
X75224462Y-100524000D01*
X75268604Y-100528347D01*
X75268604Y-100528347D01*
G37*
G36*
X116068604Y-100328347D02*
G01*
X116105144Y-100339432D01*
X116138821Y-100357433D01*
X116168341Y-100381659D01*
X116192567Y-100411179D01*
X116210568Y-100444856D01*
X116221653Y-100481396D01*
X116226000Y-100525538D01*
X116226000Y-101474462D01*
X116221653Y-101518604D01*
X116210568Y-101555144D01*
X116192567Y-101588821D01*
X116168341Y-101618341D01*
X116138821Y-101642567D01*
X116105144Y-101660568D01*
X116068604Y-101671653D01*
X116024462Y-101676000D01*
X114575538Y-101676000D01*
X114531396Y-101671653D01*
X114494856Y-101660568D01*
X114461179Y-101642567D01*
X114431659Y-101618341D01*
X114407433Y-101588821D01*
X114389432Y-101555144D01*
X114378347Y-101518604D01*
X114374000Y-101474462D01*
X114374000Y-100525538D01*
X114378347Y-100481396D01*
X114389432Y-100444856D01*
X114407433Y-100411179D01*
X114431659Y-100381659D01*
X114461179Y-100357433D01*
X114494856Y-100339432D01*
X114531396Y-100328347D01*
X114575538Y-100324000D01*
X116024462Y-100324000D01*
X116068604Y-100328347D01*
X116068604Y-100328347D01*
G37*
G36*
X68751000Y-101426000D02*
G01*
X67599000Y-101426000D01*
X67599000Y-99124000D01*
X68751000Y-99124000D01*
X68751000Y-101426000D01*
X68751000Y-101426000D01*
G37*
G36*
X65801000Y-101426000D02*
G01*
X64649000Y-101426000D01*
X64649000Y-99124000D01*
X65801000Y-99124000D01*
X65801000Y-101426000D01*
X65801000Y-101426000D01*
G37*
G36*
X102776000Y-101176000D02*
G01*
X101424000Y-101176000D01*
X101424000Y-99824000D01*
X102776000Y-99824000D01*
X102776000Y-101176000D01*
X102776000Y-101176000D01*
G37*
G36*
X112418604Y-99178347D02*
G01*
X112455144Y-99189432D01*
X112488821Y-99207433D01*
X112518341Y-99231659D01*
X112542567Y-99261179D01*
X112560568Y-99294856D01*
X112571653Y-99331396D01*
X112576000Y-99375538D01*
X112576000Y-100824462D01*
X112571653Y-100868604D01*
X112560568Y-100905144D01*
X112542567Y-100938821D01*
X112518341Y-100968341D01*
X112488821Y-100992567D01*
X112455144Y-101010568D01*
X112418604Y-101021653D01*
X112374462Y-101026000D01*
X111425538Y-101026000D01*
X111381396Y-101021653D01*
X111344856Y-101010568D01*
X111311179Y-100992567D01*
X111281659Y-100968341D01*
X111257433Y-100938821D01*
X111239432Y-100905144D01*
X111228347Y-100868604D01*
X111224000Y-100824462D01*
X111224000Y-99375538D01*
X111228347Y-99331396D01*
X111239432Y-99294856D01*
X111257433Y-99261179D01*
X111281659Y-99231659D01*
X111311179Y-99207433D01*
X111344856Y-99189432D01*
X111381396Y-99178347D01*
X111425538Y-99174000D01*
X112374462Y-99174000D01*
X112418604Y-99178347D01*
X112418604Y-99178347D01*
G37*
G36*
X109618604Y-99178347D02*
G01*
X109655144Y-99189432D01*
X109688821Y-99207433D01*
X109718341Y-99231659D01*
X109742567Y-99261179D01*
X109760568Y-99294856D01*
X109771653Y-99331396D01*
X109776000Y-99375538D01*
X109776000Y-100824462D01*
X109771653Y-100868604D01*
X109760568Y-100905144D01*
X109742567Y-100938821D01*
X109718341Y-100968341D01*
X109688821Y-100992567D01*
X109655144Y-101010568D01*
X109618604Y-101021653D01*
X109574462Y-101026000D01*
X108625538Y-101026000D01*
X108581396Y-101021653D01*
X108544856Y-101010568D01*
X108511179Y-100992567D01*
X108481659Y-100968341D01*
X108457433Y-100938821D01*
X108439432Y-100905144D01*
X108428347Y-100868604D01*
X108424000Y-100824462D01*
X108424000Y-99375538D01*
X108428347Y-99331396D01*
X108439432Y-99294856D01*
X108457433Y-99261179D01*
X108481659Y-99231659D01*
X108511179Y-99207433D01*
X108544856Y-99189432D01*
X108581396Y-99178347D01*
X108625538Y-99174000D01*
X109574462Y-99174000D01*
X109618604Y-99178347D01*
X109618604Y-99178347D01*
G37*
G36*
X84576000Y-100776000D02*
G01*
X83224000Y-100776000D01*
X83224000Y-99424000D01*
X84576000Y-99424000D01*
X84576000Y-100776000D01*
X84576000Y-100776000D01*
G37*
G36*
X106151000Y-100351000D02*
G01*
X104549000Y-100351000D01*
X104549000Y-98649000D01*
X106151000Y-98649000D01*
X106151000Y-100351000D01*
X106151000Y-100351000D01*
G37*
G36*
X95801000Y-100351000D02*
G01*
X94199000Y-100351000D01*
X94199000Y-97749000D01*
X95801000Y-97749000D01*
X95801000Y-100351000D01*
X95801000Y-100351000D01*
G37*
G36*
X67251000Y-99326000D02*
G01*
X66149000Y-99326000D01*
X66149000Y-98174000D01*
X67251000Y-98174000D01*
X67251000Y-99326000D01*
X67251000Y-99326000D01*
G37*
G36*
X102776000Y-99176000D02*
G01*
X101424000Y-99176000D01*
X101424000Y-97824000D01*
X102776000Y-97824000D01*
X102776000Y-99176000D01*
X102776000Y-99176000D01*
G37*
G36*
X90168604Y-97828347D02*
G01*
X90205144Y-97839432D01*
X90238821Y-97857433D01*
X90268341Y-97881659D01*
X90292567Y-97911179D01*
X90310568Y-97944856D01*
X90321653Y-97981396D01*
X90326000Y-98025538D01*
X90326000Y-98974462D01*
X90321653Y-99018604D01*
X90310568Y-99055144D01*
X90292567Y-99088821D01*
X90268341Y-99118341D01*
X90238821Y-99142567D01*
X90205144Y-99160568D01*
X90168604Y-99171653D01*
X90124462Y-99176000D01*
X88675538Y-99176000D01*
X88631396Y-99171653D01*
X88594856Y-99160568D01*
X88561179Y-99142567D01*
X88531659Y-99118341D01*
X88507433Y-99088821D01*
X88489432Y-99055144D01*
X88478347Y-99018604D01*
X88474000Y-98974462D01*
X88474000Y-98025538D01*
X88478347Y-97981396D01*
X88489432Y-97944856D01*
X88507433Y-97911179D01*
X88531659Y-97881659D01*
X88561179Y-97857433D01*
X88594856Y-97839432D01*
X88631396Y-97828347D01*
X88675538Y-97824000D01*
X90124462Y-97824000D01*
X90168604Y-97828347D01*
X90168604Y-97828347D01*
G37*
G36*
X77868604Y-97728347D02*
G01*
X77905144Y-97739432D01*
X77938821Y-97757433D01*
X77968341Y-97781659D01*
X77992567Y-97811179D01*
X78010568Y-97844856D01*
X78021653Y-97881396D01*
X78026000Y-97925538D01*
X78026000Y-98874462D01*
X78021653Y-98918604D01*
X78010568Y-98955144D01*
X77992567Y-98988821D01*
X77968341Y-99018341D01*
X77938821Y-99042567D01*
X77905144Y-99060568D01*
X77868604Y-99071653D01*
X77824462Y-99076000D01*
X76375538Y-99076000D01*
X76331396Y-99071653D01*
X76294856Y-99060568D01*
X76261179Y-99042567D01*
X76231659Y-99018341D01*
X76207433Y-98988821D01*
X76189432Y-98955144D01*
X76178347Y-98918604D01*
X76174000Y-98874462D01*
X76174000Y-97925538D01*
X76178347Y-97881396D01*
X76189432Y-97844856D01*
X76207433Y-97811179D01*
X76231659Y-97781659D01*
X76261179Y-97757433D01*
X76294856Y-97739432D01*
X76331396Y-97728347D01*
X76375538Y-97724000D01*
X77824462Y-97724000D01*
X77868604Y-97728347D01*
X77868604Y-97728347D01*
G37*
G36*
X92868604Y-97728347D02*
G01*
X92905144Y-97739432D01*
X92938821Y-97757433D01*
X92968341Y-97781659D01*
X92992567Y-97811179D01*
X93010568Y-97844856D01*
X93021653Y-97881396D01*
X93026000Y-97925538D01*
X93026000Y-98874462D01*
X93021653Y-98918604D01*
X93010568Y-98955144D01*
X92992567Y-98988821D01*
X92968341Y-99018341D01*
X92938821Y-99042567D01*
X92905144Y-99060568D01*
X92868604Y-99071653D01*
X92824462Y-99076000D01*
X91375538Y-99076000D01*
X91331396Y-99071653D01*
X91294856Y-99060568D01*
X91261179Y-99042567D01*
X91231659Y-99018341D01*
X91207433Y-98988821D01*
X91189432Y-98955144D01*
X91178347Y-98918604D01*
X91174000Y-98874462D01*
X91174000Y-97925538D01*
X91178347Y-97881396D01*
X91189432Y-97844856D01*
X91207433Y-97811179D01*
X91231659Y-97781659D01*
X91261179Y-97757433D01*
X91294856Y-97739432D01*
X91331396Y-97728347D01*
X91375538Y-97724000D01*
X92824462Y-97724000D01*
X92868604Y-97728347D01*
X92868604Y-97728347D01*
G37*
G36*
X80668604Y-97728347D02*
G01*
X80705144Y-97739432D01*
X80738821Y-97757433D01*
X80768341Y-97781659D01*
X80792567Y-97811179D01*
X80810568Y-97844856D01*
X80821653Y-97881396D01*
X80826000Y-97925538D01*
X80826000Y-98874462D01*
X80821653Y-98918604D01*
X80810568Y-98955144D01*
X80792567Y-98988821D01*
X80768341Y-99018341D01*
X80738821Y-99042567D01*
X80705144Y-99060568D01*
X80668604Y-99071653D01*
X80624462Y-99076000D01*
X79175538Y-99076000D01*
X79131396Y-99071653D01*
X79094856Y-99060568D01*
X79061179Y-99042567D01*
X79031659Y-99018341D01*
X79007433Y-98988821D01*
X78989432Y-98955144D01*
X78978347Y-98918604D01*
X78974000Y-98874462D01*
X78974000Y-97925538D01*
X78978347Y-97881396D01*
X78989432Y-97844856D01*
X79007433Y-97811179D01*
X79031659Y-97781659D01*
X79061179Y-97757433D01*
X79094856Y-97739432D01*
X79131396Y-97728347D01*
X79175538Y-97724000D01*
X80624462Y-97724000D01*
X80668604Y-97728347D01*
X80668604Y-97728347D01*
G37*
G36*
X75268604Y-97728347D02*
G01*
X75305144Y-97739432D01*
X75338821Y-97757433D01*
X75368341Y-97781659D01*
X75392567Y-97811179D01*
X75410568Y-97844856D01*
X75421653Y-97881396D01*
X75426000Y-97925538D01*
X75426000Y-98874462D01*
X75421653Y-98918604D01*
X75410568Y-98955144D01*
X75392567Y-98988821D01*
X75368341Y-99018341D01*
X75338821Y-99042567D01*
X75305144Y-99060568D01*
X75268604Y-99071653D01*
X75224462Y-99076000D01*
X73775538Y-99076000D01*
X73731396Y-99071653D01*
X73694856Y-99060568D01*
X73661179Y-99042567D01*
X73631659Y-99018341D01*
X73607433Y-98988821D01*
X73589432Y-98955144D01*
X73578347Y-98918604D01*
X73574000Y-98874462D01*
X73574000Y-97925538D01*
X73578347Y-97881396D01*
X73589432Y-97844856D01*
X73607433Y-97811179D01*
X73631659Y-97781659D01*
X73661179Y-97757433D01*
X73694856Y-97739432D01*
X73731396Y-97728347D01*
X73775538Y-97724000D01*
X75224462Y-97724000D01*
X75268604Y-97728347D01*
X75268604Y-97728347D01*
G37*
G36*
X72368604Y-97728347D02*
G01*
X72405144Y-97739432D01*
X72438821Y-97757433D01*
X72468341Y-97781659D01*
X72492567Y-97811179D01*
X72510568Y-97844856D01*
X72521653Y-97881396D01*
X72526000Y-97925538D01*
X72526000Y-98874462D01*
X72521653Y-98918604D01*
X72510568Y-98955144D01*
X72492567Y-98988821D01*
X72468341Y-99018341D01*
X72438821Y-99042567D01*
X72405144Y-99060568D01*
X72368604Y-99071653D01*
X72324462Y-99076000D01*
X70875538Y-99076000D01*
X70831396Y-99071653D01*
X70794856Y-99060568D01*
X70761179Y-99042567D01*
X70731659Y-99018341D01*
X70707433Y-98988821D01*
X70689432Y-98955144D01*
X70678347Y-98918604D01*
X70674000Y-98874462D01*
X70674000Y-97925538D01*
X70678347Y-97881396D01*
X70689432Y-97844856D01*
X70707433Y-97811179D01*
X70731659Y-97781659D01*
X70761179Y-97757433D01*
X70794856Y-97739432D01*
X70831396Y-97728347D01*
X70875538Y-97724000D01*
X72324462Y-97724000D01*
X72368604Y-97728347D01*
X72368604Y-97728347D01*
G37*
G36*
X63468604Y-97728347D02*
G01*
X63505144Y-97739432D01*
X63538821Y-97757433D01*
X63568341Y-97781659D01*
X63592567Y-97811179D01*
X63610568Y-97844856D01*
X63621653Y-97881396D01*
X63626000Y-97925538D01*
X63626000Y-98874462D01*
X63621653Y-98918604D01*
X63610568Y-98955144D01*
X63592567Y-98988821D01*
X63568341Y-99018341D01*
X63538821Y-99042567D01*
X63505144Y-99060568D01*
X63468604Y-99071653D01*
X63424462Y-99076000D01*
X61975538Y-99076000D01*
X61931396Y-99071653D01*
X61894856Y-99060568D01*
X61861179Y-99042567D01*
X61831659Y-99018341D01*
X61807433Y-98988821D01*
X61789432Y-98955144D01*
X61778347Y-98918604D01*
X61774000Y-98874462D01*
X61774000Y-97925538D01*
X61778347Y-97881396D01*
X61789432Y-97844856D01*
X61807433Y-97811179D01*
X61831659Y-97781659D01*
X61861179Y-97757433D01*
X61894856Y-97739432D01*
X61931396Y-97728347D01*
X61975538Y-97724000D01*
X63424462Y-97724000D01*
X63468604Y-97728347D01*
X63468604Y-97728347D01*
G37*
G36*
X118801000Y-96851000D02*
G01*
X117199000Y-96851000D01*
X117199000Y-94249000D01*
X118801000Y-94249000D01*
X118801000Y-96851000D01*
X118801000Y-96851000D01*
G37*
G36*
X72818604Y-94978347D02*
G01*
X72855144Y-94989432D01*
X72888821Y-95007433D01*
X72918341Y-95031659D01*
X72942567Y-95061179D01*
X72960568Y-95094856D01*
X72971653Y-95131396D01*
X72976000Y-95175538D01*
X72976000Y-96624462D01*
X72971653Y-96668604D01*
X72960568Y-96705144D01*
X72942567Y-96738821D01*
X72918341Y-96768341D01*
X72888821Y-96792567D01*
X72855144Y-96810568D01*
X72818604Y-96821653D01*
X72774462Y-96826000D01*
X71825538Y-96826000D01*
X71781396Y-96821653D01*
X71744856Y-96810568D01*
X71711179Y-96792567D01*
X71681659Y-96768341D01*
X71657433Y-96738821D01*
X71639432Y-96705144D01*
X71628347Y-96668604D01*
X71624000Y-96624462D01*
X71624000Y-95175538D01*
X71628347Y-95131396D01*
X71639432Y-95094856D01*
X71657433Y-95061179D01*
X71681659Y-95031659D01*
X71711179Y-95007433D01*
X71744856Y-94989432D01*
X71781396Y-94978347D01*
X71825538Y-94974000D01*
X72774462Y-94974000D01*
X72818604Y-94978347D01*
X72818604Y-94978347D01*
G37*
G36*
X75618604Y-94978347D02*
G01*
X75655144Y-94989432D01*
X75688821Y-95007433D01*
X75718341Y-95031659D01*
X75742567Y-95061179D01*
X75760568Y-95094856D01*
X75771653Y-95131396D01*
X75776000Y-95175538D01*
X75776000Y-96624462D01*
X75771653Y-96668604D01*
X75760568Y-96705144D01*
X75742567Y-96738821D01*
X75718341Y-96768341D01*
X75688821Y-96792567D01*
X75655144Y-96810568D01*
X75618604Y-96821653D01*
X75574462Y-96826000D01*
X74625538Y-96826000D01*
X74581396Y-96821653D01*
X74544856Y-96810568D01*
X74511179Y-96792567D01*
X74481659Y-96768341D01*
X74457433Y-96738821D01*
X74439432Y-96705144D01*
X74428347Y-96668604D01*
X74424000Y-96624462D01*
X74424000Y-95175538D01*
X74428347Y-95131396D01*
X74439432Y-95094856D01*
X74457433Y-95061179D01*
X74481659Y-95031659D01*
X74511179Y-95007433D01*
X74544856Y-94989432D01*
X74581396Y-94978347D01*
X74625538Y-94974000D01*
X75574462Y-94974000D01*
X75618604Y-94978347D01*
X75618604Y-94978347D01*
G37*
G36*
X67818604Y-94978347D02*
G01*
X67855144Y-94989432D01*
X67888821Y-95007433D01*
X67918341Y-95031659D01*
X67942567Y-95061179D01*
X67960568Y-95094856D01*
X67971653Y-95131396D01*
X67976000Y-95175538D01*
X67976000Y-96624462D01*
X67971653Y-96668604D01*
X67960568Y-96705144D01*
X67942567Y-96738821D01*
X67918341Y-96768341D01*
X67888821Y-96792567D01*
X67855144Y-96810568D01*
X67818604Y-96821653D01*
X67774462Y-96826000D01*
X66825538Y-96826000D01*
X66781396Y-96821653D01*
X66744856Y-96810568D01*
X66711179Y-96792567D01*
X66681659Y-96768341D01*
X66657433Y-96738821D01*
X66639432Y-96705144D01*
X66628347Y-96668604D01*
X66624000Y-96624462D01*
X66624000Y-95175538D01*
X66628347Y-95131396D01*
X66639432Y-95094856D01*
X66657433Y-95061179D01*
X66681659Y-95031659D01*
X66711179Y-95007433D01*
X66744856Y-94989432D01*
X66781396Y-94978347D01*
X66825538Y-94974000D01*
X67774462Y-94974000D01*
X67818604Y-94978347D01*
X67818604Y-94978347D01*
G37*
G36*
X65818604Y-94978347D02*
G01*
X65855144Y-94989432D01*
X65888821Y-95007433D01*
X65918341Y-95031659D01*
X65942567Y-95061179D01*
X65960568Y-95094856D01*
X65971653Y-95131396D01*
X65976000Y-95175538D01*
X65976000Y-96624462D01*
X65971653Y-96668604D01*
X65960568Y-96705144D01*
X65942567Y-96738821D01*
X65918341Y-96768341D01*
X65888821Y-96792567D01*
X65855144Y-96810568D01*
X65818604Y-96821653D01*
X65774462Y-96826000D01*
X64825538Y-96826000D01*
X64781396Y-96821653D01*
X64744856Y-96810568D01*
X64711179Y-96792567D01*
X64681659Y-96768341D01*
X64657433Y-96738821D01*
X64639432Y-96705144D01*
X64628347Y-96668604D01*
X64624000Y-96624462D01*
X64624000Y-95175538D01*
X64628347Y-95131396D01*
X64639432Y-95094856D01*
X64657433Y-95061179D01*
X64681659Y-95031659D01*
X64711179Y-95007433D01*
X64744856Y-94989432D01*
X64781396Y-94978347D01*
X64825538Y-94974000D01*
X65774462Y-94974000D01*
X65818604Y-94978347D01*
X65818604Y-94978347D01*
G37*
G36*
X63018604Y-94978347D02*
G01*
X63055144Y-94989432D01*
X63088821Y-95007433D01*
X63118341Y-95031659D01*
X63142567Y-95061179D01*
X63160568Y-95094856D01*
X63171653Y-95131396D01*
X63176000Y-95175538D01*
X63176000Y-96624462D01*
X63171653Y-96668604D01*
X63160568Y-96705144D01*
X63142567Y-96738821D01*
X63118341Y-96768341D01*
X63088821Y-96792567D01*
X63055144Y-96810568D01*
X63018604Y-96821653D01*
X62974462Y-96826000D01*
X62025538Y-96826000D01*
X61981396Y-96821653D01*
X61944856Y-96810568D01*
X61911179Y-96792567D01*
X61881659Y-96768341D01*
X61857433Y-96738821D01*
X61839432Y-96705144D01*
X61828347Y-96668604D01*
X61824000Y-96624462D01*
X61824000Y-95175538D01*
X61828347Y-95131396D01*
X61839432Y-95094856D01*
X61857433Y-95061179D01*
X61881659Y-95031659D01*
X61911179Y-95007433D01*
X61944856Y-94989432D01*
X61981396Y-94978347D01*
X62025538Y-94974000D01*
X62974462Y-94974000D01*
X63018604Y-94978347D01*
X63018604Y-94978347D01*
G37*
G36*
X70618604Y-94978347D02*
G01*
X70655144Y-94989432D01*
X70688821Y-95007433D01*
X70718341Y-95031659D01*
X70742567Y-95061179D01*
X70760568Y-95094856D01*
X70771653Y-95131396D01*
X70776000Y-95175538D01*
X70776000Y-96624462D01*
X70771653Y-96668604D01*
X70760568Y-96705144D01*
X70742567Y-96738821D01*
X70718341Y-96768341D01*
X70688821Y-96792567D01*
X70655144Y-96810568D01*
X70618604Y-96821653D01*
X70574462Y-96826000D01*
X69625538Y-96826000D01*
X69581396Y-96821653D01*
X69544856Y-96810568D01*
X69511179Y-96792567D01*
X69481659Y-96768341D01*
X69457433Y-96738821D01*
X69439432Y-96705144D01*
X69428347Y-96668604D01*
X69424000Y-96624462D01*
X69424000Y-95175538D01*
X69428347Y-95131396D01*
X69439432Y-95094856D01*
X69457433Y-95061179D01*
X69481659Y-95031659D01*
X69511179Y-95007433D01*
X69544856Y-94989432D01*
X69581396Y-94978347D01*
X69625538Y-94974000D01*
X70574462Y-94974000D01*
X70618604Y-94978347D01*
X70618604Y-94978347D01*
G37*
G36*
X126251000Y-96101000D02*
G01*
X123649000Y-96101000D01*
X123649000Y-94499000D01*
X126251000Y-94499000D01*
X126251000Y-96101000D01*
X126251000Y-96101000D01*
G37*
G36*
X122751000Y-96101000D02*
G01*
X120149000Y-96101000D01*
X120149000Y-94499000D01*
X122751000Y-94499000D01*
X122751000Y-96101000D01*
X122751000Y-96101000D01*
G37*
G36*
X89406564Y-93989389D02*
G01*
X89597833Y-94068615D01*
X89597835Y-94068616D01*
X89769973Y-94183635D01*
X89916365Y-94330027D01*
X90031385Y-94502167D01*
X90110611Y-94693436D01*
X90151000Y-94896484D01*
X90151000Y-95103516D01*
X90110611Y-95306564D01*
X90065130Y-95416365D01*
X90031384Y-95497835D01*
X89916365Y-95669973D01*
X89769973Y-95816365D01*
X89597835Y-95931384D01*
X89597834Y-95931385D01*
X89597833Y-95931385D01*
X89406564Y-96010611D01*
X89203516Y-96051000D01*
X88996484Y-96051000D01*
X88793436Y-96010611D01*
X88602167Y-95931385D01*
X88602166Y-95931385D01*
X88602165Y-95931384D01*
X88430027Y-95816365D01*
X88283635Y-95669973D01*
X88168616Y-95497835D01*
X88134870Y-95416365D01*
X88089389Y-95306564D01*
X88049000Y-95103516D01*
X88049000Y-94896484D01*
X88089389Y-94693436D01*
X88168615Y-94502167D01*
X88283635Y-94330027D01*
X88430027Y-94183635D01*
X88602165Y-94068616D01*
X88602167Y-94068615D01*
X88793436Y-93989389D01*
X88996484Y-93949000D01*
X89203516Y-93949000D01*
X89406564Y-93989389D01*
X89406564Y-93989389D01*
G37*
G36*
X86906564Y-93989389D02*
G01*
X87097833Y-94068615D01*
X87097835Y-94068616D01*
X87269973Y-94183635D01*
X87416365Y-94330027D01*
X87531385Y-94502167D01*
X87610611Y-94693436D01*
X87651000Y-94896484D01*
X87651000Y-95103516D01*
X87610611Y-95306564D01*
X87565130Y-95416365D01*
X87531384Y-95497835D01*
X87416365Y-95669973D01*
X87269973Y-95816365D01*
X87097835Y-95931384D01*
X87097834Y-95931385D01*
X87097833Y-95931385D01*
X86906564Y-96010611D01*
X86703516Y-96051000D01*
X86496484Y-96051000D01*
X86293436Y-96010611D01*
X86102167Y-95931385D01*
X86102166Y-95931385D01*
X86102165Y-95931384D01*
X85930027Y-95816365D01*
X85783635Y-95669973D01*
X85668616Y-95497835D01*
X85634870Y-95416365D01*
X85589389Y-95306564D01*
X85549000Y-95103516D01*
X85549000Y-94896484D01*
X85589389Y-94693436D01*
X85668615Y-94502167D01*
X85783635Y-94330027D01*
X85930027Y-94183635D01*
X86102165Y-94068616D01*
X86102167Y-94068615D01*
X86293436Y-93989389D01*
X86496484Y-93949000D01*
X86703516Y-93949000D01*
X86906564Y-93989389D01*
X86906564Y-93989389D01*
G37*
G36*
X85151000Y-96051000D02*
G01*
X83049000Y-96051000D01*
X83049000Y-93949000D01*
X85151000Y-93949000D01*
X85151000Y-96051000D01*
X85151000Y-96051000D01*
G37*
G36*
X110151000Y-95651000D02*
G01*
X108049000Y-95651000D01*
X108049000Y-93549000D01*
X110151000Y-93549000D01*
X110151000Y-95651000D01*
X110151000Y-95651000D01*
G37*
G36*
X114406564Y-93589389D02*
G01*
X114597833Y-93668615D01*
X114597835Y-93668616D01*
X114769973Y-93783635D01*
X114916365Y-93930027D01*
X115008967Y-94068615D01*
X115031385Y-94102167D01*
X115110611Y-94293436D01*
X115151000Y-94496484D01*
X115151000Y-94703516D01*
X115110611Y-94906564D01*
X115032618Y-95094856D01*
X115031384Y-95097835D01*
X114916365Y-95269973D01*
X114769973Y-95416365D01*
X114597835Y-95531384D01*
X114597834Y-95531385D01*
X114597833Y-95531385D01*
X114406564Y-95610611D01*
X114203516Y-95651000D01*
X113996484Y-95651000D01*
X113793436Y-95610611D01*
X113602167Y-95531385D01*
X113602166Y-95531385D01*
X113602165Y-95531384D01*
X113430027Y-95416365D01*
X113283635Y-95269973D01*
X113168616Y-95097835D01*
X113167382Y-95094856D01*
X113089389Y-94906564D01*
X113049000Y-94703516D01*
X113049000Y-94496484D01*
X113089389Y-94293436D01*
X113168615Y-94102167D01*
X113191034Y-94068615D01*
X113283635Y-93930027D01*
X113430027Y-93783635D01*
X113602165Y-93668616D01*
X113602167Y-93668615D01*
X113793436Y-93589389D01*
X113996484Y-93549000D01*
X114203516Y-93549000D01*
X114406564Y-93589389D01*
X114406564Y-93589389D01*
G37*
G36*
X111906564Y-93589389D02*
G01*
X112097833Y-93668615D01*
X112097835Y-93668616D01*
X112269973Y-93783635D01*
X112416365Y-93930027D01*
X112508967Y-94068615D01*
X112531385Y-94102167D01*
X112610611Y-94293436D01*
X112651000Y-94496484D01*
X112651000Y-94703516D01*
X112610611Y-94906564D01*
X112532618Y-95094856D01*
X112531384Y-95097835D01*
X112416365Y-95269973D01*
X112269973Y-95416365D01*
X112097835Y-95531384D01*
X112097834Y-95531385D01*
X112097833Y-95531385D01*
X111906564Y-95610611D01*
X111703516Y-95651000D01*
X111496484Y-95651000D01*
X111293436Y-95610611D01*
X111102167Y-95531385D01*
X111102166Y-95531385D01*
X111102165Y-95531384D01*
X110930027Y-95416365D01*
X110783635Y-95269973D01*
X110668616Y-95097835D01*
X110667382Y-95094856D01*
X110589389Y-94906564D01*
X110549000Y-94703516D01*
X110549000Y-94496484D01*
X110589389Y-94293436D01*
X110668615Y-94102167D01*
X110691034Y-94068615D01*
X110783635Y-93930027D01*
X110930027Y-93783635D01*
X111102165Y-93668616D01*
X111102167Y-93668615D01*
X111293436Y-93589389D01*
X111496484Y-93549000D01*
X111703516Y-93549000D01*
X111906564Y-93589389D01*
X111906564Y-93589389D01*
G37*
G36*
X67351000Y-94301000D02*
G01*
X66249000Y-94301000D01*
X66249000Y-92699000D01*
X67351000Y-92699000D01*
X67351000Y-94301000D01*
X67351000Y-94301000D01*
G37*
G36*
X64451000Y-94301000D02*
G01*
X63349000Y-94301000D01*
X63349000Y-92699000D01*
X64451000Y-92699000D01*
X64451000Y-94301000D01*
X64451000Y-94301000D01*
G37*
G36*
X78751000Y-93251000D02*
G01*
X77449000Y-93251000D01*
X77449000Y-92249000D01*
X78751000Y-92249000D01*
X78751000Y-93251000D01*
X78751000Y-93251000D01*
G37*
G36*
X98751000Y-93251000D02*
G01*
X96649000Y-93251000D01*
X96649000Y-91649000D01*
X98751000Y-91649000D01*
X98751000Y-93251000D01*
X98751000Y-93251000D01*
G37*
G36*
X81768604Y-91728347D02*
G01*
X81805144Y-91739432D01*
X81838821Y-91757433D01*
X81868341Y-91781659D01*
X81892567Y-91811179D01*
X81910568Y-91844856D01*
X81921653Y-91881396D01*
X81926000Y-91925538D01*
X81926000Y-92874462D01*
X81921653Y-92918604D01*
X81910568Y-92955144D01*
X81892567Y-92988821D01*
X81868341Y-93018341D01*
X81838821Y-93042567D01*
X81805144Y-93060568D01*
X81768604Y-93071653D01*
X81724462Y-93076000D01*
X80275538Y-93076000D01*
X80231396Y-93071653D01*
X80194856Y-93060568D01*
X80161179Y-93042567D01*
X80131659Y-93018341D01*
X80107433Y-92988821D01*
X80089432Y-92955144D01*
X80078347Y-92918604D01*
X80074000Y-92874462D01*
X80074000Y-91925538D01*
X80078347Y-91881396D01*
X80089432Y-91844856D01*
X80107433Y-91811179D01*
X80131659Y-91781659D01*
X80161179Y-91757433D01*
X80194856Y-91739432D01*
X80231396Y-91728347D01*
X80275538Y-91724000D01*
X81724462Y-91724000D01*
X81768604Y-91728347D01*
X81768604Y-91728347D01*
G37*
G36*
X84868604Y-91528347D02*
G01*
X84905144Y-91539432D01*
X84938821Y-91557433D01*
X84968341Y-91581659D01*
X84992567Y-91611179D01*
X85010568Y-91644856D01*
X85021653Y-91681396D01*
X85026000Y-91725538D01*
X85026000Y-92674462D01*
X85021653Y-92718604D01*
X85010568Y-92755144D01*
X84992567Y-92788821D01*
X84968341Y-92818341D01*
X84938821Y-92842567D01*
X84905144Y-92860568D01*
X84868604Y-92871653D01*
X84824462Y-92876000D01*
X83375538Y-92876000D01*
X83331396Y-92871653D01*
X83294856Y-92860568D01*
X83261179Y-92842567D01*
X83231659Y-92818341D01*
X83207433Y-92788821D01*
X83189432Y-92755144D01*
X83178347Y-92718604D01*
X83174000Y-92674462D01*
X83174000Y-91725538D01*
X83178347Y-91681396D01*
X83189432Y-91644856D01*
X83207433Y-91611179D01*
X83231659Y-91581659D01*
X83261179Y-91557433D01*
X83294856Y-91539432D01*
X83331396Y-91528347D01*
X83375538Y-91524000D01*
X84824462Y-91524000D01*
X84868604Y-91528347D01*
X84868604Y-91528347D01*
G37*
G36*
X110868604Y-91228347D02*
G01*
X110905144Y-91239432D01*
X110938821Y-91257433D01*
X110968341Y-91281659D01*
X110992567Y-91311179D01*
X111010568Y-91344856D01*
X111021653Y-91381396D01*
X111026000Y-91425538D01*
X111026000Y-92374462D01*
X111021653Y-92418604D01*
X111010568Y-92455144D01*
X110992567Y-92488821D01*
X110968341Y-92518341D01*
X110938821Y-92542567D01*
X110905144Y-92560568D01*
X110868604Y-92571653D01*
X110824462Y-92576000D01*
X109375538Y-92576000D01*
X109331396Y-92571653D01*
X109294856Y-92560568D01*
X109261179Y-92542567D01*
X109231659Y-92518341D01*
X109207433Y-92488821D01*
X109189432Y-92455144D01*
X109178347Y-92418604D01*
X109174000Y-92374462D01*
X109174000Y-91425538D01*
X109178347Y-91381396D01*
X109189432Y-91344856D01*
X109207433Y-91311179D01*
X109231659Y-91281659D01*
X109261179Y-91257433D01*
X109294856Y-91239432D01*
X109331396Y-91228347D01*
X109375538Y-91224000D01*
X110824462Y-91224000D01*
X110868604Y-91228347D01*
X110868604Y-91228347D01*
G37*
G36*
X92118604Y-90478347D02*
G01*
X92155144Y-90489432D01*
X92188821Y-90507433D01*
X92218341Y-90531659D01*
X92242567Y-90561179D01*
X92260568Y-90594856D01*
X92271653Y-90631396D01*
X92276000Y-90675538D01*
X92276000Y-92124462D01*
X92271653Y-92168604D01*
X92260568Y-92205144D01*
X92242567Y-92238821D01*
X92218341Y-92268341D01*
X92188821Y-92292567D01*
X92155144Y-92310568D01*
X92118604Y-92321653D01*
X92074462Y-92326000D01*
X91125538Y-92326000D01*
X91081396Y-92321653D01*
X91044856Y-92310568D01*
X91011179Y-92292567D01*
X90981659Y-92268341D01*
X90957433Y-92238821D01*
X90939432Y-92205144D01*
X90928347Y-92168604D01*
X90924000Y-92124462D01*
X90924000Y-90675538D01*
X90928347Y-90631396D01*
X90939432Y-90594856D01*
X90957433Y-90561179D01*
X90981659Y-90531659D01*
X91011179Y-90507433D01*
X91044856Y-90489432D01*
X91081396Y-90478347D01*
X91125538Y-90474000D01*
X92074462Y-90474000D01*
X92118604Y-90478347D01*
X92118604Y-90478347D01*
G37*
G36*
X94918604Y-90478347D02*
G01*
X94955144Y-90489432D01*
X94988821Y-90507433D01*
X95018341Y-90531659D01*
X95042567Y-90561179D01*
X95060568Y-90594856D01*
X95071653Y-90631396D01*
X95076000Y-90675538D01*
X95076000Y-92124462D01*
X95071653Y-92168604D01*
X95060568Y-92205144D01*
X95042567Y-92238821D01*
X95018341Y-92268341D01*
X94988821Y-92292567D01*
X94955144Y-92310568D01*
X94918604Y-92321653D01*
X94874462Y-92326000D01*
X93925538Y-92326000D01*
X93881396Y-92321653D01*
X93844856Y-92310568D01*
X93811179Y-92292567D01*
X93781659Y-92268341D01*
X93757433Y-92238821D01*
X93739432Y-92205144D01*
X93728347Y-92168604D01*
X93724000Y-92124462D01*
X93724000Y-90675538D01*
X93728347Y-90631396D01*
X93739432Y-90594856D01*
X93757433Y-90561179D01*
X93781659Y-90531659D01*
X93811179Y-90507433D01*
X93844856Y-90489432D01*
X93881396Y-90478347D01*
X93925538Y-90474000D01*
X94874462Y-90474000D01*
X94918604Y-90478347D01*
X94918604Y-90478347D01*
G37*
G36*
X118501000Y-92151000D02*
G01*
X116899000Y-92151000D01*
X116899000Y-89549000D01*
X118501000Y-89549000D01*
X118501000Y-92151000D01*
X118501000Y-92151000D01*
G37*
G36*
X75376000Y-91901000D02*
G01*
X74824000Y-91901000D01*
X74824000Y-91199000D01*
X75376000Y-91199000D01*
X75376000Y-91901000D01*
X75376000Y-91901000D01*
G37*
G36*
X107551000Y-91701000D02*
G01*
X105449000Y-91701000D01*
X105449000Y-90099000D01*
X107551000Y-90099000D01*
X107551000Y-91701000D01*
X107551000Y-91701000D01*
G37*
G36*
X136051560Y-89179064D02*
G01*
X136203027Y-89209193D01*
X136417045Y-89297842D01*
X136417046Y-89297843D01*
X136609654Y-89426539D01*
X136773461Y-89590346D01*
X136844592Y-89696802D01*
X136902158Y-89782955D01*
X136990807Y-89996973D01*
X136999876Y-90042567D01*
X137036000Y-90224173D01*
X137036000Y-90455827D01*
X137029315Y-90489432D01*
X136990807Y-90683027D01*
X136902158Y-90897045D01*
X136902157Y-90897046D01*
X136773461Y-91089654D01*
X136609654Y-91253461D01*
X136481249Y-91339258D01*
X136417045Y-91382158D01*
X136203027Y-91470807D01*
X136051560Y-91500936D01*
X135975827Y-91516000D01*
X135744173Y-91516000D01*
X135668440Y-91500936D01*
X135516973Y-91470807D01*
X135302955Y-91382158D01*
X135238751Y-91339258D01*
X135110346Y-91253461D01*
X134946539Y-91089654D01*
X134817843Y-90897046D01*
X134817842Y-90897045D01*
X134729193Y-90683027D01*
X134690685Y-90489432D01*
X134684000Y-90455827D01*
X134684000Y-90224173D01*
X134720124Y-90042567D01*
X134729193Y-89996973D01*
X134817842Y-89782955D01*
X134875408Y-89696802D01*
X134946539Y-89590346D01*
X135110346Y-89426539D01*
X135302954Y-89297843D01*
X135302955Y-89297842D01*
X135516973Y-89209193D01*
X135668440Y-89179064D01*
X135744173Y-89164000D01*
X135975827Y-89164000D01*
X136051560Y-89179064D01*
X136051560Y-89179064D01*
G37*
G36*
X141131560Y-89179064D02*
G01*
X141283027Y-89209193D01*
X141497045Y-89297842D01*
X141497046Y-89297843D01*
X141689654Y-89426539D01*
X141853461Y-89590346D01*
X141924592Y-89696802D01*
X141982158Y-89782955D01*
X142070807Y-89996973D01*
X142079876Y-90042567D01*
X142116000Y-90224173D01*
X142116000Y-90455827D01*
X142109315Y-90489432D01*
X142070807Y-90683027D01*
X141982158Y-90897045D01*
X141982157Y-90897046D01*
X141853461Y-91089654D01*
X141689654Y-91253461D01*
X141561249Y-91339258D01*
X141497045Y-91382158D01*
X141283027Y-91470807D01*
X141131560Y-91500936D01*
X141055827Y-91516000D01*
X140824173Y-91516000D01*
X140748440Y-91500936D01*
X140596973Y-91470807D01*
X140382955Y-91382158D01*
X140318751Y-91339258D01*
X140190346Y-91253461D01*
X140026539Y-91089654D01*
X139897843Y-90897046D01*
X139897842Y-90897045D01*
X139809193Y-90683027D01*
X139770685Y-90489432D01*
X139764000Y-90455827D01*
X139764000Y-90224173D01*
X139800124Y-90042567D01*
X139809193Y-89996973D01*
X139897842Y-89782955D01*
X139955408Y-89696802D01*
X140026539Y-89590346D01*
X140190346Y-89426539D01*
X140382954Y-89297843D01*
X140382955Y-89297842D01*
X140596973Y-89209193D01*
X140748440Y-89179064D01*
X140824173Y-89164000D01*
X141055827Y-89164000D01*
X141131560Y-89179064D01*
X141131560Y-89179064D01*
G37*
G36*
X81768604Y-88928347D02*
G01*
X81805144Y-88939432D01*
X81838821Y-88957433D01*
X81868341Y-88981659D01*
X81892567Y-89011179D01*
X81910568Y-89044856D01*
X81921653Y-89081396D01*
X81926000Y-89125538D01*
X81926000Y-90074462D01*
X81921653Y-90118604D01*
X81910568Y-90155144D01*
X81892567Y-90188821D01*
X81868341Y-90218341D01*
X81838821Y-90242567D01*
X81805144Y-90260568D01*
X81768604Y-90271653D01*
X81724462Y-90276000D01*
X80275538Y-90276000D01*
X80231396Y-90271653D01*
X80194856Y-90260568D01*
X80161179Y-90242567D01*
X80131659Y-90218341D01*
X80107433Y-90188821D01*
X80089432Y-90155144D01*
X80078347Y-90118604D01*
X80074000Y-90074462D01*
X80074000Y-89125538D01*
X80078347Y-89081396D01*
X80089432Y-89044856D01*
X80107433Y-89011179D01*
X80131659Y-88981659D01*
X80161179Y-88957433D01*
X80194856Y-88939432D01*
X80231396Y-88928347D01*
X80275538Y-88924000D01*
X81724462Y-88924000D01*
X81768604Y-88928347D01*
X81768604Y-88928347D01*
G37*
G36*
X84868604Y-88728347D02*
G01*
X84905144Y-88739432D01*
X84938821Y-88757433D01*
X84968341Y-88781659D01*
X84992567Y-88811179D01*
X85010568Y-88844856D01*
X85021653Y-88881396D01*
X85026000Y-88925538D01*
X85026000Y-89874462D01*
X85021653Y-89918604D01*
X85010568Y-89955144D01*
X84992567Y-89988821D01*
X84968341Y-90018341D01*
X84938821Y-90042567D01*
X84905144Y-90060568D01*
X84868604Y-90071653D01*
X84824462Y-90076000D01*
X83375538Y-90076000D01*
X83331396Y-90071653D01*
X83294856Y-90060568D01*
X83261179Y-90042567D01*
X83231659Y-90018341D01*
X83207433Y-89988821D01*
X83189432Y-89955144D01*
X83178347Y-89918604D01*
X83174000Y-89874462D01*
X83174000Y-88925538D01*
X83178347Y-88881396D01*
X83189432Y-88844856D01*
X83207433Y-88811179D01*
X83231659Y-88781659D01*
X83261179Y-88757433D01*
X83294856Y-88739432D01*
X83331396Y-88728347D01*
X83375538Y-88724000D01*
X84824462Y-88724000D01*
X84868604Y-88728347D01*
X84868604Y-88728347D01*
G37*
G36*
X71468604Y-88628347D02*
G01*
X71505144Y-88639432D01*
X71538821Y-88657433D01*
X71568341Y-88681659D01*
X71592567Y-88711179D01*
X71610568Y-88744856D01*
X71621653Y-88781396D01*
X71626000Y-88825538D01*
X71626000Y-89774462D01*
X71621653Y-89818604D01*
X71610568Y-89855144D01*
X71592567Y-89888821D01*
X71568341Y-89918341D01*
X71538821Y-89942567D01*
X71505144Y-89960568D01*
X71468604Y-89971653D01*
X71424462Y-89976000D01*
X69975538Y-89976000D01*
X69931396Y-89971653D01*
X69894856Y-89960568D01*
X69861179Y-89942567D01*
X69831659Y-89918341D01*
X69807433Y-89888821D01*
X69789432Y-89855144D01*
X69778347Y-89818604D01*
X69774000Y-89774462D01*
X69774000Y-88825538D01*
X69778347Y-88781396D01*
X69789432Y-88744856D01*
X69807433Y-88711179D01*
X69831659Y-88681659D01*
X69861179Y-88657433D01*
X69894856Y-88639432D01*
X69931396Y-88628347D01*
X69975538Y-88624000D01*
X71424462Y-88624000D01*
X71468604Y-88628347D01*
X71468604Y-88628347D01*
G37*
G36*
X78751000Y-89951000D02*
G01*
X77449000Y-89951000D01*
X77449000Y-88949000D01*
X78751000Y-88949000D01*
X78751000Y-89951000D01*
X78751000Y-89951000D01*
G37*
G36*
X75376000Y-89801000D02*
G01*
X74824000Y-89801000D01*
X74824000Y-89099000D01*
X75376000Y-89099000D01*
X75376000Y-89801000D01*
X75376000Y-89801000D01*
G37*
G36*
X110868604Y-88428347D02*
G01*
X110905144Y-88439432D01*
X110938821Y-88457433D01*
X110968341Y-88481659D01*
X110992567Y-88511179D01*
X111010568Y-88544856D01*
X111021653Y-88581396D01*
X111026000Y-88625538D01*
X111026000Y-89574462D01*
X111021653Y-89618604D01*
X111010568Y-89655144D01*
X110992567Y-89688821D01*
X110968341Y-89718341D01*
X110938821Y-89742567D01*
X110905144Y-89760568D01*
X110868604Y-89771653D01*
X110824462Y-89776000D01*
X109375538Y-89776000D01*
X109331396Y-89771653D01*
X109294856Y-89760568D01*
X109261179Y-89742567D01*
X109231659Y-89718341D01*
X109207433Y-89688821D01*
X109189432Y-89655144D01*
X109178347Y-89618604D01*
X109174000Y-89574462D01*
X109174000Y-88625538D01*
X109178347Y-88581396D01*
X109189432Y-88544856D01*
X109207433Y-88511179D01*
X109231659Y-88481659D01*
X109261179Y-88457433D01*
X109294856Y-88439432D01*
X109331396Y-88428347D01*
X109375538Y-88424000D01*
X110824462Y-88424000D01*
X110868604Y-88428347D01*
X110868604Y-88428347D01*
G37*
G36*
X130718604Y-87878347D02*
G01*
X130755144Y-87889432D01*
X130788821Y-87907433D01*
X130818341Y-87931659D01*
X130842567Y-87961179D01*
X130860568Y-87994856D01*
X130871653Y-88031396D01*
X130876000Y-88075538D01*
X130876000Y-89524462D01*
X130871653Y-89568604D01*
X130860568Y-89605144D01*
X130842567Y-89638821D01*
X130818341Y-89668341D01*
X130788821Y-89692567D01*
X130755144Y-89710568D01*
X130718604Y-89721653D01*
X130674462Y-89726000D01*
X129725538Y-89726000D01*
X129681396Y-89721653D01*
X129644856Y-89710568D01*
X129611179Y-89692567D01*
X129581659Y-89668341D01*
X129557433Y-89638821D01*
X129539432Y-89605144D01*
X129528347Y-89568604D01*
X129524000Y-89524462D01*
X129524000Y-88075538D01*
X129528347Y-88031396D01*
X129539432Y-87994856D01*
X129557433Y-87961179D01*
X129581659Y-87931659D01*
X129611179Y-87907433D01*
X129644856Y-87889432D01*
X129681396Y-87878347D01*
X129725538Y-87874000D01*
X130674462Y-87874000D01*
X130718604Y-87878347D01*
X130718604Y-87878347D01*
G37*
G36*
X127918604Y-87878347D02*
G01*
X127955144Y-87889432D01*
X127988821Y-87907433D01*
X128018341Y-87931659D01*
X128042567Y-87961179D01*
X128060568Y-87994856D01*
X128071653Y-88031396D01*
X128076000Y-88075538D01*
X128076000Y-89524462D01*
X128071653Y-89568604D01*
X128060568Y-89605144D01*
X128042567Y-89638821D01*
X128018341Y-89668341D01*
X127988821Y-89692567D01*
X127955144Y-89710568D01*
X127918604Y-89721653D01*
X127874462Y-89726000D01*
X126925538Y-89726000D01*
X126881396Y-89721653D01*
X126844856Y-89710568D01*
X126811179Y-89692567D01*
X126781659Y-89668341D01*
X126757433Y-89638821D01*
X126739432Y-89605144D01*
X126728347Y-89568604D01*
X126724000Y-89524462D01*
X126724000Y-88075538D01*
X126728347Y-88031396D01*
X126739432Y-87994856D01*
X126757433Y-87961179D01*
X126781659Y-87931659D01*
X126811179Y-87907433D01*
X126844856Y-87889432D01*
X126881396Y-87878347D01*
X126925538Y-87874000D01*
X127874462Y-87874000D01*
X127918604Y-87878347D01*
X127918604Y-87878347D01*
G37*
G36*
X98751000Y-88901000D02*
G01*
X96649000Y-88901000D01*
X96649000Y-87299000D01*
X98751000Y-87299000D01*
X98751000Y-88901000D01*
X98751000Y-88901000D01*
G37*
G36*
X138575271Y-86737783D02*
G01*
X138713858Y-86765350D01*
X138909677Y-86846461D01*
X139085910Y-86964216D01*
X139235784Y-87114090D01*
X139353539Y-87290323D01*
X139434650Y-87486142D01*
X139434650Y-87486144D01*
X139476000Y-87694022D01*
X139476000Y-87905978D01*
X139473296Y-87919571D01*
X139434650Y-88113858D01*
X139353539Y-88309677D01*
X139235784Y-88485910D01*
X139085910Y-88635784D01*
X138909677Y-88753539D01*
X138713858Y-88834650D01*
X138575271Y-88862217D01*
X138505978Y-88876000D01*
X138294022Y-88876000D01*
X138224729Y-88862217D01*
X138086142Y-88834650D01*
X137890323Y-88753539D01*
X137714090Y-88635784D01*
X137564216Y-88485910D01*
X137446461Y-88309677D01*
X137365350Y-88113858D01*
X137326704Y-87919571D01*
X137324000Y-87905978D01*
X137324000Y-87694022D01*
X137365350Y-87486144D01*
X137365350Y-87486142D01*
X137446461Y-87290323D01*
X137564216Y-87114090D01*
X137714090Y-86964216D01*
X137890323Y-86846461D01*
X138086142Y-86765350D01*
X138224729Y-86737783D01*
X138294022Y-86724000D01*
X138505978Y-86724000D01*
X138575271Y-86737783D01*
X138575271Y-86737783D01*
G37*
G36*
X92751000Y-88501000D02*
G01*
X90149000Y-88501000D01*
X90149000Y-86899000D01*
X92751000Y-86899000D01*
X92751000Y-88501000D01*
X92751000Y-88501000D01*
G37*
G36*
X89251000Y-88501000D02*
G01*
X86649000Y-88501000D01*
X86649000Y-86899000D01*
X89251000Y-86899000D01*
X89251000Y-88501000D01*
X89251000Y-88501000D01*
G37*
G36*
X71468604Y-85828347D02*
G01*
X71505144Y-85839432D01*
X71538821Y-85857433D01*
X71568341Y-85881659D01*
X71592567Y-85911179D01*
X71610568Y-85944856D01*
X71621653Y-85981396D01*
X71626000Y-86025538D01*
X71626000Y-86974462D01*
X71621653Y-87018604D01*
X71610568Y-87055144D01*
X71592567Y-87088821D01*
X71568341Y-87118341D01*
X71538821Y-87142567D01*
X71505144Y-87160568D01*
X71468604Y-87171653D01*
X71424462Y-87176000D01*
X69975538Y-87176000D01*
X69931396Y-87171653D01*
X69894856Y-87160568D01*
X69861179Y-87142567D01*
X69831659Y-87118341D01*
X69807433Y-87088821D01*
X69789432Y-87055144D01*
X69778347Y-87018604D01*
X69774000Y-86974462D01*
X69774000Y-86025538D01*
X69778347Y-85981396D01*
X69789432Y-85944856D01*
X69807433Y-85911179D01*
X69831659Y-85881659D01*
X69861179Y-85857433D01*
X69894856Y-85839432D01*
X69931396Y-85828347D01*
X69975538Y-85824000D01*
X71424462Y-85824000D01*
X71468604Y-85828347D01*
X71468604Y-85828347D01*
G37*
G36*
X82201000Y-86851000D02*
G01*
X80599000Y-86851000D01*
X80599000Y-85749000D01*
X82201000Y-85749000D01*
X82201000Y-86851000D01*
X82201000Y-86851000D01*
G37*
G36*
X74301000Y-86851000D02*
G01*
X72699000Y-86851000D01*
X72699000Y-85749000D01*
X74301000Y-85749000D01*
X74301000Y-86851000D01*
X74301000Y-86851000D01*
G37*
G36*
X141131560Y-84099064D02*
G01*
X141283027Y-84129193D01*
X141497045Y-84217842D01*
X141497046Y-84217843D01*
X141689654Y-84346539D01*
X141853461Y-84510346D01*
X141939258Y-84638751D01*
X141982158Y-84702955D01*
X142070807Y-84916973D01*
X142116000Y-85144174D01*
X142116000Y-85375826D01*
X142070807Y-85603027D01*
X141982158Y-85817045D01*
X141947061Y-85869571D01*
X141853461Y-86009654D01*
X141689654Y-86173461D01*
X141561249Y-86259258D01*
X141497045Y-86302158D01*
X141283027Y-86390807D01*
X141131560Y-86420936D01*
X141055827Y-86436000D01*
X140824173Y-86436000D01*
X140748440Y-86420936D01*
X140596973Y-86390807D01*
X140382955Y-86302158D01*
X140318751Y-86259258D01*
X140190346Y-86173461D01*
X140026539Y-86009654D01*
X139932939Y-85869571D01*
X139897842Y-85817045D01*
X139809193Y-85603027D01*
X139764000Y-85375826D01*
X139764000Y-85144174D01*
X139809193Y-84916973D01*
X139897842Y-84702955D01*
X139940742Y-84638751D01*
X140026539Y-84510346D01*
X140190346Y-84346539D01*
X140382954Y-84217843D01*
X140382955Y-84217842D01*
X140596973Y-84129193D01*
X140748440Y-84099064D01*
X140824173Y-84084000D01*
X141055827Y-84084000D01*
X141131560Y-84099064D01*
X141131560Y-84099064D01*
G37*
G36*
X136051560Y-84099064D02*
G01*
X136203027Y-84129193D01*
X136417045Y-84217842D01*
X136417046Y-84217843D01*
X136609654Y-84346539D01*
X136773461Y-84510346D01*
X136859258Y-84638751D01*
X136902158Y-84702955D01*
X136990807Y-84916973D01*
X137036000Y-85144174D01*
X137036000Y-85375826D01*
X136990807Y-85603027D01*
X136902158Y-85817045D01*
X136867061Y-85869571D01*
X136773461Y-86009654D01*
X136609654Y-86173461D01*
X136481249Y-86259258D01*
X136417045Y-86302158D01*
X136203027Y-86390807D01*
X136051560Y-86420936D01*
X135975827Y-86436000D01*
X135744173Y-86436000D01*
X135668440Y-86420936D01*
X135516973Y-86390807D01*
X135302955Y-86302158D01*
X135238751Y-86259258D01*
X135110346Y-86173461D01*
X134946539Y-86009654D01*
X134852939Y-85869571D01*
X134817842Y-85817045D01*
X134729193Y-85603027D01*
X134684000Y-85375826D01*
X134684000Y-85144174D01*
X134729193Y-84916973D01*
X134817842Y-84702955D01*
X134860742Y-84638751D01*
X134946539Y-84510346D01*
X135110346Y-84346539D01*
X135302954Y-84217843D01*
X135302955Y-84217842D01*
X135516973Y-84129193D01*
X135668440Y-84099064D01*
X135744173Y-84084000D01*
X135975827Y-84084000D01*
X136051560Y-84099064D01*
X136051560Y-84099064D01*
G37*
G36*
X67351000Y-86401000D02*
G01*
X66249000Y-86401000D01*
X66249000Y-84799000D01*
X67351000Y-84799000D01*
X67351000Y-86401000D01*
X67351000Y-86401000D01*
G37*
G36*
X64451000Y-86401000D02*
G01*
X63349000Y-86401000D01*
X63349000Y-84799000D01*
X64451000Y-84799000D01*
X64451000Y-86401000D01*
X64451000Y-86401000D01*
G37*
G36*
X110418604Y-84278347D02*
G01*
X110455144Y-84289432D01*
X110488821Y-84307433D01*
X110518341Y-84331659D01*
X110542567Y-84361179D01*
X110560568Y-84394856D01*
X110571653Y-84431396D01*
X110576000Y-84475538D01*
X110576000Y-85924462D01*
X110571653Y-85968604D01*
X110560568Y-86005144D01*
X110542567Y-86038821D01*
X110518341Y-86068341D01*
X110488821Y-86092567D01*
X110455144Y-86110568D01*
X110418604Y-86121653D01*
X110374462Y-86126000D01*
X109425538Y-86126000D01*
X109381396Y-86121653D01*
X109344856Y-86110568D01*
X109311179Y-86092567D01*
X109281659Y-86068341D01*
X109257433Y-86038821D01*
X109239432Y-86005144D01*
X109228347Y-85968604D01*
X109224000Y-85924462D01*
X109224000Y-84475538D01*
X109228347Y-84431396D01*
X109239432Y-84394856D01*
X109257433Y-84361179D01*
X109281659Y-84331659D01*
X109311179Y-84307433D01*
X109344856Y-84289432D01*
X109381396Y-84278347D01*
X109425538Y-84274000D01*
X110374462Y-84274000D01*
X110418604Y-84278347D01*
X110418604Y-84278347D01*
G37*
G36*
X113218604Y-84278347D02*
G01*
X113255144Y-84289432D01*
X113288821Y-84307433D01*
X113318341Y-84331659D01*
X113342567Y-84361179D01*
X113360568Y-84394856D01*
X113371653Y-84431396D01*
X113376000Y-84475538D01*
X113376000Y-85924462D01*
X113371653Y-85968604D01*
X113360568Y-86005144D01*
X113342567Y-86038821D01*
X113318341Y-86068341D01*
X113288821Y-86092567D01*
X113255144Y-86110568D01*
X113218604Y-86121653D01*
X113174462Y-86126000D01*
X112225538Y-86126000D01*
X112181396Y-86121653D01*
X112144856Y-86110568D01*
X112111179Y-86092567D01*
X112081659Y-86068341D01*
X112057433Y-86038821D01*
X112039432Y-86005144D01*
X112028347Y-85968604D01*
X112024000Y-85924462D01*
X112024000Y-84475538D01*
X112028347Y-84431396D01*
X112039432Y-84394856D01*
X112057433Y-84361179D01*
X112081659Y-84331659D01*
X112111179Y-84307433D01*
X112144856Y-84289432D01*
X112181396Y-84278347D01*
X112225538Y-84274000D01*
X113174462Y-84274000D01*
X113218604Y-84278347D01*
X113218604Y-84278347D01*
G37*
G36*
X107551000Y-86001000D02*
G01*
X105449000Y-86001000D01*
X105449000Y-84399000D01*
X107551000Y-84399000D01*
X107551000Y-86001000D01*
X107551000Y-86001000D01*
G37*
G36*
X84518604Y-83178347D02*
G01*
X84555144Y-83189432D01*
X84588821Y-83207433D01*
X84618341Y-83231659D01*
X84642567Y-83261179D01*
X84660568Y-83294856D01*
X84671653Y-83331396D01*
X84676000Y-83375538D01*
X84676000Y-84824462D01*
X84671653Y-84868604D01*
X84660568Y-84905144D01*
X84642567Y-84938821D01*
X84618341Y-84968341D01*
X84588821Y-84992567D01*
X84555144Y-85010568D01*
X84518604Y-85021653D01*
X84474462Y-85026000D01*
X83525538Y-85026000D01*
X83481396Y-85021653D01*
X83444856Y-85010568D01*
X83411179Y-84992567D01*
X83381659Y-84968341D01*
X83357433Y-84938821D01*
X83339432Y-84905144D01*
X83328347Y-84868604D01*
X83324000Y-84824462D01*
X83324000Y-83375538D01*
X83328347Y-83331396D01*
X83339432Y-83294856D01*
X83357433Y-83261179D01*
X83381659Y-83231659D01*
X83411179Y-83207433D01*
X83444856Y-83189432D01*
X83481396Y-83178347D01*
X83525538Y-83174000D01*
X84474462Y-83174000D01*
X84518604Y-83178347D01*
X84518604Y-83178347D01*
G37*
G36*
X87318604Y-83178347D02*
G01*
X87355144Y-83189432D01*
X87388821Y-83207433D01*
X87418341Y-83231659D01*
X87442567Y-83261179D01*
X87460568Y-83294856D01*
X87471653Y-83331396D01*
X87476000Y-83375538D01*
X87476000Y-84824462D01*
X87471653Y-84868604D01*
X87460568Y-84905144D01*
X87442567Y-84938821D01*
X87418341Y-84968341D01*
X87388821Y-84992567D01*
X87355144Y-85010568D01*
X87318604Y-85021653D01*
X87274462Y-85026000D01*
X86325538Y-85026000D01*
X86281396Y-85021653D01*
X86244856Y-85010568D01*
X86211179Y-84992567D01*
X86181659Y-84968341D01*
X86157433Y-84938821D01*
X86139432Y-84905144D01*
X86128347Y-84868604D01*
X86124000Y-84824462D01*
X86124000Y-83375538D01*
X86128347Y-83331396D01*
X86139432Y-83294856D01*
X86157433Y-83261179D01*
X86181659Y-83231659D01*
X86211179Y-83207433D01*
X86244856Y-83189432D01*
X86281396Y-83178347D01*
X86325538Y-83174000D01*
X87274462Y-83174000D01*
X87318604Y-83178347D01*
X87318604Y-83178347D01*
G37*
G36*
X91918604Y-82978347D02*
G01*
X91955144Y-82989432D01*
X91988821Y-83007433D01*
X92018341Y-83031659D01*
X92042567Y-83061179D01*
X92060568Y-83094856D01*
X92071653Y-83131396D01*
X92076000Y-83175538D01*
X92076000Y-84624462D01*
X92071653Y-84668604D01*
X92060568Y-84705144D01*
X92042567Y-84738821D01*
X92018341Y-84768341D01*
X91988821Y-84792567D01*
X91955144Y-84810568D01*
X91918604Y-84821653D01*
X91874462Y-84826000D01*
X90925538Y-84826000D01*
X90881396Y-84821653D01*
X90844856Y-84810568D01*
X90811179Y-84792567D01*
X90781659Y-84768341D01*
X90757433Y-84738821D01*
X90739432Y-84705144D01*
X90728347Y-84668604D01*
X90724000Y-84624462D01*
X90724000Y-83175538D01*
X90728347Y-83131396D01*
X90739432Y-83094856D01*
X90757433Y-83061179D01*
X90781659Y-83031659D01*
X90811179Y-83007433D01*
X90844856Y-82989432D01*
X90881396Y-82978347D01*
X90925538Y-82974000D01*
X91874462Y-82974000D01*
X91918604Y-82978347D01*
X91918604Y-82978347D01*
G37*
G36*
X94718604Y-82978347D02*
G01*
X94755144Y-82989432D01*
X94788821Y-83007433D01*
X94818341Y-83031659D01*
X94842567Y-83061179D01*
X94860568Y-83094856D01*
X94871653Y-83131396D01*
X94876000Y-83175538D01*
X94876000Y-84624462D01*
X94871653Y-84668604D01*
X94860568Y-84705144D01*
X94842567Y-84738821D01*
X94818341Y-84768341D01*
X94788821Y-84792567D01*
X94755144Y-84810568D01*
X94718604Y-84821653D01*
X94674462Y-84826000D01*
X93725538Y-84826000D01*
X93681396Y-84821653D01*
X93644856Y-84810568D01*
X93611179Y-84792567D01*
X93581659Y-84768341D01*
X93557433Y-84738821D01*
X93539432Y-84705144D01*
X93528347Y-84668604D01*
X93524000Y-84624462D01*
X93524000Y-83175538D01*
X93528347Y-83131396D01*
X93539432Y-83094856D01*
X93557433Y-83061179D01*
X93581659Y-83031659D01*
X93611179Y-83007433D01*
X93644856Y-82989432D01*
X93681396Y-82978347D01*
X93725538Y-82974000D01*
X94674462Y-82974000D01*
X94718604Y-82978347D01*
X94718604Y-82978347D01*
G37*
G36*
X98751000Y-84451000D02*
G01*
X96649000Y-84451000D01*
X96649000Y-82849000D01*
X98751000Y-82849000D01*
X98751000Y-84451000D01*
X98751000Y-84451000D01*
G37*
G36*
X74301000Y-83951000D02*
G01*
X72699000Y-83951000D01*
X72699000Y-82849000D01*
X74301000Y-82849000D01*
X74301000Y-83951000D01*
X74301000Y-83951000D01*
G37*
G36*
X82201000Y-83951000D02*
G01*
X80599000Y-83951000D01*
X80599000Y-82849000D01*
X82201000Y-82849000D01*
X82201000Y-83951000D01*
X82201000Y-83951000D01*
G37*
G36*
X118501000Y-83651000D02*
G01*
X116899000Y-83651000D01*
X116899000Y-81049000D01*
X118501000Y-81049000D01*
X118501000Y-83651000D01*
X118501000Y-83651000D01*
G37*
G36*
X63818604Y-81578347D02*
G01*
X63855144Y-81589432D01*
X63888821Y-81607433D01*
X63918341Y-81631659D01*
X63942567Y-81661179D01*
X63960568Y-81694856D01*
X63971653Y-81731396D01*
X63976000Y-81775538D01*
X63976000Y-83224462D01*
X63971653Y-83268604D01*
X63960568Y-83305144D01*
X63942567Y-83338821D01*
X63918341Y-83368341D01*
X63888821Y-83392567D01*
X63855144Y-83410568D01*
X63818604Y-83421653D01*
X63774462Y-83426000D01*
X62825538Y-83426000D01*
X62781396Y-83421653D01*
X62744856Y-83410568D01*
X62711179Y-83392567D01*
X62681659Y-83368341D01*
X62657433Y-83338821D01*
X62639432Y-83305144D01*
X62628347Y-83268604D01*
X62624000Y-83224462D01*
X62624000Y-81775538D01*
X62628347Y-81731396D01*
X62639432Y-81694856D01*
X62657433Y-81661179D01*
X62681659Y-81631659D01*
X62711179Y-81607433D01*
X62744856Y-81589432D01*
X62781396Y-81578347D01*
X62825538Y-81574000D01*
X63774462Y-81574000D01*
X63818604Y-81578347D01*
X63818604Y-81578347D01*
G37*
G36*
X66618604Y-81578347D02*
G01*
X66655144Y-81589432D01*
X66688821Y-81607433D01*
X66718341Y-81631659D01*
X66742567Y-81661179D01*
X66760568Y-81694856D01*
X66771653Y-81731396D01*
X66776000Y-81775538D01*
X66776000Y-83224462D01*
X66771653Y-83268604D01*
X66760568Y-83305144D01*
X66742567Y-83338821D01*
X66718341Y-83368341D01*
X66688821Y-83392567D01*
X66655144Y-83410568D01*
X66618604Y-83421653D01*
X66574462Y-83426000D01*
X65625538Y-83426000D01*
X65581396Y-83421653D01*
X65544856Y-83410568D01*
X65511179Y-83392567D01*
X65481659Y-83368341D01*
X65457433Y-83338821D01*
X65439432Y-83305144D01*
X65428347Y-83268604D01*
X65424000Y-83224462D01*
X65424000Y-81775538D01*
X65428347Y-81731396D01*
X65439432Y-81694856D01*
X65457433Y-81661179D01*
X65481659Y-81631659D01*
X65511179Y-81607433D01*
X65544856Y-81589432D01*
X65581396Y-81578347D01*
X65625538Y-81574000D01*
X66574462Y-81574000D01*
X66618604Y-81578347D01*
X66618604Y-81578347D01*
G37*
G36*
X127618604Y-81278347D02*
G01*
X127655144Y-81289432D01*
X127688821Y-81307433D01*
X127718341Y-81331659D01*
X127742567Y-81361179D01*
X127760568Y-81394856D01*
X127771653Y-81431396D01*
X127776000Y-81475538D01*
X127776000Y-82924462D01*
X127771653Y-82968604D01*
X127760568Y-83005144D01*
X127742567Y-83038821D01*
X127718341Y-83068341D01*
X127688821Y-83092567D01*
X127655144Y-83110568D01*
X127618604Y-83121653D01*
X127574462Y-83126000D01*
X126625538Y-83126000D01*
X126581396Y-83121653D01*
X126544856Y-83110568D01*
X126511179Y-83092567D01*
X126481659Y-83068341D01*
X126457433Y-83038821D01*
X126439432Y-83005144D01*
X126428347Y-82968604D01*
X126424000Y-82924462D01*
X126424000Y-81475538D01*
X126428347Y-81431396D01*
X126439432Y-81394856D01*
X126457433Y-81361179D01*
X126481659Y-81331659D01*
X126511179Y-81307433D01*
X126544856Y-81289432D01*
X126581396Y-81278347D01*
X126625538Y-81274000D01*
X127574462Y-81274000D01*
X127618604Y-81278347D01*
X127618604Y-81278347D01*
G37*
G36*
X130418604Y-81278347D02*
G01*
X130455144Y-81289432D01*
X130488821Y-81307433D01*
X130518341Y-81331659D01*
X130542567Y-81361179D01*
X130560568Y-81394856D01*
X130571653Y-81431396D01*
X130576000Y-81475538D01*
X130576000Y-82924462D01*
X130571653Y-82968604D01*
X130560568Y-83005144D01*
X130542567Y-83038821D01*
X130518341Y-83068341D01*
X130488821Y-83092567D01*
X130455144Y-83110568D01*
X130418604Y-83121653D01*
X130374462Y-83126000D01*
X129425538Y-83126000D01*
X129381396Y-83121653D01*
X129344856Y-83110568D01*
X129311179Y-83092567D01*
X129281659Y-83068341D01*
X129257433Y-83038821D01*
X129239432Y-83005144D01*
X129228347Y-82968604D01*
X129224000Y-82924462D01*
X129224000Y-81475538D01*
X129228347Y-81431396D01*
X129239432Y-81394856D01*
X129257433Y-81361179D01*
X129281659Y-81331659D01*
X129311179Y-81307433D01*
X129344856Y-81289432D01*
X129381396Y-81278347D01*
X129425538Y-81274000D01*
X130374462Y-81274000D01*
X130418604Y-81278347D01*
X130418604Y-81278347D01*
G37*
G36*
X68718604Y-81078347D02*
G01*
X68755144Y-81089432D01*
X68788821Y-81107433D01*
X68818341Y-81131659D01*
X68842567Y-81161179D01*
X68860568Y-81194856D01*
X68871653Y-81231396D01*
X68876000Y-81275538D01*
X68876000Y-82724462D01*
X68871653Y-82768604D01*
X68860568Y-82805144D01*
X68842567Y-82838821D01*
X68818341Y-82868341D01*
X68788821Y-82892567D01*
X68755144Y-82910568D01*
X68718604Y-82921653D01*
X68674462Y-82926000D01*
X67725538Y-82926000D01*
X67681396Y-82921653D01*
X67644856Y-82910568D01*
X67611179Y-82892567D01*
X67581659Y-82868341D01*
X67557433Y-82838821D01*
X67539432Y-82805144D01*
X67528347Y-82768604D01*
X67524000Y-82724462D01*
X67524000Y-81275538D01*
X67528347Y-81231396D01*
X67539432Y-81194856D01*
X67557433Y-81161179D01*
X67581659Y-81131659D01*
X67611179Y-81107433D01*
X67644856Y-81089432D01*
X67681396Y-81078347D01*
X67725538Y-81074000D01*
X68674462Y-81074000D01*
X68718604Y-81078347D01*
X68718604Y-81078347D01*
G37*
G36*
X71518604Y-81078347D02*
G01*
X71555144Y-81089432D01*
X71588821Y-81107433D01*
X71618341Y-81131659D01*
X71642567Y-81161179D01*
X71660568Y-81194856D01*
X71671653Y-81231396D01*
X71676000Y-81275538D01*
X71676000Y-82724462D01*
X71671653Y-82768604D01*
X71660568Y-82805144D01*
X71642567Y-82838821D01*
X71618341Y-82868341D01*
X71588821Y-82892567D01*
X71555144Y-82910568D01*
X71518604Y-82921653D01*
X71474462Y-82926000D01*
X70525538Y-82926000D01*
X70481396Y-82921653D01*
X70444856Y-82910568D01*
X70411179Y-82892567D01*
X70381659Y-82868341D01*
X70357433Y-82838821D01*
X70339432Y-82805144D01*
X70328347Y-82768604D01*
X70324000Y-82724462D01*
X70324000Y-81275538D01*
X70328347Y-81231396D01*
X70339432Y-81194856D01*
X70357433Y-81161179D01*
X70381659Y-81131659D01*
X70411179Y-81107433D01*
X70444856Y-81089432D01*
X70481396Y-81078347D01*
X70525538Y-81074000D01*
X71474462Y-81074000D01*
X71518604Y-81078347D01*
X71518604Y-81078347D01*
G37*
G36*
X124018604Y-81078347D02*
G01*
X124055144Y-81089432D01*
X124088821Y-81107433D01*
X124118341Y-81131659D01*
X124142567Y-81161179D01*
X124160568Y-81194856D01*
X124171653Y-81231396D01*
X124176000Y-81275538D01*
X124176000Y-82724462D01*
X124171653Y-82768604D01*
X124160568Y-82805144D01*
X124142567Y-82838821D01*
X124118341Y-82868341D01*
X124088821Y-82892567D01*
X124055144Y-82910568D01*
X124018604Y-82921653D01*
X123974462Y-82926000D01*
X123025538Y-82926000D01*
X122981396Y-82921653D01*
X122944856Y-82910568D01*
X122911179Y-82892567D01*
X122881659Y-82868341D01*
X122857433Y-82838821D01*
X122839432Y-82805144D01*
X122828347Y-82768604D01*
X122824000Y-82724462D01*
X122824000Y-81275538D01*
X122828347Y-81231396D01*
X122839432Y-81194856D01*
X122857433Y-81161179D01*
X122881659Y-81131659D01*
X122911179Y-81107433D01*
X122944856Y-81089432D01*
X122981396Y-81078347D01*
X123025538Y-81074000D01*
X123974462Y-81074000D01*
X124018604Y-81078347D01*
X124018604Y-81078347D01*
G37*
G36*
X121218604Y-81078347D02*
G01*
X121255144Y-81089432D01*
X121288821Y-81107433D01*
X121318341Y-81131659D01*
X121342567Y-81161179D01*
X121360568Y-81194856D01*
X121371653Y-81231396D01*
X121376000Y-81275538D01*
X121376000Y-82724462D01*
X121371653Y-82768604D01*
X121360568Y-82805144D01*
X121342567Y-82838821D01*
X121318341Y-82868341D01*
X121288821Y-82892567D01*
X121255144Y-82910568D01*
X121218604Y-82921653D01*
X121174462Y-82926000D01*
X120225538Y-82926000D01*
X120181396Y-82921653D01*
X120144856Y-82910568D01*
X120111179Y-82892567D01*
X120081659Y-82868341D01*
X120057433Y-82838821D01*
X120039432Y-82805144D01*
X120028347Y-82768604D01*
X120024000Y-82724462D01*
X120024000Y-81275538D01*
X120028347Y-81231396D01*
X120039432Y-81194856D01*
X120057433Y-81161179D01*
X120081659Y-81131659D01*
X120111179Y-81107433D01*
X120144856Y-81089432D01*
X120181396Y-81078347D01*
X120225538Y-81074000D01*
X121174462Y-81074000D01*
X121218604Y-81078347D01*
X121218604Y-81078347D01*
G37*
G36*
X111906564Y-80089389D02*
G01*
X112097833Y-80168615D01*
X112097835Y-80168616D01*
X112269973Y-80283635D01*
X112416365Y-80430027D01*
X112531385Y-80602167D01*
X112610611Y-80793436D01*
X112651000Y-80996484D01*
X112651000Y-81203516D01*
X112610611Y-81406564D01*
X112534865Y-81589432D01*
X112531384Y-81597835D01*
X112416365Y-81769973D01*
X112269973Y-81916365D01*
X112097835Y-82031384D01*
X112097834Y-82031385D01*
X112097833Y-82031385D01*
X111906564Y-82110611D01*
X111703516Y-82151000D01*
X111496484Y-82151000D01*
X111293436Y-82110611D01*
X111102167Y-82031385D01*
X111102166Y-82031385D01*
X111102165Y-82031384D01*
X110930027Y-81916365D01*
X110783635Y-81769973D01*
X110668616Y-81597835D01*
X110665135Y-81589432D01*
X110589389Y-81406564D01*
X110549000Y-81203516D01*
X110549000Y-80996484D01*
X110589389Y-80793436D01*
X110668615Y-80602167D01*
X110783635Y-80430027D01*
X110930027Y-80283635D01*
X111102165Y-80168616D01*
X111102167Y-80168615D01*
X111293436Y-80089389D01*
X111496484Y-80049000D01*
X111703516Y-80049000D01*
X111906564Y-80089389D01*
X111906564Y-80089389D01*
G37*
G36*
X109406564Y-80089389D02*
G01*
X109597833Y-80168615D01*
X109597835Y-80168616D01*
X109769973Y-80283635D01*
X109916365Y-80430027D01*
X110031385Y-80602167D01*
X110110611Y-80793436D01*
X110151000Y-80996484D01*
X110151000Y-81203516D01*
X110110611Y-81406564D01*
X110034865Y-81589432D01*
X110031384Y-81597835D01*
X109916365Y-81769973D01*
X109769973Y-81916365D01*
X109597835Y-82031384D01*
X109597834Y-82031385D01*
X109597833Y-82031385D01*
X109406564Y-82110611D01*
X109203516Y-82151000D01*
X108996484Y-82151000D01*
X108793436Y-82110611D01*
X108602167Y-82031385D01*
X108602166Y-82031385D01*
X108602165Y-82031384D01*
X108430027Y-81916365D01*
X108283635Y-81769973D01*
X108168616Y-81597835D01*
X108165135Y-81589432D01*
X108089389Y-81406564D01*
X108049000Y-81203516D01*
X108049000Y-80996484D01*
X108089389Y-80793436D01*
X108168615Y-80602167D01*
X108283635Y-80430027D01*
X108430027Y-80283635D01*
X108602165Y-80168616D01*
X108602167Y-80168615D01*
X108793436Y-80089389D01*
X108996484Y-80049000D01*
X109203516Y-80049000D01*
X109406564Y-80089389D01*
X109406564Y-80089389D01*
G37*
G36*
X84406564Y-80089389D02*
G01*
X84597833Y-80168615D01*
X84597835Y-80168616D01*
X84769973Y-80283635D01*
X84916365Y-80430027D01*
X85031385Y-80602167D01*
X85110611Y-80793436D01*
X85151000Y-80996484D01*
X85151000Y-81203516D01*
X85110611Y-81406564D01*
X85034865Y-81589432D01*
X85031384Y-81597835D01*
X84916365Y-81769973D01*
X84769973Y-81916365D01*
X84597835Y-82031384D01*
X84597834Y-82031385D01*
X84597833Y-82031385D01*
X84406564Y-82110611D01*
X84203516Y-82151000D01*
X83996484Y-82151000D01*
X83793436Y-82110611D01*
X83602167Y-82031385D01*
X83602166Y-82031385D01*
X83602165Y-82031384D01*
X83430027Y-81916365D01*
X83283635Y-81769973D01*
X83168616Y-81597835D01*
X83165135Y-81589432D01*
X83089389Y-81406564D01*
X83049000Y-81203516D01*
X83049000Y-80996484D01*
X83089389Y-80793436D01*
X83168615Y-80602167D01*
X83283635Y-80430027D01*
X83430027Y-80283635D01*
X83602165Y-80168616D01*
X83602167Y-80168615D01*
X83793436Y-80089389D01*
X83996484Y-80049000D01*
X84203516Y-80049000D01*
X84406564Y-80089389D01*
X84406564Y-80089389D01*
G37*
G36*
X86906564Y-80089389D02*
G01*
X87097833Y-80168615D01*
X87097835Y-80168616D01*
X87269973Y-80283635D01*
X87416365Y-80430027D01*
X87531385Y-80602167D01*
X87610611Y-80793436D01*
X87651000Y-80996484D01*
X87651000Y-81203516D01*
X87610611Y-81406564D01*
X87534865Y-81589432D01*
X87531384Y-81597835D01*
X87416365Y-81769973D01*
X87269973Y-81916365D01*
X87097835Y-82031384D01*
X87097834Y-82031385D01*
X87097833Y-82031385D01*
X86906564Y-82110611D01*
X86703516Y-82151000D01*
X86496484Y-82151000D01*
X86293436Y-82110611D01*
X86102167Y-82031385D01*
X86102166Y-82031385D01*
X86102165Y-82031384D01*
X85930027Y-81916365D01*
X85783635Y-81769973D01*
X85668616Y-81597835D01*
X85665135Y-81589432D01*
X85589389Y-81406564D01*
X85549000Y-81203516D01*
X85549000Y-80996484D01*
X85589389Y-80793436D01*
X85668615Y-80602167D01*
X85783635Y-80430027D01*
X85930027Y-80283635D01*
X86102165Y-80168616D01*
X86102167Y-80168615D01*
X86293436Y-80089389D01*
X86496484Y-80049000D01*
X86703516Y-80049000D01*
X86906564Y-80089389D01*
X86906564Y-80089389D01*
G37*
G36*
X90151000Y-82151000D02*
G01*
X88049000Y-82151000D01*
X88049000Y-80049000D01*
X90151000Y-80049000D01*
X90151000Y-82151000D01*
X90151000Y-82151000D01*
G37*
G36*
X115151000Y-82151000D02*
G01*
X113049000Y-82151000D01*
X113049000Y-80049000D01*
X115151000Y-80049000D01*
X115151000Y-82151000D01*
X115151000Y-82151000D01*
G37*
G36*
X144151000Y-81801000D02*
G01*
X141549000Y-81801000D01*
X141549000Y-80199000D01*
X144151000Y-80199000D01*
X144151000Y-81801000D01*
X144151000Y-81801000D01*
G37*
G36*
X135651000Y-81801000D02*
G01*
X133049000Y-81801000D01*
X133049000Y-80199000D01*
X135651000Y-80199000D01*
X135651000Y-81801000D01*
X135651000Y-81801000D01*
G37*
G36*
X69051000Y-79326000D02*
G01*
X66949000Y-79326000D01*
X66949000Y-78474000D01*
X69051000Y-78474000D01*
X69051000Y-79326000D01*
X69051000Y-79326000D01*
G37*
G36*
X69051000Y-78026000D02*
G01*
X66949000Y-78026000D01*
X66949000Y-77174000D01*
X69051000Y-77174000D01*
X69051000Y-78026000D01*
X69051000Y-78026000D01*
G37*
G36*
X103768604Y-76028347D02*
G01*
X103805144Y-76039432D01*
X103838821Y-76057433D01*
X103868341Y-76081659D01*
X103892567Y-76111179D01*
X103910568Y-76144856D01*
X103921653Y-76181396D01*
X103926000Y-76225538D01*
X103926000Y-77174462D01*
X103921653Y-77218604D01*
X103910568Y-77255144D01*
X103892567Y-77288821D01*
X103868341Y-77318341D01*
X103838821Y-77342567D01*
X103805144Y-77360568D01*
X103768604Y-77371653D01*
X103724462Y-77376000D01*
X102275538Y-77376000D01*
X102231396Y-77371653D01*
X102194856Y-77360568D01*
X102161179Y-77342567D01*
X102131659Y-77318341D01*
X102107433Y-77288821D01*
X102089432Y-77255144D01*
X102078347Y-77218604D01*
X102074000Y-77174462D01*
X102074000Y-76225538D01*
X102078347Y-76181396D01*
X102089432Y-76144856D01*
X102107433Y-76111179D01*
X102131659Y-76081659D01*
X102161179Y-76057433D01*
X102194856Y-76039432D01*
X102231396Y-76028347D01*
X102275538Y-76024000D01*
X103724462Y-76024000D01*
X103768604Y-76028347D01*
X103768604Y-76028347D01*
G37*
G36*
X69051000Y-76726000D02*
G01*
X66949000Y-76726000D01*
X66949000Y-75874000D01*
X69051000Y-75874000D01*
X69051000Y-76726000D01*
X69051000Y-76726000D01*
G37*
G36*
X142801000Y-76101000D02*
G01*
X139199000Y-76101000D01*
X139199000Y-74499000D01*
X142801000Y-74499000D01*
X142801000Y-76101000D01*
X142801000Y-76101000D01*
G37*
G36*
X124751000Y-76101000D02*
G01*
X121149000Y-76101000D01*
X121149000Y-74499000D01*
X124751000Y-74499000D01*
X124751000Y-76101000D01*
X124751000Y-76101000D01*
G37*
G36*
X79068604Y-74128347D02*
G01*
X79105144Y-74139432D01*
X79138821Y-74157433D01*
X79168341Y-74181659D01*
X79192567Y-74211179D01*
X79210568Y-74244856D01*
X79221653Y-74281396D01*
X79226000Y-74325538D01*
X79226000Y-75274462D01*
X79221653Y-75318604D01*
X79210568Y-75355144D01*
X79192567Y-75388821D01*
X79168341Y-75418341D01*
X79138821Y-75442567D01*
X79105144Y-75460568D01*
X79068604Y-75471653D01*
X79024462Y-75476000D01*
X77575538Y-75476000D01*
X77531396Y-75471653D01*
X77494856Y-75460568D01*
X77461179Y-75442567D01*
X77431659Y-75418341D01*
X77407433Y-75388821D01*
X77389432Y-75355144D01*
X77378347Y-75318604D01*
X77374000Y-75274462D01*
X77374000Y-74325538D01*
X77378347Y-74281396D01*
X77389432Y-74244856D01*
X77407433Y-74211179D01*
X77431659Y-74181659D01*
X77461179Y-74157433D01*
X77494856Y-74139432D01*
X77531396Y-74128347D01*
X77575538Y-74124000D01*
X79024462Y-74124000D01*
X79068604Y-74128347D01*
X79068604Y-74128347D01*
G37*
G36*
X103768604Y-73228347D02*
G01*
X103805144Y-73239432D01*
X103838821Y-73257433D01*
X103868341Y-73281659D01*
X103892567Y-73311179D01*
X103910568Y-73344856D01*
X103921653Y-73381396D01*
X103926000Y-73425538D01*
X103926000Y-74374462D01*
X103921653Y-74418604D01*
X103910568Y-74455144D01*
X103892567Y-74488821D01*
X103868341Y-74518341D01*
X103838821Y-74542567D01*
X103805144Y-74560568D01*
X103768604Y-74571653D01*
X103724462Y-74576000D01*
X102275538Y-74576000D01*
X102231396Y-74571653D01*
X102194856Y-74560568D01*
X102161179Y-74542567D01*
X102131659Y-74518341D01*
X102107433Y-74488821D01*
X102089432Y-74455144D01*
X102078347Y-74418604D01*
X102074000Y-74374462D01*
X102074000Y-73425538D01*
X102078347Y-73381396D01*
X102089432Y-73344856D01*
X102107433Y-73311179D01*
X102131659Y-73281659D01*
X102161179Y-73257433D01*
X102194856Y-73239432D01*
X102231396Y-73228347D01*
X102275538Y-73224000D01*
X103724462Y-73224000D01*
X103768604Y-73228347D01*
X103768604Y-73228347D01*
G37*
G36*
X73276000Y-73976000D02*
G01*
X71924000Y-73976000D01*
X71924000Y-72624000D01*
X73276000Y-72624000D01*
X73276000Y-73976000D01*
X73276000Y-73976000D01*
G37*
G36*
X76651000Y-73151000D02*
G01*
X75049000Y-73151000D01*
X75049000Y-71449000D01*
X76651000Y-71449000D01*
X76651000Y-73151000D01*
X76651000Y-73151000D01*
G37*
G36*
X79068604Y-71328347D02*
G01*
X79105144Y-71339432D01*
X79138821Y-71357433D01*
X79168341Y-71381659D01*
X79192567Y-71411179D01*
X79210568Y-71444856D01*
X79221653Y-71481396D01*
X79226000Y-71525538D01*
X79226000Y-72474462D01*
X79221653Y-72518604D01*
X79210568Y-72555144D01*
X79192567Y-72588821D01*
X79168341Y-72618341D01*
X79138821Y-72642567D01*
X79105144Y-72660568D01*
X79068604Y-72671653D01*
X79024462Y-72676000D01*
X77575538Y-72676000D01*
X77531396Y-72671653D01*
X77494856Y-72660568D01*
X77461179Y-72642567D01*
X77431659Y-72618341D01*
X77407433Y-72588821D01*
X77389432Y-72555144D01*
X77378347Y-72518604D01*
X77374000Y-72474462D01*
X77374000Y-71525538D01*
X77378347Y-71481396D01*
X77389432Y-71444856D01*
X77407433Y-71411179D01*
X77431659Y-71381659D01*
X77461179Y-71357433D01*
X77494856Y-71339432D01*
X77531396Y-71328347D01*
X77575538Y-71324000D01*
X79024462Y-71324000D01*
X79068604Y-71328347D01*
X79068604Y-71328347D01*
G37*
G36*
X81868604Y-71128347D02*
G01*
X81905144Y-71139432D01*
X81938821Y-71157433D01*
X81968341Y-71181659D01*
X81992567Y-71211179D01*
X82010568Y-71244856D01*
X82021653Y-71281396D01*
X82026000Y-71325538D01*
X82026000Y-72274462D01*
X82021653Y-72318604D01*
X82010568Y-72355144D01*
X81992567Y-72388821D01*
X81968341Y-72418341D01*
X81938821Y-72442567D01*
X81905144Y-72460568D01*
X81868604Y-72471653D01*
X81824462Y-72476000D01*
X80375538Y-72476000D01*
X80331396Y-72471653D01*
X80294856Y-72460568D01*
X80261179Y-72442567D01*
X80231659Y-72418341D01*
X80207433Y-72388821D01*
X80189432Y-72355144D01*
X80178347Y-72318604D01*
X80174000Y-72274462D01*
X80174000Y-71325538D01*
X80178347Y-71281396D01*
X80189432Y-71244856D01*
X80207433Y-71211179D01*
X80231659Y-71181659D01*
X80261179Y-71157433D01*
X80294856Y-71139432D01*
X80331396Y-71128347D01*
X80375538Y-71124000D01*
X81824462Y-71124000D01*
X81868604Y-71128347D01*
X81868604Y-71128347D01*
G37*
G36*
X73276000Y-71976000D02*
G01*
X71924000Y-71976000D01*
X71924000Y-70624000D01*
X73276000Y-70624000D01*
X73276000Y-71976000D01*
X73276000Y-71976000D01*
G37*
G36*
X102676000Y-71476000D02*
G01*
X101324000Y-71476000D01*
X101324000Y-70124000D01*
X102676000Y-70124000D01*
X102676000Y-71476000D01*
X102676000Y-71476000D01*
G37*
G36*
X106051000Y-70651000D02*
G01*
X104449000Y-70651000D01*
X104449000Y-68949000D01*
X106051000Y-68949000D01*
X106051000Y-70651000D01*
X106051000Y-70651000D01*
G37*
G36*
X142801000Y-70401000D02*
G01*
X139199000Y-70401000D01*
X139199000Y-68799000D01*
X142801000Y-68799000D01*
X142801000Y-70401000D01*
X142801000Y-70401000D01*
G37*
G36*
X124751000Y-70401000D02*
G01*
X121149000Y-70401000D01*
X121149000Y-68799000D01*
X124751000Y-68799000D01*
X124751000Y-70401000D01*
X124751000Y-70401000D01*
G37*
G36*
X81868604Y-68328347D02*
G01*
X81905144Y-68339432D01*
X81938821Y-68357433D01*
X81968341Y-68381659D01*
X81992567Y-68411179D01*
X82010568Y-68444856D01*
X82021653Y-68481396D01*
X82026000Y-68525538D01*
X82026000Y-69474462D01*
X82021653Y-69518604D01*
X82010568Y-69555144D01*
X81992567Y-69588821D01*
X81968341Y-69618341D01*
X81938821Y-69642567D01*
X81905144Y-69660568D01*
X81868604Y-69671653D01*
X81824462Y-69676000D01*
X80375538Y-69676000D01*
X80331396Y-69671653D01*
X80294856Y-69660568D01*
X80261179Y-69642567D01*
X80231659Y-69618341D01*
X80207433Y-69588821D01*
X80189432Y-69555144D01*
X80178347Y-69518604D01*
X80174000Y-69474462D01*
X80174000Y-68525538D01*
X80178347Y-68481396D01*
X80189432Y-68444856D01*
X80207433Y-68411179D01*
X80231659Y-68381659D01*
X80261179Y-68357433D01*
X80294856Y-68339432D01*
X80331396Y-68328347D01*
X80375538Y-68324000D01*
X81824462Y-68324000D01*
X81868604Y-68328347D01*
X81868604Y-68328347D01*
G37*
G36*
X102676000Y-69476000D02*
G01*
X101324000Y-69476000D01*
X101324000Y-68124000D01*
X102676000Y-68124000D01*
X102676000Y-69476000D01*
X102676000Y-69476000D01*
G37*
G36*
X74318604Y-66278347D02*
G01*
X74355144Y-66289432D01*
X74388821Y-66307433D01*
X74418341Y-66331659D01*
X74442567Y-66361179D01*
X74460568Y-66394856D01*
X74471653Y-66431396D01*
X74476000Y-66475538D01*
X74476000Y-67924462D01*
X74471653Y-67968604D01*
X74460568Y-68005144D01*
X74442567Y-68038821D01*
X74418341Y-68068341D01*
X74388821Y-68092567D01*
X74355144Y-68110568D01*
X74318604Y-68121653D01*
X74274462Y-68126000D01*
X73325538Y-68126000D01*
X73281396Y-68121653D01*
X73244856Y-68110568D01*
X73211179Y-68092567D01*
X73181659Y-68068341D01*
X73157433Y-68038821D01*
X73139432Y-68005144D01*
X73128347Y-67968604D01*
X73124000Y-67924462D01*
X73124000Y-66475538D01*
X73128347Y-66431396D01*
X73139432Y-66394856D01*
X73157433Y-66361179D01*
X73181659Y-66331659D01*
X73211179Y-66307433D01*
X73244856Y-66289432D01*
X73281396Y-66278347D01*
X73325538Y-66274000D01*
X74274462Y-66274000D01*
X74318604Y-66278347D01*
X74318604Y-66278347D01*
G37*
G36*
X77118604Y-66278347D02*
G01*
X77155144Y-66289432D01*
X77188821Y-66307433D01*
X77218341Y-66331659D01*
X77242567Y-66361179D01*
X77260568Y-66394856D01*
X77271653Y-66431396D01*
X77276000Y-66475538D01*
X77276000Y-67924462D01*
X77271653Y-67968604D01*
X77260568Y-68005144D01*
X77242567Y-68038821D01*
X77218341Y-68068341D01*
X77188821Y-68092567D01*
X77155144Y-68110568D01*
X77118604Y-68121653D01*
X77074462Y-68126000D01*
X76125538Y-68126000D01*
X76081396Y-68121653D01*
X76044856Y-68110568D01*
X76011179Y-68092567D01*
X75981659Y-68068341D01*
X75957433Y-68038821D01*
X75939432Y-68005144D01*
X75928347Y-67968604D01*
X75924000Y-67924462D01*
X75924000Y-66475538D01*
X75928347Y-66431396D01*
X75939432Y-66394856D01*
X75957433Y-66361179D01*
X75981659Y-66331659D01*
X76011179Y-66307433D01*
X76044856Y-66289432D01*
X76081396Y-66278347D01*
X76125538Y-66274000D01*
X77074462Y-66274000D01*
X77118604Y-66278347D01*
X77118604Y-66278347D01*
G37*
G36*
X71918604Y-66278347D02*
G01*
X71955144Y-66289432D01*
X71988821Y-66307433D01*
X72018341Y-66331659D01*
X72042567Y-66361179D01*
X72060568Y-66394856D01*
X72071653Y-66431396D01*
X72076000Y-66475538D01*
X72076000Y-67924462D01*
X72071653Y-67968604D01*
X72060568Y-68005144D01*
X72042567Y-68038821D01*
X72018341Y-68068341D01*
X71988821Y-68092567D01*
X71955144Y-68110568D01*
X71918604Y-68121653D01*
X71874462Y-68126000D01*
X70925538Y-68126000D01*
X70881396Y-68121653D01*
X70844856Y-68110568D01*
X70811179Y-68092567D01*
X70781659Y-68068341D01*
X70757433Y-68038821D01*
X70739432Y-68005144D01*
X70728347Y-67968604D01*
X70724000Y-67924462D01*
X70724000Y-66475538D01*
X70728347Y-66431396D01*
X70739432Y-66394856D01*
X70757433Y-66361179D01*
X70781659Y-66331659D01*
X70811179Y-66307433D01*
X70844856Y-66289432D01*
X70881396Y-66278347D01*
X70925538Y-66274000D01*
X71874462Y-66274000D01*
X71918604Y-66278347D01*
X71918604Y-66278347D01*
G37*
G36*
X69118604Y-66278347D02*
G01*
X69155144Y-66289432D01*
X69188821Y-66307433D01*
X69218341Y-66331659D01*
X69242567Y-66361179D01*
X69260568Y-66394856D01*
X69271653Y-66431396D01*
X69276000Y-66475538D01*
X69276000Y-67924462D01*
X69271653Y-67968604D01*
X69260568Y-68005144D01*
X69242567Y-68038821D01*
X69218341Y-68068341D01*
X69188821Y-68092567D01*
X69155144Y-68110568D01*
X69118604Y-68121653D01*
X69074462Y-68126000D01*
X68125538Y-68126000D01*
X68081396Y-68121653D01*
X68044856Y-68110568D01*
X68011179Y-68092567D01*
X67981659Y-68068341D01*
X67957433Y-68038821D01*
X67939432Y-68005144D01*
X67928347Y-67968604D01*
X67924000Y-67924462D01*
X67924000Y-66475538D01*
X67928347Y-66431396D01*
X67939432Y-66394856D01*
X67957433Y-66361179D01*
X67981659Y-66331659D01*
X68011179Y-66307433D01*
X68044856Y-66289432D01*
X68081396Y-66278347D01*
X68125538Y-66274000D01*
X69074462Y-66274000D01*
X69118604Y-66278347D01*
X69118604Y-66278347D01*
G37*
G36*
X112234239Y-60811467D02*
G01*
X112548282Y-60873934D01*
X113139926Y-61119001D01*
X113566477Y-61404014D01*
X113672391Y-61474783D01*
X114125217Y-61927609D01*
X114169694Y-61994174D01*
X114480999Y-62460074D01*
X114726066Y-63051718D01*
X114726066Y-63051719D01*
X114844436Y-63646802D01*
X114851000Y-63679804D01*
X114851000Y-64320196D01*
X114726066Y-64948282D01*
X114480999Y-65539926D01*
X114195986Y-65966477D01*
X114125217Y-66072391D01*
X113672391Y-66525217D01*
X113566477Y-66595986D01*
X113139926Y-66880999D01*
X112548282Y-67126066D01*
X112234239Y-67188533D01*
X111920197Y-67251000D01*
X111279803Y-67251000D01*
X110965761Y-67188533D01*
X110651718Y-67126066D01*
X110060074Y-66880999D01*
X109633523Y-66595986D01*
X109527609Y-66525217D01*
X109074783Y-66072391D01*
X109004014Y-65966477D01*
X108719001Y-65539926D01*
X108473934Y-64948282D01*
X108349000Y-64320196D01*
X108349000Y-63679804D01*
X108355565Y-63646802D01*
X108473934Y-63051719D01*
X108473934Y-63051718D01*
X108719001Y-62460074D01*
X109030306Y-61994174D01*
X109074783Y-61927609D01*
X109527609Y-61474783D01*
X109633523Y-61404014D01*
X110060074Y-61119001D01*
X110651718Y-60873934D01*
X110965761Y-60811467D01*
X111279803Y-60749000D01*
X111920197Y-60749000D01*
X112234239Y-60811467D01*
X112234239Y-60811467D01*
G37*
G36*
X87234239Y-60811467D02*
G01*
X87548282Y-60873934D01*
X88139926Y-61119001D01*
X88566477Y-61404014D01*
X88672391Y-61474783D01*
X89125217Y-61927609D01*
X89169694Y-61994174D01*
X89480999Y-62460074D01*
X89726066Y-63051718D01*
X89726066Y-63051719D01*
X89844436Y-63646802D01*
X89851000Y-63679804D01*
X89851000Y-64320196D01*
X89726066Y-64948282D01*
X89480999Y-65539926D01*
X89195986Y-65966477D01*
X89125217Y-66072391D01*
X88672391Y-66525217D01*
X88566477Y-66595986D01*
X88139926Y-66880999D01*
X87548282Y-67126066D01*
X87234239Y-67188533D01*
X86920197Y-67251000D01*
X86279803Y-67251000D01*
X85965761Y-67188533D01*
X85651718Y-67126066D01*
X85060074Y-66880999D01*
X84633523Y-66595986D01*
X84527609Y-66525217D01*
X84074783Y-66072391D01*
X84004014Y-65966477D01*
X83719001Y-65539926D01*
X83473934Y-64948282D01*
X83349000Y-64320196D01*
X83349000Y-63679804D01*
X83355565Y-63646802D01*
X83473934Y-63051719D01*
X83473934Y-63051718D01*
X83719001Y-62460074D01*
X84030306Y-61994174D01*
X84074783Y-61927609D01*
X84527609Y-61474783D01*
X84633523Y-61404014D01*
X85060074Y-61119001D01*
X85651718Y-60873934D01*
X85965761Y-60811467D01*
X86279803Y-60749000D01*
X86920197Y-60749000D01*
X87234239Y-60811467D01*
X87234239Y-60811467D01*
G37*
G36*
X102918604Y-65078347D02*
G01*
X102955144Y-65089432D01*
X102988821Y-65107433D01*
X103018341Y-65131659D01*
X103042567Y-65161179D01*
X103060568Y-65194856D01*
X103071653Y-65231396D01*
X103076000Y-65275538D01*
X103076000Y-66724462D01*
X103071653Y-66768604D01*
X103060568Y-66805144D01*
X103042567Y-66838821D01*
X103018341Y-66868341D01*
X102988821Y-66892567D01*
X102955144Y-66910568D01*
X102918604Y-66921653D01*
X102874462Y-66926000D01*
X101925538Y-66926000D01*
X101881396Y-66921653D01*
X101844856Y-66910568D01*
X101811179Y-66892567D01*
X101781659Y-66868341D01*
X101757433Y-66838821D01*
X101739432Y-66805144D01*
X101728347Y-66768604D01*
X101724000Y-66724462D01*
X101724000Y-65275538D01*
X101728347Y-65231396D01*
X101739432Y-65194856D01*
X101757433Y-65161179D01*
X101781659Y-65131659D01*
X101811179Y-65107433D01*
X101844856Y-65089432D01*
X101881396Y-65078347D01*
X101925538Y-65074000D01*
X102874462Y-65074000D01*
X102918604Y-65078347D01*
X102918604Y-65078347D01*
G37*
G36*
X105718604Y-65078347D02*
G01*
X105755144Y-65089432D01*
X105788821Y-65107433D01*
X105818341Y-65131659D01*
X105842567Y-65161179D01*
X105860568Y-65194856D01*
X105871653Y-65231396D01*
X105876000Y-65275538D01*
X105876000Y-66724462D01*
X105871653Y-66768604D01*
X105860568Y-66805144D01*
X105842567Y-66838821D01*
X105818341Y-66868341D01*
X105788821Y-66892567D01*
X105755144Y-66910568D01*
X105718604Y-66921653D01*
X105674462Y-66926000D01*
X104725538Y-66926000D01*
X104681396Y-66921653D01*
X104644856Y-66910568D01*
X104611179Y-66892567D01*
X104581659Y-66868341D01*
X104557433Y-66838821D01*
X104539432Y-66805144D01*
X104528347Y-66768604D01*
X104524000Y-66724462D01*
X104524000Y-65275538D01*
X104528347Y-65231396D01*
X104539432Y-65194856D01*
X104557433Y-65161179D01*
X104581659Y-65131659D01*
X104611179Y-65107433D01*
X104644856Y-65089432D01*
X104681396Y-65078347D01*
X104725538Y-65074000D01*
X105674462Y-65074000D01*
X105718604Y-65078347D01*
X105718604Y-65078347D01*
G37*
G36*
X69118604Y-61878347D02*
G01*
X69155144Y-61889432D01*
X69188821Y-61907433D01*
X69218341Y-61931659D01*
X69242567Y-61961179D01*
X69260568Y-61994856D01*
X69271653Y-62031396D01*
X69276000Y-62075538D01*
X69276000Y-63524462D01*
X69271653Y-63568604D01*
X69260568Y-63605144D01*
X69242567Y-63638821D01*
X69218341Y-63668341D01*
X69188821Y-63692567D01*
X69155144Y-63710568D01*
X69118604Y-63721653D01*
X69074462Y-63726000D01*
X68125538Y-63726000D01*
X68081396Y-63721653D01*
X68044856Y-63710568D01*
X68011179Y-63692567D01*
X67981659Y-63668341D01*
X67957433Y-63638821D01*
X67939432Y-63605144D01*
X67928347Y-63568604D01*
X67924000Y-63524462D01*
X67924000Y-62075538D01*
X67928347Y-62031396D01*
X67939432Y-61994856D01*
X67957433Y-61961179D01*
X67981659Y-61931659D01*
X68011179Y-61907433D01*
X68044856Y-61889432D01*
X68081396Y-61878347D01*
X68125538Y-61874000D01*
X69074462Y-61874000D01*
X69118604Y-61878347D01*
X69118604Y-61878347D01*
G37*
G36*
X74218604Y-61878347D02*
G01*
X74255144Y-61889432D01*
X74288821Y-61907433D01*
X74318341Y-61931659D01*
X74342567Y-61961179D01*
X74360568Y-61994856D01*
X74371653Y-62031396D01*
X74376000Y-62075538D01*
X74376000Y-63524462D01*
X74371653Y-63568604D01*
X74360568Y-63605144D01*
X74342567Y-63638821D01*
X74318341Y-63668341D01*
X74288821Y-63692567D01*
X74255144Y-63710568D01*
X74218604Y-63721653D01*
X74174462Y-63726000D01*
X73225538Y-63726000D01*
X73181396Y-63721653D01*
X73144856Y-63710568D01*
X73111179Y-63692567D01*
X73081659Y-63668341D01*
X73057433Y-63638821D01*
X73039432Y-63605144D01*
X73028347Y-63568604D01*
X73024000Y-63524462D01*
X73024000Y-62075538D01*
X73028347Y-62031396D01*
X73039432Y-61994856D01*
X73057433Y-61961179D01*
X73081659Y-61931659D01*
X73111179Y-61907433D01*
X73144856Y-61889432D01*
X73181396Y-61878347D01*
X73225538Y-61874000D01*
X74174462Y-61874000D01*
X74218604Y-61878347D01*
X74218604Y-61878347D01*
G37*
G36*
X77018604Y-61878347D02*
G01*
X77055144Y-61889432D01*
X77088821Y-61907433D01*
X77118341Y-61931659D01*
X77142567Y-61961179D01*
X77160568Y-61994856D01*
X77171653Y-62031396D01*
X77176000Y-62075538D01*
X77176000Y-63524462D01*
X77171653Y-63568604D01*
X77160568Y-63605144D01*
X77142567Y-63638821D01*
X77118341Y-63668341D01*
X77088821Y-63692567D01*
X77055144Y-63710568D01*
X77018604Y-63721653D01*
X76974462Y-63726000D01*
X76025538Y-63726000D01*
X75981396Y-63721653D01*
X75944856Y-63710568D01*
X75911179Y-63692567D01*
X75881659Y-63668341D01*
X75857433Y-63638821D01*
X75839432Y-63605144D01*
X75828347Y-63568604D01*
X75824000Y-63524462D01*
X75824000Y-62075538D01*
X75828347Y-62031396D01*
X75839432Y-61994856D01*
X75857433Y-61961179D01*
X75881659Y-61931659D01*
X75911179Y-61907433D01*
X75944856Y-61889432D01*
X75981396Y-61878347D01*
X76025538Y-61874000D01*
X76974462Y-61874000D01*
X77018604Y-61878347D01*
X77018604Y-61878347D01*
G37*
G36*
X71918604Y-61878347D02*
G01*
X71955144Y-61889432D01*
X71988821Y-61907433D01*
X72018341Y-61931659D01*
X72042567Y-61961179D01*
X72060568Y-61994856D01*
X72071653Y-62031396D01*
X72076000Y-62075538D01*
X72076000Y-63524462D01*
X72071653Y-63568604D01*
X72060568Y-63605144D01*
X72042567Y-63638821D01*
X72018341Y-63668341D01*
X71988821Y-63692567D01*
X71955144Y-63710568D01*
X71918604Y-63721653D01*
X71874462Y-63726000D01*
X70925538Y-63726000D01*
X70881396Y-63721653D01*
X70844856Y-63710568D01*
X70811179Y-63692567D01*
X70781659Y-63668341D01*
X70757433Y-63638821D01*
X70739432Y-63605144D01*
X70728347Y-63568604D01*
X70724000Y-63524462D01*
X70724000Y-62075538D01*
X70728347Y-62031396D01*
X70739432Y-61994856D01*
X70757433Y-61961179D01*
X70781659Y-61931659D01*
X70811179Y-61907433D01*
X70844856Y-61889432D01*
X70881396Y-61878347D01*
X70925538Y-61874000D01*
X71874462Y-61874000D01*
X71918604Y-61878347D01*
X71918604Y-61878347D01*
G37*
M02*
