  0
SECTION
  2
HEADER
  9
$ANGBASE
  50
0.0
  9
$ANGDIR
  70
  1
  9
$MEASUREMENT
  70
0
  0
ENDSEC
  0
SECTION
  2
TABLES
  0
TABLE
  2
LTYPE
  70
4
  0
LTYPE
  5
40F
  2
CONTINUOUS
  70
0
  3
Solid line
  72
65
  73
0
  40
0.0
  0
LTYPE
  5
410
  2
DASHDOT
 70
0
  3
Dash Dot ____ _ ____ _
 72
65
 73
4
 40
2.0
 49
1.25
 49
-0.25
 49
0.25
 49
-0.25
  0
LTYPE
  5
411
  2
DASHED
 70
0
  3
Dashed __ __ __ __ __
 72
65
 73
2
 40
0.75
 49
0.5
 49
-0.25
  0
LTYPE
  5
43B
  2
DOTTED
 70
0
  3
Dotted .  .  .  .
 72
65
 73
2
 40
0.2
 49
0.0
 49
-0.2
  0
ENDTAB
  0
TABLE
  2
STYLE
  70
4
  0
STYLE
  2
KICAD
  70
0
  40
0
  41
1
  42
1
  50
0
  71
0
  3
isocp.shx
  0
STYLE
  2
KICADB
  70
0
  40
0
  41
1
  42
1
  50
0
  71
0
  3
isocp.shx
  0
STYLE
  2
KICADI
  70
0
  40
0
  41
1
  42
1
  50
15
  71
0
  3
isocp.shx
  0
STYLE
  2
KICADBI
  70
0
  40
0
  41
1
  42
1
  50
15
  71
0
  3
isocp.shx
  0
ENDTAB
  0
TABLE
  2
LAYER
  70
30
  0
LAYER
  2
BLACK
  70
0
  62
7
  6
CONTINUOUS
  0
LAYER
  2
GRAY1
  70
0
  62
251
  6
CONTINUOUS
  0
LAYER
  2
GRAY2
  70
0
  62
8
  6
CONTINUOUS
  0
LAYER
  2
GRAY3
  70
0
  62
9
  6
CONTINUOUS
  0
LAYER
  2
WHITE
  70
0
  62
7
  6
CONTINUOUS
  0
LAYER
  2
LYELLOW
  70
0
  62
51
  6
CONTINUOUS
  0
LAYER
  2
BLUE1
  70
0
  62
178
  6
CONTINUOUS
  0
LAYER
  2
GREEN1
  70
0
  62
98
  6
CONTINUOUS
  0
LAYER
  2
CYAN1
  70
0
  62
138
  6
CONTINUOUS
  0
LAYER
  2
RED1
  70
0
  62
18
  6
CONTINUOUS
  0
LAYER
  2
MAGENTA1
  70
0
  62
228
  6
CONTINUOUS
  0
LAYER
  2
BROWN1
  70
0
  62
58
  6
CONTINUOUS
  0
LAYER
  2
BLUE2
  70
0
  62
5
  6
CONTINUOUS
  0
LAYER
  2
GREEN2
  70
0
  62
3
  6
CONTINUOUS
  0
LAYER
  2
CYAN2
  70
0
  62
4
  6
CONTINUOUS
  0
LAYER
  2
RED2
  70
0
  62
1
  6
CONTINUOUS
  0
LAYER
  2
MAGENTA2
  70
0
  62
6
  6
CONTINUOUS
  0
LAYER
  2
BROWN2
  70
0
  62
54
  6
CONTINUOUS
  0
LAYER
  2
BLUE3
  70
0
  62
171
  6
CONTINUOUS
  0
LAYER
  2
GREEN3
  70
0
  62
91
  6
CONTINUOUS
  0
LAYER
  2
CYAN3
  70
0
  62
131
  6
CONTINUOUS
  0
LAYER
  2
RED3
  70
0
  62
11
  6
CONTINUOUS
  0
LAYER
  2
MAGENTA3
  70
0
  62
221
  6
CONTINUOUS
  0
LAYER
  2
YELLOW3
  70
0
  62
2
  6
CONTINUOUS
  0
LAYER
  2
BLUE4
  70
0
  62
5
  6
CONTINUOUS
  0
LAYER
  2
GREEN4
  70
0
  62
3
  6
CONTINUOUS
  0
LAYER
  2
CYAN4
  70
0
  62
4
  6
CONTINUOUS
  0
LAYER
  2
RED4
  70
0
  62
1
  6
CONTINUOUS
  0
LAYER
  2
MAGENTA4
  70
0
  62
6
  6
CONTINUOUS
  0
LAYER
  2
YELLOW4
  70
0
  62
2
  6
CONTINUOUS
  0
ENDTAB
  0
ENDSEC
  0
SECTION
  2
ENTITIES
0
LINE
8
BLACK
6
CONTINUOUS
10
87.2186
20
-108.908
11
87.5483
21
-108.974
0
LINE
8
BLACK
6
CONTINUOUS
10
87.5483
20
-108.974
11
88.1399
21
-109.219
0
LINE
8
BLACK
6
CONTINUOUS
10
88.1399
20
-109.219
11
88.6724
21
-109.575
0
LINE
8
BLACK
6
CONTINUOUS
10
88.6724
20
-109.575
11
89.1252
21
-110.028
0
LINE
8
BLACK
6
CONTINUOUS
10
89.1252
20
-110.028
11
89.481
21
-110.56
0
LINE
8
BLACK
6
CONTINUOUS
10
89.481
20
-110.56
11
89.7261
21
-111.152
0
LINE
8
BLACK
6
CONTINUOUS
10
89.7261
20
-111.152
11
89.7261
21
-111.152
0
LINE
8
BLACK
6
CONTINUOUS
10
89.7261
20
-111.152
11
89.851
21
-111.78
0
LINE
8
BLACK
6
CONTINUOUS
10
89.851
20
-111.78
11
89.851
21
-112.42
0
LINE
8
BLACK
6
CONTINUOUS
10
89.851
20
-112.42
11
89.8294
21
-112.529
0
LINE
8
BLACK
6
CONTINUOUS
10
89.8294
20
-112.529
11
89.7261
21
-113.048
0
LINE
8
BLACK
6
CONTINUOUS
10
89.7261
20
-113.048
11
89.481
21
-113.64
0
LINE
8
BLACK
6
CONTINUOUS
10
89.481
20
-113.64
11
89.1252
21
-114.172
0
LINE
8
BLACK
6
CONTINUOUS
10
89.1252
20
-114.172
11
88.6724
21
-114.625
0
LINE
8
BLACK
6
CONTINUOUS
10
88.6724
20
-114.625
11
88.1399
21
-114.981
0
LINE
8
BLACK
6
CONTINUOUS
10
88.1399
20
-114.981
11
87.5483
21
-115.226
0
LINE
8
BLACK
6
CONTINUOUS
10
87.5483
20
-115.226
11
87.2342
21
-115.289
0
LINE
8
BLACK
6
CONTINUOUS
10
87.2342
20
-115.289
11
86.9202
21
-115.351
0
LINE
8
BLACK
6
CONTINUOUS
10
86.9202
20
-115.351
11
86.2798
21
-115.351
0
LINE
8
BLACK
6
CONTINUOUS
10
86.2798
20
-115.351
11
85.9658
21
-115.289
0
LINE
8
BLACK
6
CONTINUOUS
10
85.9658
20
-115.289
11
85.6517
21
-115.226
0
LINE
8
BLACK
6
CONTINUOUS
10
85.6517
20
-115.226
11
85.0601
21
-114.981
0
LINE
8
BLACK
6
CONTINUOUS
10
85.0601
20
-114.981
11
84.5276
21
-114.625
0
LINE
8
BLACK
6
CONTINUOUS
10
84.5276
20
-114.625
11
84.0748
21
-114.172
0
LINE
8
BLACK
6
CONTINUOUS
10
84.0748
20
-114.172
11
83.719
21
-113.64
0
LINE
8
BLACK
6
CONTINUOUS
10
83.719
20
-113.64
11
83.4739
21
-113.048
0
LINE
8
BLACK
6
CONTINUOUS
10
83.4739
20
-113.048
11
83.3705
21
-112.529
0
LINE
8
BLACK
6
CONTINUOUS
10
83.3705
20
-112.529
11
83.349
21
-112.42
0
LINE
8
BLACK
6
CONTINUOUS
10
83.349
20
-112.42
11
83.349
21
-111.78
0
LINE
8
BLACK
6
CONTINUOUS
10
83.349
20
-111.78
11
83.4739
21
-111.152
0
LINE
8
BLACK
6
CONTINUOUS
10
83.4739
20
-111.152
11
83.4739
21
-111.152
0
LINE
8
BLACK
6
CONTINUOUS
10
83.4739
20
-111.152
11
83.719
21
-110.56
0
LINE
8
BLACK
6
CONTINUOUS
10
83.719
20
-110.56
11
84.0748
21
-110.028
0
LINE
8
BLACK
6
CONTINUOUS
10
84.0748
20
-110.028
11
84.5276
21
-109.575
0
LINE
8
BLACK
6
CONTINUOUS
10
84.5276
20
-109.575
11
85.0601
21
-109.219
0
LINE
8
BLACK
6
CONTINUOUS
10
85.0601
20
-109.219
11
85.6517
21
-108.974
0
LINE
8
BLACK
6
CONTINUOUS
10
85.6517
20
-108.974
11
85.9814
21
-108.908
0
LINE
8
BLACK
6
CONTINUOUS
10
85.9814
20
-108.908
11
86.2798
21
-108.849
0
LINE
8
BLACK
6
CONTINUOUS
10
86.2798
20
-108.849
11
86.9202
21
-108.849
0
LINE
8
BLACK
6
CONTINUOUS
10
86.9202
20
-108.849
11
87.2186
21
-108.908
0
LINE
8
BLACK
6
CONTINUOUS
10
112.234
20
-108.511
11
112.548
21
-108.574
0
LINE
8
BLACK
6
CONTINUOUS
10
112.548
20
-108.574
11
113.14
21
-108.819
0
LINE
8
BLACK
6
CONTINUOUS
10
113.14
20
-108.819
11
113.672
21
-109.175
0
LINE
8
BLACK
6
CONTINUOUS
10
113.672
20
-109.175
11
114.125
21
-109.628
0
LINE
8
BLACK
6
CONTINUOUS
10
114.125
20
-109.628
11
114.481
21
-110.16
0
LINE
8
BLACK
6
CONTINUOUS
10
114.481
20
-110.16
11
114.726
21
-110.752
0
LINE
8
BLACK
6
CONTINUOUS
10
114.726
20
-110.752
11
114.726
21
-110.752
0
LINE
8
BLACK
6
CONTINUOUS
10
114.726
20
-110.752
11
114.851
21
-111.38
0
LINE
8
BLACK
6
CONTINUOUS
10
114.851
20
-111.38
11
114.851
21
-112.02
0
LINE
8
BLACK
6
CONTINUOUS
10
114.851
20
-112.02
11
114.838
21
-112.083
0
LINE
8
BLACK
6
CONTINUOUS
10
114.838
20
-112.083
11
114.726
21
-112.648
0
LINE
8
BLACK
6
CONTINUOUS
10
114.726
20
-112.648
11
114.481
21
-113.24
0
LINE
8
BLACK
6
CONTINUOUS
10
114.481
20
-113.24
11
114.125
21
-113.772
0
LINE
8
BLACK
6
CONTINUOUS
10
114.125
20
-113.772
11
113.672
21
-114.225
0
LINE
8
BLACK
6
CONTINUOUS
10
113.672
20
-114.225
11
113.14
21
-114.581
0
LINE
8
BLACK
6
CONTINUOUS
10
113.14
20
-114.581
11
112.548
21
-114.826
0
LINE
8
BLACK
6
CONTINUOUS
10
112.548
20
-114.826
11
112.234
21
-114.889
0
LINE
8
BLACK
6
CONTINUOUS
10
112.234
20
-114.889
11
111.92
21
-114.951
0
LINE
8
BLACK
6
CONTINUOUS
10
111.92
20
-114.951
11
111.28
21
-114.951
0
LINE
8
BLACK
6
CONTINUOUS
10
111.28
20
-114.951
11
110.966
21
-114.889
0
LINE
8
BLACK
6
CONTINUOUS
10
110.966
20
-114.889
11
110.652
21
-114.826
0
LINE
8
BLACK
6
CONTINUOUS
10
110.652
20
-114.826
11
110.06
21
-114.581
0
LINE
8
BLACK
6
CONTINUOUS
10
110.06
20
-114.581
11
109.528
21
-114.225
0
LINE
8
BLACK
6
CONTINUOUS
10
109.528
20
-114.225
11
109.075
21
-113.772
0
LINE
8
BLACK
6
CONTINUOUS
10
109.075
20
-113.772
11
108.719
21
-113.24
0
LINE
8
BLACK
6
CONTINUOUS
10
108.719
20
-113.24
11
108.474
21
-112.648
0
LINE
8
BLACK
6
CONTINUOUS
10
108.474
20
-112.648
11
108.362
21
-112.083
0
LINE
8
BLACK
6
CONTINUOUS
10
108.362
20
-112.083
11
108.349
21
-112.02
0
LINE
8
BLACK
6
CONTINUOUS
10
108.349
20
-112.02
11
108.349
21
-111.38
0
LINE
8
BLACK
6
CONTINUOUS
10
108.349
20
-111.38
11
108.474
21
-110.752
0
LINE
8
BLACK
6
CONTINUOUS
10
108.474
20
-110.752
11
108.474
21
-110.752
0
LINE
8
BLACK
6
CONTINUOUS
10
108.474
20
-110.752
11
108.719
21
-110.16
0
LINE
8
BLACK
6
CONTINUOUS
10
108.719
20
-110.16
11
109.075
21
-109.628
0
LINE
8
BLACK
6
CONTINUOUS
10
109.075
20
-109.628
11
109.528
21
-109.175
0
LINE
8
BLACK
6
CONTINUOUS
10
109.528
20
-109.175
11
110.06
21
-108.819
0
LINE
8
BLACK
6
CONTINUOUS
10
110.06
20
-108.819
11
110.652
21
-108.574
0
LINE
8
BLACK
6
CONTINUOUS
10
110.652
20
-108.574
11
110.966
21
-108.511
0
LINE
8
BLACK
6
CONTINUOUS
10
110.966
20
-108.511
11
111.28
21
-108.449
0
LINE
8
BLACK
6
CONTINUOUS
10
111.28
20
-108.449
11
111.92
21
-108.449
0
LINE
8
BLACK
6
CONTINUOUS
10
111.92
20
-108.449
11
112.234
21
-108.511
0
LINE
8
BLACK
6
CONTINUOUS
10
75.2766
20
-111.987
11
75.4465
21
-112.039
0
LINE
8
BLACK
6
CONTINUOUS
10
75.4465
20
-112.039
11
75.4465
21
-112.039
0
LINE
8
BLACK
6
CONTINUOUS
10
75.4465
20
-112.039
11
75.603
21
-112.122
0
LINE
8
BLACK
6
CONTINUOUS
10
75.603
20
-112.122
11
75.7402
21
-112.235
0
LINE
8
BLACK
6
CONTINUOUS
10
75.7402
20
-112.235
11
75.8234
21
-112.336
0
LINE
8
BLACK
6
CONTINUOUS
10
75.8234
20
-112.336
11
75.8528
21
-112.372
0
LINE
8
BLACK
6
CONTINUOUS
10
75.8528
20
-112.372
11
75.9364
21
-112.529
0
LINE
8
BLACK
6
CONTINUOUS
10
75.9364
20
-112.529
11
75.988
21
-112.698
0
LINE
8
BLACK
6
CONTINUOUS
10
75.988
20
-112.698
11
76.001
21
-112.831
0
LINE
8
BLACK
6
CONTINUOUS
10
76.001
20
-112.831
11
76.001
21
-113.169
0
LINE
8
BLACK
6
CONTINUOUS
10
76.001
20
-113.169
11
75.988
21
-113.302
0
LINE
8
BLACK
6
CONTINUOUS
10
75.988
20
-113.302
11
75.9364
21
-113.471
0
LINE
8
BLACK
6
CONTINUOUS
10
75.9364
20
-113.471
11
75.8528
21
-113.628
0
LINE
8
BLACK
6
CONTINUOUS
10
75.8528
20
-113.628
11
75.843
21
-113.64
0
LINE
8
BLACK
6
CONTINUOUS
10
75.843
20
-113.64
11
75.7402
21
-113.765
0
LINE
8
BLACK
6
CONTINUOUS
10
75.7402
20
-113.765
11
75.6452
21
-113.843
0
LINE
8
BLACK
6
CONTINUOUS
10
75.6452
20
-113.843
11
75.603
21
-113.878
0
LINE
8
BLACK
6
CONTINUOUS
10
75.603
20
-113.878
11
75.4465
21
-113.961
0
LINE
8
BLACK
6
CONTINUOUS
10
75.4465
20
-113.961
11
75.2766
21
-114.013
0
LINE
8
BLACK
6
CONTINUOUS
10
75.2766
20
-114.013
11
75.1
21
-114.03
0
LINE
8
BLACK
6
CONTINUOUS
10
75.1
20
-114.03
11
74.9234
21
-114.013
0
LINE
8
BLACK
6
CONTINUOUS
10
74.9234
20
-114.013
11
74.7535
21
-113.961
0
LINE
8
BLACK
6
CONTINUOUS
10
74.7535
20
-113.961
11
74.597
21
-113.878
0
LINE
8
BLACK
6
CONTINUOUS
10
74.597
20
-113.878
11
74.4598
21
-113.765
0
LINE
8
BLACK
6
CONTINUOUS
10
74.4598
20
-113.765
11
74.3472
21
-113.628
0
LINE
8
BLACK
6
CONTINUOUS
10
74.3472
20
-113.628
11
74.2636
21
-113.471
0
LINE
8
BLACK
6
CONTINUOUS
10
74.2636
20
-113.471
11
74.212
21
-113.302
0
LINE
8
BLACK
6
CONTINUOUS
10
74.212
20
-113.302
11
74.199
21
-113.169
0
LINE
8
BLACK
6
CONTINUOUS
10
74.199
20
-113.169
11
74.199
21
-112.831
0
LINE
8
BLACK
6
CONTINUOUS
10
74.199
20
-112.831
11
74.212
21
-112.698
0
LINE
8
BLACK
6
CONTINUOUS
10
74.212
20
-112.698
11
74.2636
21
-112.529
0
LINE
8
BLACK
6
CONTINUOUS
10
74.2636
20
-112.529
11
74.3472
21
-112.372
0
LINE
8
BLACK
6
CONTINUOUS
10
74.3472
20
-112.372
11
74.3472
21
-112.372
0
LINE
8
BLACK
6
CONTINUOUS
10
74.3472
20
-112.372
11
74.4598
21
-112.235
0
LINE
8
BLACK
6
CONTINUOUS
10
74.4598
20
-112.235
11
74.5613
21
-112.152
0
LINE
8
BLACK
6
CONTINUOUS
10
74.5613
20
-112.152
11
74.597
21
-112.122
0
LINE
8
BLACK
6
CONTINUOUS
10
74.597
20
-112.122
11
74.7535
21
-112.039
0
LINE
8
BLACK
6
CONTINUOUS
10
74.7535
20
-112.039
11
74.9234
21
-111.987
0
LINE
8
BLACK
6
CONTINUOUS
10
74.9234
20
-111.987
11
75.1
21
-111.97
0
LINE
8
BLACK
6
CONTINUOUS
10
75.1
20
-111.97
11
75.2766
21
-111.987
0
LINE
8
BLACK
6
CONTINUOUS
10
77.7766
20
-111.987
11
77.9465
21
-112.039
0
LINE
8
BLACK
6
CONTINUOUS
10
77.9465
20
-112.039
11
77.9465
21
-112.039
0
LINE
8
BLACK
6
CONTINUOUS
10
77.9465
20
-112.039
11
78.103
21
-112.122
0
LINE
8
BLACK
6
CONTINUOUS
10
78.103
20
-112.122
11
78.2402
21
-112.235
0
LINE
8
BLACK
6
CONTINUOUS
10
78.2402
20
-112.235
11
78.3234
21
-112.336
0
LINE
8
BLACK
6
CONTINUOUS
10
78.3234
20
-112.336
11
78.3528
21
-112.372
0
LINE
8
BLACK
6
CONTINUOUS
10
78.3528
20
-112.372
11
78.4364
21
-112.529
0
LINE
8
BLACK
6
CONTINUOUS
10
78.4364
20
-112.529
11
78.488
21
-112.698
0
LINE
8
BLACK
6
CONTINUOUS
10
78.488
20
-112.698
11
78.501
21
-112.831
0
LINE
8
BLACK
6
CONTINUOUS
10
78.501
20
-112.831
11
78.501
21
-113.169
0
LINE
8
BLACK
6
CONTINUOUS
10
78.501
20
-113.169
11
78.488
21
-113.302
0
LINE
8
BLACK
6
CONTINUOUS
10
78.488
20
-113.302
11
78.4364
21
-113.471
0
LINE
8
BLACK
6
CONTINUOUS
10
78.4364
20
-113.471
11
78.3528
21
-113.628
0
LINE
8
BLACK
6
CONTINUOUS
10
78.3528
20
-113.628
11
78.343
21
-113.64
0
LINE
8
BLACK
6
CONTINUOUS
10
78.343
20
-113.64
11
78.2402
21
-113.765
0
LINE
8
BLACK
6
CONTINUOUS
10
78.2402
20
-113.765
11
78.1452
21
-113.843
0
LINE
8
BLACK
6
CONTINUOUS
10
78.1452
20
-113.843
11
78.103
21
-113.878
0
LINE
8
BLACK
6
CONTINUOUS
10
78.103
20
-113.878
11
77.9465
21
-113.961
0
LINE
8
BLACK
6
CONTINUOUS
10
77.9465
20
-113.961
11
77.7766
21
-114.013
0
LINE
8
BLACK
6
CONTINUOUS
10
77.7766
20
-114.013
11
77.6
21
-114.03
0
LINE
8
BLACK
6
CONTINUOUS
10
77.6
20
-114.03
11
77.4234
21
-114.013
0
LINE
8
BLACK
6
CONTINUOUS
10
77.4234
20
-114.013
11
77.2535
21
-113.961
0
LINE
8
BLACK
6
CONTINUOUS
10
77.2535
20
-113.961
11
77.097
21
-113.878
0
LINE
8
BLACK
6
CONTINUOUS
10
77.097
20
-113.878
11
76.9598
21
-113.765
0
LINE
8
BLACK
6
CONTINUOUS
10
76.9598
20
-113.765
11
76.8472
21
-113.628
0
LINE
8
BLACK
6
CONTINUOUS
10
76.8472
20
-113.628
11
76.7636
21
-113.471
0
LINE
8
BLACK
6
CONTINUOUS
10
76.7636
20
-113.471
11
76.712
21
-113.302
0
LINE
8
BLACK
6
CONTINUOUS
10
76.712
20
-113.302
11
76.699
21
-113.169
0
LINE
8
BLACK
6
CONTINUOUS
10
76.699
20
-113.169
11
76.699
21
-112.831
0
LINE
8
BLACK
6
CONTINUOUS
10
76.699
20
-112.831
11
76.712
21
-112.698
0
LINE
8
BLACK
6
CONTINUOUS
10
76.712
20
-112.698
11
76.7636
21
-112.529
0
LINE
8
BLACK
6
CONTINUOUS
10
76.7636
20
-112.529
11
76.8472
21
-112.372
0
LINE
8
BLACK
6
CONTINUOUS
10
76.8472
20
-112.372
11
76.8472
21
-112.372
0
LINE
8
BLACK
6
CONTINUOUS
10
76.8472
20
-112.372
11
76.9598
21
-112.235
0
LINE
8
BLACK
6
CONTINUOUS
10
76.9598
20
-112.235
11
77.0613
21
-112.152
0
LINE
8
BLACK
6
CONTINUOUS
10
77.0613
20
-112.152
11
77.097
21
-112.122
0
LINE
8
BLACK
6
CONTINUOUS
10
77.097
20
-112.122
11
77.2535
21
-112.039
0
LINE
8
BLACK
6
CONTINUOUS
10
77.2535
20
-112.039
11
77.4234
21
-111.987
0
LINE
8
BLACK
6
CONTINUOUS
10
77.4234
20
-111.987
11
77.6
21
-111.97
0
LINE
8
BLACK
6
CONTINUOUS
10
77.6
20
-111.97
11
77.7766
21
-111.987
0
LINE
8
BLACK
6
CONTINUOUS
10
73.3586
20
-111.978
11
73.3917
21
-111.988
0
LINE
8
BLACK
6
CONTINUOUS
10
73.3917
20
-111.988
11
73.4221
21
-112.004
0
LINE
8
BLACK
6
CONTINUOUS
10
73.4221
20
-112.004
11
73.4488
21
-112.026
0
LINE
8
BLACK
6
CONTINUOUS
10
73.4488
20
-112.026
11
73.4707
21
-112.053
0
LINE
8
BLACK
6
CONTINUOUS
10
73.4707
20
-112.053
11
73.487
21
-112.083
0
LINE
8
BLACK
6
CONTINUOUS
10
73.487
20
-112.083
11
73.497
21
-112.116
0
LINE
8
BLACK
6
CONTINUOUS
10
73.497
20
-112.116
11
73.501
21
-112.157
0
LINE
8
BLACK
6
CONTINUOUS
10
73.501
20
-112.157
11
73.501
21
-113.843
0
LINE
8
BLACK
6
CONTINUOUS
10
73.501
20
-113.843
11
73.497
21
-113.884
0
LINE
8
BLACK
6
CONTINUOUS
10
73.497
20
-113.884
11
73.487
21
-113.917
0
LINE
8
BLACK
6
CONTINUOUS
10
73.487
20
-113.917
11
73.4707
21
-113.947
0
LINE
8
BLACK
6
CONTINUOUS
10
73.4707
20
-113.947
11
73.4488
21
-113.974
0
LINE
8
BLACK
6
CONTINUOUS
10
73.4488
20
-113.974
11
73.4221
21
-113.996
0
LINE
8
BLACK
6
CONTINUOUS
10
73.4221
20
-113.996
11
73.3917
21
-114.012
0
LINE
8
BLACK
6
CONTINUOUS
10
73.3917
20
-114.012
11
73.3586
21
-114.022
0
LINE
8
BLACK
6
CONTINUOUS
10
73.3586
20
-114.022
11
73.3181
21
-114.026
0
LINE
8
BLACK
6
CONTINUOUS
10
73.3181
20
-114.026
11
71.8819
21
-114.026
0
LINE
8
BLACK
6
CONTINUOUS
10
71.8819
20
-114.026
11
71.8414
21
-114.022
0
LINE
8
BLACK
6
CONTINUOUS
10
71.8414
20
-114.022
11
71.8083
21
-114.012
0
LINE
8
BLACK
6
CONTINUOUS
10
71.8083
20
-114.012
11
71.7779
21
-113.996
0
LINE
8
BLACK
6
CONTINUOUS
10
71.7779
20
-113.996
11
71.7512
21
-113.974
0
LINE
8
BLACK
6
CONTINUOUS
10
71.7512
20
-113.974
11
71.7293
21
-113.947
0
LINE
8
BLACK
6
CONTINUOUS
10
71.7293
20
-113.947
11
71.713
21
-113.917
0
LINE
8
BLACK
6
CONTINUOUS
10
71.713
20
-113.917
11
71.703
21
-113.884
0
LINE
8
BLACK
6
CONTINUOUS
10
71.703
20
-113.884
11
71.699
21
-113.843
0
LINE
8
BLACK
6
CONTINUOUS
10
71.699
20
-113.843
11
71.699
21
-112.157
0
LINE
8
BLACK
6
CONTINUOUS
10
71.699
20
-112.157
11
71.703
21
-112.116
0
LINE
8
BLACK
6
CONTINUOUS
10
71.703
20
-112.116
11
71.713
21
-112.083
0
LINE
8
BLACK
6
CONTINUOUS
10
71.713
20
-112.083
11
71.7293
21
-112.053
0
LINE
8
BLACK
6
CONTINUOUS
10
71.7293
20
-112.053
11
71.7512
21
-112.026
0
LINE
8
BLACK
6
CONTINUOUS
10
71.7512
20
-112.026
11
71.7779
21
-112.004
0
LINE
8
BLACK
6
CONTINUOUS
10
71.7779
20
-112.004
11
71.8083
21
-111.988
0
LINE
8
BLACK
6
CONTINUOUS
10
71.8083
20
-111.988
11
71.8414
21
-111.978
0
LINE
8
BLACK
6
CONTINUOUS
10
71.8414
20
-111.978
11
71.8819
21
-111.974
0
LINE
8
BLACK
6
CONTINUOUS
10
71.8819
20
-111.974
11
73.3181
21
-111.974
0
LINE
8
BLACK
6
CONTINUOUS
10
73.3181
20
-111.974
11
73.3586
21
-111.978
0
LINE
8
BLACK
6
CONTINUOUS
10
93.6604
20
-111.306
11
93.7266
21
-111.312
0
LINE
8
BLACK
6
CONTINUOUS
10
93.7266
20
-111.312
11
93.8965
21
-111.364
0
LINE
8
BLACK
6
CONTINUOUS
10
93.8965
20
-111.364
11
94.053
21
-111.447
0
LINE
8
BLACK
6
CONTINUOUS
10
94.053
20
-111.447
11
94.0887
21
-111.477
0
LINE
8
BLACK
6
CONTINUOUS
10
94.0887
20
-111.477
11
94.1902
21
-111.56
0
LINE
8
BLACK
6
CONTINUOUS
10
94.1902
20
-111.56
11
94.2734
21
-111.661
0
LINE
8
BLACK
6
CONTINUOUS
10
94.2734
20
-111.661
11
94.3028
21
-111.697
0
LINE
8
BLACK
6
CONTINUOUS
10
94.3028
20
-111.697
11
94.3864
21
-111.854
0
LINE
8
BLACK
6
CONTINUOUS
10
94.3864
20
-111.854
11
94.438
21
-112.023
0
LINE
8
BLACK
6
CONTINUOUS
10
94.438
20
-112.023
11
94.4554
21
-112.2
0
LINE
8
BLACK
6
CONTINUOUS
10
94.4554
20
-112.2
11
94.438
21
-112.377
0
LINE
8
BLACK
6
CONTINUOUS
10
94.438
20
-112.377
11
94.3864
21
-112.546
0
LINE
8
BLACK
6
CONTINUOUS
10
94.3864
20
-112.546
11
94.3028
21
-112.703
0
LINE
8
BLACK
6
CONTINUOUS
10
94.3028
20
-112.703
11
94.2734
21
-112.739
0
LINE
8
BLACK
6
CONTINUOUS
10
94.2734
20
-112.739
11
94.1902
21
-112.84
0
LINE
8
BLACK
6
CONTINUOUS
10
94.1902
20
-112.84
11
94.0887
21
-112.923
0
LINE
8
BLACK
6
CONTINUOUS
10
94.0887
20
-112.923
11
94.053
21
-112.953
0
LINE
8
BLACK
6
CONTINUOUS
10
94.053
20
-112.953
11
93.8965
21
-113.036
0
LINE
8
BLACK
6
CONTINUOUS
10
93.8965
20
-113.036
11
93.7266
21
-113.088
0
LINE
8
BLACK
6
CONTINUOUS
10
93.7266
20
-113.088
11
93.6604
21
-113.094
0
LINE
8
BLACK
6
CONTINUOUS
10
93.6604
20
-113.094
11
93.5943
21
-113.101
0
LINE
8
BLACK
6
CONTINUOUS
10
93.5943
20
-113.101
11
93.2057
21
-113.101
0
LINE
8
BLACK
6
CONTINUOUS
10
93.2057
20
-113.101
11
93.1396
21
-113.094
0
LINE
8
BLACK
6
CONTINUOUS
10
93.1396
20
-113.094
11
93.0734
21
-113.088
0
LINE
8
BLACK
6
CONTINUOUS
10
93.0734
20
-113.088
11
92.9035
21
-113.036
0
LINE
8
BLACK
6
CONTINUOUS
10
92.9035
20
-113.036
11
92.747
21
-112.953
0
LINE
8
BLACK
6
CONTINUOUS
10
92.747
20
-112.953
11
92.7113
21
-112.923
0
LINE
8
BLACK
6
CONTINUOUS
10
92.7113
20
-112.923
11
92.6098
21
-112.84
0
LINE
8
BLACK
6
CONTINUOUS
10
92.6098
20
-112.84
11
92.5266
21
-112.739
0
LINE
8
BLACK
6
CONTINUOUS
10
92.5266
20
-112.739
11
92.4972
21
-112.703
0
LINE
8
BLACK
6
CONTINUOUS
10
92.4972
20
-112.703
11
92.4136
21
-112.546
0
LINE
8
BLACK
6
CONTINUOUS
10
92.4136
20
-112.546
11
92.362
21
-112.377
0
LINE
8
BLACK
6
CONTINUOUS
10
92.362
20
-112.377
11
92.3446
21
-112.2
0
LINE
8
BLACK
6
CONTINUOUS
10
92.3446
20
-112.2
11
92.362
21
-112.023
0
LINE
8
BLACK
6
CONTINUOUS
10
92.362
20
-112.023
11
92.4136
21
-111.854
0
LINE
8
BLACK
6
CONTINUOUS
10
92.4136
20
-111.854
11
92.4972
21
-111.697
0
LINE
8
BLACK
6
CONTINUOUS
10
92.4972
20
-111.697
11
92.5266
21
-111.661
0
LINE
8
BLACK
6
CONTINUOUS
10
92.5266
20
-111.661
11
92.6098
21
-111.56
0
LINE
8
BLACK
6
CONTINUOUS
10
92.6098
20
-111.56
11
92.7113
21
-111.477
0
LINE
8
BLACK
6
CONTINUOUS
10
92.7113
20
-111.477
11
92.747
21
-111.447
0
LINE
8
BLACK
6
CONTINUOUS
10
92.747
20
-111.447
11
92.9035
21
-111.364
0
LINE
8
BLACK
6
CONTINUOUS
10
92.9035
20
-111.364
11
93.0734
21
-111.312
0
LINE
8
BLACK
6
CONTINUOUS
10
93.0734
20
-111.312
11
93.1396
21
-111.306
0
LINE
8
BLACK
6
CONTINUOUS
10
93.1396
20
-111.306
11
93.2057
21
-111.299
0
LINE
8
BLACK
6
CONTINUOUS
10
93.2057
20
-111.299
11
93.5943
21
-111.299
0
LINE
8
BLACK
6
CONTINUOUS
10
93.5943
20
-111.299
11
93.6604
21
-111.306
0
LINE
8
BLACK
6
CONTINUOUS
10
94.3086
20
-108.803
11
94.3417
21
-108.813
0
LINE
8
BLACK
6
CONTINUOUS
10
94.3417
20
-108.813
11
94.3721
21
-108.829
0
LINE
8
BLACK
6
CONTINUOUS
10
94.3721
20
-108.829
11
94.3988
21
-108.851
0
LINE
8
BLACK
6
CONTINUOUS
10
94.3988
20
-108.851
11
94.4207
21
-108.878
0
LINE
8
BLACK
6
CONTINUOUS
10
94.4207
20
-108.878
11
94.437
21
-108.908
0
LINE
8
BLACK
6
CONTINUOUS
10
94.437
20
-108.908
11
94.447
21
-108.941
0
LINE
8
BLACK
6
CONTINUOUS
10
94.447
20
-108.941
11
94.451
21
-108.982
0
LINE
8
BLACK
6
CONTINUOUS
10
94.451
20
-108.982
11
94.451
21
-110.418
0
LINE
8
BLACK
6
CONTINUOUS
10
94.451
20
-110.418
11
94.447
21
-110.459
0
LINE
8
BLACK
6
CONTINUOUS
10
94.447
20
-110.459
11
94.437
21
-110.492
0
LINE
8
BLACK
6
CONTINUOUS
10
94.437
20
-110.492
11
94.4207
21
-110.522
0
LINE
8
BLACK
6
CONTINUOUS
10
94.4207
20
-110.522
11
94.3988
21
-110.549
0
LINE
8
BLACK
6
CONTINUOUS
10
94.3988
20
-110.549
11
94.3721
21
-110.571
0
LINE
8
BLACK
6
CONTINUOUS
10
94.3721
20
-110.571
11
94.3417
21
-110.587
0
LINE
8
BLACK
6
CONTINUOUS
10
94.3417
20
-110.587
11
94.3086
21
-110.597
0
LINE
8
BLACK
6
CONTINUOUS
10
94.3086
20
-110.597
11
94.2681
21
-110.601
0
LINE
8
BLACK
6
CONTINUOUS
10
94.2681
20
-110.601
11
92.5319
21
-110.601
0
LINE
8
BLACK
6
CONTINUOUS
10
92.5319
20
-110.601
11
92.4914
21
-110.597
0
LINE
8
BLACK
6
CONTINUOUS
10
92.4914
20
-110.597
11
92.4583
21
-110.587
0
LINE
8
BLACK
6
CONTINUOUS
10
92.4583
20
-110.587
11
92.4279
21
-110.571
0
LINE
8
BLACK
6
CONTINUOUS
10
92.4279
20
-110.571
11
92.4012
21
-110.549
0
LINE
8
BLACK
6
CONTINUOUS
10
92.4012
20
-110.549
11
92.3793
21
-110.522
0
LINE
8
BLACK
6
CONTINUOUS
10
92.3793
20
-110.522
11
92.363
21
-110.492
0
LINE
8
BLACK
6
CONTINUOUS
10
92.363
20
-110.492
11
92.353
21
-110.459
0
LINE
8
BLACK
6
CONTINUOUS
10
92.353
20
-110.459
11
92.349
21
-110.418
0
LINE
8
BLACK
6
CONTINUOUS
10
92.349
20
-110.418
11
92.349
21
-108.982
0
LINE
8
BLACK
6
CONTINUOUS
10
92.349
20
-108.982
11
92.353
21
-108.941
0
LINE
8
BLACK
6
CONTINUOUS
10
92.353
20
-108.941
11
92.363
21
-108.908
0
LINE
8
BLACK
6
CONTINUOUS
10
92.363
20
-108.908
11
92.3793
21
-108.878
0
LINE
8
BLACK
6
CONTINUOUS
10
92.3793
20
-108.878
11
92.4012
21
-108.851
0
LINE
8
BLACK
6
CONTINUOUS
10
92.4012
20
-108.851
11
92.4279
21
-108.829
0
LINE
8
BLACK
6
CONTINUOUS
10
92.4279
20
-108.829
11
92.4583
21
-108.813
0
LINE
8
BLACK
6
CONTINUOUS
10
92.4583
20
-108.813
11
92.4914
21
-108.803
0
LINE
8
BLACK
6
CONTINUOUS
10
92.4914
20
-108.803
11
92.5319
21
-108.799
0
LINE
8
BLACK
6
CONTINUOUS
10
92.5319
20
-108.799
11
94.2681
21
-108.799
0
LINE
8
BLACK
6
CONTINUOUS
10
94.2681
20
-108.799
11
94.3086
21
-108.803
0
LINE
8
BLACK
6
CONTINUOUS
10
63.1516
20
-105.879
11
63.303
21
-105.909
0
LINE
8
BLACK
6
CONTINUOUS
10
63.303
20
-105.909
11
63.517
21
-105.998
0
LINE
8
BLACK
6
CONTINUOUS
10
63.517
20
-105.998
11
63.517
21
-105.998
0
LINE
8
BLACK
6
CONTINUOUS
10
63.517
20
-105.998
11
63.7097
21
-106.127
0
LINE
8
BLACK
6
CONTINUOUS
10
63.7097
20
-106.127
11
63.8735
21
-106.29
0
LINE
8
BLACK
6
CONTINUOUS
10
63.8735
20
-106.29
11
63.9593
21
-106.419
0
LINE
8
BLACK
6
CONTINUOUS
10
63.9593
20
-106.419
11
64.0022
21
-106.483
0
LINE
8
BLACK
6
CONTINUOUS
10
64.0022
20
-106.483
11
64.0908
21
-106.697
0
LINE
8
BLACK
6
CONTINUOUS
10
64.0908
20
-106.697
11
64.136
21
-106.924
0
LINE
8
BLACK
6
CONTINUOUS
10
64.136
20
-106.924
11
64.136
21
-107.156
0
LINE
8
BLACK
6
CONTINUOUS
10
64.136
20
-107.156
11
64.0908
21
-107.383
0
LINE
8
BLACK
6
CONTINUOUS
10
64.0908
20
-107.383
11
64.0022
21
-107.597
0
LINE
8
BLACK
6
CONTINUOUS
10
64.0022
20
-107.597
11
64.0022
21
-107.597
0
LINE
8
BLACK
6
CONTINUOUS
10
64.0022
20
-107.597
11
63.8735
21
-107.79
0
LINE
8
BLACK
6
CONTINUOUS
10
63.8735
20
-107.79
11
63.7097
21
-107.953
0
LINE
8
BLACK
6
CONTINUOUS
10
63.7097
20
-107.953
11
63.5812
21
-108.039
0
LINE
8
BLACK
6
CONTINUOUS
10
63.5812
20
-108.039
11
63.517
21
-108.082
0
LINE
8
BLACK
6
CONTINUOUS
10
63.517
20
-108.082
11
63.303
21
-108.171
0
LINE
8
BLACK
6
CONTINUOUS
10
63.303
20
-108.171
11
63.1516
21
-108.201
0
LINE
8
BLACK
6
CONTINUOUS
10
63.1516
20
-108.201
11
63.0758
21
-108.216
0
LINE
8
BLACK
6
CONTINUOUS
10
63.0758
20
-108.216
11
62.8442
21
-108.216
0
LINE
8
BLACK
6
CONTINUOUS
10
62.8442
20
-108.216
11
62.7684
21
-108.201
0
LINE
8
BLACK
6
CONTINUOUS
10
62.7684
20
-108.201
11
62.617
21
-108.171
0
LINE
8
BLACK
6
CONTINUOUS
10
62.617
20
-108.171
11
62.403
21
-108.082
0
LINE
8
BLACK
6
CONTINUOUS
10
62.403
20
-108.082
11
62.3388
21
-108.039
0
LINE
8
BLACK
6
CONTINUOUS
10
62.3388
20
-108.039
11
62.2103
21
-107.953
0
LINE
8
BLACK
6
CONTINUOUS
10
62.2103
20
-107.953
11
62.0465
21
-107.79
0
LINE
8
BLACK
6
CONTINUOUS
10
62.0465
20
-107.79
11
61.9178
21
-107.597
0
LINE
8
BLACK
6
CONTINUOUS
10
61.9178
20
-107.597
11
61.9178
21
-107.597
0
LINE
8
BLACK
6
CONTINUOUS
10
61.9178
20
-107.597
11
61.8292
21
-107.383
0
LINE
8
BLACK
6
CONTINUOUS
10
61.8292
20
-107.383
11
61.784
21
-107.156
0
LINE
8
BLACK
6
CONTINUOUS
10
61.784
20
-107.156
11
61.784
21
-106.924
0
LINE
8
BLACK
6
CONTINUOUS
10
61.784
20
-106.924
11
61.8292
21
-106.697
0
LINE
8
BLACK
6
CONTINUOUS
10
61.8292
20
-106.697
11
61.9178
21
-106.483
0
LINE
8
BLACK
6
CONTINUOUS
10
61.9178
20
-106.483
11
61.9607
21
-106.419
0
LINE
8
BLACK
6
CONTINUOUS
10
61.9607
20
-106.419
11
62.0465
21
-106.29
0
LINE
8
BLACK
6
CONTINUOUS
10
62.0465
20
-106.29
11
62.2103
21
-106.127
0
LINE
8
BLACK
6
CONTINUOUS
10
62.2103
20
-106.127
11
62.403
21
-105.998
0
LINE
8
BLACK
6
CONTINUOUS
10
62.403
20
-105.998
11
62.403
21
-105.998
0
LINE
8
BLACK
6
CONTINUOUS
10
62.403
20
-105.998
11
62.617
21
-105.909
0
LINE
8
BLACK
6
CONTINUOUS
10
62.617
20
-105.909
11
62.7684
21
-105.879
0
LINE
8
BLACK
6
CONTINUOUS
10
62.7684
20
-105.879
11
62.8442
21
-105.864
0
LINE
8
BLACK
6
CONTINUOUS
10
62.8442
20
-105.864
11
63.0758
21
-105.864
0
LINE
8
BLACK
6
CONTINUOUS
10
63.0758
20
-105.864
11
63.1516
21
-105.879
0
LINE
8
BLACK
6
CONTINUOUS
10
68.2316
20
-105.879
11
68.383
21
-105.909
0
LINE
8
BLACK
6
CONTINUOUS
10
68.383
20
-105.909
11
68.597
21
-105.998
0
LINE
8
BLACK
6
CONTINUOUS
10
68.597
20
-105.998
11
68.597
21
-105.998
0
LINE
8
BLACK
6
CONTINUOUS
10
68.597
20
-105.998
11
68.7897
21
-106.127
0
LINE
8
BLACK
6
CONTINUOUS
10
68.7897
20
-106.127
11
68.9535
21
-106.29
0
LINE
8
BLACK
6
CONTINUOUS
10
68.9535
20
-106.29
11
69.0393
21
-106.419
0
LINE
8
BLACK
6
CONTINUOUS
10
69.0393
20
-106.419
11
69.0822
21
-106.483
0
LINE
8
BLACK
6
CONTINUOUS
10
69.0822
20
-106.483
11
69.1708
21
-106.697
0
LINE
8
BLACK
6
CONTINUOUS
10
69.1708
20
-106.697
11
69.216
21
-106.924
0
LINE
8
BLACK
6
CONTINUOUS
10
69.216
20
-106.924
11
69.216
21
-107.156
0
LINE
8
BLACK
6
CONTINUOUS
10
69.216
20
-107.156
11
69.1708
21
-107.383
0
LINE
8
BLACK
6
CONTINUOUS
10
69.1708
20
-107.383
11
69.0822
21
-107.597
0
LINE
8
BLACK
6
CONTINUOUS
10
69.0822
20
-107.597
11
69.0822
21
-107.597
0
LINE
8
BLACK
6
CONTINUOUS
10
69.0822
20
-107.597
11
68.9535
21
-107.79
0
LINE
8
BLACK
6
CONTINUOUS
10
68.9535
20
-107.79
11
68.7897
21
-107.953
0
LINE
8
BLACK
6
CONTINUOUS
10
68.7897
20
-107.953
11
68.6612
21
-108.039
0
LINE
8
BLACK
6
CONTINUOUS
10
68.6612
20
-108.039
11
68.597
21
-108.082
0
LINE
8
BLACK
6
CONTINUOUS
10
68.597
20
-108.082
11
68.383
21
-108.171
0
LINE
8
BLACK
6
CONTINUOUS
10
68.383
20
-108.171
11
68.2316
21
-108.201
0
LINE
8
BLACK
6
CONTINUOUS
10
68.2316
20
-108.201
11
68.1558
21
-108.216
0
LINE
8
BLACK
6
CONTINUOUS
10
68.1558
20
-108.216
11
67.9242
21
-108.216
0
LINE
8
BLACK
6
CONTINUOUS
10
67.9242
20
-108.216
11
67.8484
21
-108.201
0
LINE
8
BLACK
6
CONTINUOUS
10
67.8484
20
-108.201
11
67.697
21
-108.171
0
LINE
8
BLACK
6
CONTINUOUS
10
67.697
20
-108.171
11
67.483
21
-108.082
0
LINE
8
BLACK
6
CONTINUOUS
10
67.483
20
-108.082
11
67.4188
21
-108.039
0
LINE
8
BLACK
6
CONTINUOUS
10
67.4188
20
-108.039
11
67.2903
21
-107.953
0
LINE
8
BLACK
6
CONTINUOUS
10
67.2903
20
-107.953
11
67.1265
21
-107.79
0
LINE
8
BLACK
6
CONTINUOUS
10
67.1265
20
-107.79
11
66.9978
21
-107.597
0
LINE
8
BLACK
6
CONTINUOUS
10
66.9978
20
-107.597
11
66.9978
21
-107.597
0
LINE
8
BLACK
6
CONTINUOUS
10
66.9978
20
-107.597
11
66.9092
21
-107.383
0
LINE
8
BLACK
6
CONTINUOUS
10
66.9092
20
-107.383
11
66.864
21
-107.156
0
LINE
8
BLACK
6
CONTINUOUS
10
66.864
20
-107.156
11
66.864
21
-106.924
0
LINE
8
BLACK
6
CONTINUOUS
10
66.864
20
-106.924
11
66.9092
21
-106.697
0
LINE
8
BLACK
6
CONTINUOUS
10
66.9092
20
-106.697
11
66.9978
21
-106.483
0
LINE
8
BLACK
6
CONTINUOUS
10
66.9978
20
-106.483
11
67.0407
21
-106.419
0
LINE
8
BLACK
6
CONTINUOUS
10
67.0407
20
-106.419
11
67.1265
21
-106.29
0
LINE
8
BLACK
6
CONTINUOUS
10
67.1265
20
-106.29
11
67.2903
21
-106.127
0
LINE
8
BLACK
6
CONTINUOUS
10
67.2903
20
-106.127
11
67.483
21
-105.998
0
LINE
8
BLACK
6
CONTINUOUS
10
67.483
20
-105.998
11
67.483
21
-105.998
0
LINE
8
BLACK
6
CONTINUOUS
10
67.483
20
-105.998
11
67.697
21
-105.909
0
LINE
8
BLACK
6
CONTINUOUS
10
67.697
20
-105.909
11
67.8484
21
-105.879
0
LINE
8
BLACK
6
CONTINUOUS
10
67.8484
20
-105.879
11
67.9242
21
-105.864
0
LINE
8
BLACK
6
CONTINUOUS
10
67.9242
20
-105.864
11
68.1558
21
-105.864
0
LINE
8
BLACK
6
CONTINUOUS
10
68.1558
20
-105.864
11
68.2316
21
-105.879
0
LINE
8
BLACK
6
CONTINUOUS
10
65.6753
20
-103.438
11
65.8139
21
-103.465
0
LINE
8
BLACK
6
CONTINUOUS
10
65.8139
20
-103.465
11
66.0097
21
-103.546
0
LINE
8
BLACK
6
CONTINUOUS
10
66.0097
20
-103.546
11
66.1859
21
-103.664
0
LINE
8
BLACK
6
CONTINUOUS
10
66.1859
20
-103.664
11
66.3358
21
-103.814
0
LINE
8
BLACK
6
CONTINUOUS
10
66.3358
20
-103.814
11
66.4535
21
-103.99
0
LINE
8
BLACK
6
CONTINUOUS
10
66.4535
20
-103.99
11
66.5346
21
-104.186
0
LINE
8
BLACK
6
CONTINUOUS
10
66.5346
20
-104.186
11
66.576
21
-104.394
0
LINE
8
BLACK
6
CONTINUOUS
10
66.576
20
-104.394
11
66.576
21
-104.606
0
LINE
8
BLACK
6
CONTINUOUS
10
66.576
20
-104.606
11
66.5346
21
-104.814
0
LINE
8
BLACK
6
CONTINUOUS
10
66.5346
20
-104.814
11
66.4535
21
-105.01
0
LINE
8
BLACK
6
CONTINUOUS
10
66.4535
20
-105.01
11
66.3358
21
-105.186
0
LINE
8
BLACK
6
CONTINUOUS
10
66.3358
20
-105.186
11
66.1859
21
-105.336
0
LINE
8
BLACK
6
CONTINUOUS
10
66.1859
20
-105.336
11
66.0097
21
-105.454
0
LINE
8
BLACK
6
CONTINUOUS
10
66.0097
20
-105.454
11
65.8139
21
-105.535
0
LINE
8
BLACK
6
CONTINUOUS
10
65.8139
20
-105.535
11
65.6753
21
-105.562
0
LINE
8
BLACK
6
CONTINUOUS
10
65.6753
20
-105.562
11
65.606
21
-105.576
0
LINE
8
BLACK
6
CONTINUOUS
10
65.606
20
-105.576
11
65.394
21
-105.576
0
LINE
8
BLACK
6
CONTINUOUS
10
65.394
20
-105.576
11
65.3247
21
-105.562
0
LINE
8
BLACK
6
CONTINUOUS
10
65.3247
20
-105.562
11
65.1861
21
-105.535
0
LINE
8
BLACK
6
CONTINUOUS
10
65.1861
20
-105.535
11
64.9903
21
-105.454
0
LINE
8
BLACK
6
CONTINUOUS
10
64.9903
20
-105.454
11
64.8141
21
-105.336
0
LINE
8
BLACK
6
CONTINUOUS
10
64.8141
20
-105.336
11
64.6642
21
-105.186
0
LINE
8
BLACK
6
CONTINUOUS
10
64.6642
20
-105.186
11
64.5465
21
-105.01
0
LINE
8
BLACK
6
CONTINUOUS
10
64.5465
20
-105.01
11
64.4654
21
-104.814
0
LINE
8
BLACK
6
CONTINUOUS
10
64.4654
20
-104.814
11
64.424
21
-104.606
0
LINE
8
BLACK
6
CONTINUOUS
10
64.424
20
-104.606
11
64.424
21
-104.394
0
LINE
8
BLACK
6
CONTINUOUS
10
64.424
20
-104.394
11
64.4654
21
-104.186
0
LINE
8
BLACK
6
CONTINUOUS
10
64.4654
20
-104.186
11
64.5465
21
-103.99
0
LINE
8
BLACK
6
CONTINUOUS
10
64.5465
20
-103.99
11
64.6642
21
-103.814
0
LINE
8
BLACK
6
CONTINUOUS
10
64.6642
20
-103.814
11
64.8141
21
-103.664
0
LINE
8
BLACK
6
CONTINUOUS
10
64.8141
20
-103.664
11
64.9903
21
-103.546
0
LINE
8
BLACK
6
CONTINUOUS
10
64.9903
20
-103.546
11
65.1861
21
-103.465
0
LINE
8
BLACK
6
CONTINUOUS
10
65.1861
20
-103.465
11
65.3247
21
-103.438
0
LINE
8
BLACK
6
CONTINUOUS
10
65.3247
20
-103.438
11
65.394
21
-103.424
0
LINE
8
BLACK
6
CONTINUOUS
10
65.394
20
-103.424
11
65.606
21
-103.424
0
LINE
8
BLACK
6
CONTINUOUS
10
65.606
20
-103.424
11
65.6753
21
-103.438
0
LINE
8
BLACK
6
CONTINUOUS
10
68.2316
20
-100.799
11
68.383
21
-100.829
0
LINE
8
BLACK
6
CONTINUOUS
10
68.383
20
-100.829
11
68.597
21
-100.918
0
LINE
8
BLACK
6
CONTINUOUS
10
68.597
20
-100.918
11
68.597
21
-100.918
0
LINE
8
BLACK
6
CONTINUOUS
10
68.597
20
-100.918
11
68.7897
21
-101.047
0
LINE
8
BLACK
6
CONTINUOUS
10
68.7897
20
-101.047
11
68.9535
21
-101.21
0
LINE
8
BLACK
6
CONTINUOUS
10
68.9535
20
-101.21
11
69.0393
21
-101.339
0
LINE
8
BLACK
6
CONTINUOUS
10
69.0393
20
-101.339
11
69.0822
21
-101.403
0
LINE
8
BLACK
6
CONTINUOUS
10
69.0822
20
-101.403
11
69.1708
21
-101.617
0
LINE
8
BLACK
6
CONTINUOUS
10
69.1708
20
-101.617
11
69.216
21
-101.844
0
LINE
8
BLACK
6
CONTINUOUS
10
69.216
20
-101.844
11
69.216
21
-102.076
0
LINE
8
BLACK
6
CONTINUOUS
10
69.216
20
-102.076
11
69.1708
21
-102.303
0
LINE
8
BLACK
6
CONTINUOUS
10
69.1708
20
-102.303
11
69.0822
21
-102.517
0
LINE
8
BLACK
6
CONTINUOUS
10
69.0822
20
-102.517
11
69.0822
21
-102.517
0
LINE
8
BLACK
6
CONTINUOUS
10
69.0822
20
-102.517
11
68.9535
21
-102.71
0
LINE
8
BLACK
6
CONTINUOUS
10
68.9535
20
-102.71
11
68.7897
21
-102.873
0
LINE
8
BLACK
6
CONTINUOUS
10
68.7897
20
-102.873
11
68.6612
21
-102.959
0
LINE
8
BLACK
6
CONTINUOUS
10
68.6612
20
-102.959
11
68.597
21
-103.002
0
LINE
8
BLACK
6
CONTINUOUS
10
68.597
20
-103.002
11
68.383
21
-103.091
0
LINE
8
BLACK
6
CONTINUOUS
10
68.383
20
-103.091
11
68.2316
21
-103.121
0
LINE
8
BLACK
6
CONTINUOUS
10
68.2316
20
-103.121
11
68.1558
21
-103.136
0
LINE
8
BLACK
6
CONTINUOUS
10
68.1558
20
-103.136
11
67.9242
21
-103.136
0
LINE
8
BLACK
6
CONTINUOUS
10
67.9242
20
-103.136
11
67.8484
21
-103.121
0
LINE
8
BLACK
6
CONTINUOUS
10
67.8484
20
-103.121
11
67.697
21
-103.091
0
LINE
8
BLACK
6
CONTINUOUS
10
67.697
20
-103.091
11
67.483
21
-103.002
0
LINE
8
BLACK
6
CONTINUOUS
10
67.483
20
-103.002
11
67.4188
21
-102.959
0
LINE
8
BLACK
6
CONTINUOUS
10
67.4188
20
-102.959
11
67.2903
21
-102.873
0
LINE
8
BLACK
6
CONTINUOUS
10
67.2903
20
-102.873
11
67.1265
21
-102.71
0
LINE
8
BLACK
6
CONTINUOUS
10
67.1265
20
-102.71
11
66.9978
21
-102.517
0
LINE
8
BLACK
6
CONTINUOUS
10
66.9978
20
-102.517
11
66.9978
21
-102.517
0
LINE
8
BLACK
6
CONTINUOUS
10
66.9978
20
-102.517
11
66.9092
21
-102.303
0
LINE
8
BLACK
6
CONTINUOUS
10
66.9092
20
-102.303
11
66.864
21
-102.076
0
LINE
8
BLACK
6
CONTINUOUS
10
66.864
20
-102.076
11
66.864
21
-101.844
0
LINE
8
BLACK
6
CONTINUOUS
10
66.864
20
-101.844
11
66.9092
21
-101.617
0
LINE
8
BLACK
6
CONTINUOUS
10
66.9092
20
-101.617
11
66.9978
21
-101.403
0
LINE
8
BLACK
6
CONTINUOUS
10
66.9978
20
-101.403
11
67.0407
21
-101.339
0
LINE
8
BLACK
6
CONTINUOUS
10
67.0407
20
-101.339
11
67.1265
21
-101.21
0
LINE
8
BLACK
6
CONTINUOUS
10
67.1265
20
-101.21
11
67.2903
21
-101.047
0
LINE
8
BLACK
6
CONTINUOUS
10
67.2903
20
-101.047
11
67.483
21
-100.918
0
LINE
8
BLACK
6
CONTINUOUS
10
67.483
20
-100.918
11
67.483
21
-100.918
0
LINE
8
BLACK
6
CONTINUOUS
10
67.483
20
-100.918
11
67.697
21
-100.829
0
LINE
8
BLACK
6
CONTINUOUS
10
67.697
20
-100.829
11
67.8484
21
-100.799
0
LINE
8
BLACK
6
CONTINUOUS
10
67.8484
20
-100.799
11
67.9242
21
-100.784
0
LINE
8
BLACK
6
CONTINUOUS
10
67.9242
20
-100.784
11
68.1558
21
-100.784
0
LINE
8
BLACK
6
CONTINUOUS
10
68.1558
20
-100.784
11
68.2316
21
-100.799
0
LINE
8
BLACK
6
CONTINUOUS
10
63.1516
20
-100.799
11
63.303
21
-100.829
0
LINE
8
BLACK
6
CONTINUOUS
10
63.303
20
-100.829
11
63.517
21
-100.918
0
LINE
8
BLACK
6
CONTINUOUS
10
63.517
20
-100.918
11
63.517
21
-100.918
0
LINE
8
BLACK
6
CONTINUOUS
10
63.517
20
-100.918
11
63.7097
21
-101.047
0
LINE
8
BLACK
6
CONTINUOUS
10
63.7097
20
-101.047
11
63.8735
21
-101.21
0
LINE
8
BLACK
6
CONTINUOUS
10
63.8735
20
-101.21
11
63.9593
21
-101.339
0
LINE
8
BLACK
6
CONTINUOUS
10
63.9593
20
-101.339
11
64.0022
21
-101.403
0
LINE
8
BLACK
6
CONTINUOUS
10
64.0022
20
-101.403
11
64.0908
21
-101.617
0
LINE
8
BLACK
6
CONTINUOUS
10
64.0908
20
-101.617
11
64.136
21
-101.844
0
LINE
8
BLACK
6
CONTINUOUS
10
64.136
20
-101.844
11
64.136
21
-102.076
0
LINE
8
BLACK
6
CONTINUOUS
10
64.136
20
-102.076
11
64.0908
21
-102.303
0
LINE
8
BLACK
6
CONTINUOUS
10
64.0908
20
-102.303
11
64.0022
21
-102.517
0
LINE
8
BLACK
6
CONTINUOUS
10
64.0022
20
-102.517
11
64.0022
21
-102.517
0
LINE
8
BLACK
6
CONTINUOUS
10
64.0022
20
-102.517
11
63.8735
21
-102.71
0
LINE
8
BLACK
6
CONTINUOUS
10
63.8735
20
-102.71
11
63.7097
21
-102.873
0
LINE
8
BLACK
6
CONTINUOUS
10
63.7097
20
-102.873
11
63.5812
21
-102.959
0
LINE
8
BLACK
6
CONTINUOUS
10
63.5812
20
-102.959
11
63.517
21
-103.002
0
LINE
8
BLACK
6
CONTINUOUS
10
63.517
20
-103.002
11
63.303
21
-103.091
0
LINE
8
BLACK
6
CONTINUOUS
10
63.303
20
-103.091
11
63.1516
21
-103.121
0
LINE
8
BLACK
6
CONTINUOUS
10
63.1516
20
-103.121
11
63.0758
21
-103.136
0
LINE
8
BLACK
6
CONTINUOUS
10
63.0758
20
-103.136
11
62.8442
21
-103.136
0
LINE
8
BLACK
6
CONTINUOUS
10
62.8442
20
-103.136
11
62.7684
21
-103.121
0
LINE
8
BLACK
6
CONTINUOUS
10
62.7684
20
-103.121
11
62.617
21
-103.091
0
LINE
8
BLACK
6
CONTINUOUS
10
62.617
20
-103.091
11
62.403
21
-103.002
0
LINE
8
BLACK
6
CONTINUOUS
10
62.403
20
-103.002
11
62.3388
21
-102.959
0
LINE
8
BLACK
6
CONTINUOUS
10
62.3388
20
-102.959
11
62.2103
21
-102.873
0
LINE
8
BLACK
6
CONTINUOUS
10
62.2103
20
-102.873
11
62.0465
21
-102.71
0
LINE
8
BLACK
6
CONTINUOUS
10
62.0465
20
-102.71
11
61.9178
21
-102.517
0
LINE
8
BLACK
6
CONTINUOUS
10
61.9178
20
-102.517
11
61.9178
21
-102.517
0
LINE
8
BLACK
6
CONTINUOUS
10
61.9178
20
-102.517
11
61.8292
21
-102.303
0
LINE
8
BLACK
6
CONTINUOUS
10
61.8292
20
-102.303
11
61.784
21
-102.076
0
LINE
8
BLACK
6
CONTINUOUS
10
61.784
20
-102.076
11
61.784
21
-101.844
0
LINE
8
BLACK
6
CONTINUOUS
10
61.784
20
-101.844
11
61.8292
21
-101.617
0
LINE
8
BLACK
6
CONTINUOUS
10
61.8292
20
-101.617
11
61.9178
21
-101.403
0
LINE
8
BLACK
6
CONTINUOUS
10
61.9178
20
-101.403
11
61.9607
21
-101.339
0
LINE
8
BLACK
6
CONTINUOUS
10
61.9607
20
-101.339
11
62.0465
21
-101.21
0
LINE
8
BLACK
6
CONTINUOUS
10
62.0465
20
-101.21
11
62.2103
21
-101.047
0
LINE
8
BLACK
6
CONTINUOUS
10
62.2103
20
-101.047
11
62.403
21
-100.918
0
LINE
8
BLACK
6
CONTINUOUS
10
62.403
20
-100.918
11
62.403
21
-100.918
0
LINE
8
BLACK
6
CONTINUOUS
10
62.403
20
-100.918
11
62.617
21
-100.829
0
LINE
8
BLACK
6
CONTINUOUS
10
62.617
20
-100.829
11
62.7684
21
-100.799
0
LINE
8
BLACK
6
CONTINUOUS
10
62.7684
20
-100.799
11
62.8442
21
-100.784
0
LINE
8
BLACK
6
CONTINUOUS
10
62.8442
20
-100.784
11
63.0758
21
-100.784
0
LINE
8
BLACK
6
CONTINUOUS
10
63.0758
20
-100.784
11
63.1516
21
-100.799
0
LINE
8
BLACK
6
CONTINUOUS
10
85.001
20
-95.901
11
83.199
21
-95.901
0
LINE
8
BLACK
6
CONTINUOUS
10
83.199
20
-95.901
11
83.199
21
-94.099
0
LINE
8
BLACK
6
CONTINUOUS
10
83.199
20
-94.099
11
85.001
21
-94.099
0
LINE
8
BLACK
6
CONTINUOUS
10
85.001
20
-94.099
11
85.001
21
-95.901
0
LINE
8
BLACK
6
CONTINUOUS
10
86.7135
20
-94.1039
11
86.8628
21
-94.1336
0
LINE
8
BLACK
6
CONTINUOUS
10
86.8628
20
-94.1336
11
87.0268
21
-94.2015
0
LINE
8
BLACK
6
CONTINUOUS
10
87.0268
20
-94.2015
11
87.1744
21
-94.3001
0
LINE
8
BLACK
6
CONTINUOUS
10
87.1744
20
-94.3001
11
87.2999
21
-94.4256
0
LINE
8
BLACK
6
CONTINUOUS
10
87.2999
20
-94.4256
11
87.3985
21
-94.5732
0
LINE
8
BLACK
6
CONTINUOUS
10
87.3985
20
-94.5732
11
87.4664
21
-94.7372
0
LINE
8
BLACK
6
CONTINUOUS
10
87.4664
20
-94.7372
11
87.501
21
-94.9113
0
LINE
8
BLACK
6
CONTINUOUS
10
87.501
20
-94.9113
11
87.501
21
-95.0887
0
LINE
8
BLACK
6
CONTINUOUS
10
87.501
20
-95.0887
11
87.4664
21
-95.2628
0
LINE
8
BLACK
6
CONTINUOUS
10
87.4664
20
-95.2628
11
87.3985
21
-95.4268
0
LINE
8
BLACK
6
CONTINUOUS
10
87.3985
20
-95.4268
11
87.2999
21
-95.5744
0
LINE
8
BLACK
6
CONTINUOUS
10
87.2999
20
-95.5744
11
87.1744
21
-95.6999
0
LINE
8
BLACK
6
CONTINUOUS
10
87.1744
20
-95.6999
11
87.0268
21
-95.7985
0
LINE
8
BLACK
6
CONTINUOUS
10
87.0268
20
-95.7985
11
86.8628
21
-95.8664
0
LINE
8
BLACK
6
CONTINUOUS
10
86.8628
20
-95.8664
11
86.7135
21
-95.8961
0
LINE
8
BLACK
6
CONTINUOUS
10
86.7135
20
-95.8961
11
86.6887
21
-95.901
0
LINE
8
BLACK
6
CONTINUOUS
10
86.6887
20
-95.901
11
86.5113
21
-95.901
0
LINE
8
BLACK
6
CONTINUOUS
10
86.5113
20
-95.901
11
86.4865
21
-95.8961
0
LINE
8
BLACK
6
CONTINUOUS
10
86.4865
20
-95.8961
11
86.3372
21
-95.8664
0
LINE
8
BLACK
6
CONTINUOUS
10
86.3372
20
-95.8664
11
86.1732
21
-95.7985
0
LINE
8
BLACK
6
CONTINUOUS
10
86.1732
20
-95.7985
11
86.0256
21
-95.6999
0
LINE
8
BLACK
6
CONTINUOUS
10
86.0256
20
-95.6999
11
85.9001
21
-95.5744
0
LINE
8
BLACK
6
CONTINUOUS
10
85.9001
20
-95.5744
11
85.8015
21
-95.4268
0
LINE
8
BLACK
6
CONTINUOUS
10
85.8015
20
-95.4268
11
85.7336
21
-95.2628
0
LINE
8
BLACK
6
CONTINUOUS
10
85.7336
20
-95.2628
11
85.699
21
-95.0887
0
LINE
8
BLACK
6
CONTINUOUS
10
85.699
20
-95.0887
11
85.699
21
-94.9113
0
LINE
8
BLACK
6
CONTINUOUS
10
85.699
20
-94.9113
11
85.7336
21
-94.7372
0
LINE
8
BLACK
6
CONTINUOUS
10
85.7336
20
-94.7372
11
85.8015
21
-94.5732
0
LINE
8
BLACK
6
CONTINUOUS
10
85.8015
20
-94.5732
11
85.9001
21
-94.4256
0
LINE
8
BLACK
6
CONTINUOUS
10
85.9001
20
-94.4256
11
86.0256
21
-94.3001
0
LINE
8
BLACK
6
CONTINUOUS
10
86.0256
20
-94.3001
11
86.1732
21
-94.2015
0
LINE
8
BLACK
6
CONTINUOUS
10
86.1732
20
-94.2015
11
86.3372
21
-94.1336
0
LINE
8
BLACK
6
CONTINUOUS
10
86.3372
20
-94.1336
11
86.4865
21
-94.1039
0
LINE
8
BLACK
6
CONTINUOUS
10
86.4865
20
-94.1039
11
86.5113
21
-94.099
0
LINE
8
BLACK
6
CONTINUOUS
10
86.5113
20
-94.099
11
86.6887
21
-94.099
0
LINE
8
BLACK
6
CONTINUOUS
10
86.6887
20
-94.099
11
86.7135
21
-94.1039
0
LINE
8
BLACK
6
CONTINUOUS
10
89.2135
20
-94.1039
11
89.3628
21
-94.1336
0
LINE
8
BLACK
6
CONTINUOUS
10
89.3628
20
-94.1336
11
89.5268
21
-94.2015
0
LINE
8
BLACK
6
CONTINUOUS
10
89.5268
20
-94.2015
11
89.6744
21
-94.3001
0
LINE
8
BLACK
6
CONTINUOUS
10
89.6744
20
-94.3001
11
89.7999
21
-94.4256
0
LINE
8
BLACK
6
CONTINUOUS
10
89.7999
20
-94.4256
11
89.8985
21
-94.5732
0
LINE
8
BLACK
6
CONTINUOUS
10
89.8985
20
-94.5732
11
89.9664
21
-94.7372
0
LINE
8
BLACK
6
CONTINUOUS
10
89.9664
20
-94.7372
11
90.001
21
-94.9113
0
LINE
8
BLACK
6
CONTINUOUS
10
90.001
20
-94.9113
11
90.001
21
-95.0887
0
LINE
8
BLACK
6
CONTINUOUS
10
90.001
20
-95.0887
11
89.9664
21
-95.2628
0
LINE
8
BLACK
6
CONTINUOUS
10
89.9664
20
-95.2628
11
89.8985
21
-95.4268
0
LINE
8
BLACK
6
CONTINUOUS
10
89.8985
20
-95.4268
11
89.7999
21
-95.5744
0
LINE
8
BLACK
6
CONTINUOUS
10
89.7999
20
-95.5744
11
89.6744
21
-95.6999
0
LINE
8
BLACK
6
CONTINUOUS
10
89.6744
20
-95.6999
11
89.5268
21
-95.7985
0
LINE
8
BLACK
6
CONTINUOUS
10
89.5268
20
-95.7985
11
89.3628
21
-95.8664
0
LINE
8
BLACK
6
CONTINUOUS
10
89.3628
20
-95.8664
11
89.2135
21
-95.8961
0
LINE
8
BLACK
6
CONTINUOUS
10
89.2135
20
-95.8961
11
89.1887
21
-95.901
0
LINE
8
BLACK
6
CONTINUOUS
10
89.1887
20
-95.901
11
89.0113
21
-95.901
0
LINE
8
BLACK
6
CONTINUOUS
10
89.0113
20
-95.901
11
88.9865
21
-95.8961
0
LINE
8
BLACK
6
CONTINUOUS
10
88.9865
20
-95.8961
11
88.8372
21
-95.8664
0
LINE
8
BLACK
6
CONTINUOUS
10
88.8372
20
-95.8664
11
88.6732
21
-95.7985
0
LINE
8
BLACK
6
CONTINUOUS
10
88.6732
20
-95.7985
11
88.5256
21
-95.6999
0
LINE
8
BLACK
6
CONTINUOUS
10
88.5256
20
-95.6999
11
88.4001
21
-95.5744
0
LINE
8
BLACK
6
CONTINUOUS
10
88.4001
20
-95.5744
11
88.3015
21
-95.4268
0
LINE
8
BLACK
6
CONTINUOUS
10
88.3015
20
-95.4268
11
88.2336
21
-95.2628
0
LINE
8
BLACK
6
CONTINUOUS
10
88.2336
20
-95.2628
11
88.199
21
-95.0887
0
LINE
8
BLACK
6
CONTINUOUS
10
88.199
20
-95.0887
11
88.199
21
-94.9113
0
LINE
8
BLACK
6
CONTINUOUS
10
88.199
20
-94.9113
11
88.2336
21
-94.7372
0
LINE
8
BLACK
6
CONTINUOUS
10
88.2336
20
-94.7372
11
88.3015
21
-94.5732
0
LINE
8
BLACK
6
CONTINUOUS
10
88.3015
20
-94.5732
11
88.4001
21
-94.4256
0
LINE
8
BLACK
6
CONTINUOUS
10
88.4001
20
-94.4256
11
88.5256
21
-94.3001
0
LINE
8
BLACK
6
CONTINUOUS
10
88.5256
20
-94.3001
11
88.6732
21
-94.2015
0
LINE
8
BLACK
6
CONTINUOUS
10
88.6732
20
-94.2015
11
88.8372
21
-94.1336
0
LINE
8
BLACK
6
CONTINUOUS
10
88.8372
20
-94.1336
11
88.9865
21
-94.1039
0
LINE
8
BLACK
6
CONTINUOUS
10
88.9865
20
-94.1039
11
89.0113
21
-94.099
0
LINE
8
BLACK
6
CONTINUOUS
10
89.0113
20
-94.099
11
89.1887
21
-94.099
0
LINE
8
BLACK
6
CONTINUOUS
10
89.1887
20
-94.099
11
89.2135
21
-94.1039
0
LINE
8
BLACK
6
CONTINUOUS
10
114.214
20
-93.7039
11
114.363
21
-93.7336
0
LINE
8
BLACK
6
CONTINUOUS
10
114.363
20
-93.7336
11
114.527
21
-93.8015
0
LINE
8
BLACK
6
CONTINUOUS
10
114.527
20
-93.8015
11
114.674
21
-93.9001
0
LINE
8
BLACK
6
CONTINUOUS
10
114.674
20
-93.9001
11
114.8
21
-94.0256
0
LINE
8
BLACK
6
CONTINUOUS
10
114.8
20
-94.0256
11
114.898
21
-94.1732
0
LINE
8
BLACK
6
CONTINUOUS
10
114.898
20
-94.1732
11
114.966
21
-94.3372
0
LINE
8
BLACK
6
CONTINUOUS
10
114.966
20
-94.3372
11
115.001
21
-94.5113
0
LINE
8
BLACK
6
CONTINUOUS
10
115.001
20
-94.5113
11
115.001
21
-94.6887
0
LINE
8
BLACK
6
CONTINUOUS
10
115.001
20
-94.6887
11
114.966
21
-94.8628
0
LINE
8
BLACK
6
CONTINUOUS
10
114.966
20
-94.8628
11
114.898
21
-95.0268
0
LINE
8
BLACK
6
CONTINUOUS
10
114.898
20
-95.0268
11
114.8
21
-95.1744
0
LINE
8
BLACK
6
CONTINUOUS
10
114.8
20
-95.1744
11
114.674
21
-95.2999
0
LINE
8
BLACK
6
CONTINUOUS
10
114.674
20
-95.2999
11
114.527
21
-95.3985
0
LINE
8
BLACK
6
CONTINUOUS
10
114.527
20
-95.3985
11
114.363
21
-95.4664
0
LINE
8
BLACK
6
CONTINUOUS
10
114.363
20
-95.4664
11
114.214
21
-95.4961
0
LINE
8
BLACK
6
CONTINUOUS
10
114.214
20
-95.4961
11
114.189
21
-95.501
0
LINE
8
BLACK
6
CONTINUOUS
10
114.189
20
-95.501
11
114.011
21
-95.501
0
LINE
8
BLACK
6
CONTINUOUS
10
114.011
20
-95.501
11
113.986
21
-95.4961
0
LINE
8
BLACK
6
CONTINUOUS
10
113.986
20
-95.4961
11
113.837
21
-95.4664
0
LINE
8
BLACK
6
CONTINUOUS
10
113.837
20
-95.4664
11
113.673
21
-95.3985
0
LINE
8
BLACK
6
CONTINUOUS
10
113.673
20
-95.3985
11
113.526
21
-95.2999
0
LINE
8
BLACK
6
CONTINUOUS
10
113.526
20
-95.2999
11
113.4
21
-95.1744
0
LINE
8
BLACK
6
CONTINUOUS
10
113.4
20
-95.1744
11
113.302
21
-95.0268
0
LINE
8
BLACK
6
CONTINUOUS
10
113.302
20
-95.0268
11
113.234
21
-94.8628
0
LINE
8
BLACK
6
CONTINUOUS
10
113.234
20
-94.8628
11
113.199
21
-94.6887
0
LINE
8
BLACK
6
CONTINUOUS
10
113.199
20
-94.6887
11
113.199
21
-94.5113
0
LINE
8
BLACK
6
CONTINUOUS
10
113.199
20
-94.5113
11
113.234
21
-94.3372
0
LINE
8
BLACK
6
CONTINUOUS
10
113.234
20
-94.3372
11
113.302
21
-94.1732
0
LINE
8
BLACK
6
CONTINUOUS
10
113.302
20
-94.1732
11
113.4
21
-94.0256
0
LINE
8
BLACK
6
CONTINUOUS
10
113.4
20
-94.0256
11
113.526
21
-93.9001
0
LINE
8
BLACK
6
CONTINUOUS
10
113.526
20
-93.9001
11
113.673
21
-93.8015
0
LINE
8
BLACK
6
CONTINUOUS
10
113.673
20
-93.8015
11
113.837
21
-93.7336
0
LINE
8
BLACK
6
CONTINUOUS
10
113.837
20
-93.7336
11
113.986
21
-93.7039
0
LINE
8
BLACK
6
CONTINUOUS
10
113.986
20
-93.7039
11
114.011
21
-93.699
0
LINE
8
BLACK
6
CONTINUOUS
10
114.011
20
-93.699
11
114.189
21
-93.699
0
LINE
8
BLACK
6
CONTINUOUS
10
114.189
20
-93.699
11
114.214
21
-93.7039
0
LINE
8
BLACK
6
CONTINUOUS
10
110.001
20
-95.501
11
108.199
21
-95.501
0
LINE
8
BLACK
6
CONTINUOUS
10
108.199
20
-95.501
11
108.199
21
-93.699
0
LINE
8
BLACK
6
CONTINUOUS
10
108.199
20
-93.699
11
110.001
21
-93.699
0
LINE
8
BLACK
6
CONTINUOUS
10
110.001
20
-93.699
11
110.001
21
-95.501
0
LINE
8
BLACK
6
CONTINUOUS
10
111.714
20
-93.7039
11
111.863
21
-93.7336
0
LINE
8
BLACK
6
CONTINUOUS
10
111.863
20
-93.7336
11
112.027
21
-93.8015
0
LINE
8
BLACK
6
CONTINUOUS
10
112.027
20
-93.8015
11
112.174
21
-93.9001
0
LINE
8
BLACK
6
CONTINUOUS
10
112.174
20
-93.9001
11
112.3
21
-94.0256
0
LINE
8
BLACK
6
CONTINUOUS
10
112.3
20
-94.0256
11
112.398
21
-94.1732
0
LINE
8
BLACK
6
CONTINUOUS
10
112.398
20
-94.1732
11
112.466
21
-94.3372
0
LINE
8
BLACK
6
CONTINUOUS
10
112.466
20
-94.3372
11
112.501
21
-94.5113
0
LINE
8
BLACK
6
CONTINUOUS
10
112.501
20
-94.5113
11
112.501
21
-94.6887
0
LINE
8
BLACK
6
CONTINUOUS
10
112.501
20
-94.6887
11
112.466
21
-94.8628
0
LINE
8
BLACK
6
CONTINUOUS
10
112.466
20
-94.8628
11
112.398
21
-95.0268
0
LINE
8
BLACK
6
CONTINUOUS
10
112.398
20
-95.0268
11
112.3
21
-95.1744
0
LINE
8
BLACK
6
CONTINUOUS
10
112.3
20
-95.1744
11
112.174
21
-95.2999
0
LINE
8
BLACK
6
CONTINUOUS
10
112.174
20
-95.2999
11
112.027
21
-95.3985
0
LINE
8
BLACK
6
CONTINUOUS
10
112.027
20
-95.3985
11
111.863
21
-95.4664
0
LINE
8
BLACK
6
CONTINUOUS
10
111.863
20
-95.4664
11
111.714
21
-95.4961
0
LINE
8
BLACK
6
CONTINUOUS
10
111.714
20
-95.4961
11
111.689
21
-95.501
0
LINE
8
BLACK
6
CONTINUOUS
10
111.689
20
-95.501
11
111.511
21
-95.501
0
LINE
8
BLACK
6
CONTINUOUS
10
111.511
20
-95.501
11
111.486
21
-95.4961
0
LINE
8
BLACK
6
CONTINUOUS
10
111.486
20
-95.4961
11
111.337
21
-95.4664
0
LINE
8
BLACK
6
CONTINUOUS
10
111.337
20
-95.4664
11
111.173
21
-95.3985
0
LINE
8
BLACK
6
CONTINUOUS
10
111.173
20
-95.3985
11
111.026
21
-95.2999
0
LINE
8
BLACK
6
CONTINUOUS
10
111.026
20
-95.2999
11
110.9
21
-95.1744
0
LINE
8
BLACK
6
CONTINUOUS
10
110.9
20
-95.1744
11
110.802
21
-95.0268
0
LINE
8
BLACK
6
CONTINUOUS
10
110.802
20
-95.0268
11
110.734
21
-94.8628
0
LINE
8
BLACK
6
CONTINUOUS
10
110.734
20
-94.8628
11
110.699
21
-94.6887
0
LINE
8
BLACK
6
CONTINUOUS
10
110.699
20
-94.6887
11
110.699
21
-94.5113
0
LINE
8
BLACK
6
CONTINUOUS
10
110.699
20
-94.5113
11
110.734
21
-94.3372
0
LINE
8
BLACK
6
CONTINUOUS
10
110.734
20
-94.3372
11
110.802
21
-94.1732
0
LINE
8
BLACK
6
CONTINUOUS
10
110.802
20
-94.1732
11
110.9
21
-94.0256
0
LINE
8
BLACK
6
CONTINUOUS
10
110.9
20
-94.0256
11
111.026
21
-93.9001
0
LINE
8
BLACK
6
CONTINUOUS
10
111.026
20
-93.9001
11
111.173
21
-93.8015
0
LINE
8
BLACK
6
CONTINUOUS
10
111.173
20
-93.8015
11
111.337
21
-93.7336
0
LINE
8
BLACK
6
CONTINUOUS
10
111.337
20
-93.7336
11
111.486
21
-93.7039
0
LINE
8
BLACK
6
CONTINUOUS
10
111.486
20
-93.7039
11
111.511
21
-93.699
0
LINE
8
BLACK
6
CONTINUOUS
10
111.511
20
-93.699
11
111.689
21
-93.699
0
LINE
8
BLACK
6
CONTINUOUS
10
111.689
20
-93.699
11
111.714
21
-93.7039
0
LINE
8
BLACK
6
CONTINUOUS
10
141.132
20
-89.1791
11
141.283
21
-89.2092
0
LINE
8
BLACK
6
CONTINUOUS
10
141.283
20
-89.2092
11
141.497
21
-89.2978
0
LINE
8
BLACK
6
CONTINUOUS
10
141.497
20
-89.2978
11
141.497
21
-89.2978
0
LINE
8
BLACK
6
CONTINUOUS
10
141.497
20
-89.2978
11
141.69
21
-89.4265
0
LINE
8
BLACK
6
CONTINUOUS
10
141.69
20
-89.4265
11
141.853
21
-89.5903
0
LINE
8
BLACK
6
CONTINUOUS
10
141.853
20
-89.5903
11
141.939
21
-89.7188
0
LINE
8
BLACK
6
CONTINUOUS
10
141.939
20
-89.7188
11
141.982
21
-89.783
0
LINE
8
BLACK
6
CONTINUOUS
10
141.982
20
-89.783
11
142.071
21
-89.997
0
LINE
8
BLACK
6
CONTINUOUS
10
142.071
20
-89.997
11
142.116
21
-90.2242
0
LINE
8
BLACK
6
CONTINUOUS
10
142.116
20
-90.2242
11
142.116
21
-90.4558
0
LINE
8
BLACK
6
CONTINUOUS
10
142.116
20
-90.4558
11
142.071
21
-90.683
0
LINE
8
BLACK
6
CONTINUOUS
10
142.071
20
-90.683
11
141.982
21
-90.897
0
LINE
8
BLACK
6
CONTINUOUS
10
141.982
20
-90.897
11
141.982
21
-90.897
0
LINE
8
BLACK
6
CONTINUOUS
10
141.982
20
-90.897
11
141.853
21
-91.0897
0
LINE
8
BLACK
6
CONTINUOUS
10
141.853
20
-91.0897
11
141.69
21
-91.2535
0
LINE
8
BLACK
6
CONTINUOUS
10
141.69
20
-91.2535
11
141.561
21
-91.3393
0
LINE
8
BLACK
6
CONTINUOUS
10
141.561
20
-91.3393
11
141.497
21
-91.3822
0
LINE
8
BLACK
6
CONTINUOUS
10
141.497
20
-91.3822
11
141.283
21
-91.4708
0
LINE
8
BLACK
6
CONTINUOUS
10
141.283
20
-91.4708
11
141.132
21
-91.5009
0
LINE
8
BLACK
6
CONTINUOUS
10
141.132
20
-91.5009
11
141.056
21
-91.516
0
LINE
8
BLACK
6
CONTINUOUS
10
141.056
20
-91.516
11
140.824
21
-91.516
0
LINE
8
BLACK
6
CONTINUOUS
10
140.824
20
-91.516
11
140.748
21
-91.5009
0
LINE
8
BLACK
6
CONTINUOUS
10
140.748
20
-91.5009
11
140.597
21
-91.4708
0
LINE
8
BLACK
6
CONTINUOUS
10
140.597
20
-91.4708
11
140.383
21
-91.3822
0
LINE
8
BLACK
6
CONTINUOUS
10
140.383
20
-91.3822
11
140.319
21
-91.3393
0
LINE
8
BLACK
6
CONTINUOUS
10
140.319
20
-91.3393
11
140.19
21
-91.2535
0
LINE
8
BLACK
6
CONTINUOUS
10
140.19
20
-91.2535
11
140.027
21
-91.0897
0
LINE
8
BLACK
6
CONTINUOUS
10
140.027
20
-91.0897
11
139.898
21
-90.897
0
LINE
8
BLACK
6
CONTINUOUS
10
139.898
20
-90.897
11
139.898
21
-90.897
0
LINE
8
BLACK
6
CONTINUOUS
10
139.898
20
-90.897
11
139.809
21
-90.683
0
LINE
8
BLACK
6
CONTINUOUS
10
139.809
20
-90.683
11
139.764
21
-90.4558
0
LINE
8
BLACK
6
CONTINUOUS
10
139.764
20
-90.4558
11
139.764
21
-90.2242
0
LINE
8
BLACK
6
CONTINUOUS
10
139.764
20
-90.2242
11
139.809
21
-89.997
0
LINE
8
BLACK
6
CONTINUOUS
10
139.809
20
-89.997
11
139.898
21
-89.783
0
LINE
8
BLACK
6
CONTINUOUS
10
139.898
20
-89.783
11
139.941
21
-89.7188
0
LINE
8
BLACK
6
CONTINUOUS
10
139.941
20
-89.7188
11
140.027
21
-89.5903
0
LINE
8
BLACK
6
CONTINUOUS
10
140.027
20
-89.5903
11
140.19
21
-89.4265
0
LINE
8
BLACK
6
CONTINUOUS
10
140.19
20
-89.4265
11
140.383
21
-89.2978
0
LINE
8
BLACK
6
CONTINUOUS
10
140.383
20
-89.2978
11
140.383
21
-89.2978
0
LINE
8
BLACK
6
CONTINUOUS
10
140.383
20
-89.2978
11
140.597
21
-89.2092
0
LINE
8
BLACK
6
CONTINUOUS
10
140.597
20
-89.2092
11
140.748
21
-89.1791
0
LINE
8
BLACK
6
CONTINUOUS
10
140.748
20
-89.1791
11
140.824
21
-89.164
0
LINE
8
BLACK
6
CONTINUOUS
10
140.824
20
-89.164
11
141.056
21
-89.164
0
LINE
8
BLACK
6
CONTINUOUS
10
141.056
20
-89.164
11
141.132
21
-89.1791
0
LINE
8
BLACK
6
CONTINUOUS
10
136.052
20
-89.1791
11
136.203
21
-89.2092
0
LINE
8
BLACK
6
CONTINUOUS
10
136.203
20
-89.2092
11
136.417
21
-89.2978
0
LINE
8
BLACK
6
CONTINUOUS
10
136.417
20
-89.2978
11
136.417
21
-89.2978
0
LINE
8
BLACK
6
CONTINUOUS
10
136.417
20
-89.2978
11
136.61
21
-89.4265
0
LINE
8
BLACK
6
CONTINUOUS
10
136.61
20
-89.4265
11
136.773
21
-89.5903
0
LINE
8
BLACK
6
CONTINUOUS
10
136.773
20
-89.5903
11
136.859
21
-89.7188
0
LINE
8
BLACK
6
CONTINUOUS
10
136.859
20
-89.7188
11
136.902
21
-89.783
0
LINE
8
BLACK
6
CONTINUOUS
10
136.902
20
-89.783
11
136.991
21
-89.997
0
LINE
8
BLACK
6
CONTINUOUS
10
136.991
20
-89.997
11
137.036
21
-90.2242
0
LINE
8
BLACK
6
CONTINUOUS
10
137.036
20
-90.2242
11
137.036
21
-90.4558
0
LINE
8
BLACK
6
CONTINUOUS
10
137.036
20
-90.4558
11
136.991
21
-90.683
0
LINE
8
BLACK
6
CONTINUOUS
10
136.991
20
-90.683
11
136.902
21
-90.897
0
LINE
8
BLACK
6
CONTINUOUS
10
136.902
20
-90.897
11
136.902
21
-90.897
0
LINE
8
BLACK
6
CONTINUOUS
10
136.902
20
-90.897
11
136.773
21
-91.0897
0
LINE
8
BLACK
6
CONTINUOUS
10
136.773
20
-91.0897
11
136.61
21
-91.2535
0
LINE
8
BLACK
6
CONTINUOUS
10
136.61
20
-91.2535
11
136.481
21
-91.3393
0
LINE
8
BLACK
6
CONTINUOUS
10
136.481
20
-91.3393
11
136.417
21
-91.3822
0
LINE
8
BLACK
6
CONTINUOUS
10
136.417
20
-91.3822
11
136.203
21
-91.4708
0
LINE
8
BLACK
6
CONTINUOUS
10
136.203
20
-91.4708
11
136.052
21
-91.5009
0
LINE
8
BLACK
6
CONTINUOUS
10
136.052
20
-91.5009
11
135.976
21
-91.516
0
LINE
8
BLACK
6
CONTINUOUS
10
135.976
20
-91.516
11
135.744
21
-91.516
0
LINE
8
BLACK
6
CONTINUOUS
10
135.744
20
-91.516
11
135.668
21
-91.5009
0
LINE
8
BLACK
6
CONTINUOUS
10
135.668
20
-91.5009
11
135.517
21
-91.4708
0
LINE
8
BLACK
6
CONTINUOUS
10
135.517
20
-91.4708
11
135.303
21
-91.3822
0
LINE
8
BLACK
6
CONTINUOUS
10
135.303
20
-91.3822
11
135.239
21
-91.3393
0
LINE
8
BLACK
6
CONTINUOUS
10
135.239
20
-91.3393
11
135.11
21
-91.2535
0
LINE
8
BLACK
6
CONTINUOUS
10
135.11
20
-91.2535
11
134.947
21
-91.0897
0
LINE
8
BLACK
6
CONTINUOUS
10
134.947
20
-91.0897
11
134.818
21
-90.897
0
LINE
8
BLACK
6
CONTINUOUS
10
134.818
20
-90.897
11
134.818
21
-90.897
0
LINE
8
BLACK
6
CONTINUOUS
10
134.818
20
-90.897
11
134.729
21
-90.683
0
LINE
8
BLACK
6
CONTINUOUS
10
134.729
20
-90.683
11
134.684
21
-90.4558
0
LINE
8
BLACK
6
CONTINUOUS
10
134.684
20
-90.4558
11
134.684
21
-90.2242
0
LINE
8
BLACK
6
CONTINUOUS
10
134.684
20
-90.2242
11
134.729
21
-89.997
0
LINE
8
BLACK
6
CONTINUOUS
10
134.729
20
-89.997
11
134.818
21
-89.783
0
LINE
8
BLACK
6
CONTINUOUS
10
134.818
20
-89.783
11
134.861
21
-89.7188
0
LINE
8
BLACK
6
CONTINUOUS
10
134.861
20
-89.7188
11
134.947
21
-89.5903
0
LINE
8
BLACK
6
CONTINUOUS
10
134.947
20
-89.5903
11
135.11
21
-89.4265
0
LINE
8
BLACK
6
CONTINUOUS
10
135.11
20
-89.4265
11
135.303
21
-89.2978
0
LINE
8
BLACK
6
CONTINUOUS
10
135.303
20
-89.2978
11
135.303
21
-89.2978
0
LINE
8
BLACK
6
CONTINUOUS
10
135.303
20
-89.2978
11
135.517
21
-89.2092
0
LINE
8
BLACK
6
CONTINUOUS
10
135.517
20
-89.2092
11
135.668
21
-89.1791
0
LINE
8
BLACK
6
CONTINUOUS
10
135.668
20
-89.1791
11
135.744
21
-89.164
0
LINE
8
BLACK
6
CONTINUOUS
10
135.744
20
-89.164
11
135.976
21
-89.164
0
LINE
8
BLACK
6
CONTINUOUS
10
135.976
20
-89.164
11
136.052
21
-89.1791
0
LINE
8
BLACK
6
CONTINUOUS
10
138.575
20
-86.7378
11
138.714
21
-86.7653
0
LINE
8
BLACK
6
CONTINUOUS
10
138.714
20
-86.7653
11
138.91
21
-86.8465
0
LINE
8
BLACK
6
CONTINUOUS
10
138.91
20
-86.8465
11
139.086
21
-86.9642
0
LINE
8
BLACK
6
CONTINUOUS
10
139.086
20
-86.9642
11
139.236
21
-87.1141
0
LINE
8
BLACK
6
CONTINUOUS
10
139.236
20
-87.1141
11
139.354
21
-87.2903
0
LINE
8
BLACK
6
CONTINUOUS
10
139.354
20
-87.2903
11
139.435
21
-87.4861
0
LINE
8
BLACK
6
CONTINUOUS
10
139.435
20
-87.4861
11
139.476
21
-87.694
0
LINE
8
BLACK
6
CONTINUOUS
10
139.476
20
-87.694
11
139.476
21
-87.906
0
LINE
8
BLACK
6
CONTINUOUS
10
139.476
20
-87.906
11
139.435
21
-88.1139
0
LINE
8
BLACK
6
CONTINUOUS
10
139.435
20
-88.1139
11
139.354
21
-88.3097
0
LINE
8
BLACK
6
CONTINUOUS
10
139.354
20
-88.3097
11
139.236
21
-88.4859
0
LINE
8
BLACK
6
CONTINUOUS
10
139.236
20
-88.4859
11
139.086
21
-88.6358
0
LINE
8
BLACK
6
CONTINUOUS
10
139.086
20
-88.6358
11
138.91
21
-88.7535
0
LINE
8
BLACK
6
CONTINUOUS
10
138.91
20
-88.7535
11
138.714
21
-88.8346
0
LINE
8
BLACK
6
CONTINUOUS
10
138.714
20
-88.8346
11
138.575
21
-88.8622
0
LINE
8
BLACK
6
CONTINUOUS
10
138.575
20
-88.8622
11
138.506
21
-88.876
0
LINE
8
BLACK
6
CONTINUOUS
10
138.506
20
-88.876
11
138.294
21
-88.876
0
LINE
8
BLACK
6
CONTINUOUS
10
138.294
20
-88.876
11
138.225
21
-88.8622
0
LINE
8
BLACK
6
CONTINUOUS
10
138.225
20
-88.8622
11
138.086
21
-88.8346
0
LINE
8
BLACK
6
CONTINUOUS
10
138.086
20
-88.8346
11
137.89
21
-88.7535
0
LINE
8
BLACK
6
CONTINUOUS
10
137.89
20
-88.7535
11
137.714
21
-88.6358
0
LINE
8
BLACK
6
CONTINUOUS
10
137.714
20
-88.6358
11
137.564
21
-88.4859
0
LINE
8
BLACK
6
CONTINUOUS
10
137.564
20
-88.4859
11
137.446
21
-88.3097
0
LINE
8
BLACK
6
CONTINUOUS
10
137.446
20
-88.3097
11
137.365
21
-88.1139
0
LINE
8
BLACK
6
CONTINUOUS
10
137.365
20
-88.1139
11
137.324
21
-87.906
0
LINE
8
BLACK
6
CONTINUOUS
10
137.324
20
-87.906
11
137.324
21
-87.694
0
LINE
8
BLACK
6
CONTINUOUS
10
137.324
20
-87.694
11
137.365
21
-87.4861
0
LINE
8
BLACK
6
CONTINUOUS
10
137.365
20
-87.4861
11
137.446
21
-87.2903
0
LINE
8
BLACK
6
CONTINUOUS
10
137.446
20
-87.2903
11
137.564
21
-87.1141
0
LINE
8
BLACK
6
CONTINUOUS
10
137.564
20
-87.1141
11
137.714
21
-86.9642
0
LINE
8
BLACK
6
CONTINUOUS
10
137.714
20
-86.9642
11
137.89
21
-86.8465
0
LINE
8
BLACK
6
CONTINUOUS
10
137.89
20
-86.8465
11
138.086
21
-86.7653
0
LINE
8
BLACK
6
CONTINUOUS
10
138.086
20
-86.7653
11
138.225
21
-86.7378
0
LINE
8
BLACK
6
CONTINUOUS
10
138.225
20
-86.7378
11
138.294
21
-86.724
0
LINE
8
BLACK
6
CONTINUOUS
10
138.294
20
-86.724
11
138.506
21
-86.724
0
LINE
8
BLACK
6
CONTINUOUS
10
138.506
20
-86.724
11
138.575
21
-86.7378
0
LINE
8
BLACK
6
CONTINUOUS
10
141.132
20
-84.0991
11
141.283
21
-84.1292
0
LINE
8
BLACK
6
CONTINUOUS
10
141.283
20
-84.1292
11
141.497
21
-84.2178
0
LINE
8
BLACK
6
CONTINUOUS
10
141.497
20
-84.2178
11
141.497
21
-84.2178
0
LINE
8
BLACK
6
CONTINUOUS
10
141.497
20
-84.2178
11
141.69
21
-84.3465
0
LINE
8
BLACK
6
CONTINUOUS
10
141.69
20
-84.3465
11
141.853
21
-84.5103
0
LINE
8
BLACK
6
CONTINUOUS
10
141.853
20
-84.5103
11
141.939
21
-84.6388
0
LINE
8
BLACK
6
CONTINUOUS
10
141.939
20
-84.6388
11
141.982
21
-84.703
0
LINE
8
BLACK
6
CONTINUOUS
10
141.982
20
-84.703
11
142.071
21
-84.917
0
LINE
8
BLACK
6
CONTINUOUS
10
142.071
20
-84.917
11
142.116
21
-85.1442
0
LINE
8
BLACK
6
CONTINUOUS
10
142.116
20
-85.1442
11
142.116
21
-85.3758
0
LINE
8
BLACK
6
CONTINUOUS
10
142.116
20
-85.3758
11
142.071
21
-85.603
0
LINE
8
BLACK
6
CONTINUOUS
10
142.071
20
-85.603
11
141.982
21
-85.817
0
LINE
8
BLACK
6
CONTINUOUS
10
141.982
20
-85.817
11
141.982
21
-85.817
0
LINE
8
BLACK
6
CONTINUOUS
10
141.982
20
-85.817
11
141.853
21
-86.0097
0
LINE
8
BLACK
6
CONTINUOUS
10
141.853
20
-86.0097
11
141.69
21
-86.1735
0
LINE
8
BLACK
6
CONTINUOUS
10
141.69
20
-86.1735
11
141.561
21
-86.2593
0
LINE
8
BLACK
6
CONTINUOUS
10
141.561
20
-86.2593
11
141.497
21
-86.3022
0
LINE
8
BLACK
6
CONTINUOUS
10
141.497
20
-86.3022
11
141.283
21
-86.3908
0
LINE
8
BLACK
6
CONTINUOUS
10
141.283
20
-86.3908
11
141.132
21
-86.4209
0
LINE
8
BLACK
6
CONTINUOUS
10
141.132
20
-86.4209
11
141.056
21
-86.436
0
LINE
8
BLACK
6
CONTINUOUS
10
141.056
20
-86.436
11
140.824
21
-86.436
0
LINE
8
BLACK
6
CONTINUOUS
10
140.824
20
-86.436
11
140.748
21
-86.4209
0
LINE
8
BLACK
6
CONTINUOUS
10
140.748
20
-86.4209
11
140.597
21
-86.3908
0
LINE
8
BLACK
6
CONTINUOUS
10
140.597
20
-86.3908
11
140.383
21
-86.3022
0
LINE
8
BLACK
6
CONTINUOUS
10
140.383
20
-86.3022
11
140.319
21
-86.2593
0
LINE
8
BLACK
6
CONTINUOUS
10
140.319
20
-86.2593
11
140.19
21
-86.1735
0
LINE
8
BLACK
6
CONTINUOUS
10
140.19
20
-86.1735
11
140.027
21
-86.0097
0
LINE
8
BLACK
6
CONTINUOUS
10
140.027
20
-86.0097
11
139.898
21
-85.817
0
LINE
8
BLACK
6
CONTINUOUS
10
139.898
20
-85.817
11
139.898
21
-85.817
0
LINE
8
BLACK
6
CONTINUOUS
10
139.898
20
-85.817
11
139.809
21
-85.603
0
LINE
8
BLACK
6
CONTINUOUS
10
139.809
20
-85.603
11
139.764
21
-85.3758
0
LINE
8
BLACK
6
CONTINUOUS
10
139.764
20
-85.3758
11
139.764
21
-85.1442
0
LINE
8
BLACK
6
CONTINUOUS
10
139.764
20
-85.1442
11
139.809
21
-84.917
0
LINE
8
BLACK
6
CONTINUOUS
10
139.809
20
-84.917
11
139.898
21
-84.703
0
LINE
8
BLACK
6
CONTINUOUS
10
139.898
20
-84.703
11
139.941
21
-84.6388
0
LINE
8
BLACK
6
CONTINUOUS
10
139.941
20
-84.6388
11
140.027
21
-84.5103
0
LINE
8
BLACK
6
CONTINUOUS
10
140.027
20
-84.5103
11
140.19
21
-84.3465
0
LINE
8
BLACK
6
CONTINUOUS
10
140.19
20
-84.3465
11
140.383
21
-84.2178
0
LINE
8
BLACK
6
CONTINUOUS
10
140.383
20
-84.2178
11
140.383
21
-84.2178
0
LINE
8
BLACK
6
CONTINUOUS
10
140.383
20
-84.2178
11
140.597
21
-84.1292
0
LINE
8
BLACK
6
CONTINUOUS
10
140.597
20
-84.1292
11
140.748
21
-84.0991
0
LINE
8
BLACK
6
CONTINUOUS
10
140.748
20
-84.0991
11
140.824
21
-84.084
0
LINE
8
BLACK
6
CONTINUOUS
10
140.824
20
-84.084
11
141.056
21
-84.084
0
LINE
8
BLACK
6
CONTINUOUS
10
141.056
20
-84.084
11
141.132
21
-84.0991
0
LINE
8
BLACK
6
CONTINUOUS
10
136.052
20
-84.0991
11
136.203
21
-84.1292
0
LINE
8
BLACK
6
CONTINUOUS
10
136.203
20
-84.1292
11
136.417
21
-84.2178
0
LINE
8
BLACK
6
CONTINUOUS
10
136.417
20
-84.2178
11
136.417
21
-84.2178
0
LINE
8
BLACK
6
CONTINUOUS
10
136.417
20
-84.2178
11
136.61
21
-84.3465
0
LINE
8
BLACK
6
CONTINUOUS
10
136.61
20
-84.3465
11
136.773
21
-84.5103
0
LINE
8
BLACK
6
CONTINUOUS
10
136.773
20
-84.5103
11
136.859
21
-84.6388
0
LINE
8
BLACK
6
CONTINUOUS
10
136.859
20
-84.6388
11
136.902
21
-84.703
0
LINE
8
BLACK
6
CONTINUOUS
10
136.902
20
-84.703
11
136.991
21
-84.917
0
LINE
8
BLACK
6
CONTINUOUS
10
136.991
20
-84.917
11
137.036
21
-85.1442
0
LINE
8
BLACK
6
CONTINUOUS
10
137.036
20
-85.1442
11
137.036
21
-85.3758
0
LINE
8
BLACK
6
CONTINUOUS
10
137.036
20
-85.3758
11
136.991
21
-85.603
0
LINE
8
BLACK
6
CONTINUOUS
10
136.991
20
-85.603
11
136.902
21
-85.817
0
LINE
8
BLACK
6
CONTINUOUS
10
136.902
20
-85.817
11
136.902
21
-85.817
0
LINE
8
BLACK
6
CONTINUOUS
10
136.902
20
-85.817
11
136.773
21
-86.0097
0
LINE
8
BLACK
6
CONTINUOUS
10
136.773
20
-86.0097
11
136.61
21
-86.1735
0
LINE
8
BLACK
6
CONTINUOUS
10
136.61
20
-86.1735
11
136.481
21
-86.2593
0
LINE
8
BLACK
6
CONTINUOUS
10
136.481
20
-86.2593
11
136.417
21
-86.3022
0
LINE
8
BLACK
6
CONTINUOUS
10
136.417
20
-86.3022
11
136.203
21
-86.3908
0
LINE
8
BLACK
6
CONTINUOUS
10
136.203
20
-86.3908
11
136.052
21
-86.4209
0
LINE
8
BLACK
6
CONTINUOUS
10
136.052
20
-86.4209
11
135.976
21
-86.436
0
LINE
8
BLACK
6
CONTINUOUS
10
135.976
20
-86.436
11
135.744
21
-86.436
0
LINE
8
BLACK
6
CONTINUOUS
10
135.744
20
-86.436
11
135.668
21
-86.4209
0
LINE
8
BLACK
6
CONTINUOUS
10
135.668
20
-86.4209
11
135.517
21
-86.3908
0
LINE
8
BLACK
6
CONTINUOUS
10
135.517
20
-86.3908
11
135.303
21
-86.3022
0
LINE
8
BLACK
6
CONTINUOUS
10
135.303
20
-86.3022
11
135.239
21
-86.2593
0
LINE
8
BLACK
6
CONTINUOUS
10
135.239
20
-86.2593
11
135.11
21
-86.1735
0
LINE
8
BLACK
6
CONTINUOUS
10
135.11
20
-86.1735
11
134.947
21
-86.0097
0
LINE
8
BLACK
6
CONTINUOUS
10
134.947
20
-86.0097
11
134.818
21
-85.817
0
LINE
8
BLACK
6
CONTINUOUS
10
134.818
20
-85.817
11
134.818
21
-85.817
0
LINE
8
BLACK
6
CONTINUOUS
10
134.818
20
-85.817
11
134.729
21
-85.603
0
LINE
8
BLACK
6
CONTINUOUS
10
134.729
20
-85.603
11
134.684
21
-85.3758
0
LINE
8
BLACK
6
CONTINUOUS
10
134.684
20
-85.3758
11
134.684
21
-85.1442
0
LINE
8
BLACK
6
CONTINUOUS
10
134.684
20
-85.1442
11
134.729
21
-84.917
0
LINE
8
BLACK
6
CONTINUOUS
10
134.729
20
-84.917
11
134.818
21
-84.703
0
LINE
8
BLACK
6
CONTINUOUS
10
134.818
20
-84.703
11
134.861
21
-84.6388
0
LINE
8
BLACK
6
CONTINUOUS
10
134.861
20
-84.6388
11
134.947
21
-84.5103
0
LINE
8
BLACK
6
CONTINUOUS
10
134.947
20
-84.5103
11
135.11
21
-84.3465
0
LINE
8
BLACK
6
CONTINUOUS
10
135.11
20
-84.3465
11
135.303
21
-84.2178
0
LINE
8
BLACK
6
CONTINUOUS
10
135.303
20
-84.2178
11
135.303
21
-84.2178
0
LINE
8
BLACK
6
CONTINUOUS
10
135.303
20
-84.2178
11
135.517
21
-84.1292
0
LINE
8
BLACK
6
CONTINUOUS
10
135.517
20
-84.1292
11
135.668
21
-84.0991
0
LINE
8
BLACK
6
CONTINUOUS
10
135.668
20
-84.0991
11
135.744
21
-84.084
0
LINE
8
BLACK
6
CONTINUOUS
10
135.744
20
-84.084
11
135.976
21
-84.084
0
LINE
8
BLACK
6
CONTINUOUS
10
135.976
20
-84.084
11
136.052
21
-84.0991
0
LINE
8
BLACK
6
CONTINUOUS
10
115.001
20
-82.001
11
113.199
21
-82.001
0
LINE
8
BLACK
6
CONTINUOUS
10
113.199
20
-82.001
11
113.199
21
-80.199
0
LINE
8
BLACK
6
CONTINUOUS
10
113.199
20
-80.199
11
115.001
21
-80.199
0
LINE
8
BLACK
6
CONTINUOUS
10
115.001
20
-80.199
11
115.001
21
-82.001
0
LINE
8
BLACK
6
CONTINUOUS
10
86.7135
20
-80.2039
11
86.8628
21
-80.2336
0
LINE
8
BLACK
6
CONTINUOUS
10
86.8628
20
-80.2336
11
87.0268
21
-80.3015
0
LINE
8
BLACK
6
CONTINUOUS
10
87.0268
20
-80.3015
11
87.1744
21
-80.4001
0
LINE
8
BLACK
6
CONTINUOUS
10
87.1744
20
-80.4001
11
87.2999
21
-80.5256
0
LINE
8
BLACK
6
CONTINUOUS
10
87.2999
20
-80.5256
11
87.3985
21
-80.6732
0
LINE
8
BLACK
6
CONTINUOUS
10
87.3985
20
-80.6732
11
87.4664
21
-80.8372
0
LINE
8
BLACK
6
CONTINUOUS
10
87.4664
20
-80.8372
11
87.501
21
-81.0113
0
LINE
8
BLACK
6
CONTINUOUS
10
87.501
20
-81.0113
11
87.501
21
-81.1887
0
LINE
8
BLACK
6
CONTINUOUS
10
87.501
20
-81.1887
11
87.4664
21
-81.3628
0
LINE
8
BLACK
6
CONTINUOUS
10
87.4664
20
-81.3628
11
87.3985
21
-81.5268
0
LINE
8
BLACK
6
CONTINUOUS
10
87.3985
20
-81.5268
11
87.2999
21
-81.6744
0
LINE
8
BLACK
6
CONTINUOUS
10
87.2999
20
-81.6744
11
87.1744
21
-81.7999
0
LINE
8
BLACK
6
CONTINUOUS
10
87.1744
20
-81.7999
11
87.0268
21
-81.8985
0
LINE
8
BLACK
6
CONTINUOUS
10
87.0268
20
-81.8985
11
86.8628
21
-81.9664
0
LINE
8
BLACK
6
CONTINUOUS
10
86.8628
20
-81.9664
11
86.7135
21
-81.9961
0
LINE
8
BLACK
6
CONTINUOUS
10
86.7135
20
-81.9961
11
86.6887
21
-82.001
0
LINE
8
BLACK
6
CONTINUOUS
10
86.6887
20
-82.001
11
86.5113
21
-82.001
0
LINE
8
BLACK
6
CONTINUOUS
10
86.5113
20
-82.001
11
86.4865
21
-81.9961
0
LINE
8
BLACK
6
CONTINUOUS
10
86.4865
20
-81.9961
11
86.3372
21
-81.9664
0
LINE
8
BLACK
6
CONTINUOUS
10
86.3372
20
-81.9664
11
86.1732
21
-81.8985
0
LINE
8
BLACK
6
CONTINUOUS
10
86.1732
20
-81.8985
11
86.0256
21
-81.7999
0
LINE
8
BLACK
6
CONTINUOUS
10
86.0256
20
-81.7999
11
85.9001
21
-81.6744
0
LINE
8
BLACK
6
CONTINUOUS
10
85.9001
20
-81.6744
11
85.8015
21
-81.5268
0
LINE
8
BLACK
6
CONTINUOUS
10
85.8015
20
-81.5268
11
85.7336
21
-81.3628
0
LINE
8
BLACK
6
CONTINUOUS
10
85.7336
20
-81.3628
11
85.699
21
-81.1887
0
LINE
8
BLACK
6
CONTINUOUS
10
85.699
20
-81.1887
11
85.699
21
-81.0113
0
LINE
8
BLACK
6
CONTINUOUS
10
85.699
20
-81.0113
11
85.7336
21
-80.8372
0
LINE
8
BLACK
6
CONTINUOUS
10
85.7336
20
-80.8372
11
85.8015
21
-80.6732
0
LINE
8
BLACK
6
CONTINUOUS
10
85.8015
20
-80.6732
11
85.9001
21
-80.5256
0
LINE
8
BLACK
6
CONTINUOUS
10
85.9001
20
-80.5256
11
86.0256
21
-80.4001
0
LINE
8
BLACK
6
CONTINUOUS
10
86.0256
20
-80.4001
11
86.1732
21
-80.3015
0
LINE
8
BLACK
6
CONTINUOUS
10
86.1732
20
-80.3015
11
86.3372
21
-80.2336
0
LINE
8
BLACK
6
CONTINUOUS
10
86.3372
20
-80.2336
11
86.4865
21
-80.2039
0
LINE
8
BLACK
6
CONTINUOUS
10
86.4865
20
-80.2039
11
86.5113
21
-80.199
0
LINE
8
BLACK
6
CONTINUOUS
10
86.5113
20
-80.199
11
86.6887
21
-80.199
0
LINE
8
BLACK
6
CONTINUOUS
10
86.6887
20
-80.199
11
86.7135
21
-80.2039
0
LINE
8
BLACK
6
CONTINUOUS
10
90.001
20
-82.001
11
88.199
21
-82.001
0
LINE
8
BLACK
6
CONTINUOUS
10
88.199
20
-82.001
11
88.199
21
-80.199
0
LINE
8
BLACK
6
CONTINUOUS
10
88.199
20
-80.199
11
90.001
21
-80.199
0
LINE
8
BLACK
6
CONTINUOUS
10
90.001
20
-80.199
11
90.001
21
-82.001
0
LINE
8
BLACK
6
CONTINUOUS
10
109.214
20
-80.2039
11
109.363
21
-80.2336
0
LINE
8
BLACK
6
CONTINUOUS
10
109.363
20
-80.2336
11
109.527
21
-80.3015
0
LINE
8
BLACK
6
CONTINUOUS
10
109.527
20
-80.3015
11
109.674
21
-80.4001
0
LINE
8
BLACK
6
CONTINUOUS
10
109.674
20
-80.4001
11
109.8
21
-80.5256
0
LINE
8
BLACK
6
CONTINUOUS
10
109.8
20
-80.5256
11
109.898
21
-80.6732
0
LINE
8
BLACK
6
CONTINUOUS
10
109.898
20
-80.6732
11
109.966
21
-80.8372
0
LINE
8
BLACK
6
CONTINUOUS
10
109.966
20
-80.8372
11
110.001
21
-81.0113
0
LINE
8
BLACK
6
CONTINUOUS
10
110.001
20
-81.0113
11
110.001
21
-81.1887
0
LINE
8
BLACK
6
CONTINUOUS
10
110.001
20
-81.1887
11
109.966
21
-81.3628
0
LINE
8
BLACK
6
CONTINUOUS
10
109.966
20
-81.3628
11
109.898
21
-81.5268
0
LINE
8
BLACK
6
CONTINUOUS
10
109.898
20
-81.5268
11
109.8
21
-81.6744
0
LINE
8
BLACK
6
CONTINUOUS
10
109.8
20
-81.6744
11
109.674
21
-81.7999
0
LINE
8
BLACK
6
CONTINUOUS
10
109.674
20
-81.7999
11
109.527
21
-81.8985
0
LINE
8
BLACK
6
CONTINUOUS
10
109.527
20
-81.8985
11
109.363
21
-81.9664
0
LINE
8
BLACK
6
CONTINUOUS
10
109.363
20
-81.9664
11
109.214
21
-81.9961
0
LINE
8
BLACK
6
CONTINUOUS
10
109.214
20
-81.9961
11
109.189
21
-82.001
0
LINE
8
BLACK
6
CONTINUOUS
10
109.189
20
-82.001
11
109.011
21
-82.001
0
LINE
8
BLACK
6
CONTINUOUS
10
109.011
20
-82.001
11
108.986
21
-81.9961
0
LINE
8
BLACK
6
CONTINUOUS
10
108.986
20
-81.9961
11
108.837
21
-81.9664
0
LINE
8
BLACK
6
CONTINUOUS
10
108.837
20
-81.9664
11
108.673
21
-81.8985
0
LINE
8
BLACK
6
CONTINUOUS
10
108.673
20
-81.8985
11
108.526
21
-81.7999
0
LINE
8
BLACK
6
CONTINUOUS
10
108.526
20
-81.7999
11
108.4
21
-81.6744
0
LINE
8
BLACK
6
CONTINUOUS
10
108.4
20
-81.6744
11
108.302
21
-81.5268
0
LINE
8
BLACK
6
CONTINUOUS
10
108.302
20
-81.5268
11
108.234
21
-81.3628
0
LINE
8
BLACK
6
CONTINUOUS
10
108.234
20
-81.3628
11
108.199
21
-81.1887
0
LINE
8
BLACK
6
CONTINUOUS
10
108.199
20
-81.1887
11
108.199
21
-81.0113
0
LINE
8
BLACK
6
CONTINUOUS
10
108.199
20
-81.0113
11
108.234
21
-80.8372
0
LINE
8
BLACK
6
CONTINUOUS
10
108.234
20
-80.8372
11
108.302
21
-80.6732
0
LINE
8
BLACK
6
CONTINUOUS
10
108.302
20
-80.6732
11
108.4
21
-80.5256
0
LINE
8
BLACK
6
CONTINUOUS
10
108.4
20
-80.5256
11
108.526
21
-80.4001
0
LINE
8
BLACK
6
CONTINUOUS
10
108.526
20
-80.4001
11
108.673
21
-80.3015
0
LINE
8
BLACK
6
CONTINUOUS
10
108.673
20
-80.3015
11
108.837
21
-80.2336
0
LINE
8
BLACK
6
CONTINUOUS
10
108.837
20
-80.2336
11
108.986
21
-80.2039
0
LINE
8
BLACK
6
CONTINUOUS
10
108.986
20
-80.2039
11
109.011
21
-80.199
0
LINE
8
BLACK
6
CONTINUOUS
10
109.011
20
-80.199
11
109.189
21
-80.199
0
LINE
8
BLACK
6
CONTINUOUS
10
109.189
20
-80.199
11
109.214
21
-80.2039
0
LINE
8
BLACK
6
CONTINUOUS
10
111.714
20
-80.2039
11
111.863
21
-80.2336
0
LINE
8
BLACK
6
CONTINUOUS
10
111.863
20
-80.2336
11
112.027
21
-80.3015
0
LINE
8
BLACK
6
CONTINUOUS
10
112.027
20
-80.3015
11
112.174
21
-80.4001
0
LINE
8
BLACK
6
CONTINUOUS
10
112.174
20
-80.4001
11
112.3
21
-80.5256
0
LINE
8
BLACK
6
CONTINUOUS
10
112.3
20
-80.5256
11
112.398
21
-80.6732
0
LINE
8
BLACK
6
CONTINUOUS
10
112.398
20
-80.6732
11
112.466
21
-80.8372
0
LINE
8
BLACK
6
CONTINUOUS
10
112.466
20
-80.8372
11
112.501
21
-81.0113
0
LINE
8
BLACK
6
CONTINUOUS
10
112.501
20
-81.0113
11
112.501
21
-81.1887
0
LINE
8
BLACK
6
CONTINUOUS
10
112.501
20
-81.1887
11
112.466
21
-81.3628
0
LINE
8
BLACK
6
CONTINUOUS
10
112.466
20
-81.3628
11
112.398
21
-81.5268
0
LINE
8
BLACK
6
CONTINUOUS
10
112.398
20
-81.5268
11
112.3
21
-81.6744
0
LINE
8
BLACK
6
CONTINUOUS
10
112.3
20
-81.6744
11
112.174
21
-81.7999
0
LINE
8
BLACK
6
CONTINUOUS
10
112.174
20
-81.7999
11
112.027
21
-81.8985
0
LINE
8
BLACK
6
CONTINUOUS
10
112.027
20
-81.8985
11
111.863
21
-81.9664
0
LINE
8
BLACK
6
CONTINUOUS
10
111.863
20
-81.9664
11
111.714
21
-81.9961
0
LINE
8
BLACK
6
CONTINUOUS
10
111.714
20
-81.9961
11
111.689
21
-82.001
0
LINE
8
BLACK
6
CONTINUOUS
10
111.689
20
-82.001
11
111.511
21
-82.001
0
LINE
8
BLACK
6
CONTINUOUS
10
111.511
20
-82.001
11
111.486
21
-81.9961
0
LINE
8
BLACK
6
CONTINUOUS
10
111.486
20
-81.9961
11
111.337
21
-81.9664
0
LINE
8
BLACK
6
CONTINUOUS
10
111.337
20
-81.9664
11
111.173
21
-81.8985
0
LINE
8
BLACK
6
CONTINUOUS
10
111.173
20
-81.8985
11
111.026
21
-81.7999
0
LINE
8
BLACK
6
CONTINUOUS
10
111.026
20
-81.7999
11
110.9
21
-81.6744
0
LINE
8
BLACK
6
CONTINUOUS
10
110.9
20
-81.6744
11
110.802
21
-81.5268
0
LINE
8
BLACK
6
CONTINUOUS
10
110.802
20
-81.5268
11
110.734
21
-81.3628
0
LINE
8
BLACK
6
CONTINUOUS
10
110.734
20
-81.3628
11
110.699
21
-81.1887
0
LINE
8
BLACK
6
CONTINUOUS
10
110.699
20
-81.1887
11
110.699
21
-81.0113
0
LINE
8
BLACK
6
CONTINUOUS
10
110.699
20
-81.0113
11
110.734
21
-80.8372
0
LINE
8
BLACK
6
CONTINUOUS
10
110.734
20
-80.8372
11
110.802
21
-80.6732
0
LINE
8
BLACK
6
CONTINUOUS
10
110.802
20
-80.6732
11
110.9
21
-80.5256
0
LINE
8
BLACK
6
CONTINUOUS
10
110.9
20
-80.5256
11
111.026
21
-80.4001
0
LINE
8
BLACK
6
CONTINUOUS
10
111.026
20
-80.4001
11
111.173
21
-80.3015
0
LINE
8
BLACK
6
CONTINUOUS
10
111.173
20
-80.3015
11
111.337
21
-80.2336
0
LINE
8
BLACK
6
CONTINUOUS
10
111.337
20
-80.2336
11
111.486
21
-80.2039
0
LINE
8
BLACK
6
CONTINUOUS
10
111.486
20
-80.2039
11
111.511
21
-80.199
0
LINE
8
BLACK
6
CONTINUOUS
10
111.511
20
-80.199
11
111.689
21
-80.199
0
LINE
8
BLACK
6
CONTINUOUS
10
111.689
20
-80.199
11
111.714
21
-80.2039
0
LINE
8
BLACK
6
CONTINUOUS
10
84.2135
20
-80.2039
11
84.3628
21
-80.2336
0
LINE
8
BLACK
6
CONTINUOUS
10
84.3628
20
-80.2336
11
84.5268
21
-80.3015
0
LINE
8
BLACK
6
CONTINUOUS
10
84.5268
20
-80.3015
11
84.6744
21
-80.4001
0
LINE
8
BLACK
6
CONTINUOUS
10
84.6744
20
-80.4001
11
84.7999
21
-80.5256
0
LINE
8
BLACK
6
CONTINUOUS
10
84.7999
20
-80.5256
11
84.8985
21
-80.6732
0
LINE
8
BLACK
6
CONTINUOUS
10
84.8985
20
-80.6732
11
84.9664
21
-80.8372
0
LINE
8
BLACK
6
CONTINUOUS
10
84.9664
20
-80.8372
11
85.001
21
-81.0113
0
LINE
8
BLACK
6
CONTINUOUS
10
85.001
20
-81.0113
11
85.001
21
-81.1887
0
LINE
8
BLACK
6
CONTINUOUS
10
85.001
20
-81.1887
11
84.9664
21
-81.3628
0
LINE
8
BLACK
6
CONTINUOUS
10
84.9664
20
-81.3628
11
84.8985
21
-81.5268
0
LINE
8
BLACK
6
CONTINUOUS
10
84.8985
20
-81.5268
11
84.7999
21
-81.6744
0
LINE
8
BLACK
6
CONTINUOUS
10
84.7999
20
-81.6744
11
84.6744
21
-81.7999
0
LINE
8
BLACK
6
CONTINUOUS
10
84.6744
20
-81.7999
11
84.5268
21
-81.8985
0
LINE
8
BLACK
6
CONTINUOUS
10
84.5268
20
-81.8985
11
84.3628
21
-81.9664
0
LINE
8
BLACK
6
CONTINUOUS
10
84.3628
20
-81.9664
11
84.2135
21
-81.9961
0
LINE
8
BLACK
6
CONTINUOUS
10
84.2135
20
-81.9961
11
84.1887
21
-82.001
0
LINE
8
BLACK
6
CONTINUOUS
10
84.1887
20
-82.001
11
84.0113
21
-82.001
0
LINE
8
BLACK
6
CONTINUOUS
10
84.0113
20
-82.001
11
83.9865
21
-81.9961
0
LINE
8
BLACK
6
CONTINUOUS
10
83.9865
20
-81.9961
11
83.8372
21
-81.9664
0
LINE
8
BLACK
6
CONTINUOUS
10
83.8372
20
-81.9664
11
83.6732
21
-81.8985
0
LINE
8
BLACK
6
CONTINUOUS
10
83.6732
20
-81.8985
11
83.5256
21
-81.7999
0
LINE
8
BLACK
6
CONTINUOUS
10
83.5256
20
-81.7999
11
83.4001
21
-81.6744
0
LINE
8
BLACK
6
CONTINUOUS
10
83.4001
20
-81.6744
11
83.3015
21
-81.5268
0
LINE
8
BLACK
6
CONTINUOUS
10
83.3015
20
-81.5268
11
83.2336
21
-81.3628
0
LINE
8
BLACK
6
CONTINUOUS
10
83.2336
20
-81.3628
11
83.199
21
-81.1887
0
LINE
8
BLACK
6
CONTINUOUS
10
83.199
20
-81.1887
11
83.199
21
-81.0113
0
LINE
8
BLACK
6
CONTINUOUS
10
83.199
20
-81.0113
11
83.2336
21
-80.8372
0
LINE
8
BLACK
6
CONTINUOUS
10
83.2336
20
-80.8372
11
83.3015
21
-80.6732
0
LINE
8
BLACK
6
CONTINUOUS
10
83.3015
20
-80.6732
11
83.4001
21
-80.5256
0
LINE
8
BLACK
6
CONTINUOUS
10
83.4001
20
-80.5256
11
83.5256
21
-80.4001
0
LINE
8
BLACK
6
CONTINUOUS
10
83.5256
20
-80.4001
11
83.6732
21
-80.3015
0
LINE
8
BLACK
6
CONTINUOUS
10
83.6732
20
-80.3015
11
83.8372
21
-80.2336
0
LINE
8
BLACK
6
CONTINUOUS
10
83.8372
20
-80.2336
11
83.9865
21
-80.2039
0
LINE
8
BLACK
6
CONTINUOUS
10
83.9865
20
-80.2039
11
84.0113
21
-80.199
0
LINE
8
BLACK
6
CONTINUOUS
10
84.0113
20
-80.199
11
84.1887
21
-80.199
0
LINE
8
BLACK
6
CONTINUOUS
10
84.1887
20
-80.199
11
84.2135
21
-80.2039
0
LINE
8
BLACK
6
CONTINUOUS
10
112.234
20
-60.8115
11
112.548
21
-60.8739
0
LINE
8
BLACK
6
CONTINUOUS
10
112.548
20
-60.8739
11
113.14
21
-61.119
0
LINE
8
BLACK
6
CONTINUOUS
10
113.14
20
-61.119
11
113.672
21
-61.4748
0
LINE
8
BLACK
6
CONTINUOUS
10
113.672
20
-61.4748
11
114.125
21
-61.9276
0
LINE
8
BLACK
6
CONTINUOUS
10
114.125
20
-61.9276
11
114.481
21
-62.4601
0
LINE
8
BLACK
6
CONTINUOUS
10
114.481
20
-62.4601
11
114.726
21
-63.0517
0
LINE
8
BLACK
6
CONTINUOUS
10
114.726
20
-63.0517
11
114.851
21
-63.6798
0
LINE
8
BLACK
6
CONTINUOUS
10
114.851
20
-63.6798
11
114.851
21
-64.3202
0
LINE
8
BLACK
6
CONTINUOUS
10
114.851
20
-64.3202
11
114.726
21
-64.9483
0
LINE
8
BLACK
6
CONTINUOUS
10
114.726
20
-64.9483
11
114.481
21
-65.5399
0
LINE
8
BLACK
6
CONTINUOUS
10
114.481
20
-65.5399
11
114.125
21
-66.0724
0
LINE
8
BLACK
6
CONTINUOUS
10
114.125
20
-66.0724
11
113.672
21
-66.5252
0
LINE
8
BLACK
6
CONTINUOUS
10
113.672
20
-66.5252
11
113.14
21
-66.881
0
LINE
8
BLACK
6
CONTINUOUS
10
113.14
20
-66.881
11
112.548
21
-67.1261
0
LINE
8
BLACK
6
CONTINUOUS
10
112.548
20
-67.1261
11
112.234
21
-67.1885
0
LINE
8
BLACK
6
CONTINUOUS
10
112.234
20
-67.1885
11
111.92
21
-67.251
0
LINE
8
BLACK
6
CONTINUOUS
10
111.92
20
-67.251
11
111.28
21
-67.251
0
LINE
8
BLACK
6
CONTINUOUS
10
111.28
20
-67.251
11
110.966
21
-67.1885
0
LINE
8
BLACK
6
CONTINUOUS
10
110.966
20
-67.1885
11
110.652
21
-67.1261
0
LINE
8
BLACK
6
CONTINUOUS
10
110.652
20
-67.1261
11
110.06
21
-66.881
0
LINE
8
BLACK
6
CONTINUOUS
10
110.06
20
-66.881
11
109.528
21
-66.5252
0
LINE
8
BLACK
6
CONTINUOUS
10
109.528
20
-66.5252
11
109.075
21
-66.0724
0
LINE
8
BLACK
6
CONTINUOUS
10
109.075
20
-66.0724
11
108.719
21
-65.5399
0
LINE
8
BLACK
6
CONTINUOUS
10
108.719
20
-65.5399
11
108.474
21
-64.9483
0
LINE
8
BLACK
6
CONTINUOUS
10
108.474
20
-64.9483
11
108.349
21
-64.3202
0
LINE
8
BLACK
6
CONTINUOUS
10
108.349
20
-64.3202
11
108.349
21
-63.6798
0
LINE
8
BLACK
6
CONTINUOUS
10
108.349
20
-63.6798
11
108.474
21
-63.0517
0
LINE
8
BLACK
6
CONTINUOUS
10
108.474
20
-63.0517
11
108.719
21
-62.4601
0
LINE
8
BLACK
6
CONTINUOUS
10
108.719
20
-62.4601
11
109.075
21
-61.9276
0
LINE
8
BLACK
6
CONTINUOUS
10
109.075
20
-61.9276
11
109.528
21
-61.4748
0
LINE
8
BLACK
6
CONTINUOUS
10
109.528
20
-61.4748
11
110.06
21
-61.119
0
LINE
8
BLACK
6
CONTINUOUS
10
110.06
20
-61.119
11
110.652
21
-60.8739
0
LINE
8
BLACK
6
CONTINUOUS
10
110.652
20
-60.8739
11
110.966
21
-60.8115
0
LINE
8
BLACK
6
CONTINUOUS
10
110.966
20
-60.8115
11
111.28
21
-60.749
0
LINE
8
BLACK
6
CONTINUOUS
10
111.28
20
-60.749
11
111.92
21
-60.749
0
LINE
8
BLACK
6
CONTINUOUS
10
111.92
20
-60.749
11
112.234
21
-60.8115
0
LINE
8
BLACK
6
CONTINUOUS
10
87.2342
20
-60.8115
11
87.5483
21
-60.8739
0
LINE
8
BLACK
6
CONTINUOUS
10
87.5483
20
-60.8739
11
88.1399
21
-61.119
0
LINE
8
BLACK
6
CONTINUOUS
10
88.1399
20
-61.119
11
88.6724
21
-61.4748
0
LINE
8
BLACK
6
CONTINUOUS
10
88.6724
20
-61.4748
11
89.1252
21
-61.9276
0
LINE
8
BLACK
6
CONTINUOUS
10
89.1252
20
-61.9276
11
89.481
21
-62.4601
0
LINE
8
BLACK
6
CONTINUOUS
10
89.481
20
-62.4601
11
89.7261
21
-63.0517
0
LINE
8
BLACK
6
CONTINUOUS
10
89.7261
20
-63.0517
11
89.851
21
-63.6798
0
LINE
8
BLACK
6
CONTINUOUS
10
89.851
20
-63.6798
11
89.851
21
-64.3202
0
LINE
8
BLACK
6
CONTINUOUS
10
89.851
20
-64.3202
11
89.7261
21
-64.9483
0
LINE
8
BLACK
6
CONTINUOUS
10
89.7261
20
-64.9483
11
89.481
21
-65.5399
0
LINE
8
BLACK
6
CONTINUOUS
10
89.481
20
-65.5399
11
89.1252
21
-66.0724
0
LINE
8
BLACK
6
CONTINUOUS
10
89.1252
20
-66.0724
11
88.6724
21
-66.5252
0
LINE
8
BLACK
6
CONTINUOUS
10
88.6724
20
-66.5252
11
88.1399
21
-66.881
0
LINE
8
BLACK
6
CONTINUOUS
10
88.1399
20
-66.881
11
87.5483
21
-67.1261
0
LINE
8
BLACK
6
CONTINUOUS
10
87.5483
20
-67.1261
11
87.2342
21
-67.1885
0
LINE
8
BLACK
6
CONTINUOUS
10
87.2342
20
-67.1885
11
86.9202
21
-67.251
0
LINE
8
BLACK
6
CONTINUOUS
10
86.9202
20
-67.251
11
86.2798
21
-67.251
0
LINE
8
BLACK
6
CONTINUOUS
10
86.2798
20
-67.251
11
85.9658
21
-67.1885
0
LINE
8
BLACK
6
CONTINUOUS
10
85.9658
20
-67.1885
11
85.6517
21
-67.1261
0
LINE
8
BLACK
6
CONTINUOUS
10
85.6517
20
-67.1261
11
85.0601
21
-66.881
0
LINE
8
BLACK
6
CONTINUOUS
10
85.0601
20
-66.881
11
84.5276
21
-66.5252
0
LINE
8
BLACK
6
CONTINUOUS
10
84.5276
20
-66.5252
11
84.0748
21
-66.0724
0
LINE
8
BLACK
6
CONTINUOUS
10
84.0748
20
-66.0724
11
83.719
21
-65.5399
0
LINE
8
BLACK
6
CONTINUOUS
10
83.719
20
-65.5399
11
83.4739
21
-64.9483
0
LINE
8
BLACK
6
CONTINUOUS
10
83.4739
20
-64.9483
11
83.349
21
-64.3202
0
LINE
8
BLACK
6
CONTINUOUS
10
83.349
20
-64.3202
11
83.349
21
-63.6798
0
LINE
8
BLACK
6
CONTINUOUS
10
83.349
20
-63.6798
11
83.4739
21
-63.0517
0
LINE
8
BLACK
6
CONTINUOUS
10
83.4739
20
-63.0517
11
83.719
21
-62.4601
0
LINE
8
BLACK
6
CONTINUOUS
10
83.719
20
-62.4601
11
84.0748
21
-61.9276
0
LINE
8
BLACK
6
CONTINUOUS
10
84.0748
20
-61.9276
11
84.5276
21
-61.4748
0
LINE
8
BLACK
6
CONTINUOUS
10
84.5276
20
-61.4748
11
85.0601
21
-61.119
0
LINE
8
BLACK
6
CONTINUOUS
10
85.0601
20
-61.119
11
85.6517
21
-60.8739
0
LINE
8
BLACK
6
CONTINUOUS
10
85.6517
20
-60.8739
11
85.9658
21
-60.8115
0
LINE
8
BLACK
6
CONTINUOUS
10
85.9658
20
-60.8115
11
86.2798
21
-60.749
0
LINE
8
BLACK
6
CONTINUOUS
10
86.2798
20
-60.749
11
86.9202
21
-60.749
0
LINE
8
BLACK
6
CONTINUOUS
10
86.9202
20
-60.749
11
87.2342
21
-60.8115
  0
ENDSEC
  0
EOF
