G04 #@! TF.GenerationSoftware,KiCad,Pcbnew,(5.1.2)-1*
G04 #@! TF.CreationDate,2020-03-29T12:59:04+05:30*
G04 #@! TF.ProjectId,G6ALU_20WPA,4736414c-555f-4323-9057-50412e6b6963,rev?*
G04 #@! TF.SameCoordinates,Original*
G04 #@! TF.FileFunction,Soldermask,Top*
G04 #@! TF.FilePolarity,Negative*
%FSLAX46Y46*%
G04 Gerber Fmt 4.6, Leading zero omitted, Abs format (unit mm)*
G04 Created by KiCad (PCBNEW (5.1.2)-1) date 2020-03-29 12:59:04*
%MOMM*%
%LPD*%
G04 APERTURE LIST*
%ADD10C,0.100000*%
G04 APERTURE END LIST*
D10*
G36*
X87234239Y-108911467D02*
G01*
X87548282Y-108973934D01*
X88139926Y-109219001D01*
X88541345Y-109487221D01*
X88672391Y-109574783D01*
X89125217Y-110027609D01*
X89149115Y-110063375D01*
X89480999Y-110560074D01*
X89726066Y-111151718D01*
X89851000Y-111779804D01*
X89851000Y-112420196D01*
X89726066Y-113048282D01*
X89480999Y-113639926D01*
X89125216Y-114172392D01*
X88672392Y-114625216D01*
X88139926Y-114980999D01*
X87548282Y-115226066D01*
X87234239Y-115288533D01*
X86920197Y-115351000D01*
X86279803Y-115351000D01*
X85965761Y-115288533D01*
X85651718Y-115226066D01*
X85060074Y-114980999D01*
X84527608Y-114625216D01*
X84074784Y-114172392D01*
X83719001Y-113639926D01*
X83473934Y-113048282D01*
X83349000Y-112420196D01*
X83349000Y-111779804D01*
X83473934Y-111151718D01*
X83719001Y-110560074D01*
X84050885Y-110063375D01*
X84074783Y-110027609D01*
X84527609Y-109574783D01*
X84658655Y-109487221D01*
X85060074Y-109219001D01*
X85651718Y-108973934D01*
X85965761Y-108911467D01*
X86279803Y-108849000D01*
X86920197Y-108849000D01*
X87234239Y-108911467D01*
X87234239Y-108911467D01*
G37*
G36*
X112234239Y-108511467D02*
G01*
X112548282Y-108573934D01*
X113139926Y-108819001D01*
X113672392Y-109174784D01*
X114125216Y-109627608D01*
X114480999Y-110160074D01*
X114726066Y-110751718D01*
X114851000Y-111379804D01*
X114851000Y-112020196D01*
X114726066Y-112648282D01*
X114480999Y-113239926D01*
X114125216Y-113772392D01*
X113672392Y-114225216D01*
X113139926Y-114580999D01*
X112548282Y-114826066D01*
X112234239Y-114888533D01*
X111920197Y-114951000D01*
X111279803Y-114951000D01*
X110965761Y-114888533D01*
X110651718Y-114826066D01*
X110060074Y-114580999D01*
X109527608Y-114225216D01*
X109074784Y-113772392D01*
X108719001Y-113239926D01*
X108473934Y-112648282D01*
X108349000Y-112020196D01*
X108349000Y-111379804D01*
X108473934Y-110751718D01*
X108719001Y-110160074D01*
X109074784Y-109627608D01*
X109527608Y-109174784D01*
X110060074Y-108819001D01*
X110651718Y-108573934D01*
X110965761Y-108511467D01*
X111279803Y-108449000D01*
X111920197Y-108449000D01*
X112234239Y-108511467D01*
X112234239Y-108511467D01*
G37*
G36*
X98110442Y-112245518D02*
G01*
X98176627Y-112252037D01*
X98346466Y-112303557D01*
X98502991Y-112387222D01*
X98538729Y-112416552D01*
X98640186Y-112499814D01*
X98723448Y-112601271D01*
X98752778Y-112637009D01*
X98836443Y-112793534D01*
X98887963Y-112963373D01*
X98905359Y-113140000D01*
X98887963Y-113316627D01*
X98836443Y-113486466D01*
X98752778Y-113642991D01*
X98723448Y-113678729D01*
X98640186Y-113780186D01*
X98538729Y-113863448D01*
X98502991Y-113892778D01*
X98346466Y-113976443D01*
X98176627Y-114027963D01*
X98110442Y-114034482D01*
X98044260Y-114041000D01*
X97955740Y-114041000D01*
X97889558Y-114034482D01*
X97823373Y-114027963D01*
X97653534Y-113976443D01*
X97497009Y-113892778D01*
X97461271Y-113863448D01*
X97359814Y-113780186D01*
X97276552Y-113678729D01*
X97247222Y-113642991D01*
X97163557Y-113486466D01*
X97112037Y-113316627D01*
X97094641Y-113140000D01*
X97112037Y-112963373D01*
X97163557Y-112793534D01*
X97247222Y-112637009D01*
X97276552Y-112601271D01*
X97359814Y-112499814D01*
X97461271Y-112416552D01*
X97497009Y-112387222D01*
X97653534Y-112303557D01*
X97823373Y-112252037D01*
X97889558Y-112245518D01*
X97955740Y-112239000D01*
X98044260Y-112239000D01*
X98110442Y-112245518D01*
X98110442Y-112245518D01*
G37*
G36*
X98901000Y-111501000D02*
G01*
X97099000Y-111501000D01*
X97099000Y-109699000D01*
X98901000Y-109699000D01*
X98901000Y-111501000D01*
X98901000Y-111501000D01*
G37*
G36*
X80210443Y-109345519D02*
G01*
X80276627Y-109352037D01*
X80446466Y-109403557D01*
X80602991Y-109487222D01*
X80638729Y-109516552D01*
X80740186Y-109599814D01*
X80821585Y-109699000D01*
X80852778Y-109737009D01*
X80936443Y-109893534D01*
X80987963Y-110063373D01*
X81005359Y-110240000D01*
X80987963Y-110416627D01*
X80936443Y-110586466D01*
X80852778Y-110742991D01*
X80845615Y-110751719D01*
X80740186Y-110880186D01*
X80638729Y-110963448D01*
X80602991Y-110992778D01*
X80446466Y-111076443D01*
X80276627Y-111127963D01*
X80210443Y-111134481D01*
X80144260Y-111141000D01*
X80055740Y-111141000D01*
X79989557Y-111134481D01*
X79923373Y-111127963D01*
X79753534Y-111076443D01*
X79597009Y-110992778D01*
X79561271Y-110963448D01*
X79459814Y-110880186D01*
X79354385Y-110751719D01*
X79347222Y-110742991D01*
X79263557Y-110586466D01*
X79212037Y-110416627D01*
X79194641Y-110240000D01*
X79212037Y-110063373D01*
X79263557Y-109893534D01*
X79347222Y-109737009D01*
X79378415Y-109699000D01*
X79459814Y-109599814D01*
X79561271Y-109516552D01*
X79597009Y-109487222D01*
X79753534Y-109403557D01*
X79923373Y-109352037D01*
X79989557Y-109345519D01*
X80055740Y-109339000D01*
X80144260Y-109339000D01*
X80210443Y-109345519D01*
X80210443Y-109345519D01*
G37*
G36*
X81001000Y-108601000D02*
G01*
X79199000Y-108601000D01*
X79199000Y-106799000D01*
X81001000Y-106799000D01*
X81001000Y-108601000D01*
X81001000Y-108601000D01*
G37*
G36*
X63601000Y-106401000D02*
G01*
X61799000Y-106401000D01*
X61799000Y-104599000D01*
X63601000Y-104599000D01*
X63601000Y-106401000D01*
X63601000Y-106401000D01*
G37*
G36*
X65350443Y-104605519D02*
G01*
X65416627Y-104612037D01*
X65586466Y-104663557D01*
X65742991Y-104747222D01*
X65778729Y-104776552D01*
X65880186Y-104859814D01*
X65963448Y-104961271D01*
X65992778Y-104997009D01*
X66076443Y-105153534D01*
X66127963Y-105323373D01*
X66145359Y-105500000D01*
X66127963Y-105676627D01*
X66076443Y-105846466D01*
X65992778Y-106002991D01*
X65963448Y-106038729D01*
X65880186Y-106140186D01*
X65778729Y-106223448D01*
X65742991Y-106252778D01*
X65586466Y-106336443D01*
X65416627Y-106387963D01*
X65350442Y-106394482D01*
X65284260Y-106401000D01*
X65195740Y-106401000D01*
X65129558Y-106394482D01*
X65063373Y-106387963D01*
X64893534Y-106336443D01*
X64737009Y-106252778D01*
X64701271Y-106223448D01*
X64599814Y-106140186D01*
X64516552Y-106038729D01*
X64487222Y-106002991D01*
X64403557Y-105846466D01*
X64352037Y-105676627D01*
X64334641Y-105500000D01*
X64352037Y-105323373D01*
X64403557Y-105153534D01*
X64487222Y-104997009D01*
X64516552Y-104961271D01*
X64599814Y-104859814D01*
X64701271Y-104776552D01*
X64737009Y-104747222D01*
X64893534Y-104663557D01*
X65063373Y-104612037D01*
X65129558Y-104605518D01*
X65195740Y-104599000D01*
X65284260Y-104599000D01*
X65350443Y-104605519D01*
X65350443Y-104605519D01*
G37*
G36*
X85151000Y-96051000D02*
G01*
X83049000Y-96051000D01*
X83049000Y-93949000D01*
X85151000Y-93949000D01*
X85151000Y-96051000D01*
X85151000Y-96051000D01*
G37*
G36*
X86906564Y-93989389D02*
G01*
X87097833Y-94068615D01*
X87097835Y-94068616D01*
X87269973Y-94183635D01*
X87416365Y-94330027D01*
X87531385Y-94502167D01*
X87610611Y-94693436D01*
X87651000Y-94896484D01*
X87651000Y-95103516D01*
X87610611Y-95306564D01*
X87565130Y-95416365D01*
X87531384Y-95497835D01*
X87416365Y-95669973D01*
X87269973Y-95816365D01*
X87097835Y-95931384D01*
X87097834Y-95931385D01*
X87097833Y-95931385D01*
X86906564Y-96010611D01*
X86703516Y-96051000D01*
X86496484Y-96051000D01*
X86293436Y-96010611D01*
X86102167Y-95931385D01*
X86102166Y-95931385D01*
X86102165Y-95931384D01*
X85930027Y-95816365D01*
X85783635Y-95669973D01*
X85668616Y-95497835D01*
X85634870Y-95416365D01*
X85589389Y-95306564D01*
X85549000Y-95103516D01*
X85549000Y-94896484D01*
X85589389Y-94693436D01*
X85668615Y-94502167D01*
X85783635Y-94330027D01*
X85930027Y-94183635D01*
X86102165Y-94068616D01*
X86102167Y-94068615D01*
X86293436Y-93989389D01*
X86496484Y-93949000D01*
X86703516Y-93949000D01*
X86906564Y-93989389D01*
X86906564Y-93989389D01*
G37*
G36*
X89406564Y-93989389D02*
G01*
X89597833Y-94068615D01*
X89597835Y-94068616D01*
X89769973Y-94183635D01*
X89916365Y-94330027D01*
X90031385Y-94502167D01*
X90110611Y-94693436D01*
X90151000Y-94896484D01*
X90151000Y-95103516D01*
X90110611Y-95306564D01*
X90065130Y-95416365D01*
X90031384Y-95497835D01*
X89916365Y-95669973D01*
X89769973Y-95816365D01*
X89597835Y-95931384D01*
X89597834Y-95931385D01*
X89597833Y-95931385D01*
X89406564Y-96010611D01*
X89203516Y-96051000D01*
X88996484Y-96051000D01*
X88793436Y-96010611D01*
X88602167Y-95931385D01*
X88602166Y-95931385D01*
X88602165Y-95931384D01*
X88430027Y-95816365D01*
X88283635Y-95669973D01*
X88168616Y-95497835D01*
X88134870Y-95416365D01*
X88089389Y-95306564D01*
X88049000Y-95103516D01*
X88049000Y-94896484D01*
X88089389Y-94693436D01*
X88168615Y-94502167D01*
X88283635Y-94330027D01*
X88430027Y-94183635D01*
X88602165Y-94068616D01*
X88602167Y-94068615D01*
X88793436Y-93989389D01*
X88996484Y-93949000D01*
X89203516Y-93949000D01*
X89406564Y-93989389D01*
X89406564Y-93989389D01*
G37*
G36*
X110151000Y-95651000D02*
G01*
X108049000Y-95651000D01*
X108049000Y-93549000D01*
X110151000Y-93549000D01*
X110151000Y-95651000D01*
X110151000Y-95651000D01*
G37*
G36*
X111906564Y-93589389D02*
G01*
X112097833Y-93668615D01*
X112097835Y-93668616D01*
X112269973Y-93783635D01*
X112416365Y-93930027D01*
X112508967Y-94068615D01*
X112531385Y-94102167D01*
X112610611Y-94293436D01*
X112651000Y-94496484D01*
X112651000Y-94703516D01*
X112610611Y-94906564D01*
X112531385Y-95097833D01*
X112531384Y-95097835D01*
X112416365Y-95269973D01*
X112269973Y-95416365D01*
X112097835Y-95531384D01*
X112097834Y-95531385D01*
X112097833Y-95531385D01*
X111906564Y-95610611D01*
X111703516Y-95651000D01*
X111496484Y-95651000D01*
X111293436Y-95610611D01*
X111102167Y-95531385D01*
X111102166Y-95531385D01*
X111102165Y-95531384D01*
X110930027Y-95416365D01*
X110783635Y-95269973D01*
X110668616Y-95097835D01*
X110668615Y-95097833D01*
X110589389Y-94906564D01*
X110549000Y-94703516D01*
X110549000Y-94496484D01*
X110589389Y-94293436D01*
X110668615Y-94102167D01*
X110691034Y-94068615D01*
X110783635Y-93930027D01*
X110930027Y-93783635D01*
X111102165Y-93668616D01*
X111102167Y-93668615D01*
X111293436Y-93589389D01*
X111496484Y-93549000D01*
X111703516Y-93549000D01*
X111906564Y-93589389D01*
X111906564Y-93589389D01*
G37*
G36*
X114406564Y-93589389D02*
G01*
X114597833Y-93668615D01*
X114597835Y-93668616D01*
X114769973Y-93783635D01*
X114916365Y-93930027D01*
X115008967Y-94068615D01*
X115031385Y-94102167D01*
X115110611Y-94293436D01*
X115151000Y-94496484D01*
X115151000Y-94703516D01*
X115110611Y-94906564D01*
X115031385Y-95097833D01*
X115031384Y-95097835D01*
X114916365Y-95269973D01*
X114769973Y-95416365D01*
X114597835Y-95531384D01*
X114597834Y-95531385D01*
X114597833Y-95531385D01*
X114406564Y-95610611D01*
X114203516Y-95651000D01*
X113996484Y-95651000D01*
X113793436Y-95610611D01*
X113602167Y-95531385D01*
X113602166Y-95531385D01*
X113602165Y-95531384D01*
X113430027Y-95416365D01*
X113283635Y-95269973D01*
X113168616Y-95097835D01*
X113168615Y-95097833D01*
X113089389Y-94906564D01*
X113049000Y-94703516D01*
X113049000Y-94496484D01*
X113089389Y-94293436D01*
X113168615Y-94102167D01*
X113191034Y-94068615D01*
X113283635Y-93930027D01*
X113430027Y-93783635D01*
X113602165Y-93668616D01*
X113602167Y-93668615D01*
X113793436Y-93589389D01*
X113996484Y-93549000D01*
X114203516Y-93549000D01*
X114406564Y-93589389D01*
X114406564Y-93589389D01*
G37*
G36*
X136051560Y-89179064D02*
G01*
X136203027Y-89209193D01*
X136417045Y-89297842D01*
X136417046Y-89297843D01*
X136609654Y-89426539D01*
X136773461Y-89590346D01*
X136859258Y-89718751D01*
X136902158Y-89782955D01*
X136990807Y-89996973D01*
X137036000Y-90224174D01*
X137036000Y-90455826D01*
X136990807Y-90683027D01*
X136902158Y-90897045D01*
X136902157Y-90897046D01*
X136773461Y-91089654D01*
X136609654Y-91253461D01*
X136481249Y-91339258D01*
X136417045Y-91382158D01*
X136203027Y-91470807D01*
X136051560Y-91500936D01*
X135975827Y-91516000D01*
X135744173Y-91516000D01*
X135668440Y-91500936D01*
X135516973Y-91470807D01*
X135302955Y-91382158D01*
X135238751Y-91339258D01*
X135110346Y-91253461D01*
X134946539Y-91089654D01*
X134817843Y-90897046D01*
X134817842Y-90897045D01*
X134729193Y-90683027D01*
X134684000Y-90455826D01*
X134684000Y-90224174D01*
X134729193Y-89996973D01*
X134817842Y-89782955D01*
X134860742Y-89718751D01*
X134946539Y-89590346D01*
X135110346Y-89426539D01*
X135302954Y-89297843D01*
X135302955Y-89297842D01*
X135516973Y-89209193D01*
X135668440Y-89179064D01*
X135744173Y-89164000D01*
X135975827Y-89164000D01*
X136051560Y-89179064D01*
X136051560Y-89179064D01*
G37*
G36*
X141131560Y-89179064D02*
G01*
X141283027Y-89209193D01*
X141497045Y-89297842D01*
X141497046Y-89297843D01*
X141689654Y-89426539D01*
X141853461Y-89590346D01*
X141939258Y-89718751D01*
X141982158Y-89782955D01*
X142070807Y-89996973D01*
X142116000Y-90224174D01*
X142116000Y-90455826D01*
X142070807Y-90683027D01*
X141982158Y-90897045D01*
X141982157Y-90897046D01*
X141853461Y-91089654D01*
X141689654Y-91253461D01*
X141561249Y-91339258D01*
X141497045Y-91382158D01*
X141283027Y-91470807D01*
X141131560Y-91500936D01*
X141055827Y-91516000D01*
X140824173Y-91516000D01*
X140748440Y-91500936D01*
X140596973Y-91470807D01*
X140382955Y-91382158D01*
X140318751Y-91339258D01*
X140190346Y-91253461D01*
X140026539Y-91089654D01*
X139897843Y-90897046D01*
X139897842Y-90897045D01*
X139809193Y-90683027D01*
X139764000Y-90455826D01*
X139764000Y-90224174D01*
X139809193Y-89996973D01*
X139897842Y-89782955D01*
X139940742Y-89718751D01*
X140026539Y-89590346D01*
X140190346Y-89426539D01*
X140382954Y-89297843D01*
X140382955Y-89297842D01*
X140596973Y-89209193D01*
X140748440Y-89179064D01*
X140824173Y-89164000D01*
X141055827Y-89164000D01*
X141131560Y-89179064D01*
X141131560Y-89179064D01*
G37*
G36*
X138575271Y-86737783D02*
G01*
X138713858Y-86765350D01*
X138909677Y-86846461D01*
X139085910Y-86964216D01*
X139235784Y-87114090D01*
X139353539Y-87290323D01*
X139434650Y-87486142D01*
X139476000Y-87694023D01*
X139476000Y-87905977D01*
X139434650Y-88113858D01*
X139353539Y-88309677D01*
X139235784Y-88485910D01*
X139085910Y-88635784D01*
X138909677Y-88753539D01*
X138713858Y-88834650D01*
X138575271Y-88862217D01*
X138505978Y-88876000D01*
X138294022Y-88876000D01*
X138224729Y-88862217D01*
X138086142Y-88834650D01*
X137890323Y-88753539D01*
X137714090Y-88635784D01*
X137564216Y-88485910D01*
X137446461Y-88309677D01*
X137365350Y-88113858D01*
X137324000Y-87905977D01*
X137324000Y-87694023D01*
X137365350Y-87486142D01*
X137446461Y-87290323D01*
X137564216Y-87114090D01*
X137714090Y-86964216D01*
X137890323Y-86846461D01*
X138086142Y-86765350D01*
X138224729Y-86737783D01*
X138294022Y-86724000D01*
X138505978Y-86724000D01*
X138575271Y-86737783D01*
X138575271Y-86737783D01*
G37*
G36*
X141131560Y-84099064D02*
G01*
X141283027Y-84129193D01*
X141497045Y-84217842D01*
X141497046Y-84217843D01*
X141689654Y-84346539D01*
X141853461Y-84510346D01*
X141939258Y-84638751D01*
X141982158Y-84702955D01*
X142070807Y-84916973D01*
X142116000Y-85144174D01*
X142116000Y-85375826D01*
X142070807Y-85603027D01*
X141982158Y-85817045D01*
X141982157Y-85817046D01*
X141853461Y-86009654D01*
X141689654Y-86173461D01*
X141561249Y-86259258D01*
X141497045Y-86302158D01*
X141283027Y-86390807D01*
X141131560Y-86420936D01*
X141055827Y-86436000D01*
X140824173Y-86436000D01*
X140748440Y-86420936D01*
X140596973Y-86390807D01*
X140382955Y-86302158D01*
X140318751Y-86259258D01*
X140190346Y-86173461D01*
X140026539Y-86009654D01*
X139897843Y-85817046D01*
X139897842Y-85817045D01*
X139809193Y-85603027D01*
X139764000Y-85375826D01*
X139764000Y-85144174D01*
X139809193Y-84916973D01*
X139897842Y-84702955D01*
X139940742Y-84638751D01*
X140026539Y-84510346D01*
X140190346Y-84346539D01*
X140382954Y-84217843D01*
X140382955Y-84217842D01*
X140596973Y-84129193D01*
X140748440Y-84099064D01*
X140824173Y-84084000D01*
X141055827Y-84084000D01*
X141131560Y-84099064D01*
X141131560Y-84099064D01*
G37*
G36*
X136051560Y-84099064D02*
G01*
X136203027Y-84129193D01*
X136417045Y-84217842D01*
X136417046Y-84217843D01*
X136609654Y-84346539D01*
X136773461Y-84510346D01*
X136859258Y-84638751D01*
X136902158Y-84702955D01*
X136990807Y-84916973D01*
X137036000Y-85144174D01*
X137036000Y-85375826D01*
X136990807Y-85603027D01*
X136902158Y-85817045D01*
X136902157Y-85817046D01*
X136773461Y-86009654D01*
X136609654Y-86173461D01*
X136481249Y-86259258D01*
X136417045Y-86302158D01*
X136203027Y-86390807D01*
X136051560Y-86420936D01*
X135975827Y-86436000D01*
X135744173Y-86436000D01*
X135668440Y-86420936D01*
X135516973Y-86390807D01*
X135302955Y-86302158D01*
X135238751Y-86259258D01*
X135110346Y-86173461D01*
X134946539Y-86009654D01*
X134817843Y-85817046D01*
X134817842Y-85817045D01*
X134729193Y-85603027D01*
X134684000Y-85375826D01*
X134684000Y-85144174D01*
X134729193Y-84916973D01*
X134817842Y-84702955D01*
X134860742Y-84638751D01*
X134946539Y-84510346D01*
X135110346Y-84346539D01*
X135302954Y-84217843D01*
X135302955Y-84217842D01*
X135516973Y-84129193D01*
X135668440Y-84099064D01*
X135744173Y-84084000D01*
X135975827Y-84084000D01*
X136051560Y-84099064D01*
X136051560Y-84099064D01*
G37*
G36*
X90151000Y-82151000D02*
G01*
X88049000Y-82151000D01*
X88049000Y-80049000D01*
X90151000Y-80049000D01*
X90151000Y-82151000D01*
X90151000Y-82151000D01*
G37*
G36*
X109406564Y-80089389D02*
G01*
X109597833Y-80168615D01*
X109597835Y-80168616D01*
X109769973Y-80283635D01*
X109916365Y-80430027D01*
X110031385Y-80602167D01*
X110110611Y-80793436D01*
X110151000Y-80996484D01*
X110151000Y-81203516D01*
X110110611Y-81406564D01*
X110031385Y-81597833D01*
X110031384Y-81597835D01*
X109916365Y-81769973D01*
X109769973Y-81916365D01*
X109597835Y-82031384D01*
X109597834Y-82031385D01*
X109597833Y-82031385D01*
X109406564Y-82110611D01*
X109203516Y-82151000D01*
X108996484Y-82151000D01*
X108793436Y-82110611D01*
X108602167Y-82031385D01*
X108602166Y-82031385D01*
X108602165Y-82031384D01*
X108430027Y-81916365D01*
X108283635Y-81769973D01*
X108168616Y-81597835D01*
X108168615Y-81597833D01*
X108089389Y-81406564D01*
X108049000Y-81203516D01*
X108049000Y-80996484D01*
X108089389Y-80793436D01*
X108168615Y-80602167D01*
X108283635Y-80430027D01*
X108430027Y-80283635D01*
X108602165Y-80168616D01*
X108602167Y-80168615D01*
X108793436Y-80089389D01*
X108996484Y-80049000D01*
X109203516Y-80049000D01*
X109406564Y-80089389D01*
X109406564Y-80089389D01*
G37*
G36*
X111906564Y-80089389D02*
G01*
X112097833Y-80168615D01*
X112097835Y-80168616D01*
X112269973Y-80283635D01*
X112416365Y-80430027D01*
X112531385Y-80602167D01*
X112610611Y-80793436D01*
X112651000Y-80996484D01*
X112651000Y-81203516D01*
X112610611Y-81406564D01*
X112531385Y-81597833D01*
X112531384Y-81597835D01*
X112416365Y-81769973D01*
X112269973Y-81916365D01*
X112097835Y-82031384D01*
X112097834Y-82031385D01*
X112097833Y-82031385D01*
X111906564Y-82110611D01*
X111703516Y-82151000D01*
X111496484Y-82151000D01*
X111293436Y-82110611D01*
X111102167Y-82031385D01*
X111102166Y-82031385D01*
X111102165Y-82031384D01*
X110930027Y-81916365D01*
X110783635Y-81769973D01*
X110668616Y-81597835D01*
X110668615Y-81597833D01*
X110589389Y-81406564D01*
X110549000Y-81203516D01*
X110549000Y-80996484D01*
X110589389Y-80793436D01*
X110668615Y-80602167D01*
X110783635Y-80430027D01*
X110930027Y-80283635D01*
X111102165Y-80168616D01*
X111102167Y-80168615D01*
X111293436Y-80089389D01*
X111496484Y-80049000D01*
X111703516Y-80049000D01*
X111906564Y-80089389D01*
X111906564Y-80089389D01*
G37*
G36*
X115151000Y-82151000D02*
G01*
X113049000Y-82151000D01*
X113049000Y-80049000D01*
X115151000Y-80049000D01*
X115151000Y-82151000D01*
X115151000Y-82151000D01*
G37*
G36*
X84406564Y-80089389D02*
G01*
X84597833Y-80168615D01*
X84597835Y-80168616D01*
X84769973Y-80283635D01*
X84916365Y-80430027D01*
X85031385Y-80602167D01*
X85110611Y-80793436D01*
X85151000Y-80996484D01*
X85151000Y-81203516D01*
X85110611Y-81406564D01*
X85031385Y-81597833D01*
X85031384Y-81597835D01*
X84916365Y-81769973D01*
X84769973Y-81916365D01*
X84597835Y-82031384D01*
X84597834Y-82031385D01*
X84597833Y-82031385D01*
X84406564Y-82110611D01*
X84203516Y-82151000D01*
X83996484Y-82151000D01*
X83793436Y-82110611D01*
X83602167Y-82031385D01*
X83602166Y-82031385D01*
X83602165Y-82031384D01*
X83430027Y-81916365D01*
X83283635Y-81769973D01*
X83168616Y-81597835D01*
X83168615Y-81597833D01*
X83089389Y-81406564D01*
X83049000Y-81203516D01*
X83049000Y-80996484D01*
X83089389Y-80793436D01*
X83168615Y-80602167D01*
X83283635Y-80430027D01*
X83430027Y-80283635D01*
X83602165Y-80168616D01*
X83602167Y-80168615D01*
X83793436Y-80089389D01*
X83996484Y-80049000D01*
X84203516Y-80049000D01*
X84406564Y-80089389D01*
X84406564Y-80089389D01*
G37*
G36*
X86906564Y-80089389D02*
G01*
X87097833Y-80168615D01*
X87097835Y-80168616D01*
X87269973Y-80283635D01*
X87416365Y-80430027D01*
X87531385Y-80602167D01*
X87610611Y-80793436D01*
X87651000Y-80996484D01*
X87651000Y-81203516D01*
X87610611Y-81406564D01*
X87531385Y-81597833D01*
X87531384Y-81597835D01*
X87416365Y-81769973D01*
X87269973Y-81916365D01*
X87097835Y-82031384D01*
X87097834Y-82031385D01*
X87097833Y-82031385D01*
X86906564Y-82110611D01*
X86703516Y-82151000D01*
X86496484Y-82151000D01*
X86293436Y-82110611D01*
X86102167Y-82031385D01*
X86102166Y-82031385D01*
X86102165Y-82031384D01*
X85930027Y-81916365D01*
X85783635Y-81769973D01*
X85668616Y-81597835D01*
X85668615Y-81597833D01*
X85589389Y-81406564D01*
X85549000Y-81203516D01*
X85549000Y-80996484D01*
X85589389Y-80793436D01*
X85668615Y-80602167D01*
X85783635Y-80430027D01*
X85930027Y-80283635D01*
X86102165Y-80168616D01*
X86102167Y-80168615D01*
X86293436Y-80089389D01*
X86496484Y-80049000D01*
X86703516Y-80049000D01*
X86906564Y-80089389D01*
X86906564Y-80089389D01*
G37*
G36*
X112234239Y-60811467D02*
G01*
X112548282Y-60873934D01*
X113139926Y-61119001D01*
X113672392Y-61474784D01*
X114125216Y-61927608D01*
X114480999Y-62460074D01*
X114726066Y-63051718D01*
X114851000Y-63679804D01*
X114851000Y-64320196D01*
X114726066Y-64948282D01*
X114480999Y-65539926D01*
X114125216Y-66072392D01*
X113672392Y-66525216D01*
X113139926Y-66880999D01*
X112548282Y-67126066D01*
X112234239Y-67188533D01*
X111920197Y-67251000D01*
X111279803Y-67251000D01*
X110965761Y-67188533D01*
X110651718Y-67126066D01*
X110060074Y-66880999D01*
X109527608Y-66525216D01*
X109074784Y-66072392D01*
X108719001Y-65539926D01*
X108473934Y-64948282D01*
X108349000Y-64320196D01*
X108349000Y-63679804D01*
X108473934Y-63051718D01*
X108719001Y-62460074D01*
X109074784Y-61927608D01*
X109527608Y-61474784D01*
X110060074Y-61119001D01*
X110651718Y-60873934D01*
X110965761Y-60811467D01*
X111279803Y-60749000D01*
X111920197Y-60749000D01*
X112234239Y-60811467D01*
X112234239Y-60811467D01*
G37*
G36*
X87234239Y-60811467D02*
G01*
X87548282Y-60873934D01*
X88139926Y-61119001D01*
X88672392Y-61474784D01*
X89125216Y-61927608D01*
X89480999Y-62460074D01*
X89726066Y-63051718D01*
X89851000Y-63679804D01*
X89851000Y-64320196D01*
X89726066Y-64948282D01*
X89480999Y-65539926D01*
X89125216Y-66072392D01*
X88672392Y-66525216D01*
X88139926Y-66880999D01*
X87548282Y-67126066D01*
X87234239Y-67188533D01*
X86920197Y-67251000D01*
X86279803Y-67251000D01*
X85965761Y-67188533D01*
X85651718Y-67126066D01*
X85060074Y-66880999D01*
X84527608Y-66525216D01*
X84074784Y-66072392D01*
X83719001Y-65539926D01*
X83473934Y-64948282D01*
X83349000Y-64320196D01*
X83349000Y-63679804D01*
X83473934Y-63051718D01*
X83719001Y-62460074D01*
X84074784Y-61927608D01*
X84527608Y-61474784D01*
X85060074Y-61119001D01*
X85651718Y-60873934D01*
X85965761Y-60811467D01*
X86279803Y-60749000D01*
X86920197Y-60749000D01*
X87234239Y-60811467D01*
X87234239Y-60811467D01*
G37*
M02*
