  0
SECTION
  2
HEADER
  9
$ANGBASE
  50
0.0
  9
$ANGDIR
  70
  1
  9
$MEASUREMENT
  70
0
  0
ENDSEC
  0
SECTION
  2
TABLES
  0
TABLE
  2
LTYPE
  70
4
  0
LTYPE
  5
40F
  2
CONTINUOUS
  70
0
  3
Solid line
  72
65
  73
0
  40
0.0
  0
LTYPE
  5
410
  2
DASHDOT
 70
0
  3
Dash Dot ____ _ ____ _
 72
65
 73
4
 40
2.0
 49
1.25
 49
-0.25
 49
0.25
 49
-0.25
  0
LTYPE
  5
411
  2
DASHED
 70
0
  3
Dashed __ __ __ __ __
 72
65
 73
2
 40
0.75
 49
0.5
 49
-0.25
  0
LTYPE
  5
43B
  2
DOTTED
 70
0
  3
Dotted .  .  .  .
 72
65
 73
2
 40
0.2
 49
0.0
 49
-0.2
  0
ENDTAB
  0
TABLE
  2
STYLE
  70
4
  0
STYLE
  2
KICAD
  70
0
  40
0
  41
1
  42
1
  50
0
  71
0
  3
isocp.shx
  0
STYLE
  2
KICADB
  70
0
  40
0
  41
1
  42
1
  50
0
  71
0
  3
isocp.shx
  0
STYLE
  2
KICADI
  70
0
  40
0
  41
1
  42
1
  50
15
  71
0
  3
isocp.shx
  0
STYLE
  2
KICADBI
  70
0
  40
0
  41
1
  42
1
  50
15
  71
0
  3
isocp.shx
  0
ENDTAB
  0
TABLE
  2
LAYER
  70
30
  0
LAYER
  2
BLACK
  70
0
  62
7
  6
CONTINUOUS
  0
LAYER
  2
GRAY1
  70
0
  62
251
  6
CONTINUOUS
  0
LAYER
  2
GRAY2
  70
0
  62
8
  6
CONTINUOUS
  0
LAYER
  2
GRAY3
  70
0
  62
9
  6
CONTINUOUS
  0
LAYER
  2
WHITE
  70
0
  62
7
  6
CONTINUOUS
  0
LAYER
  2
LYELLOW
  70
0
  62
51
  6
CONTINUOUS
  0
LAYER
  2
BLUE1
  70
0
  62
178
  6
CONTINUOUS
  0
LAYER
  2
GREEN1
  70
0
  62
98
  6
CONTINUOUS
  0
LAYER
  2
CYAN1
  70
0
  62
138
  6
CONTINUOUS
  0
LAYER
  2
RED1
  70
0
  62
18
  6
CONTINUOUS
  0
LAYER
  2
MAGENTA1
  70
0
  62
228
  6
CONTINUOUS
  0
LAYER
  2
BROWN1
  70
0
  62
58
  6
CONTINUOUS
  0
LAYER
  2
BLUE2
  70
0
  62
5
  6
CONTINUOUS
  0
LAYER
  2
GREEN2
  70
0
  62
3
  6
CONTINUOUS
  0
LAYER
  2
CYAN2
  70
0
  62
4
  6
CONTINUOUS
  0
LAYER
  2
RED2
  70
0
  62
1
  6
CONTINUOUS
  0
LAYER
  2
MAGENTA2
  70
0
  62
6
  6
CONTINUOUS
  0
LAYER
  2
BROWN2
  70
0
  62
54
  6
CONTINUOUS
  0
LAYER
  2
BLUE3
  70
0
  62
171
  6
CONTINUOUS
  0
LAYER
  2
GREEN3
  70
0
  62
91
  6
CONTINUOUS
  0
LAYER
  2
CYAN3
  70
0
  62
131
  6
CONTINUOUS
  0
LAYER
  2
RED3
  70
0
  62
11
  6
CONTINUOUS
  0
LAYER
  2
MAGENTA3
  70
0
  62
221
  6
CONTINUOUS
  0
LAYER
  2
YELLOW3
  70
0
  62
2
  6
CONTINUOUS
  0
LAYER
  2
BLUE4
  70
0
  62
5
  6
CONTINUOUS
  0
LAYER
  2
GREEN4
  70
0
  62
3
  6
CONTINUOUS
  0
LAYER
  2
CYAN4
  70
0
  62
4
  6
CONTINUOUS
  0
LAYER
  2
RED4
  70
0
  62
1
  6
CONTINUOUS
  0
LAYER
  2
MAGENTA4
  70
0
  62
6
  6
CONTINUOUS
  0
LAYER
  2
YELLOW4
  70
0
  62
2
  6
CONTINUOUS
  0
ENDTAB
  0
ENDSEC
  0
SECTION
  2
ENTITIES
0
LINE
8
BLACK
6
CONTINUOUS
10
142.191
20
-59.9673
11
142.2
21
-59.9692
0
LINE
8
BLACK
6
CONTINUOUS
10
142.2
20
-59.9692
11
142.209
21
-59.9709
0
LINE
8
BLACK
6
CONTINUOUS
10
142.209
20
-59.9709
11
142.863
21
-60.1684
0
LINE
8
BLACK
6
CONTINUOUS
10
142.863
20
-60.1684
11
142.863
21
-60.1684
0
LINE
8
BLACK
6
CONTINUOUS
10
142.863
20
-60.1684
11
142.864
21
-60.1688
0
LINE
8
BLACK
6
CONTINUOUS
10
142.864
20
-60.1688
11
142.872
21
-60.1723
0
LINE
8
BLACK
6
CONTINUOUS
10
142.872
20
-60.1723
11
142.881
21
-60.1758
0
LINE
8
BLACK
6
CONTINUOUS
10
142.881
20
-60.1758
11
143.484
21
-60.4965
0
LINE
8
BLACK
6
CONTINUOUS
10
143.484
20
-60.4965
11
143.484
21
-60.4965
0
LINE
8
BLACK
6
CONTINUOUS
10
143.484
20
-60.4965
11
143.484
21
-60.4965
0
LINE
8
BLACK
6
CONTINUOUS
10
143.484
20
-60.4965
11
143.485
21
-60.4971
0
LINE
8
BLACK
6
CONTINUOUS
10
143.485
20
-60.4971
11
143.492
21
-60.5022
0
LINE
8
BLACK
6
CONTINUOUS
10
143.492
20
-60.5022
11
143.5
21
-60.5073
0
LINE
8
BLACK
6
CONTINUOUS
10
143.5
20
-60.5073
11
144.029
21
-60.939
0
LINE
8
BLACK
6
CONTINUOUS
10
144.029
20
-60.939
11
144.03
21
-60.9399
0
LINE
8
BLACK
6
CONTINUOUS
10
144.03
20
-60.9399
11
144.037
21
-60.9464
0
LINE
8
BLACK
6
CONTINUOUS
10
144.037
20
-60.9464
11
144.043
21
-60.9528
0
LINE
8
BLACK
6
CONTINUOUS
10
144.043
20
-60.9528
11
144.479
21
-61.4791
0
LINE
8
BLACK
6
CONTINUOUS
10
144.479
20
-61.4791
11
144.479
21
-61.4791
0
LINE
8
BLACK
6
CONTINUOUS
10
144.479
20
-61.4791
11
144.479
21
-61.4791
0
LINE
8
BLACK
6
CONTINUOUS
10
144.479
20
-61.4791
11
144.48
21
-61.4802
0
LINE
8
BLACK
6
CONTINUOUS
10
144.48
20
-61.4802
11
144.485
21
-61.4878
0
LINE
8
BLACK
6
CONTINUOUS
10
144.485
20
-61.4878
11
144.49
21
-61.4953
0
LINE
8
BLACK
6
CONTINUOUS
10
144.49
20
-61.4953
11
144.814
21
-62.0961
0
LINE
8
BLACK
6
CONTINUOUS
10
144.814
20
-62.0961
11
144.815
21
-62.0974
0
LINE
8
BLACK
6
CONTINUOUS
10
144.815
20
-62.0974
11
144.819
21
-62.1058
0
LINE
8
BLACK
6
CONTINUOUS
10
144.819
20
-62.1058
11
144.822
21
-62.1141
0
LINE
8
BLACK
6
CONTINUOUS
10
144.822
20
-62.1141
11
145.024
21
-62.7667
0
LINE
8
BLACK
6
CONTINUOUS
10
145.024
20
-62.7667
11
145.024
21
-62.768
0
LINE
8
BLACK
6
CONTINUOUS
10
145.024
20
-62.768
11
145.026
21
-62.7769
0
LINE
8
BLACK
6
CONTINUOUS
10
145.026
20
-62.7769
11
145.028
21
-62.7858
0
LINE
8
BLACK
6
CONTINUOUS
10
145.028
20
-62.7858
11
145.099
21
-63.4651
0
LINE
8
BLACK
6
CONTINUOUS
10
145.099
20
-63.4651
11
145.1
21
-63.4665
0
LINE
8
BLACK
6
CONTINUOUS
10
145.1
20
-63.4665
11
145.099
21
-63.4709
0
LINE
8
BLACK
6
CONTINUOUS
10
145.099
20
-63.4709
11
145.1
21
-63.4752
0
LINE
8
BLACK
6
CONTINUOUS
10
145.1
20
-63.4752
11
145.1
21
-63.4949
0
LINE
8
BLACK
6
CONTINUOUS
10
145.1
20
-63.4949
11
145.1
21
-63.4951
0
LINE
8
BLACK
6
CONTINUOUS
10
145.1
20
-63.4951
11
145.1
21
-112.505
0
LINE
8
BLACK
6
CONTINUOUS
10
145.1
20
-112.505
11
145.1
21
-112.51
0
LINE
8
BLACK
6
CONTINUOUS
10
145.1
20
-112.51
11
145.1
21
-112.51
0
LINE
8
BLACK
6
CONTINUOUS
10
145.1
20
-112.51
11
145.033
21
-113.19
0
LINE
8
BLACK
6
CONTINUOUS
10
145.033
20
-113.19
11
145.033
21
-113.191
0
LINE
8
BLACK
6
CONTINUOUS
10
145.033
20
-113.191
11
145.031
21
-113.2
0
LINE
8
BLACK
6
CONTINUOUS
10
145.031
20
-113.2
11
145.029
21
-113.209
0
LINE
8
BLACK
6
CONTINUOUS
10
145.029
20
-113.209
11
144.832
21
-113.863
0
LINE
8
BLACK
6
CONTINUOUS
10
144.832
20
-113.863
11
144.831
21
-113.864
0
LINE
8
BLACK
6
CONTINUOUS
10
144.831
20
-113.864
11
144.828
21
-113.872
0
LINE
8
BLACK
6
CONTINUOUS
10
144.828
20
-113.872
11
144.824
21
-113.881
0
LINE
8
BLACK
6
CONTINUOUS
10
144.824
20
-113.881
11
144.504
21
-114.484
0
LINE
8
BLACK
6
CONTINUOUS
10
144.504
20
-114.484
11
144.504
21
-114.484
0
LINE
8
BLACK
6
CONTINUOUS
10
144.504
20
-114.484
11
144.504
21
-114.484
0
LINE
8
BLACK
6
CONTINUOUS
10
144.504
20
-114.484
11
144.503
21
-114.485
0
LINE
8
BLACK
6
CONTINUOUS
10
144.503
20
-114.485
11
144.498
21
-114.493
0
LINE
8
BLACK
6
CONTINUOUS
10
144.498
20
-114.493
11
144.493
21
-114.5
0
LINE
8
BLACK
6
CONTINUOUS
10
144.493
20
-114.5
11
144.061
21
-115.029
0
LINE
8
BLACK
6
CONTINUOUS
10
144.061
20
-115.029
11
144.06
21
-115.03
0
LINE
8
BLACK
6
CONTINUOUS
10
144.06
20
-115.03
11
144.054
21
-115.037
0
LINE
8
BLACK
6
CONTINUOUS
10
144.054
20
-115.037
11
144.047
21
-115.043
0
LINE
8
BLACK
6
CONTINUOUS
10
144.047
20
-115.043
11
143.521
21
-115.479
0
LINE
8
BLACK
6
CONTINUOUS
10
143.521
20
-115.479
11
143.521
21
-115.479
0
LINE
8
BLACK
6
CONTINUOUS
10
143.521
20
-115.479
11
143.521
21
-115.479
0
LINE
8
BLACK
6
CONTINUOUS
10
143.521
20
-115.479
11
143.52
21
-115.48
0
LINE
8
BLACK
6
CONTINUOUS
10
143.52
20
-115.48
11
143.512
21
-115.484
0
LINE
8
BLACK
6
CONTINUOUS
10
143.512
20
-115.484
11
143.505
21
-115.49
0
LINE
8
BLACK
6
CONTINUOUS
10
143.505
20
-115.49
11
142.904
21
-115.814
0
LINE
8
BLACK
6
CONTINUOUS
10
142.904
20
-115.814
11
142.904
21
-115.814
0
LINE
8
BLACK
6
CONTINUOUS
10
142.904
20
-115.814
11
142.904
21
-115.814
0
LINE
8
BLACK
6
CONTINUOUS
10
142.904
20
-115.814
11
142.903
21
-115.815
0
LINE
8
BLACK
6
CONTINUOUS
10
142.903
20
-115.815
11
142.894
21
-115.819
0
LINE
8
BLACK
6
CONTINUOUS
10
142.894
20
-115.819
11
142.886
21
-115.822
0
LINE
8
BLACK
6
CONTINUOUS
10
142.886
20
-115.822
11
142.233
21
-116.024
0
LINE
8
BLACK
6
CONTINUOUS
10
142.233
20
-116.024
11
142.232
21
-116.024
0
LINE
8
BLACK
6
CONTINUOUS
10
142.232
20
-116.024
11
142.223
21
-116.026
0
LINE
8
BLACK
6
CONTINUOUS
10
142.223
20
-116.026
11
142.214
21
-116.028
0
LINE
8
BLACK
6
CONTINUOUS
10
142.214
20
-116.028
11
141.535
21
-116.099
0
LINE
8
BLACK
6
CONTINUOUS
10
141.535
20
-116.099
11
141.533
21
-116.1
0
LINE
8
BLACK
6
CONTINUOUS
10
141.533
20
-116.1
11
141.529
21
-116.099
0
LINE
8
BLACK
6
CONTINUOUS
10
141.529
20
-116.099
11
141.525
21
-116.1
0
LINE
8
BLACK
6
CONTINUOUS
10
141.525
20
-116.1
11
141.505
21
-116.1
0
LINE
8
BLACK
6
CONTINUOUS
10
141.505
20
-116.1
11
141.505
21
-116.1
0
LINE
8
BLACK
6
CONTINUOUS
10
141.505
20
-116.1
11
63.4951
21
-116.1
0
LINE
8
BLACK
6
CONTINUOUS
10
63.4951
20
-116.1
11
63.4903
21
-116.1
0
LINE
8
BLACK
6
CONTINUOUS
10
63.4903
20
-116.1
11
63.4902
21
-116.1
0
LINE
8
BLACK
6
CONTINUOUS
10
63.4902
20
-116.1
11
62.8104
21
-116.033
0
LINE
8
BLACK
6
CONTINUOUS
10
62.8104
20
-116.033
11
62.8104
21
-116.033
0
LINE
8
BLACK
6
CONTINUOUS
10
62.8104
20
-116.033
11
62.809
21
-116.033
0
LINE
8
BLACK
6
CONTINUOUS
10
62.809
20
-116.033
11
62.8002
21
-116.031
0
LINE
8
BLACK
6
CONTINUOUS
10
62.8002
20
-116.031
11
62.7913
21
-116.029
0
LINE
8
BLACK
6
CONTINUOUS
10
62.7913
20
-116.029
11
62.1374
21
-115.832
0
LINE
8
BLACK
6
CONTINUOUS
10
62.1374
20
-115.832
11
62.1373
21
-115.832
0
LINE
8
BLACK
6
CONTINUOUS
10
62.1373
20
-115.832
11
62.136
21
-115.831
0
LINE
8
BLACK
6
CONTINUOUS
10
62.136
20
-115.831
11
62.1277
21
-115.828
0
LINE
8
BLACK
6
CONTINUOUS
10
62.1277
20
-115.828
11
62.1193
21
-115.824
0
LINE
8
BLACK
6
CONTINUOUS
10
62.1193
20
-115.824
11
61.5162
21
-115.504
0
LINE
8
BLACK
6
CONTINUOUS
10
61.5162
20
-115.504
11
61.5162
21
-115.504
0
LINE
8
BLACK
6
CONTINUOUS
10
61.5162
20
-115.504
11
61.5162
21
-115.504
0
LINE
8
BLACK
6
CONTINUOUS
10
61.5162
20
-115.504
11
61.515
21
-115.503
0
LINE
8
BLACK
6
CONTINUOUS
10
61.515
20
-115.503
11
61.5075
21
-115.498
0
LINE
8
BLACK
6
CONTINUOUS
10
61.5075
20
-115.498
11
61.4999
21
-115.493
0
LINE
8
BLACK
6
CONTINUOUS
10
61.4999
20
-115.493
11
60.9706
21
-115.061
0
LINE
8
BLACK
6
CONTINUOUS
10
60.9706
20
-115.061
11
60.9695
21
-115.06
0
LINE
8
BLACK
6
CONTINUOUS
10
60.9695
20
-115.06
11
60.9632
21
-115.054
0
LINE
8
BLACK
6
CONTINUOUS
10
60.9632
20
-115.054
11
60.9567
21
-115.047
0
LINE
8
BLACK
6
CONTINUOUS
10
60.9567
20
-115.047
11
60.5213
21
-114.521
0
LINE
8
BLACK
6
CONTINUOUS
10
60.5213
20
-114.521
11
60.5213
21
-114.521
0
LINE
8
BLACK
6
CONTINUOUS
10
60.5213
20
-114.521
11
60.5213
21
-114.521
0
LINE
8
BLACK
6
CONTINUOUS
10
60.5213
20
-114.521
11
60.5204
21
-114.52
0
LINE
8
BLACK
6
CONTINUOUS
10
60.5204
20
-114.52
11
60.5155
21
-114.512
0
LINE
8
BLACK
6
CONTINUOUS
10
60.5155
20
-114.512
11
60.5104
21
-114.505
0
LINE
8
BLACK
6
CONTINUOUS
10
60.5104
20
-114.505
11
60.1855
21
-113.904
0
LINE
8
BLACK
6
CONTINUOUS
10
60.1855
20
-113.904
11
60.1855
21
-113.904
0
LINE
8
BLACK
6
CONTINUOUS
10
60.1855
20
-113.904
11
60.1855
21
-113.904
0
LINE
8
BLACK
6
CONTINUOUS
10
60.1855
20
-113.904
11
60.1849
21
-113.903
0
LINE
8
BLACK
6
CONTINUOUS
10
60.1849
20
-113.903
11
60.1815
21
-113.894
0
LINE
8
BLACK
6
CONTINUOUS
10
60.1815
20
-113.894
11
60.178
21
-113.886
0
LINE
8
BLACK
6
CONTINUOUS
10
60.178
20
-113.886
11
59.976
21
-113.233
0
LINE
8
BLACK
6
CONTINUOUS
10
59.976
20
-113.233
11
59.9756
21
-113.232
0
LINE
8
BLACK
6
CONTINUOUS
10
59.9756
20
-113.232
11
59.9739
21
-113.223
0
LINE
8
BLACK
6
CONTINUOUS
10
59.9739
20
-113.223
11
59.972
21
-113.214
0
LINE
8
BLACK
6
CONTINUOUS
10
59.972
20
-113.214
11
59.9006
21
-112.535
0
LINE
8
BLACK
6
CONTINUOUS
10
59.9006
20
-112.535
11
59.9005
21
-112.533
0
LINE
8
BLACK
6
CONTINUOUS
10
59.9005
20
-112.533
11
59.9005
21
-112.529
0
LINE
8
BLACK
6
CONTINUOUS
10
59.9005
20
-112.529
11
59.9001
21
-112.525
0
LINE
8
BLACK
6
CONTINUOUS
10
59.9001
20
-112.525
11
59.9
21
-112.505
0
LINE
8
BLACK
6
CONTINUOUS
10
59.9
20
-112.505
11
59.9
21
-112.505
0
LINE
8
BLACK
6
CONTINUOUS
10
59.9
20
-112.505
11
59.9
21
-63.4951
0
LINE
8
BLACK
6
CONTINUOUS
10
59.9
20
-63.4951
11
59.9005
21
-63.4903
0
LINE
8
BLACK
6
CONTINUOUS
10
59.9005
20
-63.4903
11
59.9005
21
-63.4902
0
LINE
8
BLACK
6
CONTINUOUS
10
59.9005
20
-63.4902
11
59.9671
21
-62.8104
0
LINE
8
BLACK
6
CONTINUOUS
10
59.9671
20
-62.8104
11
59.9673
21
-62.809
0
LINE
8
BLACK
6
CONTINUOUS
10
59.9673
20
-62.809
11
59.9692
21
-62.8002
0
LINE
8
BLACK
6
CONTINUOUS
10
59.9692
20
-62.8002
11
59.9709
21
-62.7913
0
LINE
8
BLACK
6
CONTINUOUS
10
59.9709
20
-62.7913
11
60.1684
21
-62.1374
0
LINE
8
BLACK
6
CONTINUOUS
10
60.1684
20
-62.1374
11
60.1688
21
-62.136
0
LINE
8
BLACK
6
CONTINUOUS
10
60.1688
20
-62.136
11
60.1723
21
-62.1277
0
LINE
8
BLACK
6
CONTINUOUS
10
60.1723
20
-62.1277
11
60.1758
21
-62.1193
0
LINE
8
BLACK
6
CONTINUOUS
10
60.1758
20
-62.1193
11
60.4965
21
-61.5162
0
LINE
8
BLACK
6
CONTINUOUS
10
60.4965
20
-61.5162
11
60.4965
21
-61.5162
0
LINE
8
BLACK
6
CONTINUOUS
10
60.4965
20
-61.5162
11
60.4965
21
-61.5162
0
LINE
8
BLACK
6
CONTINUOUS
10
60.4965
20
-61.5162
11
60.4971
21
-61.515
0
LINE
8
BLACK
6
CONTINUOUS
10
60.4971
20
-61.515
11
60.5022
21
-61.5075
0
LINE
8
BLACK
6
CONTINUOUS
10
60.5022
20
-61.5075
11
60.5073
21
-61.4999
0
LINE
8
BLACK
6
CONTINUOUS
10
60.5073
20
-61.4999
11
60.939
21
-60.9706
0
LINE
8
BLACK
6
CONTINUOUS
10
60.939
20
-60.9706
11
60.9399
21
-60.9695
0
LINE
8
BLACK
6
CONTINUOUS
10
60.9399
20
-60.9695
11
60.9464
21
-60.9632
0
LINE
8
BLACK
6
CONTINUOUS
10
60.9464
20
-60.9632
11
60.9528
21
-60.9567
0
LINE
8
BLACK
6
CONTINUOUS
10
60.9528
20
-60.9567
11
61.4791
21
-60.5213
0
LINE
8
BLACK
6
CONTINUOUS
10
61.4791
20
-60.5213
11
61.4791
21
-60.5213
0
LINE
8
BLACK
6
CONTINUOUS
10
61.4791
20
-60.5213
11
61.4791
21
-60.5213
0
LINE
8
BLACK
6
CONTINUOUS
10
61.4791
20
-60.5213
11
61.4802
21
-60.5204
0
LINE
8
BLACK
6
CONTINUOUS
10
61.4802
20
-60.5204
11
61.4878
21
-60.5155
0
LINE
8
BLACK
6
CONTINUOUS
10
61.4878
20
-60.5155
11
61.4953
21
-60.5104
0
LINE
8
BLACK
6
CONTINUOUS
10
61.4953
20
-60.5104
11
62.0961
21
-60.1855
0
LINE
8
BLACK
6
CONTINUOUS
10
62.0961
20
-60.1855
11
62.0974
21
-60.1849
0
LINE
8
BLACK
6
CONTINUOUS
10
62.0974
20
-60.1849
11
62.1058
21
-60.1815
0
LINE
8
BLACK
6
CONTINUOUS
10
62.1058
20
-60.1815
11
62.1141
21
-60.178
0
LINE
8
BLACK
6
CONTINUOUS
10
62.1141
20
-60.178
11
62.7667
21
-59.976
0
LINE
8
BLACK
6
CONTINUOUS
10
62.7667
20
-59.976
11
62.768
21
-59.9756
0
LINE
8
BLACK
6
CONTINUOUS
10
62.768
20
-59.9756
11
62.7769
21
-59.9739
0
LINE
8
BLACK
6
CONTINUOUS
10
62.7769
20
-59.9739
11
62.7858
21
-59.972
0
LINE
8
BLACK
6
CONTINUOUS
10
62.7858
20
-59.972
11
63.4651
21
-59.9006
0
LINE
8
BLACK
6
CONTINUOUS
10
63.4651
20
-59.9006
11
63.4665
21
-59.9005
0
LINE
8
BLACK
6
CONTINUOUS
10
63.4665
20
-59.9005
11
63.4709
21
-59.9005
0
LINE
8
BLACK
6
CONTINUOUS
10
63.4709
20
-59.9005
11
63.4752
21
-59.9001
0
LINE
8
BLACK
6
CONTINUOUS
10
63.4752
20
-59.9001
11
63.4949
21
-59.9
0
LINE
8
BLACK
6
CONTINUOUS
10
63.4949
20
-59.9
11
63.4951
21
-59.9
0
LINE
8
BLACK
6
CONTINUOUS
10
63.4951
20
-59.9
11
141.505
21
-59.9
0
LINE
8
BLACK
6
CONTINUOUS
10
141.505
20
-59.9
11
141.51
21
-59.9005
0
LINE
8
BLACK
6
CONTINUOUS
10
141.51
20
-59.9005
11
141.51
21
-59.9005
0
LINE
8
BLACK
6
CONTINUOUS
10
141.51
20
-59.9005
11
142.19
21
-59.9671
0
LINE
8
BLACK
6
CONTINUOUS
10
142.19
20
-59.9671
11
142.19
21
-59.9671
0
LINE
8
BLACK
6
CONTINUOUS
10
142.19
20
-59.9671
11
142.191
21
-59.9673
0
LINE
8
BLACK
6
CONTINUOUS
10
63.5001
20
-60.1
11
63.481
21
-60.1001
0
LINE
8
BLACK
6
CONTINUOUS
10
63.481
20
-60.1001
11
62.8164
21
-60.1699
0
LINE
8
BLACK
6
CONTINUOUS
10
62.8164
20
-60.1699
11
62.1826
21
-60.3661
0
LINE
8
BLACK
6
CONTINUOUS
10
62.1826
20
-60.3661
11
61.599
21
-60.6817
0
LINE
8
BLACK
6
CONTINUOUS
10
61.599
20
-60.6817
11
61.0878
21
-61.1046
0
LINE
8
BLACK
6
CONTINUOUS
10
61.0878
20
-61.1046
11
60.6685
21
-61.6187
0
LINE
8
BLACK
6
CONTINUOUS
10
60.6685
20
-61.6187
11
60.357
21
-62.2045
0
LINE
8
BLACK
6
CONTINUOUS
10
60.357
20
-62.2045
11
60.1652
21
-62.8397
0
LINE
8
BLACK
6
CONTINUOUS
10
60.1652
20
-62.8397
11
60.1
21
-63.5049
0
LINE
8
BLACK
6
CONTINUOUS
10
60.1
20
-63.5049
11
60.1
21
-112.5
0
LINE
8
BLACK
6
CONTINUOUS
10
60.1
20
-112.5
11
60.1001
21
-112.519
0
LINE
8
BLACK
6
CONTINUOUS
10
60.1001
20
-112.519
11
60.1699
21
-113.184
0
LINE
8
BLACK
6
CONTINUOUS
10
60.1699
20
-113.184
11
60.3661
21
-113.817
0
LINE
8
BLACK
6
CONTINUOUS
10
60.3661
20
-113.817
11
60.6817
21
-114.401
0
LINE
8
BLACK
6
CONTINUOUS
10
60.6817
20
-114.401
11
61.1046
21
-114.912
0
LINE
8
BLACK
6
CONTINUOUS
10
61.1046
20
-114.912
11
61.6187
21
-115.332
0
LINE
8
BLACK
6
CONTINUOUS
10
61.6187
20
-115.332
11
62.2045
21
-115.643
0
LINE
8
BLACK
6
CONTINUOUS
10
62.2045
20
-115.643
11
62.8397
21
-115.835
0
LINE
8
BLACK
6
CONTINUOUS
10
62.8397
20
-115.835
11
63.5049
21
-115.9
0
LINE
8
BLACK
6
CONTINUOUS
10
63.5049
20
-115.9
11
141.5
21
-115.9
0
LINE
8
BLACK
6
CONTINUOUS
10
141.5
20
-115.9
11
141.519
21
-115.9
0
LINE
8
BLACK
6
CONTINUOUS
10
141.519
20
-115.9
11
142.184
21
-115.83
0
LINE
8
BLACK
6
CONTINUOUS
10
142.184
20
-115.83
11
142.817
21
-115.634
0
LINE
8
BLACK
6
CONTINUOUS
10
142.817
20
-115.634
11
143.401
21
-115.318
0
LINE
8
BLACK
6
CONTINUOUS
10
143.401
20
-115.318
11
143.912
21
-114.895
0
LINE
8
BLACK
6
CONTINUOUS
10
143.912
20
-114.895
11
144.332
21
-114.381
0
LINE
8
BLACK
6
CONTINUOUS
10
144.332
20
-114.381
11
144.643
21
-113.795
0
LINE
8
BLACK
6
CONTINUOUS
10
144.643
20
-113.795
11
144.835
21
-113.16
0
LINE
8
BLACK
6
CONTINUOUS
10
144.835
20
-113.16
11
144.9
21
-112.495
0
LINE
8
BLACK
6
CONTINUOUS
10
144.9
20
-112.495
11
144.9
21
-63.5003
0
LINE
8
BLACK
6
CONTINUOUS
10
144.9
20
-63.5003
11
144.9
21
-63.481
0
LINE
8
BLACK
6
CONTINUOUS
10
144.9
20
-63.481
11
144.83
21
-62.8164
0
LINE
8
BLACK
6
CONTINUOUS
10
144.83
20
-62.8164
11
144.634
21
-62.1826
0
LINE
8
BLACK
6
CONTINUOUS
10
144.634
20
-62.1826
11
144.318
21
-61.599
0
LINE
8
BLACK
6
CONTINUOUS
10
144.318
20
-61.599
11
143.895
21
-61.0878
0
LINE
8
BLACK
6
CONTINUOUS
10
143.895
20
-61.0878
11
143.381
21
-60.6685
0
LINE
8
BLACK
6
CONTINUOUS
10
143.381
20
-60.6685
11
142.795
21
-60.357
0
LINE
8
BLACK
6
CONTINUOUS
10
142.795
20
-60.357
11
142.16
21
-60.1652
0
LINE
8
BLACK
6
CONTINUOUS
10
142.16
20
-60.1652
11
141.495
21
-60.1
0
LINE
8
BLACK
6
CONTINUOUS
10
141.495
20
-60.1
11
63.5001
21
-60.1
  0
ENDSEC
  0
EOF
